<svg viewBox="0 0 330 200" xmlns="http://www.w3.org/2000/svg"><g><g><g><g><g><line x1="50" y1="177" x2="45" y2="177" style="visibility: inherit;" fill="rgb(0, 0, 0)" stroke="rgb(204, 204, 204)" stroke-width="1px"></line><line x1="50" y1="151.71428571428572" x2="45" y2="151.71428571428572" style="visibility: inherit;" fill="rgb(0, 0, 0)" stroke="rgb(204, 204, 204)" stroke-width="1px"></line><line x1="50" y1="126.42857142857144" x2="45" y2="126.42857142857144" style="visibility: inherit;" fill="rgb(0, 0, 0)" stroke="rgb(204, 204, 204)" stroke-width="1px"></line><line x1="50" y1="101.14285714285714" x2="45" y2="101.14285714285714" style="visibility: inherit;" fill="rgb(0, 0, 0)" stroke="rgb(204, 204, 204)" stroke-width="1px"></line><line x1="50" y1="75.85714285714285" x2="45" y2="75.85714285714285" style="visibility: inherit;" fill="rgb(0, 0, 0)" stroke="rgb(204, 204, 204)" stroke-width="1px"></line><line x1="50" y1="50.57142857142857" x2="45" y2="50.57142857142857" style="visibility: inherit;" fill="rgb(0, 0, 0)" stroke="rgb(204, 204, 204)" stroke-width="1px"></line><line x1="50" y1="25.285714285714256" x2="45" y2="25.285714285714256" style="visibility: inherit;" fill="rgb(0, 0, 0)" stroke="rgb(204, 204, 204)" stroke-width="1px"></line><line x1="50" y1="0" x2="45" y2="0" style="visibility: inherit;" fill="rgb(0, 0, 0)" stroke="rgb(204, 204, 204)" stroke-width="1px"></line></g><g transform="translate(40, 0)"><text x="0" y="177" dx="0em" dy="0.3em" style="text-anchor: end; visibility: hidden; font-family: Roboto, sans-serif; font-size: 12px; font-weight: 200;" fill="rgb(33, 33, 33)" stroke="none" stroke-width="1px">0.25</text><text x="0" y="151.71428571428572" dx="0em" dy="0.3em" style="text-anchor: end; visibility: inherit; font-family: Roboto, sans-serif; font-size: 12px; font-weight: 200;" fill="rgb(33, 33, 33)" stroke="none" stroke-width="1px">0.3</text><text x="0" y="126.42857142857144" dx="0em" dy="0.3em" style="text-anchor: end; visibility: inherit; font-family: Roboto, sans-serif; font-size: 12px; font-weight: 200;" fill="rgb(33, 33, 33)" stroke="none" stroke-width="1px">0.35</text><text x="0" y="101.14285714285714" dx="0em" dy="0.3em" style="text-anchor: end; visibility: inherit; font-family: Roboto, sans-serif; font-size: 12px; font-weight: 200;" fill="rgb(33, 33, 33)" stroke="none" stroke-width="1px">0.4</text><text x="0" y="75.85714285714285" dx="0em" dy="0.3em" style="text-anchor: end; visibility: inherit; font-family: Roboto, sans-serif; font-size: 12px; font-weight: 200;" fill="rgb(33, 33, 33)" stroke="none" stroke-width="1px">0.45</text><text x="0" y="50.57142857142857" dx="0em" dy="0.3em" style="text-anchor: end; visibility: inherit; font-family: Roboto, sans-serif; font-size: 12px; font-weight: 200;" fill="rgb(33, 33, 33)" stroke="none" stroke-width="1px">0.5</text><text x="0" y="25.285714285714256" dx="0em" dy="0.3em" style="text-anchor: end; visibility: inherit; font-family: Roboto, sans-serif; font-size: 12px; font-weight: 200;" fill="rgb(33, 33, 33)" stroke="none" stroke-width="1px">0.55</text><text x="0" y="0" dx="0em" dy="0.3em" style="text-anchor: end; visibility: hidden; font-family: Roboto, sans-serif; font-size: 12px; font-weight: 200;" fill="rgb(33, 33, 33)" stroke="none" stroke-width="1px">0.6</text></g><line x1="50" y1="0" x2="50" y2="177" fill="rgb(0, 0, 0)" stroke="rgb(204, 204, 204)" stroke-width="1px"></line></g></g><g transform="translate(50, 0)" clip-path="url(#clip_0)"><clipPath id="clip_0"><rect width="280" height="177"></rect></clipPath><g><g><g><line x1="0" y1="0" x2="0" y2="177" fill="rgb(0, 0, 0)" stroke="rgb(66, 66, 66)" stroke-width="1px" opacity="0.25"></line><line x1="23.333333333333332" y1="0" x2="23.333333333333332" y2="177" fill="rgb(0, 0, 0)" stroke="rgb(66, 66, 66)" stroke-width="1px" opacity="0.25"></line><line x1="46.666666666666664" y1="0" x2="46.666666666666664" y2="177" fill="rgb(0, 0, 0)" stroke="rgb(66, 66, 66)" stroke-width="1px" opacity="0.25"></line><line x1="70" y1="0" x2="70" y2="177" fill="rgb(0, 0, 0)" stroke="rgb(66, 66, 66)" stroke-width="1px" opacity="0.25"></line><line x1="93.33333333333333" y1="0" x2="93.33333333333333" y2="177" fill="rgb(0, 0, 0)" stroke="rgb(66, 66, 66)" stroke-width="1px" opacity="0.25"></line><line x1="116.66666666666667" y1="0" x2="116.66666666666667" y2="177" fill="rgb(0, 0, 0)" stroke="rgb(66, 66, 66)" stroke-width="1px" opacity="0.25"></line><line x1="140" y1="0" x2="140" y2="177" fill="rgb(0, 0, 0)" stroke="rgb(66, 66, 66)" stroke-width="1px" opacity="0.25"></line><line x1="163.33333333333334" y1="0" x2="163.33333333333334" y2="177" fill="rgb(0, 0, 0)" stroke="rgb(66, 66, 66)" stroke-width="1px" opacity="0.25"></line><line x1="186.66666666666666" y1="0" x2="186.66666666666666" y2="177" fill="rgb(0, 0, 0)" stroke="rgb(66, 66, 66)" stroke-width="1px" opacity="0.25"></line><line x1="210" y1="0" x2="210" y2="177" fill="rgb(0, 0, 0)" stroke="rgb(66, 66, 66)" stroke-width="1px" opacity="0.25"></line><line x1="233.33333333333334" y1="0" x2="233.33333333333334" y2="177" fill="rgb(0, 0, 0)" stroke="rgb(66, 66, 66)" stroke-width="1px" opacity="0.25"></line><line x1="256.66666666666663" y1="0" x2="256.66666666666663" y2="177" fill="rgb(0, 0, 0)" stroke="rgb(66, 66, 66)" stroke-width="1px" opacity="0.25"></line><line x1="280" y1="0" x2="280" y2="177" fill="rgb(0, 0, 0)" stroke="rgb(66, 66, 66)" stroke-width="1px" opacity="0.25"></line></g><g><line x1="0" y1="177" x2="280" y2="177" fill="rgb(0, 0, 0)" stroke="rgb(66, 66, 66)" stroke-width="1px" opacity="0.25"></line><line x1="0" y1="151.71428571428572" x2="280" y2="151.71428571428572" fill="rgb(0, 0, 0)" stroke="rgb(66, 66, 66)" stroke-width="1px" opacity="0.25"></line><line x1="0" y1="126.42857142857144" x2="280" y2="126.42857142857144" fill="rgb(0, 0, 0)" stroke="rgb(66, 66, 66)" stroke-width="1px" opacity="0.25"></line><line x1="0" y1="101.14285714285714" x2="280" y2="101.14285714285714" fill="rgb(0, 0, 0)" stroke="rgb(66, 66, 66)" stroke-width="1px" opacity="0.25"></line><line x1="0" y1="75.85714285714285" x2="280" y2="75.85714285714285" fill="rgb(0, 0, 0)" stroke="rgb(66, 66, 66)" stroke-width="1px" opacity="0.25"></line><line x1="0" y1="50.57142857142857" x2="280" y2="50.57142857142857" fill="rgb(0, 0, 0)" stroke="rgb(66, 66, 66)" stroke-width="1px" opacity="0.25"></line><line x1="0" y1="25.285714285714256" x2="280" y2="25.285714285714256" fill="rgb(0, 0, 0)" stroke="rgb(66, 66, 66)" stroke-width="1px" opacity="0.25"></line><line x1="0" y1="0" x2="280" y2="0" fill="rgb(0, 0, 0)" stroke="rgb(66, 66, 66)" stroke-width="1px" opacity="0.25"></line></g></g></g><g><g><line x1="0" y1="303.42857142857144" x2="280" y2="303.42857142857144" fill="rgb(0, 0, 0)" stroke="rgb(153, 153, 153)" stroke-width="1.5px"></line></g></g><g><g><line x1="23.333333333333332" y1="0" x2="23.333333333333332" y2="177" fill="rgb(0, 0, 0)" stroke="rgb(153, 153, 153)" stroke-width="1.5px"></line></g></g><g><g><g><g><g><path stroke="rgb(255, 112, 67)" stroke-width="2px" d="M23.8,179.3737623601196L24.03333333333333,166.66260304283196L24.266666666666666,147.01861375340434L24.5,146.86694883413983L24.733333333333334,161.34841592565934L24.96666666666667,182.11789561247187L25.2,157.57193921573867L25.433333333333334,163.35527795353164L25.666666666666664,178.98415298203562L25.9,159.94332905088078L26.133333333333333,144.49438857693934L26.366666666666667,161.55571655492975L26.6,149.52205687772377L26.833333333333336,152.4226255255042L27.066666666666666,150.1160415482583L27.3,140.64009232910828L27.53333333333333,130.90917575572644L27.766666666666666,165.52962801316517L28,162.02627307154964L28.233333333333334,170.03872753222285L28.46666666666667,176.86900390180304L28.7,162.76133694043617L28.933333333333334,164.4110903985537L29.166666666666668,157.30949878568495L29.4,163.1628500485494L29.633333333333333,156.5605626352735L29.866666666666667,154.62204874118663L30.099999999999998,139.29893917831293L30.333333333333336,124.03650313393788L30.566666666666666,133.0847592610532L30.8,156.71942835494863L31.033333333333335,150.67165828655362L31.266666666666666,149.06585160489763L31.5,152.14808411130502L31.73333333333333,143.8831354064897L31.966666666666665,144.99273790858442L32.2,139.58992772396928L32.43333333333333,138.37109683731816L32.666666666666664,167.98265667928067L32.9,163.4981671219853L33.13333333333333,156.7617569318165L33.36666666666667,142.60562269148855L33.6,138.15765860528643L33.833333333333336,143.58030703779067L34.06666666666667,132.67389754340715L34.3,148.3814833126867L34.53333333333333,159.82888998776625L34.766666666666666,170.74304743446044L35,161.10868512119995L35.233333333333334,155.32806773327357L35.46666666666667,143.76827041708933L35.7,130.76382035767054L35.93333333333333,131.05257720545816L36.16666666666667,141.3401194398537L36.4,131.32978498505082L36.63333333333333,109.14073054531823L36.86666666666666,130.2158666574779L37.1,134.76952144134717L37.333333333333336,151.6617128648088L37.56666666666666,145.61416792345102L37.800000000000004,156.14564554036048L38.03333333333333,128.07595730592735L38.266666666666666,139.55414750013142L38.5,138.3496287046447L38.733333333333334,153.80977722278686L38.96666666666667,142.85729611081752L39.2,130.2172357739211L39.43333333333334,116.56462790206844L39.666666666666664,134.67020507152625L39.9,119.23640948063152L40.13333333333333,111.99898733980494L40.36666666666667,103.61082362788855L40.599999999999994,118.8064956235933L40.833333333333336,133.99247049073094L41.06666666666667,122.87548518815893L41.3,114.18243276432142L41.53333333333334,131.2180327751678L41.766666666666666,109.07367921939145L42,107.92421042535523L42.233333333333334,119.37166645977902L42.46666666666667,112.08014152729346L42.699999999999996,123.88808636323624L42.93333333333333,112.76713825565754L43.16666666666667,120.25456794425014L43.4,132.83845264083075L43.63333333333333,144.43449991478366L43.86666666666667,143.30070139573039L44.1,146.66613271171886L44.33333333333333,138.5711094041767L44.56666666666667,141.80552230307643L44.800000000000004,147.79188649842084L45.03333333333333,137.22370043390356L45.266666666666666,118.74565148434772L45.5,117.77310421174947L45.733333333333334,113.14386542077003L45.96666666666666,102.27488923417327L46.2,124.07350665707895L46.43333333333333,141.19838753824283L46.666666666666664,159.5647459646582L46.900000000000006,138.21885047251527L47.13333333333333,127.43416839093976L47.36666666666667,131.07764123912972L47.6,121.12658763719817L47.833333333333336,119.20166590345973L48.06666666666666,124.11528453293147L48.3,123.01773925460996L48.53333333333333,126.4049285436216L48.766666666666666,132.48295857303313L49,150.28977514381987L49.233333333333334,152.8824382028669L49.46666666666667,160.5066077080099L49.699999999999996,165.0811094110957L49.93333333333334,151.64295063751302L50.166666666666664,147.625771829368L50.4,155.32974664161625L50.63333333333334,157.92927631525492L50.86666666666667,137.2375686828733L51.1,147.0739695400092L51.33333333333333,138.81581150115088L51.56666666666667,131.83805543554158L51.8,129.67426303847034L52.03333333333333,124.33027114422305L52.266666666666666,121.12387600767467L52.5,115.15432849832517L52.733333333333334,115.61831042013593L52.96666666666667,121.96527124293718L53.2,119.70487606690315L53.43333333333333,124.41721063099752L53.66666666666667,141.40460992259398L53.9,131.36847927469722L54.13333333333333,131.41537255567397L54.36666666666666,127.39779206825543L54.6,116.89581689237932L54.833333333333336,112.61749302914794L55.06666666666666,97.91335537177953L55.300000000000004,113.36515342763356L55.53333333333333,116.5676605914312L55.766666666666666,128.60345301542915L56,164.14492859039962L56.233333333333334,167.26410194052954L56.46666666666667,163.06703428089267L56.7,136.27450700625144L56.93333333333334,116.15327418546208L57.166666666666664,118.2405330461283L57.4,105.33288980938826L57.63333333333333,125.90830700220795L57.86666666666667,109.93355418303601L58.099999999999994,118.55441750067725L58.333333333333336,125.74979070497221L58.56666666666667,109.83844440469457L58.8,138.72592487081903L59.03333333333334,113.5784144767822L59.266666666666666,120.74133367692495L59.5,127.06194041072084L59.733333333333334,128.83144923728813L59.96666666666667,111.68743952408411L60.199999999999996,103.42389493845603L60.43333333333333,100.48862340078942L60.66666666666667,86.59031713875989L60.9,100.50275881810701L61.13333333333333,96.71308651486977L61.36666666666667,98.48499356034792L61.6,87.41099444820523L61.83333333333333,94.92659956264347L62.06666666666667,107.52738951473147L62.300000000000004,129.2478620391241L62.53333333333333,122.05157533090504L62.766666666666666,133.91665707282368L63,136.9899956905544L63.233333333333334,114.55971218233366L63.46666666666666,129.42153918368086L63.7,116.08720994792432L63.93333333333333,136.40660951275004L64.16666666666666,138.4839671545102L64.4,143.77609216698679L64.63333333333334,120.65422528190335L64.86666666666666,122.96396494628739L65.10000000000001,124.34980874491778L65.33333333333333,102.92988355894713L65.56666666666666,100.19221657308405L65.8,98.54961638156625L66.03333333333333,91.49548459694074L66.26666666666667,125.69729075816447L66.5,107.7840892228997L66.73333333333333,97.03616830174084L66.96666666666667,90.58741574904552L67.2,86.71816421742834L67.43333333333334,90.46518496817278L67.66666666666667,104.85054075804905L67.89999999999999,125.6188975714044L68.13333333333334,142.1256220868381L68.36666666666667,133.82394178695392L68.6,128.8429336070234L68.83333333333333,123.83147348535488L69.06666666666666,100.59602718949915L69.3,119.02047297426994L69.53333333333333,146.25799722627445L69.76666666666667,134.2805116569055L70,98.77402320900451L70.23333333333333,113.88155412996858L70.46666666666667,106.76321891569692L70.7,106.5379342431385L70.93333333333334,120.56276199274328L71.16666666666666,135.0462303122209L71.4,119.46202462504833L71.63333333333334,114.15721766874935L71.86666666666666,121.08861559210526L72.10000000000001,107.04173933697439L72.33333333333334,124.91075547646527L72.56666666666666,105.28931284016994L72.8,127.90501603438717L73.03333333333333,135.40586628120275L73.26666666666667,117.65495099272718L73.5,119.14153913048737L73.73333333333332,124.07920846914804L73.96666666666667,102.76752339348528L74.2,116.27765424065703L74.43333333333332,122.36087753524987L74.66666666666667,113.87366817257596L74.9,100.6899156715466L75.13333333333333,104.91680751035854L75.36666666666666,121.61294116678555L75.60000000000001,117.4706228075019L75.83333333333333,114.98523179193172L76.06666666666666,111.4711419688794L76.30000000000001,103.2941164053332L76.53333333333333,116.59361004776576L76.76666666666667,146.82473769837426L77,120.46055738702556L77.23333333333333,108.68776565622093L77.46666666666667,117.80694438458818L77.7,119.23273516560397L77.93333333333334,126.15678130392821L78.16666666666667,130.3112089869228L78.4,122.68958349958426L78.63333333333333,120.13946342089137L78.86666666666667,108.49510927654039L79.1,121.73706701278441L79.33333333333333,125.6365251985263L79.56666666666666,127.97620010997139L79.8,137.4714319402635L80.03333333333333,135.07714415501374L80.26666666666667,129.59485502785932L80.5,114.16834424072114L80.73333333333333,86.70672275929388L80.96666666666667,108.66403510243651L81.19999999999999,119.81556126602774L81.43333333333334,128.5293382064768L81.66666666666667,137.80331479816672L81.89999999999999,135.2762738697557L82.13333333333334,119.6000507595692L82.36666666666667,132.4457423300222L82.6,119.92458704943935L82.83333333333333,94.20617887194526L83.06666666666668,119.23228043974214L83.3,101.88222781813606L83.53333333333333,111.700766468027L83.76666666666668,107.47760153224225L84,90.78370401763159L84.23333333333333,94.927364062005L84.46666666666667,103.48213175834381L84.7,104.56928194872667L84.93333333333334,95.10728393723701L85.16666666666666,95.49865680005803L85.39999999999999,126.07633886632458L85.63333333333334,118.1258062135151L85.86666666666666,127.51548517496923L86.1,110.8978610866928L86.33333333333334,117.11014642916106L86.56666666666666,100.60894741178738L86.8,92.73108321507343L87.03333333333333,90.0272199107553L87.26666666666667,100.54204526759403L87.5,84.59951504513239L87.73333333333333,99.30827756193051L87.96666666666667,67.67639462630014L88.2,107.36012031977552L88.43333333333334,88.69036007644127L88.66666666666666,89.62564726987031L88.9,88.16395834363345L89.13333333333334,105.49265999703573L89.36666666666666,99.70702722222698L89.60000000000001,73.9842221207769L89.83333333333334,101.03053471932635L90.06666666666666,99.05260726931158L90.3,107.98013289643801L90.53333333333333,99.17664971957406L90.76666666666667,108.05455836659551L91,123.49559168052774L91.23333333333332,102.41735332031311L91.46666666666667,114.0446969830435L91.7,123.04395839439196L91.93333333333332,118.32923314406578L92.16666666666667,109.43182632415527L92.4,122.29909724135335L92.63333333333333,93.60802977338342L92.86666666666666,112.80481931089021L93.10000000000001,91.9571794711101L93.33333333333333,83.4943059946625L93.56666666666666,70.32515502536891L93.80000000000001,74.56080778322237L94.03333333333333,91.26219799107427L94.26666666666667,83.077317106641L94.5,94.34924837141519L94.73333333333333,115.2724056834195L94.96666666666667,83.32344919749242L95.2,100.56549929564083L95.43333333333334,106.86501289852534L95.66666666666667,110.64472106025605L95.9,96.7296921904444L96.13333333333333,100.51781820798699L96.36666666666667,118.97354758536262L96.6,109.81841498893336L96.83333333333333,88.14247563564167L97.06666666666666,101.43405391623608L97.3,105.36329045717224L97.53333333333333,101.65226071201916L97.76666666666667,99.4256428649273L98,83.92967360353236L98.23333333333333,74.6320920466954L98.46666666666667,93.3278237628683L98.69999999999999,100.4995523651516L98.93333333333334,104.80258952652154L99.16666666666667,81.08726993077411L99.39999999999999,101.2466469493201L99.63333333333334,107.27370149073289L99.86666666666667,78.52422668188044L100.1,81.50310599083953L100.33333333333333,101.49614858535934L100.56666666666668,95.28625913292686L100.8,89.53747024775714L101.03333333333333,84.06534170294506L101.26666666666668,98.98777355661812L101.5,99.8498057853969L101.73333333333333,98.34416990895394L101.96666666666667,95.41793316937793L102.2,101.75361800905738L102.43333333333334,101.50931245686046L102.66666666666666,101.36272912554232L102.89999999999999,97.22906869933095L103.13333333333334,117.000297880169L103.36666666666666,100.54303828239215L103.6,84.60011085401126L103.83333333333334,66.94292751355772L104.06666666666666,78.60004294585043L104.3,79.52574053551126L104.53333333333333,74.01258741959296L104.76666666666667,105.09326432603646L105,89.35310169390807L105.23333333333333,83.95472057063559L105.46666666666667,88.80711878009716L105.7,89.69570249206386L105.93333333333334,88.20599147694956L106.16666666666666,107.54073509073562L106.4,107.00444394816171L106.63333333333334,102.63695280661283L106.86666666666666,108.10788500510851L107.10000000000001,95.2075905573559L107.33333333333334,111.74169453897939L107.56666666666666,109.525019617108L107.8,87.96643841254647L108.03333333333333,87.16843302923911L108.26666666666667,90.73534625525924L108.5,107.03549274401118L108.73333333333332,102.6555820841225L108.96666666666667,118.23335069733368L109.2,89.1457266332614L109.43333333333332,85.85315074795784L109.66666666666667,96.0147485562053L109.9,57.60884431085592L110.13333333333333,66.93102135451457L110.36666666666666,64.43290069728472L110.60000000000001,89.23117019551623L110.83333333333333,96.01870501103011L111.06666666666666,87.95408256090882L111.30000000000001,79.06959263483151L111.53333333333333,65.6474717957601L111.76666666666667,87.93705161230713L112,105.35651595823992L112.23333333333333,99.62534079894952L112.46666666666667,96.18663570337526L112.7,96.14626785974095L112.93333333333334,108.25919049298994L113.16666666666667,73.04694238493579L113.4,80.23959665496704L113.63333333333333,78.48661754727102L113.86666666666667,57.206253831214674L114.1,58.598040183304796L114.33333333333333,73.59311054769866L114.56666666666666,80.56729755262475L114.8,80.70609329957585L115.03333333333333,90.90365887346589L115.26666666666667,119.27362365436475L115.5,134.27274730919382L115.73333333333333,123.04365127923663L115.96666666666667,108.21476074925319L116.19999999999999,101.34028767355751L116.43333333333334,97.21560382814006L116.66666666666667,112.9465025014499L116.89999999999999,108.225043152296L117.13333333333334,93.25502420337405L117.36666666666667,92.36444574603L117.6,85.76152700190879L117.83333333333333,77.7540592994315L118.06666666666668,70.92672346423485L118.3,64.80746072082256L118.53333333333333,57.09019264735474L118.76666666666668,84.82554536555821L119,97.42104054047577L119.23333333333333,64.52119719971705L119.46666666666667,75.12414954383578L119.7,61.25735072745243L119.93333333333334,69.12012520447247L120.16666666666666,81.92921677410953L120.39999999999999,73.4318179490417L120.63333333333334,100.6990922162852L120.86666666666666,96.83088655377668L121.1,98.55567358369204L121.33333333333334,79.36197557878664L121.56666666666666,104.25718679413215L121.8,98.96574330048485L122.03333333333333,103.88230408772151L122.26666666666667,98.74081367663847L122.5,73.40449399342381L122.73333333333333,64.27126782462568L122.96666666666667,72.95133067648665L123.2,94.3422281830374L123.43333333333334,105.15390544467348L123.66666666666666,85.34376990908576L123.9,75.48054983002744L124.13333333333334,71.58547299630266L124.36666666666666,61.15700001264278L124.60000000000001,69.05991477558669L124.83333333333334,89.9845174002031L125.06666666666666,98.49356854755244L125.3,95.50757235253703L125.53333333333333,103.83025673266306L125.76666666666667,114.89243903045346L126,95.23260651655829L126.23333333333332,97.59670556136102L126.46666666666667,80.80944997909829L126.7,62.645675774899644L126.93333333333332,73.99883668894536L127.16666666666667,70.69644511165345L127.4,72.76072662128283L127.63333333333333,80.06786719677525L127.86666666666666,68.26929174663658L128.1,81.41871669940798L128.33333333333331,83.23980000135604L128.56666666666666,80.28673955510439L128.8,92.6749018404932L129.03333333333333,83.9249394162924L129.26666666666668,80.69782320406624L129.5,72.69298180701571L129.73333333333332,65.8672157264911L129.96666666666667,67.84032774789112L130.20000000000002,75.09276663044594L130.43333333333334,81.4670912022731L130.66666666666666,75.1773978196501L130.9,77.47215345979106L131.13333333333333,72.78043517416084L131.36666666666667,67.94254898907249L131.6,46.83410226887505L131.83333333333334,70.58046425504537L132.06666666666666,60.55399476788842L132.29999999999998,58.583823503014706L132.53333333333333,47.28743261837118L132.76666666666668,54.66960266930892L133,44.938900118147686L133.23333333333332,61.351910052599855L133.46666666666667,81.31400413899048L133.7,109.47411435767495L133.93333333333334,100.07303859631622L134.16666666666669,88.36382146978619L134.4,81.33829119386817L134.63333333333333,73.07726260089687L134.86666666666667,70.14350065882435L135.1,72.42895994958539L135.33333333333334,75.82309073775225L135.56666666666666,73.81385275464783L135.79999999999998,60.47117265393963L136.03333333333333,72.69413481636934L136.26666666666668,100.25648233668174L136.5,90.49674895629984L136.73333333333335,100.82376269492072L136.96666666666667,70.60854091980453L137.2,64.61655119416437L137.43333333333334,40.79279316450977L137.66666666666666,50.77281899699207L137.9,54.73797928277123L138.13333333333333,65.20850233766375L138.36666666666667,45.19367427802987L138.6,53.41334766510416L138.83333333333334,46.2080143865032L139.06666666666666,58.06766818619269L139.3,73.2748873494314L139.53333333333333,72.28493072165531L139.76666666666665,73.71381798728397L140,80.63972201637594L140.23333333333335,90.86383610354592L140.46666666666667,103.06687019697863L140.7,106.34298022561778L140.93333333333334,75.94292665193299L141.16666666666666,73.88575430315623L141.4,84.78859423331977L141.63333333333333,91.33029819141791L141.86666666666667,107.39246390570636L142.1,90.73262144171005L142.33333333333331,80.73671596331226L142.56666666666666,62.60203536542807L142.8,51.72122700669755L143.03333333333333,55.3070240885945L143.26666666666668,23.069933561738264L143.5,15.864822585054052L143.73333333333332,35.81603664931866L143.96666666666667,51.83248154388195L144.20000000000002,59.4194872383256L144.43333333333334,84.20026087784643L144.66666666666669,88.95444296442366L144.89999999999998,126.19552400665646L145.13333333333333,110.10588438570514L145.36666666666667,84.26924684628426L145.6,76.85869120605678L145.83333333333334,74.4352130356305L146.06666666666666,68.93541570595427L146.29999999999998,85.86410753100316L146.53333333333333,93.99846741232223L146.76666666666668,90.78765042910459L147,94.9297319088888L147.23333333333335,75.1635553601945L147.46666666666664,99.71527342068255L147.7,63.87488171413092L147.93333333333334,66.64492734047501L148.16666666666666,52.124094920847305L148.4,59.594455264504816L148.63333333333335,78.23667605242325L148.86666666666665,89.4220085251743L149.1,83.99606466939534L149.33333333333334,78.71763711363366L149.56666666666666,71.50487015275617L149.8,81.3372085293695L150.03333333333336,87.23661155533749L150.26666666666665,86.73053691491373L150.5,98.56403547008908L150.73333333333332,77.34413749691464L150.96666666666667,64.61219871300997L151.20000000000002,65.06446232609223L151.43333333333334,83.54153550308591L151.66666666666666,76.42206440013777L151.9,62.03609964123363L152.13333333333333,73.63309100874575L152.36666666666667,64.40842603381886L152.60000000000002,58.87362704886274L152.83333333333331,79.82703433674824L153.06666666666666,86.33050703976473L153.29999999999998,63.93544274042118L153.53333333333333,46.452693733394526L153.76666666666668,33.940189115468314L154,56.77554469328654L154.23333333333332,58.3396147005479L154.46666666666667,51.1866298214797L154.7,46.89483889403877L154.93333333333334,36.2283314255651L155.16666666666669,35.897004642779734L155.4,59.97248922338363L155.63333333333333,66.32635308832097L155.86666666666667,70.13867140728333L156.1,66.35749072894598L156.33333333333334,53.974500224808274L156.56666666666666,58.6818432331712L156.8,55.43767736847412L157.03333333333333,59.559749519370705L157.26666666666665,47.872988228184745L157.5,48.95236436548224L157.73333333333335,49.59999004786076L157.96666666666667,43.919999816157144L158.2,66.8091415411203L158.43333333333334,64.35977280924814L158.66666666666666,50.75300220211118L158.9,56.74894441955291L159.13333333333333,74.50650830315777L159.36666666666667,52.7953330710365L159.6,62.020059396912686L159.83333333333331,49.349174154709964L160.06666666666666,61.97521926082699L160.3,53.367992557647106L160.53333333333333,68.43222675859383L160.76666666666668,69.37933436715277L161,80.06188705800744L161.23333333333332,112.76856056508969L161.46666666666667,71.70685400077518L161.70000000000002,51.11554048960695L161.93333333333334,79.21789282861525L162.16666666666669,71.80502358174512L162.39999999999998,67.35730203362304L162.63333333333333,60.64295264874526L162.86666666666667,88.98005658010281L163.1,71.59375016292289L163.33333333333334,61.16196631261494L163.56666666666666,52.8800407887199L163.79999999999998,70.16231091094774L164.03333333333333,58.28024754771959L164.26666666666668,51.15100952978268L164.5,61.03346527216035L164.73333333333335,58.87150580557789L164.96666666666664,61.62004658163297L165.2,71.36059793069104L165.43333333333334,50.90778684755645L165.66666666666666,54.818959993109836L165.9,53.11994742443734L166.13333333333335,66.26053843637365L166.36666666666665,70.09918261611497L166.6,74.42522433767L166.83333333333334,48.70085226432341L167.06666666666666,45.40337235974499L167.3,55.562021727843444L167.53333333333336,49.52007403785699L167.76666666666665,68.14633086043L168,51.00208181911009L168.23333333333332,62.96696385946707L168.46666666666667,78.23731996710627L168.70000000000002,83.35382320426933L168.93333333333334,86.42372514656715L169.16666666666666,74.10566173022195L169.4,68.73768492270914L169.63333333333333,55.40261674106616L169.86666666666667,59.53871314292589L170.10000000000002,72.13465910976109L170.33333333333331,53.395078768708714L170.56666666666666,50.242763476086395L170.79999999999998,38.23708617479371L171.03333333333333,55.30796647287724L171.26666666666668,21.047631721429514L171.5,40.94857734485415L171.73333333333332,58.957716388623744L171.96666666666667,61.67177293146048L172.2,61.27735164345226L172.43333333333334,46.88069428892345L172.66666666666669,50.37984321563576L172.9,46.410766930532404L173.13333333333333,42.006465945760134L173.36666666666667,45.43245099602749L173.6,51.53375848219249L173.83333333333334,53.17168173159715L174.06666666666666,42.017292341810354L174.3,41.39323640623715L174.53333333333333,38.99594763118303L174.76666666666665,33.51185188156189L175,42.35853777121875L175.23333333333335,31.483695538162834L175.46666666666667,51.25593209089873L175.7,63.11927402254025L175.93333333333334,68.21442396781492L176.16666666666666,63.180081022970604L176.4,80.38805150750271L176.63333333333333,52.278548566223L176.86666666666667,37.43570201516538L177.1,24.484283657110357L177.33333333333331,34.91914162283764L177.56666666666666,20.95148015083534L177.8,26.73089387794191L178.03333333333333,48.40425109476615L178.26666666666668,71.52255355058004L178.5,69.21067522863424L178.73333333333332,77.9378363611861L178.96666666666667,62.94556281786263L179.20000000000002,55.97305390557876L179.43333333333334,61.90383065534369L179.66666666666669,57.37086982177765L179.89999999999998,40.49109476849819L180.13333333333333,40.47751786224984L180.36666666666667,30.35508359278151L180.6,46.533048467665346L180.83333333333334,54.21697217888544L181.06666666666666,36.57590096905264L181.29999999999998,78.58554202829177L181.53333333333333,63.33418621812604L181.76666666666668,72.38908171258689L182,87.93630713498274L182.23333333333335,70.96750049585084L182.46666666666664,68.87764339579672L182.7,85.8294441449086L182.93333333333334,81.84052604123596L183.16666666666666,67.31003183960277L183.4,66.68316220204788L183.63333333333335,72.37561208922972L183.86666666666665,71.7453655655343L184.1,45.070081787331695L184.33333333333334,33.11062194783064L184.56666666666666,32.0035116852607L184.8,27.293535100298268L185.03333333333336,20.42183872190029L185.26666666666665,26.413109020580883L185.5,32.03072641349947L185.73333333333332,43.492723732675636L185.96666666666667,32.164207115036966L186.20000000000002,37.504240483883386L186.43333333333334,54.86825905833102L186.66666666666666,49.10381643614956L186.9,49.69086129026117L187.13333333333333,43.97452256159742L187.36666666666667,62.79614476096401L187.60000000000002,68.02054641086914L187.83333333333331,63.06375448880315L188.06666666666666,33.79253744299415L188.29999999999998,38.48123868065767L188.53333333333333,39.27160420954554L188.76666666666668,45.814389168009036L189,69.96863639452577L189.23333333333332,50.0726099258573L189.46666666666667,25.997850705226615L189.7,11.552995172848203L189.93333333333334,6.931792280841656L190.16666666666669,28.433363253081L190.4,39.31144459413022L190.63333333333333,41.792582971339336L190.86666666666667,67.55555267652397L191.1,66.83047470420061L191.33333333333334,56.28114582367131L191.56666666666666,62.08868580619924L191.8,53.43607248487048L192.03333333333333,32.06163866805499L192.26666666666665,27.32841128997486L192.5,42.69418987227115L192.73333333333335,53.936512235359174L192.96666666666667,56.63619522579149L193.2,27.913146671476913L193.43333333333334,24.839316092028L193.66666666666666,41.20073275350301L193.9,53.04043796409829L194.13333333333333,50.02997899332017L194.36666666666667,48.22370361085329L194.6,51.18564880879363L194.83333333333331,36.77996216070777L195.06666666666666,44.31940393870634L195.3,36.705925666075906L195.53333333333333,22.023550576778238L195.76666666666668,19.28270322149858L196,33.82104857518084L196.23333333333332,32.4297676616708L196.46666666666667,23.503578258723888L196.70000000000002,46.46786172323536L196.93333333333334,56.20071534593769L197.16666666666669,57.99471709213859L197.39999999999998,67.16254502328417L197.63333333333333,76.70895823797605L197.86666666666667,23.77395071193758L198.1,36.5157970694442L198.33333333333334,30.00090633080832L198.56666666666666,28.11482710133706L198.79999999999998,26.9831795636543L199.03333333333333,10.121337274194575L199.26666666666668,8.09566481252785L199.5,27.10882552979839L199.73333333333335,22.333868193310625L199.96666666666664,41.720319227982806L200.2,43.23790775165084L200.43333333333334,52.23988774927671L200.66666666666666,39.43536073870791L200.9,23.661211620357467L201.13333333333335,26.333865488776798L201.36666666666665,44.12031760526254L201.6,40.63219635059825L201.83333333333334,40.56217881150989L202.06666666666666,26.360169734917058L202.3,11.770386590662495L202.53333333333336,33.359375052683724L202.76666666666665,13.947054567612211L203,50.84823563428771L203.23333333333332,46.69180238172356L203.46666666666667,64.4265126530397L203.70000000000002,75.06733881582937L203.93333333333334,47.06326573750877L204.16666666666666,58.580818996796054L204.4,77.62849429179799L204.63333333333333,76.91995612936958L204.86666666666667,96.72340345476714L205.10000000000002,90.3997568408613L205.33333333333331,70.4227151056677L205.56666666666666,80.68791550111641L205.79999999999998,74.70989239895604L206.03333333333333,85.28307709079965L206.26666666666668,61.284129557331866L206.5,69.13619250240015L206.73333333333332,59.687431716301276L206.96666666666667,25.69817813836233L207.2,29.578912670458077L207.43333333333334,44.04449070056106L207.66666666666669,44.632410635197814L207.9,51.05373426569465L208.13333333333333,38.72366864855863L208.36666666666667,17.16563072513715L208.6,28.505094649943526L208.83333333333334,53.51448801397168L209.06666666666666,60.42869112037947L209.3,58.50864131450935L209.53333333333333,65.44804434299635L209.76666666666665,41.29168905380894L210,47.02644007456697L210.23333333333335,74.74157736588103L210.46666666666667,54.9592297223807L210.7,51.18125404828961L210.93333333333334,32.73161487698489L211.16666666666666,5.478965550183876L211.4,11.378807419252196L211.63333333333333,4.8044244149738145L211.86666666666667,15.019793165546595L212.1,-5.148127476679143L212.33333333333331,27.253983068283283L212.56666666666666,52.763821064975524L212.8,33.68115508699643L213.03333333333333,38.41440926705904L213.26666666666668,27.094363221956804L213.5,12.210902682886335L213.73333333333332,27.555113038303233L213.96666666666667,36.76163925155338L214.20000000000002,40.262699765793194L214.43333333333334,34.27190316232799L214.66666666666669,30.677425200248866L214.89999999999998,14.360739869861598L215.13333333333333,18.730727224769023L215.36666666666667,25.398442122302086L215.6,41.53620837166746L215.83333333333334,47.17315166528212L216.06666666666666,22.235320535171283L216.29999999999998,35.59261896338439L216.53333333333333,23.378433826041775L216.76666666666668,3.912779404206611L217,10.439095731665793L217.23333333333335,20.423463226440166L217.46666666666664,40.57407624786053L217.7,34.45872905156842L217.93333333333334,28.766665520082878L218.16666666666666,11.191428848051732L218.4,16.829140611683123L218.63333333333335,16.166057242441493L218.86666666666665,15.768207220896473L219.1,17.552352421679725L219.33333333333334,30.759982881579266L219.56666666666666,28.570273031799623L219.8,39.39359046136143L220.03333333333336,23.63614945394962L220.26666666666665,32.38740588723101L220.5,15.386728282050884L220.73333333333332,51.71203986295091L220.96666666666667,35.072941579491875L221.20000000000002,39.249481162556314L221.43333333333334,47.82397658210972L221.66666666666666,44.87724695041678L221.9,20.857777706252076L222.13333333333333,32.74323805232271L222.36666666666667,27.73737092053543L222.60000000000002,44.962420864317714L222.83333333333331,35.068880607732474L223.06666666666666,49.36132667663593L223.29999999999998,92.32536912255652L223.53333333333333,69.55522726097463L223.76666666666668,41.73313153371757L224,45.26845034880197L224.23333333333332,33.22964308471276L224.46666666666667,5.777782474820557L224.7,7.512387146613721L224.93333333333334,-1.5611381760297927L225.16666666666669,19.29188852295356L225.4,25.735138901212853L225.63333333333333,17.46394578873883L225.86666666666667,34.75265535781931L226.1,30.96587651754369L226.33333333333334,36.78524212538738L226.56666666666666,28.13971815066406L226.8,4.746682728101581L227.03333333333333,-7.2662712545575125L227.5,-7.470717881132867L227.73333333333335,13.723285486181481L227.96666666666667,30.485397933990534L228.2,14.245523510106576L228.43333333333334,40.91302887406498L228.66666666666666,28.593534986160304L228.9,19.178983439707327L229.13333333333333,39.82738837582085L229.36666666666667,58.28500300720375L229.6,51.15386280547317L229.83333333333331,32.71518013129502L230.06666666666666,17.606248042199493L230.3,30.792320253891113L230.53333333333333,8.361111260916218L230.76666666666668,11.085239631981358L231,14.742571868330618L231.23333333333332,-1.268737770420059L231.46666666666667,1.2616197857591207L231.70000000000002,-5.31159859254254L231.93333333333334,0.858758506195838L232.16666666666669,10.629538406569578L232.39999999999998,28.629149686223382L232.63333333333333,23.24606268716565L232.86666666666667,26.084776128861687L233.1,33.85658189217819L233.33333333333334,28.40537722444872L233.56666666666666,51.43179631638048L233.79999999999998,36.927650665259904L234.03333333333333,42.38516182772737L234.26666666666668,33.52252518577827L234.5,34.27352089890766L234.73333333333335,32.70125105590692L234.96666666666664,58.05503707125996L235.2,53.038738457617164L235.43333333333334,29.800383037992805L235.66666666666666,38.108801251367105L235.9,24.888143198831372L236.13333333333335,35.16145734787023L236.36666666666665,39.30259062358335L236.6,41.78727058901123L236.83333333333334,19.003791889408767L237.06666666666666,25.56228092108595L237.3,5.223087661233149L237.53333333333336,17.293858384180574L237.76666666666665,18.46774311965022L238,19.17207396093198L238.23333333333332,23.64038289312151L238.46666666666667,12.161369699295388L238.70000000000002,43.70825304358276L238.93333333333334,18.133526148441447L239.16666666666666,23.017254205627196L239.4,15.833214971387454L239.63333333333333,29.7285004114039L239.86666666666667,7.722819355423863L240.10000000000002,4.6336867903870775L240.33333333333331,0.7573520376547361L240.56666666666666,32.820125990593844L240.79999999999998,23.737793256077687L241.03333333333333,6.151250275938373L241.26666666666668,11.782178254704846L241.5,19.206445469385226L241.73333333333332,13.546729729642259L241.96666666666667,4.08232258749762L242.2,-3.6191769114994177L242.43333333333334,22.102781737676363L242.66666666666669,11.23880900602831L242.9,-5.393862758679868L244.76666666666665,-10.597801688431005L245,1.732747076083231L245.23333333333335,11.153931548502038L245.46666666666667,16.80664223195333L245.7,8.0611253025945L245.93333333333334,0.7909599312689597L246.16666666666666,8.566004047903226L246.4,9.185320090463266L246.63333333333333,9.55690971599933L246.86666666666667,-6.403002332697287L247.1,-9.910371863616323L247.33333333333331,6.190915398392555L247.56666666666666,7.760266900756903L247.8,-7.4809880218426805L248.03333333333333,-4.4885976359728215L248.26666666666668,1.352559080137685L248.5,2.8343978960937553L248.73333333333332,17.883499738807192L248.96666666666667,41.07295939757506L249.20000000000002,34.75805894139712L249.43333333333334,43.10626200711996L249.66666666666669,46.09232863284342L249.89999999999998,45.86111339456727L250.13333333333333,72.01952614417092L250.36666666666667,25.00600188307498L250.6,-5.224967887292845L250.83333333333334,4.95644735676612L251.06666666666666,7.019586075781046L251.29999999999998,32.53174995746509L251.53333333333333,39.74762140305049L251.76666666666668,46.099999484111905L252,49.91142633274882L252.23333333333335,54.22114368422525L252.46666666666664,12.304117193397344L252.7,17.496753618890498L252.93333333333334,12.520914619345408L253.16666666666666,-12.716020245530553L253.4,-3.5838944855969457L253.63333333333335,14.032524309792764L253.86666666666665,22.579520373316367L254.1,9.501996973702056L254.33333333333334,9.746915845942643L254.56666666666666,-8.311853868441471L254.8,-13.078537998773093L255.03333333333336,0.24430528987796973L255.26666666666665,12.283721690489108L255.5,3.3245177640056967L255.73333333333332,12.108993961255512L255.96666666666667,25.471112591614464L256.2,29.442673342409403L256.43333333333334,39.91703064772729" style="fill: none;" fill="none"></path></g></g></g></g><g opacity="0.2"><g><g><g><path stroke="rgb(255, 112, 67)" stroke-width="2px" d="M23.566666666666666,187.1142836042813L23.8,171.9428619657244L24.03333333333333,151.71427968570163L24.266666666666666,121.37142133712769L24.5,146.65714165142606L24.733333333333334,182.0571455700057L24.96666666666667,212.39999638284957L25.2,121.37142133712769L25.433333333333334,171.9428619657244L25.666666666666664,202.28571277856827L25.9,131.48571247713906L26.133333333333333,121.37142133712769L26.366666666666667,187.1142836042813L26.6,131.48571247713906L26.833333333333336,156.7714327914374L27.066666666666666,146.65714165142606L27.3,126.42857444286346L27.53333333333333,116.31428330285209L27.766666666666666,217.45714195285524L28,156.7714327914374L28.233333333333334,182.0571455700057L28.46666666666667,187.1142836042813L28.7,141.60000361715043L28.933333333333334,166.88570885998863L29.166666666666668,146.65714165142606L29.4,171.9428619657244L29.633333333333333,146.65714165142606L29.866666666666667,151.71427968570163L30.099999999999998,116.31428330285209L30.333333333333336,101.1428541285651L30.566666666666666,146.65714165142606L30.8,192.17142917428697L31.033333333333335,141.60000361715043L31.266666666666666,146.65714165142606L31.5,156.7714327914374L31.73333333333333,131.48571247713906L31.966666666666665,146.65714165142606L32.2,131.48571247713906L32.43333333333333,136.54285051141466L32.666666666666664,212.39999638284957L32.9,156.7714327914374L33.13333333333333,146.65714165142606L33.36666666666667,121.37142133712769L33.6,131.48571247713906L33.833333333333336,151.71427968570163L34.06666666666667,116.31428330285209L34.3,171.9428619657244L34.53333333333333,177L34.766666666666666,187.1142836042813L35,146.65714165142606L35.233333333333334,146.65714165142606L35.46666666666667,126.42857444286346L35.7,111.25714526857648L35.93333333333333,131.48571247713906L36.16666666666667,156.7714327914374L36.4,116.31428330285209L36.63333333333333,75.85714888572693L36.86666666666666,161.828570825713L37.1,141.60000361715043L37.333333333333336,177L37.56666666666666,136.54285051141466L37.800000000000004,171.9428619657244L38.03333333333333,85.97142495427812L38.266666666666666,156.7714327914374L38.5,136.54285051141466L38.733333333333334,177L38.96666666666667,126.42857444286346L39.2,111.25714526857648L39.43333333333334,96.0857160942895L39.666666666666664,161.828570825713L39.9,96.0857160942895L40.13333333333333,101.1428541285651L40.36666666666667,91.0285780600139L40.599999999999994,141.60000361715043L40.833333333333336,156.7714327914374L41.06666666666667,106.20000723430088L41.3,101.1428541285651L41.53333333333334,156.7714327914374L41.766666666666666,75.85714888572693L42,106.20000723430088L42.233333333333334,136.54285051141466L42.46666666666667,101.1428541285651L42.699999999999996,141.60000361715043L42.93333333333333,96.0857160942895L43.16666666666667,131.48571247713906L43.4,151.71427968570163L43.63333333333333,161.828570825713L43.86666666666667,141.60000361715043L44.1,151.71427968570163L44.33333333333333,126.42857444286346L44.56666666666667,146.65714165142606L44.800000000000004,156.7714327914374L45.03333333333333,121.37142133712769L45.266666666666666,91.0285780600139L45.5,116.31428330285209L45.733333333333334,106.20000723430088L45.96666666666666,85.97142495427812L46.2,156.7714327914374L46.43333333333333,166.88570885998863L46.666666666666664,187.1142836042813L46.900000000000006,106.20000723430088L47.13333333333333,111.25714526857648L47.36666666666667,136.54285051141466L47.6,106.20000723430088L47.833333333333336,116.31428330285209L48.06666666666666,131.48571247713906L48.3,121.37142133712769L48.53333333333333,131.48571247713906L48.766666666666666,141.60000361715043L49,177L49.233333333333334,156.7714327914374L49.46666666666667,171.9428619657244L49.699999999999996,171.9428619657244L49.93333333333334,131.48571247713906L50.166666666666664,141.60000361715043L50.4,166.88570885998863L50.63333333333334,161.828570825713L50.86666666666667,106.20000723430088L51.1,161.828570825713L51.33333333333333,126.42857444286346L51.56666666666667,121.37142133712769L51.8,126.42857444286346L52.03333333333333,116.31428330285209L52.266666666666666,116.31428330285209L52.5,106.20000723430088L52.733333333333334,116.31428330285209L52.96666666666667,131.48571247713906L53.2,116.31428330285209L53.43333333333333,131.48571247713906L53.66666666666667,166.88570885998863L53.9,116.31428330285209L54.13333333333333,131.48571247713906L54.36666666666666,121.37142133712769L54.6,101.1428541285651L54.833333333333336,106.20000723430088L55.06666666666666,75.85714888572693L55.300000000000004,136.54285051141466L55.53333333333333,121.37142133712769L55.766666666666666,146.65714165142606L56,217.45714195285524L56.233333333333334,171.9428619657244L56.46666666666667,156.7714327914374L56.7,96.0857160942895L56.93333333333334,85.97142495427812L57.166666666666664,121.37142133712769L57.4,85.97142495427812L57.63333333333333,156.7714327914374L57.86666666666667,85.97142495427812L58.099999999999994,131.48571247713906L58.333333333333336,136.54285051141466L58.56666666666667,85.97142495427812L58.8,182.0571455700057L59.03333333333334,75.85714888572693L59.266666666666666,131.48571247713906L59.5,136.54285051141466L59.733333333333334,131.48571247713906L59.96666666666667,85.97142495427812L60.199999999999996,91.0285780600139L60.43333333333333,96.0857160942895L60.66666666666667,65.74285774571554L60.9,121.37142133712769L61.13333333333333,91.0285780600139L61.36666666666667,101.1428541285651L61.6,70.79999577999115L61.83333333333333,106.20000723430088L62.06666666666667,126.42857444286346L62.300000000000004,161.828570825713L62.53333333333333,111.25714526857648L62.766666666666666,151.71427968570163L63,141.60000361715043L63.233333333333334,80.91428692000252L63.46666666666666,151.71427968570163L63.7,96.0857160942895L63.93333333333333,166.88570885998863L64.16666666666666,141.60000361715043L64.4,151.71427968570163L64.63333333333334,85.97142495427812L64.86666666666666,126.42857444286346L65.10000000000001,126.42857444286346L65.33333333333333,70.79999577999115L65.56666666666666,96.0857160942895L65.8,96.0857160942895L66.03333333333333,80.91428692000252L66.26666666666667,177L66.5,80.91428692000252L66.73333333333333,80.91428692000252L66.96666666666667,80.91428692000252L67.2,80.91428692000252L67.43333333333334,96.0857160942895L67.66666666666667,126.42857444286346L67.89999999999999,156.7714327914374L68.13333333333334,166.88570885998863L68.36666666666667,121.37142133712769L68.6,121.37142133712769L68.83333333333333,116.31428330285209L69.06666666666666,65.74285774571554L69.3,146.65714165142606L69.53333333333333,187.1142836042813L69.76666666666667,116.31428330285209L70,45.51429053715295L70.23333333333333,136.54285051141466L70.46666666666667,96.0857160942895L70.7,106.20000723430088L70.93333333333334,141.60000361715043L71.16666666666666,156.7714327914374L71.4,96.0857160942895L71.63333333333334,106.20000723430088L71.86666666666666,131.48571247713906L72.10000000000001,85.97142495427812L72.33333333333334,151.71427968570163L72.56666666666666,75.85714888572693L72.8,161.828570825713L73.03333333333333,146.65714165142606L73.26666666666667,91.0285780600139L73.5,121.37142133712769L73.73333333333332,131.48571247713906L73.96666666666667,70.79999577999115L74.2,136.54285051141466L74.43333333333332,131.48571247713906L74.66666666666667,101.1428541285651L74.9,80.91428692000252L75.13333333333333,111.25714526857648L75.36666666666666,146.65714165142606L75.60000000000001,111.25714526857648L75.83333333333333,111.25714526857648L76.06666666666666,106.20000723430088L76.30000000000001,91.0285780600139L76.53333333333333,136.54285051141466L76.76666666666667,192.17142917428697L77,80.91428692000252L77.23333333333333,91.0285780600139L77.46666666666667,131.48571247713906L77.7,121.37142133712769L77.93333333333334,136.54285051141466L78.16666666666667,136.54285051141466L78.4,111.25714526857648L78.63333333333333,116.31428330285209L78.86666666666667,91.0285780600139L79.1,141.60000361715043L79.33333333333333,131.48571247713906L79.56666666666666,131.48571247713906L79.8,151.71427968570163L80.03333333333333,131.48571247713906L80.26666666666667,121.37142133712769L80.5,91.0285780600139L80.73333333333333,45.51429053715295L80.96666666666667,141.60000361715043L81.19999999999999,136.54285051141466L81.43333333333334,141.60000361715043L81.66666666666667,151.71427968570163L81.89999999999999,131.48571247713906L82.13333333333334,96.0857160942895L82.36666666666667,151.71427968570163L82.6,101.1428541285651L82.83333333333333,55.628566605704165L83.06666666666668,156.7714327914374L83.3,75.85714888572693L83.53333333333333,126.42857444286346L83.76666666666668,101.1428541285651L84,65.74285774571554L84.23333333333333,101.1428541285651L84.46666666666667,116.31428330285209L84.7,106.20000723430088L84.93333333333334,80.91428692000252L85.16666666666666,96.0857160942895L85.39999999999999,171.9428619657244L85.63333333333334,106.20000723430088L85.86666666666666,141.60000361715043L86.1,85.97142495427812L86.33333333333334,126.42857444286346L86.56666666666666,75.85714888572693L86.8,80.91428692000252L87.03333333333333,85.97142495427812L87.26666666666667,116.31428330285209L87.5,60.685719711439944L87.73333333333333,121.37142133712769L87.96666666666667,20.228570222854593L88.2,166.88570885998863L88.43333333333334,60.685719711439944L88.66666666666666,91.0285780600139L88.9,85.97142495427812L89.13333333333334,131.48571247713906L89.36666666666666,91.0285780600139L89.60000000000001,35.40001446860177L89.83333333333334,141.60000361715043L90.06666666666666,96.0857160942895L90.3,121.37142133712769L90.53333333333333,85.97142495427812L90.76666666666667,121.37142133712769L91,146.65714165142606L91.23333333333332,70.79999577999115L91.46666666666667,131.48571247713906L91.7,136.54285051141466L91.93333333333332,111.25714526857648L92.16666666666667,96.0857160942895L92.4,141.60000361715043L92.63333333333333,50.57142857142857L92.86666666666666,141.60000361715043L93.10000000000001,60.685719711439944L93.33333333333333,70.79999577999115L93.56666666666666,50.57142857142857L93.80000000000001,80.91428692000252L94.03333333333333,116.31428330285209L94.26666666666667,70.79999577999115L94.5,111.25714526857648L94.73333333333333,146.65714165142606L94.96666666666667,35.40001446860177L95.2,126.42857444286346L95.43333333333334,116.31428330285209L95.66666666666667,116.31428330285209L95.9,75.85714888572693L96.13333333333333,106.20000723430088L96.36666666666667,146.65714165142606L96.6,96.0857160942895L96.83333333333333,55.628566605704165L97.06666666666666,121.37142133712769L97.3,111.25714526857648L97.53333333333333,96.0857160942895L97.76666666666667,96.0857160942895L98,60.685719711439944L98.23333333333333,60.685719711439944L98.46666666666667,121.37142133712769L98.69999999999999,111.25714526857648L98.93333333333334,111.25714526857648L99.16666666666667,45.51429053715295L99.39999999999999,131.48571247713906L99.63333333333334,116.31428330285209L99.86666666666667,35.40001446860177L100.1,85.97142495427812L100.33333333333333,131.48571247713906L100.56666666666668,85.97142495427812L100.8,80.91428692000252L101.03333333333333,75.85714888572693L101.26666666666668,121.37142133712769L101.5,101.1428541285651L101.73333333333333,96.0857160942895L101.96666666666667,91.0285780600139L102.2,111.25714526857648L102.43333333333334,101.1428541285651L102.66666666666666,101.1428541285651L102.89999999999999,91.0285780600139L103.13333333333334,146.65714165142606L103.36666666666666,75.85714888572693L103.6,60.685719711439944L103.83333333333334,40.45715250287736L104.06666666666666,96.0857160942895L104.3,80.91428692000252L104.53333333333333,65.74285774571554L104.76666666666667,151.71427968570163L105,65.74285774571554L105.23333333333333,75.85714888572693L105.46666666666667,96.0857160942895L105.7,91.0285780600139L105.93333333333334,85.97142495427812L106.16666666666666,136.54285051141466L106.4,106.20000723430088L106.63333333333334,96.0857160942895L106.86666666666666,116.31428330285209L107.10000000000001,75.85714888572693L107.33333333333334,136.54285051141466L107.56666666666666,106.20000723430088L107.8,55.628566605704165L108.03333333333333,85.97142495427812L108.26666666666667,96.0857160942895L108.5,131.48571247713906L108.73333333333332,96.0857160942895L108.96666666666667,141.60000361715043L109.2,45.51429053715295L109.43333333333332,80.91428692000252L109.66666666666667,111.25714526857648L109.9,-0.000012057168171208943L110.13333333333333,80.91428692000252L110.36666666666666,60.685719711439944L110.60000000000001,126.42857444286346L110.83333333333333,106.20000723430088L111.06666666666666,75.85714888572693L111.30000000000001,65.74285774571554L111.53333333333333,45.51429053715295L111.76666666666667,121.37142133712769L112,131.48571247713906L112.23333333333333,91.0285780600139L112.46666666666667,91.0285780600139L112.7,96.0857160942895L112.93333333333334,126.42857444286346L113.16666666666667,20.228570222854593L113.4,91.0285780600139L113.63333333333333,75.85714888572693L113.86666666666667,25.28570825713021L114.1,60.685719711439944L114.33333333333333,96.0857160942895L114.56666666666666,91.0285780600139L114.8,80.91428692000252L115.03333333333333,106.20000723430088L115.26666666666667,161.828570825713L115.5,156.7714327914374L115.73333333333333,106.20000723430088L115.96666666666667,85.97142495427812L116.19999999999999,91.0285780600139L116.43333333333334,91.0285780600139L116.66666666666667,136.54285051141466L116.89999999999999,101.1428541285651L117.13333333333334,70.79999577999115L117.36666666666667,91.0285780600139L117.6,75.85714888572693L117.83333333333333,65.74285774571554L118.06666666666668,60.685719711439944L118.3,55.628566605704165L118.53333333333333,45.51429053715295L118.76666666666668,126.42857444286346L119,116.31428330285209L119.23333333333333,15.171432188579L119.46666666666667,91.0285780600139L119.7,40.45715250287736L119.93333333333334,80.91428692000252L120.16666666666666,101.1428541285651L120.39999999999999,60.685719711439944L120.63333333333334,141.60000361715043L120.86666666666666,91.0285780600139L121.1,101.1428541285651L121.33333333333334,50.57142857142857L121.56666666666666,141.60000361715043L121.8,91.0285780600139L122.03333333333333,111.25714526857648L122.26666666666667,91.0285780600139L122.5,35.40001446860177L122.73333333333333,50.57142857142857L122.96666666666667,85.97142495427812L123.2,126.42857444286346L123.43333333333334,121.37142133712769L123.66666666666666,55.628566605704165L123.9,60.685719711439944L124.13333333333334,65.74285774571554L124.36666666666666,45.51429053715295L124.60000000000001,80.91428692000252L124.83333333333334,121.37142133712769L125.06666666666666,111.25714526857648L125.3,91.0285780600139L125.53333333333333,116.31428330285209L125.76666666666667,131.48571247713906L126,65.74285774571554L126.23333333333332,101.1428541285651L126.46666666666667,55.628566605704165L126.7,35.40001446860177L126.93333333333332,91.0285780600139L127.16666666666667,65.74285774571554L127.4,75.85714888572693L127.63333333333333,91.0285780600139L127.86666666666666,50.57142857142857L128.1,101.1428541285651L128.33333333333331,85.97142495427812L128.56666666666666,75.85714888572693L128.8,111.25714526857648L129.03333333333333,70.79999577999115L129.26666666666668,75.85714888572693L129.5,60.685719711439944L129.73333333333332,55.628566605704165L129.96666666666667,70.79999577999115L130.20000000000002,85.97142495427812L130.43333333333334,91.0285780600139L130.66666666666666,65.74285774571554L130.9,80.91428692000252L131.13333333333333,65.74285774571554L131.36666666666667,60.685719711439944L131.6,15.171432188579L131.83333333333334,106.20000723430088L132.06666666666666,45.51429053715295L132.29999999999998,55.628566605704165L132.53333333333333,30.342846291405802L132.76666666666668,65.74285774571554L133,30.342846291405802L133.23333333333332,85.97142495427812L133.46666666666667,111.25714526857648L133.7,151.71427968570163L133.93333333333334,85.97142495427812L134.16666666666669,70.79999577999115L134.4,70.79999577999115L134.63333333333333,60.685719711439944L134.86666666666667,65.74285774571554L135.1,75.85714888572693L135.33333333333334,80.91428692000252L135.56666666666666,70.79999577999115L135.79999999999998,40.45715250287736L136.03333333333333,91.0285780600139L136.26666666666668,141.60000361715043L136.5,75.85714888572693L136.73333333333335,116.31428330285209L136.96666666666667,25.28570825713021L137.2,55.628566605704165L137.43333333333334,5.057156120027812L137.66666666666666,65.74285774571554L137.9,60.685719711439944L138.13333333333333,80.91428692000252L138.36666666666667,15.171432188579L138.6,65.74285774571554L138.83333333333334,35.40001446860177L139.06666666666666,75.85714888572693L139.3,96.0857160942895L139.53333333333333,70.79999577999115L139.76666666666665,75.85714888572693L140,91.0285780600139L140.23333333333335,106.20000723430088L140.46666666666667,121.37142133712769L140.7,111.25714526857648L140.93333333333334,30.342846291405802L141.16666666666666,70.79999577999115L141.4,101.1428541285651L141.63333333333333,101.1428541285651L141.86666666666667,131.48571247713906L142.1,65.74285774571554L142.33333333333331,65.74285774571554L142.56666666666666,35.40001446860177L142.8,35.40001446860177L143.03333333333333,60.685719711439944L143.26666666666668,-25.285702228546143L143.5,5.057156120027812L143.73333333333332,65.74285774571554L143.96666666666667,75.85714888572693L144.20000000000002,70.79999577999115L144.43333333333334,121.37142133712769L144.66666666666669,96.0857160942895L144.89999999999998,182.0571455700057L145.13333333333333,85.97142495427812L145.36666666666667,45.51429053715295L145.6,65.74285774571554L145.83333333333334,70.79999577999115L146.06666666666666,60.685719711439944L146.29999999999998,111.25714526857648L146.53333333333333,106.20000723430088L146.76666666666668,85.97142495427812L147,101.1428541285651L147.23333333333335,45.51429053715295L147.46666666666664,136.54285051141466L147.7,10.114294154303407L147.93333333333334,70.79999577999115L148.16666666666666,30.342846291405802L148.4,70.79999577999115L148.63333333333335,106.20000723430088L148.86666666666665,106.20000723430088L149.1,75.85714888572693L149.33333333333334,70.79999577999115L149.56666666666666,60.685719711439944L149.8,96.0857160942895L150.03333333333336,96.0857160942895L150.26666666666665,85.97142495427812L150.5,116.31428330285209L150.73333333333332,45.51429053715295L150.96666666666667,45.51429053715295L151.20000000000002,65.74285774571554L151.43333333333334,111.25714526857648L151.66666666666666,65.74285774571554L151.9,40.45715250287736L152.13333333333333,91.0285780600139L152.36666666666667,50.57142857142857L152.60000000000002,50.57142857142857L152.83333333333331,111.25714526857648L153.06666666666666,96.0857160942895L153.29999999999998,30.342846291405802L153.53333333333333,20.228570222854593L153.76666666666668,15.171432188579L154,91.0285780600139L154.23333333333332,60.685719711439944L154.46666666666667,40.45715250287736L154.7,40.45715250287736L154.93333333333334,20.228570222854593L155.16666666666669,35.40001446860177L155.4,96.0857160942895L155.63333333333333,75.85714888572693L155.86666666666667,75.85714888572693L156.1,60.685719711439944L156.33333333333334,35.40001446860177L156.56666666666666,65.74285774571554L156.8,50.57142857142857L157.03333333333333,65.74285774571554L157.26666666666665,30.342846291405802L157.5,50.57142857142857L157.73333333333335,50.57142857142857L157.96666666666667,35.40001446860177L158.2,101.1428541285651L158.43333333333334,60.685719711439944L158.66666666666666,30.342846291405802L158.9,65.74285774571554L159.13333333333333,101.1428541285651L159.36666666666667,20.228570222854593L159.6,75.85714888572693L159.83333333333331,30.342846291405802L160.06666666666666,80.91428692000252L160.3,40.45715250287736L160.53333333333333,91.0285780600139L160.76666666666668,70.79999577999115L161,96.0857160942895L161.23333333333332,161.828570825713L161.46666666666667,10.114294154303407L161.70000000000002,20.228570222854593L161.93333333333334,121.37142133712769L162.16666666666669,60.685719711439944L162.39999999999998,60.685719711439944L162.63333333333333,50.57142857142857L162.86666666666667,131.48571247713906L163.1,45.51429053715295L163.33333333333334,45.51429053715295L163.56666666666666,40.45715250287736L163.79999999999998,96.0857160942895L164.03333333333333,40.45715250287736L164.26666666666668,40.45715250287736L164.5,75.85714888572693L164.73333333333335,55.628566605704165L164.96666666666664,65.74285774571554L165.2,85.97142495427812L165.43333333333334,20.228570222854593L165.66666666666666,60.685719711439944L165.9,50.57142857142857L166.13333333333335,85.97142495427812L166.36666666666665,75.85714888572693L166.6,80.91428692000252L166.83333333333334,10.114294154303407L167.06666666666666,40.45715250287736L167.3,70.79999577999115L167.53333333333336,40.45715250287736L167.76666666666665,96.0857160942895L168,25.28570825713021L168.23333333333332,80.91428692000252L168.46666666666667,101.1428541285651L168.70000000000002,91.0285780600139L168.93333333333334,91.0285780600139L169.16666666666666,55.628566605704165L169.4,60.685719711439944L169.63333333333333,35.40001446860177L169.86666666666667,65.74285774571554L170.10000000000002,91.0285780600139L170.33333333333331,25.28570825713021L170.56666666666666,45.51429053715295L170.79999999999998,20.228570222854593L171.03333333333333,80.91428692000252L171.26666666666668,-30.342870405742104L171.5,70.79999577999115L171.73333333333332,85.97142495427812L171.96666666666667,65.74285774571554L172.2,60.685719711439944L172.43333333333334,25.28570825713021L172.66666666666669,55.628566605704165L172.9,40.45715250287736L173.13333333333333,35.40001446860177L173.36666666666667,50.57142857142857L173.6,60.685719711439944L173.83333333333334,55.628566605704165L174.06666666666666,25.28570825713021L174.3,40.45715250287736L174.53333333333333,35.40001446860177L174.76666666666665,25.28570825713021L175,55.628566605704165L175.23333333333335,15.171432188579L175.46666666666667,80.91428692000252L175.7,80.91428692000252L175.93333333333334,75.85714888572693L176.16666666666666,55.628566605704165L176.4,106.20000723430088L176.63333333333333,10.114294154303407L176.86666666666667,15.171432188579L177.1,5.057156120027812L177.33333333333331,50.57142857142857L177.56666666666666,-0.000012057168171208943L177.8,35.40001446860177L178.03333333333333,80.91428692000252L178.26666666666668,106.20000723430088L178.5,65.74285774571554L178.73333333333332,91.0285780600139L178.96666666666667,40.45715250287736L179.20000000000002,45.51429053715295L179.43333333333334,70.79999577999115L179.66666666666669,50.57142857142857L179.89999999999998,15.171432188579L180.13333333333333,40.45715250287736L180.36666666666667,15.171432188579L180.6,70.79999577999115L180.83333333333334,65.74285774571554L181.06666666666666,10.114294154303407L181.29999999999998,141.60000361715043L181.53333333333333,40.45715250287736L181.76666666666668,85.97142495427812L182,111.25714526857648L182.23333333333335,45.51429053715295L182.46666666666664,65.74285774571554L182.7,111.25714526857648L182.93333333333334,75.85714888572693L183.16666666666666,45.51429053715295L183.4,65.74285774571554L183.63333333333335,80.91428692000252L183.86666666666665,70.79999577999115L184.1,5.057156120027812L184.33333333333334,15.171432188579L184.56666666666666,30.342846291405802L184.8,20.228570222854593L185.03333333333336,10.114294154303407L185.26666666666665,35.40001446860177L185.5,40.45715250287736L185.73333333333332,60.685719711439944L185.96666666666667,15.171432188579L186.20000000000002,45.51429053715295L186.43333333333334,80.91428692000252L186.66666666666666,40.45715250287736L186.9,50.57142857142857L187.13333333333333,35.40001446860177L187.36666666666667,91.0285780600139L187.60000000000002,75.85714888572693L187.83333333333331,55.628566605704165L188.06666666666666,-10.11428812571936L188.29999999999998,45.51429053715295L188.53333333333333,40.45715250287736L188.76666666666668,55.628566605704165L189,106.20000723430088L189.23333333333332,20.228570222854593L189.46666666666667,-10.11428812571936L189.93333333333334,-0.000012057168171208943L190.16666666666669,60.685719711439944L190.4,55.628566605704165L190.63333333333333,45.51429053715295L190.86666666666667,106.20000723430088L191.1,65.74285774571554L191.33333333333334,40.45715250287736L191.56666666666666,70.79999577999115L191.8,40.45715250287736L192.03333333333333,-0.000012057168171208943L192.26666666666665,20.228570222854593L192.5,65.74285774571554L192.73333333333335,70.79999577999115L192.96666666666667,60.685719711439944L193.2,-15.171426159994954L193.43333333333334,20.228570222854593L193.66666666666666,65.74285774571554L193.9,70.79999577999115L194.13333333333333,45.51429053715295L194.36666666666667,45.51429053715295L194.6,55.628566605704165L194.83333333333331,15.171432188579L195.06666666666666,55.628566605704165L195.3,25.28570825713021L195.53333333333333,-0.000012057168171208943L195.76666666666668,15.171432188579L196,55.628566605704165L196.23333333333332,30.342846291405802L196.46666666666667,10.114294154303407L196.70000000000002,80.91428692000252L196.93333333333334,70.79999577999115L197.16666666666669,60.685719711439944L197.39999999999998,80.91428692000252L197.63333333333333,91.0285780600139L197.86666666666667,-55.62856057712012L198.1,55.628566605704165L198.33333333333334,20.228570222854593L198.56666666666666,25.28570825713021L198.79999999999998,25.28570825713021L199.03333333333333,-15.171426159994954L199.26666666666668,5.057156120027812L199.5,55.628566605704165L199.73333333333335,15.171432188579L199.96666666666664,70.79999577999115L200.2,45.51429053715295L200.43333333333334,65.74285774571554L200.66666666666666,20.228570222854593L200.9,-0.000012057168171208943L201.13333333333335,30.342846291405802L201.36666666666665,70.79999577999115L201.6,35.40001446860177L201.83333333333334,40.45715250287736L202.06666666666666,5.057156120027812L202.3,-10.11428812571936L202.53333333333336,65.74285774571554L202.76666666666665,-15.171426159994954L203,106.20000723430088L203.23333333333332,40.45715250287736L203.46666666666667,91.0285780600139L203.70000000000002,91.0285780600139L203.93333333333334,5.057156120027812L204.16666666666666,75.85714888572693L204.4,106.20000723430088L204.63333333333333,75.85714888572693L204.86666666666667,126.42857444286346L205.10000000000002,80.91428692000252L205.33333333333331,40.45715250287736L205.56666666666666,96.0857160942895L205.79999999999998,65.74285774571554L206.03333333333333,101.1428541285651L206.26666666666668,25.28570825713021L206.5,80.91428692000252L206.73333333333332,45.51429053715295L206.96666666666667,-25.285702228546143L207.2,35.40001446860177L207.43333333333334,65.74285774571554L207.66666666666669,45.51429053715295L207.9,60.685719711439944L208.13333333333333,20.228570222854593L208.36666666666667,-15.171426159994954L208.6,45.51429053715295L208.83333333333334,91.0285780600139L209.06666666666666,70.79999577999115L209.3,55.628566605704165L209.53333333333333,75.85714888572693L209.76666666666665,5.057156120027812L210,55.628566605704165L210.23333333333335,116.31428330285209L210.46666666666667,25.28570825713021L210.7,45.51429053715295L210.93333333333334,5.057156120027812L211.16666666666666,-35.4000084400177L211.4,20.228570222854593L211.63333333333333,-5.0571500914437655L211.86666666666667,30.342846291405802L212.1,-35.4000084400177L212.33333333333331,75.85714888572693L212.56666666666666,91.0285780600139L212.8,5.057156120027812L213.03333333333333,45.51429053715295L213.26666666666668,10.114294154303407L213.5,-10.11428812571936L213.73333333333332,50.57142857142857L213.96666666666667,50.57142857142857L214.20000000000002,45.51429053715295L214.43333333333334,25.28570825713021L214.66666666666669,25.28570825713021L214.89999999999998,-10.11428812571936L215.13333333333333,25.28570825713021L215.36666666666667,35.40001446860177L215.6,65.74285774571554L215.83333333333334,55.628566605704165L216.06666666666666,-15.171426159994954L216.29999999999998,55.628566605704165L216.53333333333333,5.057156120027812L216.76666666666668,-25.285702228546143L217,20.228570222854593L217.23333333333335,35.40001446860177L217.46666666666664,70.79999577999115L217.7,25.28570825713021L217.93333333333334,20.228570222854593L218.16666666666666,-15.171426159994954L218.4,25.28570825713021L218.63333333333335,15.171432188579L218.86666666666665,15.171432188579L219.1,20.228570222854593L219.33333333333334,50.57142857142857L219.56666666666666,25.28570825713021L219.8,55.628566605704165L220.03333333333336,-0.000012057168171208943L220.26666666666665,45.51429053715295L220.5,-10.11428812571936L220.73333333333332,106.20000723430088L220.96666666666667,10.114294154303407L221.20000000000002,45.51429053715295L221.43333333333334,60.685719711439944L221.66666666666666,40.45715250287736L221.9,-15.171426159994954L222.13333333333333,50.57142857142857L222.36666666666667,20.228570222854593L222.60000000000002,70.79999577999115L222.83333333333331,20.228570222854593L223.06666666666666,70.79999577999115L223.29999999999998,156.7714327914374L223.53333333333333,35.40001446860177L223.76666666666668,-0.000012057168171208943L224,50.57142857142857L224.23333333333332,15.171432188579L224.46666666666667,-35.4000084400177L224.7,10.114294154303407L224.93333333333334,-15.171426159994954L225.16666666666669,50.57142857142857L225.4,35.40001446860177L225.63333333333333,5.057156120027812L225.86666666666667,60.685719711439944L226.1,25.28570825713021L226.33333333333334,45.51429053715295L226.56666666666666,15.171432188579L226.8,-30.342870405742104L227.5,-0.000012057168171208943L227.73333333333335,45.51429053715295L227.96666666666667,55.628566605704165L228.2,-10.11428812571936L228.43333333333334,80.91428692000252L228.66666666666666,10.114294154303407L228.9,5.057156120027812L229.13333333333333,70.79999577999115L229.36666666666667,85.97142495427812L229.6,40.45715250287736L229.83333333333331,5.057156120027812L230.06666666666666,-5.0571500914437655L230.3,50.57142857142857L230.53333333333333,-25.285702228546143L230.76666666666668,15.171432188579L231,20.228570222854593L231.23333333333332,-25.285702228546143L231.46666666666667,5.057156120027812L231.70000000000002,-15.171426159994954L231.93333333333334,10.114294154303407L232.16666666666669,25.28570825713021L232.39999999999998,55.628566605704165L232.63333333333333,15.171432188579L232.86666666666667,30.342846291405802L233.1,45.51429053715295L233.33333333333334,20.228570222854593L233.56666666666666,85.97142495427812L233.79999999999998,15.171432188579L234.03333333333333,50.57142857142857L234.26666666666668,20.228570222854593L234.5,35.40001446860177L234.73333333333335,30.342846291405802L234.96666666666664,96.0857160942895L235.2,45.51429053715295L235.43333333333334,-5.0571500914437655L235.66666666666666,50.57142857142857L235.9,5.057156120027812L236.13333333333335,50.57142857142857L236.36666666666665,45.51429053715295L236.6,45.51429053715295L236.83333333333334,-15.171426159994954L237.06666666666666,35.40001446860177L237.3,-25.285702228546143L237.53333333333336,35.40001446860177L237.76666666666665,20.228570222854593L238,20.228570222854593L238.23333333333332,30.342846291405802L238.46666666666667,-5.0571500914437655L238.70000000000002,91.0285780600139L238.93333333333334,-20.228564194270547L239.16666666666666,30.342846291405802L239.4,5.057156120027812L239.63333333333333,50.57142857142857L239.86666666666667,-25.285702228546143L240.33333333333331,-5.0571500914437655L240.56666666666666,80.91428692000252L240.79999999999998,10.114294154303407L241.03333333333333,-20.228564194270547L241.26666666666668,20.228570222854593L241.5,30.342846291405802L241.73333333333332,5.057156120027812L241.96666666666667,-10.11428812571936L242.2,-15.171426159994954L242.43333333333334,60.685719711439944L242.66666666666669,-5.0571500914437655L244.53333333333333,-0.000012057168171208943L244.76666666666665,10.114294154303407L245,20.228570222854593L245.23333333333335,25.28570825713021L245.46666666666667,25.28570825713021L245.7,-5.0571500914437655L245.93333333333334,-10.11428812571936L246.16666666666666,20.228570222854593L246.4,10.114294154303407L246.63333333333333,10.114294154303407L246.86666666666667,-30.342870405742104L247.1,-15.171426159994954L247.33333333333331,30.342846291405802L247.56666666666666,10.114294154303407L247.8,-30.342870405742104L248.03333333333333,-0.000012057168171208943L248.26666666666668,10.114294154303407L248.5,5.057156120027812L248.73333333333332,40.45715250287736L248.96666666666667,75.85714888572693L249.20000000000002,25.28570825713021L249.43333333333334,55.628566605704165L249.66666666666669,50.57142857142857L249.89999999999998,45.51429053715295L250.13333333333333,111.25714526857648L250.36666666666667,-45.51428450856893L250.6,-50.57142254284452L250.83333333333334,20.228570222854593L251.06666666666666,10.114294154303407L251.29999999999998,70.79999577999115L251.53333333333333,50.57142857142857L251.76666666666668,55.628566605704165L252,55.628566605704165L252.23333333333335,60.685719711439944L252.46666666666664,-50.57142254284452L252.7,25.28570825713021L252.93333333333334,5.057156120027812L253.16666666666666,-50.57142254284452L253.4,10.114294154303407L253.63333333333335,40.45715250287736L253.86666666666665,35.40001446860177L254.1,-10.11428812571936L254.33333333333334,10.114294154303407L254.56666666666666,-35.4000084400177L254.8,-20.228564194270547L255.03333333333336,20.228570222854593L255.26666666666665,30.342846291405802L255.5,-10.11428812571936L255.73333333333332,25.28570825713021L255.96666666666667,45.51429053715295L256.2,35.40001446860177L256.43333333333334,55.628566605704165" style="fill: none;" fill="none"></path></g></g></g></g></g></g><g transform="translate(50, 177)" clip-path="url(#clip_1)"><clipPath id="clip_1"><rect width="280" height="23"></rect></clipPath><g><g><line x1="0" y1="0" x2="0" y2="5" style="visibility: inherit;" fill="rgb(0, 0, 0)" stroke="rgb(204, 204, 204)" stroke-width="1px"></line><line x1="23.333333333333332" y1="0" x2="23.333333333333332" y2="5" style="visibility: inherit;" fill="rgb(0, 0, 0)" stroke="rgb(204, 204, 204)" stroke-width="1px"></line><line x1="46.666666666666664" y1="0" x2="46.666666666666664" y2="5" style="visibility: inherit;" fill="rgb(0, 0, 0)" stroke="rgb(204, 204, 204)" stroke-width="1px"></line><line x1="70" y1="0" x2="70" y2="5" style="visibility: inherit;" fill="rgb(0, 0, 0)" stroke="rgb(204, 204, 204)" stroke-width="1px"></line><line x1="93.33333333333333" y1="0" x2="93.33333333333333" y2="5" style="visibility: inherit;" fill="rgb(0, 0, 0)" stroke="rgb(204, 204, 204)" stroke-width="1px"></line><line x1="116.66666666666667" y1="0" x2="116.66666666666667" y2="5" style="visibility: inherit;" fill="rgb(0, 0, 0)" stroke="rgb(204, 204, 204)" stroke-width="1px"></line><line x1="140" y1="0" x2="140" y2="5" style="visibility: inherit;" fill="rgb(0, 0, 0)" stroke="rgb(204, 204, 204)" stroke-width="1px"></line><line x1="163.33333333333334" y1="0" x2="163.33333333333334" y2="5" style="visibility: inherit;" fill="rgb(0, 0, 0)" stroke="rgb(204, 204, 204)" stroke-width="1px"></line><line x1="186.66666666666666" y1="0" x2="186.66666666666666" y2="5" style="visibility: inherit;" fill="rgb(0, 0, 0)" stroke="rgb(204, 204, 204)" stroke-width="1px"></line><line x1="210" y1="0" x2="210" y2="5" style="visibility: inherit;" fill="rgb(0, 0, 0)" stroke="rgb(204, 204, 204)" stroke-width="1px"></line><line x1="233.33333333333334" y1="0" x2="233.33333333333334" y2="5" style="visibility: inherit;" fill="rgb(0, 0, 0)" stroke="rgb(204, 204, 204)" stroke-width="1px"></line><line x1="256.66666666666663" y1="0" x2="256.66666666666663" y2="5" style="visibility: inherit;" fill="rgb(0, 0, 0)" stroke="rgb(204, 204, 204)" stroke-width="1px"></line><line x1="280" y1="0" x2="280" y2="5" style="visibility: inherit;" fill="rgb(0, 0, 0)" stroke="rgb(204, 204, 204)" stroke-width="1px"></line></g><g transform="translate(0, 8)"><text x="0" y="0" dx="0em" dy="0.95em" style="text-anchor: middle; visibility: hidden; font-family: Roboto, sans-serif; font-size: 12px; font-weight: 200;" fill="rgb(33, 33, 33)" stroke="none" stroke-width="1px">-100</text><text x="23.333333333333332" y="0" dx="0em" dy="0.95em" style="text-anchor: middle; visibility: inherit; font-family: Roboto, sans-serif; font-size: 12px; font-weight: 200;" fill="rgb(33, 33, 33)" stroke="none" stroke-width="1px">0</text><text x="46.666666666666664" y="0" dx="0em" dy="0.95em" style="text-anchor: middle; visibility: hidden; font-family: Roboto, sans-serif; font-size: 12px; font-weight: 200;" fill="rgb(33, 33, 33)" stroke="none" stroke-width="1px">100</text><text x="70" y="0" dx="0em" dy="0.95em" style="text-anchor: middle; visibility: inherit; font-family: Roboto, sans-serif; font-size: 12px; font-weight: 200;" fill="rgb(33, 33, 33)" stroke="none" stroke-width="1px">200</text><text x="93.33333333333333" y="0" dx="0em" dy="0.95em" style="text-anchor: middle; visibility: hidden; font-family: Roboto, sans-serif; font-size: 12px; font-weight: 200;" fill="rgb(33, 33, 33)" stroke="none" stroke-width="1px">300</text><text x="116.66666666666667" y="0" dx="0em" dy="0.95em" style="text-anchor: middle; visibility: inherit; font-family: Roboto, sans-serif; font-size: 12px; font-weight: 200;" fill="rgb(33, 33, 33)" stroke="none" stroke-width="1px">400</text><text x="140" y="0" dx="0em" dy="0.95em" style="text-anchor: middle; visibility: hidden; font-family: Roboto, sans-serif; font-size: 12px; font-weight: 200;" fill="rgb(33, 33, 33)" stroke="none" stroke-width="1px">500</text><text x="163.33333333333334" y="0" dx="0em" dy="0.95em" style="text-anchor: middle; visibility: inherit; font-family: Roboto, sans-serif; font-size: 12px; font-weight: 200;" fill="rgb(33, 33, 33)" stroke="none" stroke-width="1px">600</text><text x="186.66666666666666" y="0" dx="0em" dy="0.95em" style="text-anchor: middle; visibility: hidden; font-family: Roboto, sans-serif; font-size: 12px; font-weight: 200;" fill="rgb(33, 33, 33)" stroke="none" stroke-width="1px">700</text><text x="210" y="0" dx="0em" dy="0.95em" style="text-anchor: middle; visibility: inherit; font-family: Roboto, sans-serif; font-size: 12px; font-weight: 200;" fill="rgb(33, 33, 33)" stroke="none" stroke-width="1px">800</text><text x="233.33333333333334" y="0" dx="0em" dy="0.95em" style="text-anchor: middle; visibility: hidden; font-family: Roboto, sans-serif; font-size: 12px; font-weight: 200;" fill="rgb(33, 33, 33)" stroke="none" stroke-width="1px">900</text><text x="256.66666666666663" y="0" dx="0em" dy="0.95em" style="text-anchor: middle; visibility: inherit; font-family: Roboto, sans-serif; font-size: 12px; font-weight: 200;" fill="rgb(33, 33, 33)" stroke="none" stroke-width="1px">1k</text><text x="280" y="0" dx="0em" dy="0.95em" style="text-anchor: middle; visibility: hidden; font-family: Roboto, sans-serif; font-size: 12px; font-weight: 200;" fill="rgb(33, 33, 33)" stroke="none" stroke-width="1px">1.1k</text></g><line x1="0" y1="0" x2="280" y2="0" fill="rgb(0, 0, 0)" stroke="rgb(204, 204, 204)" stroke-width="1px"></line></g></g></g></g></svg>