<svg viewBox="0 0 330 200" xmlns="http://www.w3.org/2000/svg"><g><g><g><g><g><line x1="51.5625" y1="177" x2="46.5625" y2="177" style="visibility: inherit;" fill="rgb(0, 0, 0)" stroke="rgb(204, 204, 204)" stroke-width="1px"></line><line x1="51.5625" y1="160.9090909090909" x2="46.5625" y2="160.9090909090909" style="visibility: inherit;" fill="rgb(0, 0, 0)" stroke="rgb(204, 204, 204)" stroke-width="1px"></line><line x1="51.5625" y1="144.81818181818187" x2="46.5625" y2="144.81818181818187" style="visibility: inherit;" fill="rgb(0, 0, 0)" stroke="rgb(204, 204, 204)" stroke-width="1px"></line><line x1="51.5625" y1="128.72727272727278" x2="46.5625" y2="128.72727272727278" style="visibility: inherit;" fill="rgb(0, 0, 0)" stroke="rgb(204, 204, 204)" stroke-width="1px"></line><line x1="51.5625" y1="112.63636363636365" x2="46.5625" y2="112.63636363636365" style="visibility: inherit;" fill="rgb(0, 0, 0)" stroke="rgb(204, 204, 204)" stroke-width="1px"></line><line x1="51.5625" y1="96.54545454545453" x2="46.5625" y2="96.54545454545453" style="visibility: inherit;" fill="rgb(0, 0, 0)" stroke="rgb(204, 204, 204)" stroke-width="1px"></line><line x1="51.5625" y1="80.45454545454544" x2="46.5625" y2="80.45454545454544" style="visibility: inherit;" fill="rgb(0, 0, 0)" stroke="rgb(204, 204, 204)" stroke-width="1px"></line><line x1="51.5625" y1="64.36363636363643" x2="46.5625" y2="64.36363636363643" style="visibility: inherit;" fill="rgb(0, 0, 0)" stroke="rgb(204, 204, 204)" stroke-width="1px"></line><line x1="51.5625" y1="48.27272727272731" x2="46.5625" y2="48.27272727272731" style="visibility: inherit;" fill="rgb(0, 0, 0)" stroke="rgb(204, 204, 204)" stroke-width="1px"></line><line x1="51.5625" y1="32.181818181818215" x2="46.5625" y2="32.181818181818215" style="visibility: inherit;" fill="rgb(0, 0, 0)" stroke="rgb(204, 204, 204)" stroke-width="1px"></line><line x1="51.5625" y1="16.090909090909097" x2="46.5625" y2="16.090909090909097" style="visibility: inherit;" fill="rgb(0, 0, 0)" stroke="rgb(204, 204, 204)" stroke-width="1px"></line><line x1="51.5625" y1="0" x2="46.5625" y2="0" style="visibility: inherit;" fill="rgb(0, 0, 0)" stroke="rgb(204, 204, 204)" stroke-width="1px"></line></g><g transform="translate(41.5625, 0)"><text x="0" y="177" dx="0em" dy="0.3em" style="text-anchor: end; visibility: hidden; font-family: Roboto, sans-serif; font-size: 12px; font-weight: 200;" fill="rgb(33, 33, 33)" stroke="none" stroke-width="1px">1.05</text><text x="0" y="160.9090909090909" dx="0em" dy="0.3em" style="text-anchor: end; visibility: inherit; font-family: Roboto, sans-serif; font-size: 12px; font-weight: 200;" fill="rgb(33, 33, 33)" stroke="none" stroke-width="1px">1.1</text><text x="0" y="144.81818181818187" dx="0em" dy="0.3em" style="text-anchor: end; visibility: hidden; font-family: Roboto, sans-serif; font-size: 12px; font-weight: 200;" fill="rgb(33, 33, 33)" stroke="none" stroke-width="1px">1.15</text><text x="0" y="128.72727272727278" dx="0em" dy="0.3em" style="text-anchor: end; visibility: inherit; font-family: Roboto, sans-serif; font-size: 12px; font-weight: 200;" fill="rgb(33, 33, 33)" stroke="none" stroke-width="1px">1.2</text><text x="0" y="112.63636363636365" dx="0em" dy="0.3em" style="text-anchor: end; visibility: hidden; font-family: Roboto, sans-serif; font-size: 12px; font-weight: 200;" fill="rgb(33, 33, 33)" stroke="none" stroke-width="1px">1.25</text><text x="0" y="96.54545454545453" dx="0em" dy="0.3em" style="text-anchor: end; visibility: inherit; font-family: Roboto, sans-serif; font-size: 12px; font-weight: 200;" fill="rgb(33, 33, 33)" stroke="none" stroke-width="1px">1.3</text><text x="0" y="80.45454545454544" dx="0em" dy="0.3em" style="text-anchor: end; visibility: hidden; font-family: Roboto, sans-serif; font-size: 12px; font-weight: 200;" fill="rgb(33, 33, 33)" stroke="none" stroke-width="1px">1.35</text><text x="0" y="64.36363636363643" dx="0em" dy="0.3em" style="text-anchor: end; visibility: inherit; font-family: Roboto, sans-serif; font-size: 12px; font-weight: 200;" fill="rgb(33, 33, 33)" stroke="none" stroke-width="1px">1.4</text><text x="0" y="48.27272727272731" dx="0em" dy="0.3em" style="text-anchor: end; visibility: hidden; font-family: Roboto, sans-serif; font-size: 12px; font-weight: 200;" fill="rgb(33, 33, 33)" stroke="none" stroke-width="1px">1.45</text><text x="0" y="32.181818181818215" dx="0em" dy="0.3em" style="text-anchor: end; visibility: inherit; font-family: Roboto, sans-serif; font-size: 12px; font-weight: 200;" fill="rgb(33, 33, 33)" stroke="none" stroke-width="1px">1.5</text><text x="0" y="16.090909090909097" dx="0em" dy="0.3em" style="text-anchor: end; visibility: hidden; font-family: Roboto, sans-serif; font-size: 12px; font-weight: 200;" fill="rgb(33, 33, 33)" stroke="none" stroke-width="1px">1.55</text><text x="0" y="0" dx="0em" dy="0.3em" style="text-anchor: end; visibility: hidden; font-family: Roboto, sans-serif; font-size: 12px; font-weight: 200;" fill="rgb(33, 33, 33)" stroke="none" stroke-width="1px">1.6</text></g><line x1="51.5625" y1="0" x2="51.5625" y2="177" fill="rgb(0, 0, 0)" stroke="rgb(204, 204, 204)" stroke-width="1px"></line></g></g><g transform="translate(51, 0)" clip-path="url(#clip_0)"><clipPath id="clip_0"><rect width="278" height="177"></rect></clipPath><g><g><g><line x1="0" y1="0" x2="0" y2="177" fill="rgb(0, 0, 0)" stroke="rgb(66, 66, 66)" stroke-width="1px" opacity="0.25"></line><line x1="23.203125" y1="0" x2="23.203125" y2="177" fill="rgb(0, 0, 0)" stroke="rgb(66, 66, 66)" stroke-width="1px" opacity="0.25"></line><line x1="46.40625" y1="0" x2="46.40625" y2="177" fill="rgb(0, 0, 0)" stroke="rgb(66, 66, 66)" stroke-width="1px" opacity="0.25"></line><line x1="69.609375" y1="0" x2="69.609375" y2="177" fill="rgb(0, 0, 0)" stroke="rgb(66, 66, 66)" stroke-width="1px" opacity="0.25"></line><line x1="92.8125" y1="0" x2="92.8125" y2="177" fill="rgb(0, 0, 0)" stroke="rgb(66, 66, 66)" stroke-width="1px" opacity="0.25"></line><line x1="116.015625" y1="0" x2="116.015625" y2="177" fill="rgb(0, 0, 0)" stroke="rgb(66, 66, 66)" stroke-width="1px" opacity="0.25"></line><line x1="139.21875" y1="0" x2="139.21875" y2="177" fill="rgb(0, 0, 0)" stroke="rgb(66, 66, 66)" stroke-width="1px" opacity="0.25"></line><line x1="162.421875" y1="0" x2="162.421875" y2="177" fill="rgb(0, 0, 0)" stroke="rgb(66, 66, 66)" stroke-width="1px" opacity="0.25"></line><line x1="185.625" y1="0" x2="185.625" y2="177" fill="rgb(0, 0, 0)" stroke="rgb(66, 66, 66)" stroke-width="1px" opacity="0.25"></line><line x1="208.828125" y1="0" x2="208.828125" y2="177" fill="rgb(0, 0, 0)" stroke="rgb(66, 66, 66)" stroke-width="1px" opacity="0.25"></line><line x1="232.03125" y1="0" x2="232.03125" y2="177" fill="rgb(0, 0, 0)" stroke="rgb(66, 66, 66)" stroke-width="1px" opacity="0.25"></line><line x1="255.234375" y1="0" x2="255.234375" y2="177" fill="rgb(0, 0, 0)" stroke="rgb(66, 66, 66)" stroke-width="1px" opacity="0.25"></line><line x1="278.4375" y1="0" x2="278.4375" y2="177" fill="rgb(0, 0, 0)" stroke="rgb(66, 66, 66)" stroke-width="1px" opacity="0.25"></line></g><g><line x1="0" y1="177" x2="278.4375" y2="177" fill="rgb(0, 0, 0)" stroke="rgb(66, 66, 66)" stroke-width="1px" opacity="0.25"></line><line x1="0" y1="160.9090909090909" x2="278.4375" y2="160.9090909090909" fill="rgb(0, 0, 0)" stroke="rgb(66, 66, 66)" stroke-width="1px" opacity="0.25"></line><line x1="0" y1="144.81818181818187" x2="278.4375" y2="144.81818181818187" fill="rgb(0, 0, 0)" stroke="rgb(66, 66, 66)" stroke-width="1px" opacity="0.25"></line><line x1="0" y1="128.72727272727278" x2="278.4375" y2="128.72727272727278" fill="rgb(0, 0, 0)" stroke="rgb(66, 66, 66)" stroke-width="1px" opacity="0.25"></line><line x1="0" y1="112.63636363636365" x2="278.4375" y2="112.63636363636365" fill="rgb(0, 0, 0)" stroke="rgb(66, 66, 66)" stroke-width="1px" opacity="0.25"></line><line x1="0" y1="96.54545454545453" x2="278.4375" y2="96.54545454545453" fill="rgb(0, 0, 0)" stroke="rgb(66, 66, 66)" stroke-width="1px" opacity="0.25"></line><line x1="0" y1="80.45454545454544" x2="278.4375" y2="80.45454545454544" fill="rgb(0, 0, 0)" stroke="rgb(66, 66, 66)" stroke-width="1px" opacity="0.25"></line><line x1="0" y1="64.36363636363643" x2="278.4375" y2="64.36363636363643" fill="rgb(0, 0, 0)" stroke="rgb(66, 66, 66)" stroke-width="1px" opacity="0.25"></line><line x1="0" y1="48.27272727272731" x2="278.4375" y2="48.27272727272731" fill="rgb(0, 0, 0)" stroke="rgb(66, 66, 66)" stroke-width="1px" opacity="0.25"></line><line x1="0" y1="32.181818181818215" x2="278.4375" y2="32.181818181818215" fill="rgb(0, 0, 0)" stroke="rgb(66, 66, 66)" stroke-width="1px" opacity="0.25"></line><line x1="0" y1="16.090909090909097" x2="278.4375" y2="16.090909090909097" fill="rgb(0, 0, 0)" stroke="rgb(66, 66, 66)" stroke-width="1px" opacity="0.25"></line><line x1="0" y1="0" x2="278.4375" y2="0" fill="rgb(0, 0, 0)" stroke="rgb(66, 66, 66)" stroke-width="1px" opacity="0.25"></line></g></g></g><g><g><line x1="0" y1="514.9090909090909" x2="278.4375" y2="514.9090909090909" fill="rgb(0, 0, 0)" stroke="rgb(153, 153, 153)" stroke-width="1.5px"></line></g></g><g><g><line x1="23.203125" y1="0" x2="23.203125" y2="177" fill="rgb(0, 0, 0)" stroke="rgb(153, 153, 153)" stroke-width="1.5px"></line></g></g><g><g><g><g><g><path stroke="rgb(255, 112, 67)" stroke-width="2px" d="M29.46796875,-5.4774858555837795L29.700000000000003,4.628250830585732L29.932031249999998,12.341576174985464L30.1640625,22.331637010363153L30.39609375,11.652999498347985L30.628125,1.3007075458141801L30.860156250000003,-1.6219606090170091L31.092187499999998,8.252496664917805L31.32421875,13.591464377178111L31.55625,20.100938032297726L31.78828125,22.389392038330854L32.0203125,26.478185919724634L32.25234375,22.136925729769597L32.484375,7.1389857279844575L32.71640625,2.4776235602631815L32.9484375,1.4059612249709286L33.18046875,16.39286380533904L33.4125,20.232604727694376L33.64453125,16.679429942746076L33.8765625,19.80427500553182L34.10859375,12.591569457336357L34.340625,14.656645717037744L34.57265625,8.12045560311014L34.8046875,-2.4723712193731453L35.03671875,8.608318708921203L35.268750000000004,16.217375480515095L35.50078125,20.146386172407453L35.7328125,19.731492300811937L35.96484375000001,21.485249414218057L36.196875,21.017195621181394L36.42890625,25.732209313433263L36.660937499999996,22.40922724516413L36.89296875,26.874414749808693L37.125,23.935268342849508L37.35703125,19.401705307522917L37.589062500000004,12.521252579599807L37.82109375,24.84951160052767L38.053124999999994,16.75805242207527L38.28515625,29.3571028280343L38.5171875,20.123521926451545L38.74921875,16.702155428958914L38.98125,23.592562431431L39.21328125,40.25401799557958L39.4453125,27.256416056081317L39.67734375,34.993610309946085L39.909375000000004,39.65170202262085L40.14140625,44.84300033053258L40.373437499999994,32.12364625378388L40.60546875,24.760180842813234L40.8375,32.240378185364285L41.06953125,44.554019620569136L41.3015625,40.06531950105686L41.53359375,39.455540816872826L41.765625,29.66007150356252L41.997656250000006,24.101469638449043L42.229687500000004,27.880307365955183L42.461718749999996,20.015997918330246L42.693749999999994,27.453968726001523L42.92578125,23.84685130479261L43.1578125,27.220245265519353L43.38984375,17.68906875410479L43.621875,15.563247691255732L43.85390625,16.37144196885724L44.0859375,19.55797751027717L44.317968750000006,26.179167838563814L44.550000000000004,26.547595494897415L44.782031249999996,34.416213508791465L45.014062499999994,32.964616244479416L45.24609375,22.302071096674325L45.478125,28.144533895575595L45.71015625,41.76571038930848L45.9421875,26.268524754730976L46.17421875,29.72314150092658L46.40625,20.528579991803547L46.638281250000006,26.358710300879377L46.8703125,26.21820478285027L47.102343749999996,19.77942749104251L47.334375,27.614240485242753L47.56640625,33.48974856332918L47.7984375,16.701158444749108L48.03046875,21.279951828573832L48.2625,25.2278433949515L48.49453125,24.81415002681131L48.7265625,20.858433721558885L48.958593750000006,21.420779695243326L49.190625,27.344404812912398L49.422656249999996,15.476841432336363L49.6546875,16.22057378765229L49.88671875,17.732971582217157L50.11875,14.663412536677164L50.350781250000004,15.496364755005219L50.5828125,28.158569883664963L50.81484375,17.383846576916437L51.04687499999999,28.90182070596549L51.27890625,20.966184375122932L51.5109375,17.05342333814197L51.742968749999996,18.912593792952013L51.975,28.106374607402962L52.20703125,29.093069742219438L52.4390625,31.763786455233816L52.671093750000004,36.98370014226647L52.903125,27.429396367375624L53.13515625,23.859560965372776L53.36718750000001,17.639182298162332L53.59921875,19.789248452217315L53.83125,27.92401973561485L54.063281249999996,27.214138053610338L54.2953125,41.67790412525152L54.52734375,32.652720241014464L54.759375,50.158135287919265L54.991406250000004,38.196174875310604L55.2234375,30.605100159727847L55.455468749999994,37.920879861101064L55.6875,18.43352226258571L55.91953125,14.238129898772387L56.1515625,16.584385625531638L56.38359375,27.44931700403656L56.615625,37.80869872154256L56.84765625,23.924502326464694L57.0796875,35.18673365157174L57.311718750000004,28.789491550085003L57.54375,36.52481979757699L57.775781249999994,27.808798697282867L58.0078125,35.52107848761242L58.23984375,40.8133049197714L58.471875,21.122898789237468L58.70390625,32.898259055175316L58.9359375,22.11291450625861L59.16796875,20.12885085996073L59.400000000000006,9.02364766100151L59.632031250000004,25.101831179580945L59.864062499999996,29.19577742700906L60.096093749999994,32.629146278953826L60.328125,38.37975714811514L60.56015625,32.63452489392169L60.7921875,36.05040895254956L61.02421875,39.837508849895535L61.25625,47.85065348248925L61.48828125,36.36861555376576L61.720312500000006,40.00579821770202L61.952343750000004,30.87876031656317L62.184374999999996,33.858959601387006L62.416406249999994,26.52475509571542L62.6484375,31.901056823298408L62.88046875,41.624607995901094L63.1125,28.290491736655266L63.34453125,32.720664195796154L63.5765625,31.196462682072873L63.80859375,30.837064756210868L64.040625,25.209088177346022L64.27265625,32.59263425087338L64.5046875,30.695740989755247L64.73671875000001,29.64120724477647L64.96875,42.24082347558899L65.20078125,52.02476806037894L65.4328125,49.12124535632457L65.66484375,60.36919366723602L65.896875,23.275722927109413L66.12890625,46.28305642652602L66.3609375,60.1860205874275L66.59296875,52.68904703096772L66.825,52.8200898417551L67.05703125000001,55.0013848106206L67.2890625,44.4854975026388L67.52109374999999,27.890253656002198L67.753125,17.53977183221771L67.98515625,18.81771196934794L68.2171875,39.72235828429212L68.44921875,33.817799385941676L68.68125,37.29082108747537L68.91328125,34.64277654849794L69.1453125,22.508255127124507L69.37734375000001,26.875702775260486L69.609375,40.711665866816475L69.84140625,40.08147989936794L70.0734375,42.08372952911496L70.30546875,39.311227409463406L70.53750000000001,24.67136772397614L70.76953125,31.344377564927687L71.0015625,41.05849995412333L71.23359375000001,43.91713065026945L71.465625,40.73637756396767L71.69765625000001,39.16486656426508L71.92968750000001,29.83298135310428L72.16171874999999,42.37951999014628L72.39375,23.98168836515931L72.62578124999999,25.652566517103637L72.8578125,32.77224943701777L73.08984375,39.11697357259444L73.32187499999999,37.168575329663966L73.55390625,48.832291732804826L73.7859375,46.730417762905105L74.01796875,40.777426159479816L74.25,39.724101788189415L74.48203125,50.363489930751726L74.7140625,46.63478466349038L74.94609375,39.135670831663575L75.17812500000001,35.912885646359214L75.41015625,41.739856846966354L75.6421875,35.56308873600413L75.87421875000001,46.04564904363213L76.10624999999999,39.00245857623702L76.33828125,14.01325675154943L76.5703125,25.281541277797324L76.80234374999999,32.96351741596487L77.034375,43.133968870904624L77.26640625,43.870383399818806L77.4984375,34.519479070958205L77.73046875,32.457258024184505L77.9625,28.052386753236988L78.19453125,30.684996799839293L78.4265625,35.32601812093588L78.65859375,37.49845341156856L78.890625,36.07574283232487L79.12265625,34.63218993850851L79.3546875,30.72955467050257L79.58671875,41.32563060586824L79.81875000000001,37.86055338529941L80.05078125,42.30369185839471L80.2828125,62.838964562946074L80.51484375000001,61.38528271559522L80.74687499999999,48.929701751188865L80.97890625,42.80896575466511L81.2109375,39.52969087219941L81.44296874999999,21.955627831341882L81.675,40.81978717271537L81.90703125,23.97293090986371L82.1390625,30.81116040069335L82.37109375,50.04459455376495L82.603125,50.197598001318546L82.83515625,58.8363911580244L83.0671875,51.40415775875174L83.29921875000001,49.41355358746871L83.53125,52.674415555357676L83.76328125,57.41572424901385L83.99531250000001,47.684376690854535L84.22734375,48.45044978937068L84.45937500000001,51.78433400353846L84.69140624999999,55.93482809585428L84.92343749999999,41.50474586624613L85.15546875,38.561954259832206L85.38749999999999,40.499314043714534L85.61953125,41.464080044992045L85.8515625,41.09397474652203L86.08359374999999,53.21931986211774L86.315625,58.393714452976226L86.54765625,57.06840075347297L86.7796875,45.63952681488783L87.01171875,59.82018955389852L87.24375,50.218948636402956L87.47578125,66.788710844162L87.7078125,40.03358604518241L87.93984375000001,54.09856087407432L88.171875,61.742511449537815L88.40390625,60.281517039705555L88.63593750000001,38.56530439857259L88.86796875,43.868154605973714L89.10000000000001,57.73917783868527L89.33203125000001,43.383433526913855L89.56406249999999,48.92662811971604L89.79609375,46.08019113089056L90.02812499999999,60.71214182322644L90.26015625,56.09818575089604L90.4921875,38.80991256581635L90.72421874999999,49.34833549142742L90.95625,42.77657674956834L91.18828125,39.2448265852136L91.4203125,52.88677295835253L91.65234375,53.281743063008705L91.884375,39.67217019624249L92.11640625,70.5742249172894L92.3484375,55.562551019959315L92.58046875000001,67.02926489126138L92.8125,73.78806386889434L93.04453125,79.94774657786738L93.27656250000001,77.9760689720833L93.50859374999999,56.929557478636816L93.740625,62.08746868254448L93.97265625,57.77508707084379L94.20468749999999,44.03369900292666L94.43671875,67.80789942078788L94.66875,53.79977216062925L94.90078125,44.068385895337734L95.1328125,50.3721769104604L95.36484375,51.284538591732996L95.596875,53.91260410943545L95.82890625,37.316397307996354L96.0609375,54.46081304688501L96.29296875,56.468372909335564L96.525,50.08915394052542L96.75703125,54.65634038261474L96.9890625,56.59586336847381L97.22109375000001,64.49092094952331L97.453125,69.8667267286773L97.68515625,59.45037940504306L97.91718750000001,57.33490600855987L98.14921874999999,52.314003411959675L98.38125,46.227331188827364L98.61328125,65.13824200969424L98.84531249999999,54.70822312385195L99.07734375,46.1550947609023L99.309375,61.376918901135845L99.54140625,59.68576741220911L99.7734375,56.4961760304332L100.00546875,56.38057464513761L100.2375,59.38390200338003L100.46953125,67.40094330690863L100.70156250000001,59.22422128948746L100.93359375,56.62501371685211L101.165625,56.957572341300704L101.39765625000001,58.29054051115917L101.6296875,68.01149684961436L101.86171875000001,71.13172518260579L102.09374999999999,56.02154911297038L102.32578124999999,59.26820165683589L102.5578125,48.55509244879127L102.78984374999999,54.21913286462727L103.021875,60.41522349041612L103.25390625,82.29880367210833L103.48593749999999,83.43135920188894L103.71796875,60.0233275311875L103.95,77.00209540884366L104.18203125,52.32465581805457L104.4140625,65.66839793585675L104.64609375,60.11662946391772L104.878125,66.41062594800395L105.11015625,63.24454149703614L105.34218750000001,50.336928686285454L105.57421875,41.58426994023696L105.80625,38.10038269071022L106.03828125000001,43.18134923500944L106.2703125,42.39613552145223L106.50234375000001,59.50542605344419L106.73437500000001,55.357721272741436L106.96640624999999,53.914693833480186L107.1984375,76.89909371527693L107.43046874999999,78.9104459593076L107.6625,63.07532702035886L107.89453125,50.17139397513813L108.12656249999999,53.0243101136096L108.35859375,33.01097852630119L108.590625,61.456045792899204L108.82265625,52.43555922456322L109.0546875,53.43660655163913L109.28671875,85.42940507367257L109.51875,76.92137059644412L109.75078125,82.59882597697383L109.98281250000001,66.25341734577243L110.21484375,66.55745148126609L110.446875,71.5563905727363L110.67890625000001,78.29512688792006L110.91093749999999,93.12767297681829L111.14296875,88.9724114337961L111.375,60.97866175604626L111.60703124999999,73.32332244480763L111.8390625,81.9467704277777L112.07109375,65.99278945379355L112.303125,58.44531457054721L112.53515625,76.08826508343718L112.7671875,72.87368572214817L112.99921875,56.38282312970564L113.23125,92.47940449835667L113.46328125,93.11020013101532L113.6953125,77.41058190111903L113.92734375,67.24465201653703L114.159375,57.20464931289407L114.39140625,55.27255241760372L114.62343750000001,45.001942226873936L114.85546875,37.26496037382744L115.0875,49.833609319777636L115.31953125000001,53.5592968673904L115.55156249999999,60.898848463867985L115.78359375,79.71473830112129L116.015625,66.78755959860378L116.24765624999999,62.834262970854404L116.4796875,72.67239721913045L116.71171875,65.89476499302174L116.94375,85.73088356731854L117.17578125,87.18559287551516L117.4078125,76.77474396022788L117.63984375,87.84764198743156L117.871875,88.47059443165568L118.10390625000001,71.11320842193844L118.3359375,70.67360406234057L118.56796875,74.59010548605497L118.80000000000001,70.3576211904145L119.03203125,80.6838020309602L119.26406250000001,76.63167173468386L119.49609374999999,75.92519557412993L119.72812499999999,76.5777343897938L119.96015625,61.70121962307856L120.19218749999999,72.6309281128475L120.42421875,80.62699360476901L120.65625,80.61142891488113L120.88828124999999,58.63869342167705L121.1203125,60.3914895591708L121.35234375,57.501295338507674L121.584375,58.83417381995361L121.81640625,70.55005100189977L122.0484375,88.59111494964513L122.28046875,88.73518713745624L122.5125,86.45701370930924L122.74453125000001,67.74317247285563L122.9765625,80.94855017269492L123.20859375,92.74296738389036L123.44062500000001,101.52462404994094L123.67265625,86.19099775135905L123.90468750000001,81.79392862698394L124.13671875000001,70.69997101924123L124.36874999999999,63.39825735575196L124.60078125,67.4657482575008L124.83281249999999,61.77583563857147L125.06484375,51.75053063840305L125.296875,62.11930948924853L125.52890624999999,54.59017669003129L125.7609375,69.02291529788216L125.99296875,84.11181100040683L126.225,78.99069113196572L126.45703125,73.06911425443025L126.6890625,72.7463777385879L126.92109375,82.19903154996311L127.153125,89.27450569006535L127.38515625000001,75.67143921573603L127.6171875,75.5390792249095L127.84921875,92.82559812254782L128.08125,75.9968976530475L128.31328125,70.6972443054127L128.5453125,76.06735902748372L128.77734375,74.8673342959125L129.009375,86.53720405890955L129.24140625,86.48420719403498L129.47343750000002,89.56465792931378L129.70546875,83.78565368384115L129.9375,79.09773250418898L130.16953125,75.58425883595402L130.4015625,79.08880175112965L130.63359375,100.00980529273212L130.865625,107.51271413669333L131.09765625,80.58302021674615L131.3296875,92.39988805986283L131.56171874999998,100.12167503590219L131.79375,105.62907167331909L132.02578125,93.33747716633941L132.2578125,95.25378300210191L132.48984375,88.66496031071048L132.721875,76.99693808037496L132.95390625,68.01813753944259L133.1859375,62.26400800917248L133.41796875,61.40950584851109L133.65,68.49794587485705L133.88203125,68.68167837474562L134.11406250000002,87.851825701189L134.34609375,81.27617880305982L134.578125,77.98225261223034L134.81015625,81.85478312750777L135.04218749999998,106.15239392019475L135.27421875,105.16290272868153L135.50625,58.10215347331288L135.73828125,44.46934378284579L135.9703125,39.21696301672783L136.20234375,76.71344242102083L136.434375,76.35468794739676L136.66640625,90.10454942323983L136.8984375,76.4119855278841L137.13046875,86.8668865640338L137.3625,73.71293204412213L137.59453125,95.56359603580498L137.8265625,83.24371469906421L138.05859375,84.05198433063568L138.290625,83.0156712828352L138.52265625,76.84644396565727L138.75468750000002,83.43293620569389L138.98671875,88.07152673529043L139.21875,71.7404502035222L139.45078125,69.6359852932337L139.6828125,57.41721195203003L139.91484375,58.85851769037757L140.146875,68.5490583334537L140.37890625,88.99791304683625L140.6109375,81.51529797888632L140.84296875,78.73475579497232L141.07500000000002,79.10569221585837L141.30703125,78.86850328603026L141.5390625,87.24572794055132L141.77109375,102.62115105529647L142.003125,106.28707268343203L142.23515625000002,95.07836852266796L142.46718750000002,132.20792301553948L142.69921875,150.89838731540507L142.93125,128.07946077627804L143.16328125,103.90112198703487L143.39531250000002,87.1908904565698L143.62734375000002,64.2998627401839L143.85937500000003,57.011654902327905L144.09140624999998,42.524381788054235L144.32343749999998,40.78053103719357L144.55546875,74.68009852884919L144.7875,85.54734628563892L145.01953125,90.47262366729622L145.25156249999998,84.58113234329987L145.48359374999998,72.59957525295371L145.715625,61.52344506479719L145.94765625,56.589954979025L146.1796875,54.03275668159556L146.41171875,71.25435143757392L146.64374999999998,50.30484304998884L146.87578125,69.83163529305034L147.1078125,67.75478818544045L147.33984375,80.16930893324249L147.571875,74.93417863622946L147.80390625,68.76193715568674L148.0359375,78.38088398835835L148.26796875,91.08294909557402L148.5,97.03944837774348L148.73203125,97.51366704647138L148.9640625,82.40363665352537L149.19609375000002,74.99451665619989L149.428125,88.33065809441685L149.66015625,74.10606274494464L149.8921875,82.95089791058318L150.12421875,88.04233303082366L150.35625000000002,89.15712559794088L150.58828125000002,68.28966935456974L150.8203125,67.17810462593657L151.05234375,84.7448112279046L151.284375,89.34998354266209L151.51640625000002,84.88484093625505L151.74843750000002,101.30563819184667L151.98046874999997,94.92297522453961L152.21249999999998,85.72046217621104L152.44453124999998,98.85358786924756L152.6765625,106.95209043447807L152.90859375,105.66578490380313L153.140625,100.20465102373608L153.37265624999998,95.43344305231871L153.60468749999998,109.11111201211634L153.83671875,108.21705713868853L154.06875,113.9004262041005L154.30078125,109.92098196452572L154.5328125,102.94911213417642L154.76484374999998,92.07804348289844L154.996875,81.19519707529038L155.22890625,86.83597940892048L155.4609375,85.49540464530796L155.69296875,100.92040051381937L155.925,101.3471855569822L156.15703125,89.9824570847553L156.3890625,98.40758098885696L156.62109375,103.60096420319404L156.853125,105.93520296497066L157.08515625,127.14113779377513L157.3171875,99.16739370531783L157.54921875,99.75520499358203L157.78125,116.4677305123513L158.01328125,114.44805663127443L158.2453125,89.54928124508322L158.47734375000002,110.73336849763811L158.709375,94.16902098206123L158.94140625,98.8442417386564L159.1734375,85.0861156747413L159.40546875,102.1288580353824L159.63750000000002,102.44934471527799L159.86953125000002,99.9643556903062L160.1015625,96.18350874582659L160.33359375,72.21348997636109L160.565625,94.41821886166557L160.79765625000002,107.16667462463319L161.02968750000002,68.3588215631932L161.26171875000003,84.71546107936764L161.49374999999998,105.18274203999341L161.72578124999998,114.23201096745977L161.9578125,51.05004436082143L162.18984375,81.48651645691368L162.421875,93.25848646772066L162.65390624999998,98.47221506830444L162.88593749999998,55.24908731263351L163.11796875,61.078066362411384L163.35,82.77007565867774L163.58203125,89.89752488878133L163.8140625,95.50431001674825L164.04609374999998,82.1311661381118L164.278125,76.55895149796937L164.51015625,100.5794030823421L164.7421875,92.20308915040293L164.97421875,87.45483926419527L165.20625,82.42503479520042L165.43828125,96.27488043383856L165.6703125,86.01905069960092L165.90234375,103.00027054024946L166.134375,117.35735838641111L166.36640625,117.52844756913363L166.59843750000002,113.0237107617172L166.83046875,100.17190084764975L167.0625,116.13864004666472L167.29453125,102.11176991278667L167.5265625,79.07985434421744L167.75859375000002,83.22324172820689L167.99062500000002,76.54709785300304L168.22265625,80.48644520818968L168.4546875,96.3539438322336L168.68671875,115.36240399548497L168.91875000000002,100.80029247205904L169.15078125000002,89.1852250500245L169.38281249999997,117.16553061897622L169.61484374999998,118.07688975477527L169.84687499999998,131.50097784215072L170.07890625,107.98055720380901L170.3109375,141.39884762794946L170.54296875,116.20973107876719L170.77499999999998,106.48690045437257L171.00703124999998,100.58683284963882L171.2390625,103.19783115024076L171.47109375,114.9130910504849L171.703125,90.39461173880585L171.93515625,103.37021959746608L172.16718749999998,109.56783283741477L172.39921875,104.03271933842969L172.63125,99.25706789761345L172.86328125,105.09201557016654L173.0953125,108.83180598364044L173.32734375,123.60936738978926L173.559375,117.90275585285218L173.79140625,118.14464156407952L174.0234375,122.50752605436458L174.25546875,129.03613076850522L174.4875,101.50736823119482L174.71953125,100.49017252424383L174.9515625,102.57131536271858L175.18359375,106.9374060035476L175.415625,87.51105895371883L175.64765625,123.01610541021181L175.87968750000002,136.02945531738288L176.11171875,131.06943717580353L176.34375,121.10444712465161L176.57578125,136.54560419758707L176.8078125,120.06628023345151L177.03984375000002,88.8906133556082L177.27187500000002,83.9267896837585L177.50390625,88.03301564721912L177.7359375,88.80196498012279L177.96796875,82.45744241580806L178.20000000000002,92.75238717813916L178.43203125000002,94.49553651886413L178.66406250000003,92.92572652862812L178.89609374999998,109.72953018666931L179.12812499999998,117.17200502717375L179.36015625,129.2913890375889L179.5921875,122.77677227711767L179.82421875,106.4634319880968L180.05624999999998,123.66371946840412L180.28828124999998,91.39407412919034L180.5203125,86.04105899541968L180.75234375,80.1237331866694L180.984375,92.02613541773341L181.21640625,93.41186832200684L181.44843749999998,100.95362853728821L181.68046875,92.89039826661562L181.9125,93.41073577781829L182.14453125,90.80488656487431L182.3765625,101.43631257566L182.60859375,100.22014970859286L182.840625,99.51354694587769L183.07265625,124.17670924579592L183.3046875,122.69878441976982L183.53671875,134.67220725783557L183.76875,131.16082500319988L184.00078125000002,152.71458781627877L184.2328125,136.25609513930226L184.46484375,128.16802749900884L184.696875,111.23434507010067L184.92890625,110.99468587243257L185.16093750000002,116.43930229189223L185.39296875000002,107.99737369746752L185.625,116.29118397508893L185.85703125,111.85131068523542L186.0890625,105.21631234692117L186.32109375000002,93.12247676625708L186.55312500000002,90.83756068008783L186.78515624999997,100.24436017666847L187.01718749999998,119.66768949938931L187.24921874999998,120.50649495712427L187.48125,113.2176776721838L187.71328125,106.93712744681613L187.9453125,88.3205350449163L188.17734374999998,103.36650221952128L188.40937499999998,126.20053969702481L188.64140625,140.2546142706519L188.8734375,162.38782414773223L189.10546875,134.1201286504324L189.3375,133.76048907630124L189.56953124999998,121.99882249990226L189.8015625,81.32954413595542L190.03359375,80.58474825725239L190.265625,81.35350949761978L190.49765625,69.58617805089452L190.7296875,87.50893746782695L190.96171875,105.70214646548739L191.19375,126.8716345312367L191.42578125,115.09873386135892L191.6578125,104.48552099738511L191.88984375,105.12566223069423L192.121875,132.02186817124132L192.35390625,125.84733076103228L192.5859375,103.4696522817204L192.81796875,95.95914465577542L193.05,118.24796274700081L193.28203125000002,125.28310721862393L193.5140625,120.54701795319471L193.74609375,140.04190192847753L193.978125,128.90434908028203L194.21015625,132.7946735808597L194.44218750000002,137.5670205944387L194.67421875000002,146.18814749571234L194.90625,139.8490691670386L195.13828125,150.23691345873036L195.3703125,153.9007088281069L195.60234375000002,130.20505778199376L195.83437500000002,133.64995408614402L196.06640625000003,127.78255399257442L196.29843749999998,129.18901263263848L196.53046874999998,120.22781234462549L196.7625,156.74260595293177L196.99453125,134.7238831213196L197.2265625,131.81310789694507L197.45859374999998,137.67476628152417L197.69062499999998,139.7023130250014L197.92265625,154.52097308804994L198.1546875,157.35593467944014L198.38671875,145.12515856240262L198.61875,155.25987739105375L198.85078124999998,137.4359544830609L199.0828125,137.35024262280885L199.31484375,95.97292869358054L199.546875,90.91013080193605L199.77890625,120.78554407328592L200.0109375,121.53472685124257L200.24296875,107.03099577663356L200.475,124.74948061347988L200.70703125,124.29230644337206L200.9390625,128.53485388666425L201.17109375,146.79675414898736L201.40312500000002,100.63998761942509L201.63515625,125.63708096790083L201.8671875,104.07009585690797L202.09921875,113.06756708834138L202.33125,113.4487969051433L202.56328125000002,104.02746408460877L202.79531250000002,125.27608524564282L203.02734375,105.75388349990259L203.259375,95.19658400411079L203.49140625,106.09573833928398L203.72343750000002,94.03525804207804L203.95546875000002,97.66639803647286L204.18749999999997,100.83570992881174L204.41953124999998,98.13808589159099L204.65156249999998,100.6968138297933L204.88359375,81.30135913375244L205.115625,100.55293982273633L205.34765625,89.5012139252691L205.57968749999998,104.23870727306365L205.81171874999998,147.5794533760674L206.04375,139.23480907453515L206.27578125,125.82659869254046L206.5078125,124.67816438104053L206.73984375,127.09476943453811L206.97187499999998,144.12982362402963L207.20390625,165.0760239757345L207.4359375,158.58697451228284L207.66796875,119.63922033733574L207.9,89.08284926755371L208.13203125,95.17439181358954L208.3640625,87.03031070571852L208.59609375,113.30136898374495L208.828125,103.69308056147278L209.06015625,89.27888478735643L209.2921875,101.23734573932941L209.52421875,111.87175538352244L209.75625,124.13021364229496L209.98828125,136.4816409666936L210.2203125,131.91503806068468L210.45234375,147.4211516004767L210.68437500000002,132.57420013081827L210.91640625,161.68224752114563L211.1484375,133.2562751324772L211.38046875,116.95280469477065L211.6125,131.76310789759526L211.84453125000002,126.64624161608181L212.07656250000002,137.56832079126556L212.30859375,156.59849249903462L212.540625,153.65788497460167L212.77265625,163.3318928118484L213.00468750000002,146.44509509040714L213.23671875000002,138.87582015946336L213.46875000000003,154.78470965271816L213.70078124999998,165.41691813712876L213.93281249999998,163.17447358277778L214.16484375,143.4280649147146L214.396875,126.77501072742095L214.62890625,138.9449153102707L214.86093749999998,154.1551086086034L215.09296874999998,144.08641458727007L215.325,146.48118001165602L215.55703125,161.105444158949L215.7890625,157.57754128327227L216.02109375,155.26037215571662L216.25312499999998,132.8895370793298L216.48515625,139.26217682010213L216.7171875,147.85991038588452L216.94921875,155.23146178439828L217.18125,137.25461633816158L217.41328125,138.07545159402912L217.6453125,138.02171480199297L217.87734375,154.12322641662388L218.109375,146.50809235451865L218.34140625,164.79906073150892L218.5734375,151.4850662384881L218.80546875000002,164.94180309869483L219.0375,145.81937668815198L219.26953125,155.5574193624173L219.5015625,129.28877049631777L219.73359375,148.99132325942728L219.96562500000002,144.08160935621342L220.19765625000002,150.32880174820508L220.4296875,128.6793238470521L220.66171875,167.82024276064328L220.89375,130.20705328522567L221.12578125000002,131.20477389396476L221.35781250000002,128.3753165971765L221.58984374999997,137.8738167539879L221.82187499999998,126.41940952871116L222.05390624999998,77.27674730955073L222.2859375,85.25513021930979L222.51796875,123.23383393755509L222.75,118.1261531589142L222.98203124999998,127.80218108380288L223.21406249999998,153.99090094930958L223.44609375,146.06000641001208L223.678125,159.47063339035205L223.91015625,148.34871657928846L224.1421875,134.03713563715937L224.37421874999998,135.10955714745452L224.60625,125.08794281439047L224.83828125,150.4147548486518L225.0703125,145.1035786255219L225.30234375,150.31145260563875L225.534375,175.53248093352815L225.76640625,181.28312821826452L226.23046875,190.8564450853691L226.4625,144.42465754666048L226.69453125,136.7747777329246L226.9265625,160.77169619630658L227.15859375,132.69794416695277L227.390625,147.12312987228074L227.62265625,153.34673357799826L227.8546875,136.34432474957111L228.08671875000002,111.54177159507071L228.31875,110.307257268011L228.55078125,114.41513934920995L228.7828125,139.05316084466114L229.01484375,133.8917975882287L229.24687500000002,150.35077686448284L229.47890625000002,158.61564025268407L229.7109375,147.70444005773282L229.94296875,166.59907144118657L230.175,165.83098506705454L230.40703125000002,176.33937871973154L230.63906250000002,158.634037721008L230.87109375000003,159.87699160718645L231.10312499999998,140.398087633296L231.33515624999998,148.63523314319335L231.5671875,121.16616447684173L231.79921875,131.31254944751862L232.03125,134.49976118318182L232.26328124999998,116.92172414987274L232.49531249999998,120.68212837101055L232.72734375,115.36750622626396L232.959375,129.81781749530208L233.19140625,121.09986444529582L233.4234375,130.91511216943027L233.65546874999998,102.58733951776142L233.8875,113.02868241451985L234.11953125,134.9231272579382L234.3515625,147.1153715288241L234.58359375,162.94936606554327L234.815625,156.88699931337052L235.04765625,145.9791792147646L235.2796875,135.87505547266753L235.51171875,156.04354242014728L235.74375,142.3741300706464L235.97578125,162.8225140541704L236.20781250000002,150.08509938320807L236.43984375,142.76825111801745L236.671875,141.94796273635114L236.90390625,142.1324489446061L237.1359375,153.20537325928075L237.36796875000002,126.82363015146913L237.60000000000002,157.33653474669595L237.83203125,155.55118107418053L238.0640625,155.71139814410327L238.29609375,139.04881440373492L238.52812500000002,168.0336189305211L238.76015625000002,172.4010939705896L238.99218749999997,187.54592842402135L239.22421874999998,154.13934256161494L239.45624999999998,157.14268548747503L239.68828125,165.05483438430412L239.9203125,159.19546140564572L240.15234375,150.42047895229078L240.38437499999998,170.06057760151864L240.61640624999998,179.69352180706323L240.8484375,179.06468314496792L241.08046875,164.6834723972458L241.3125,174.01392201215012L241.54453125,177.48444797338666L244.5609375,186.88971803481425L244.79296875,166.5828525591143L245.025,160.34342137711008L245.25703125,167.59360696028818L245.48906250000002,191.16268210663725L245.72109375,175.4017583021238L245.953125,151.19799178283796L246.18515625,156.31863008404602L246.4171875,174.0792679413412L246.64921875000002,177.67227656985838L247.11328125,177.1622205788875L247.3453125,155.44046790364018L247.57734375,135.04922472162085L247.80937500000002,133.60886246830407L248.04140625000002,119.75152943111121L248.27343750000003,108.48485745372736L248.50546874999998,113.63342767802474L248.73749999999998,106.04867891849369L248.96953125,160.47699560696117L249.2015625,189.975846087779L249.43359375,162.59816507828774L249.66562499999998,165.61863092924142L249.89765624999998,143.56260176560815L250.1296875,133.4465273145529L250.36171875,115.18394201864226L250.59375,126.83623149425532L250.82578125,121.19141017021819L251.05781249999998,161.05294814805706L251.28984375,140.57883056624684L251.521875,159.4228639899945L251.75390625,178.65285706136345L251.9859375,154.05431097407285L252.21796875,147.0889258483597L252.45,147.50454782732527L252.68203125,158.83930113541555L252.9140625,159.29643632547538L253.14609375,172.15636441563552L253.378125,188.00667221979924L253.61015625000002,174.8594298947957L253.8421875,154.59221795732424L254.07421875,177.99608443372958L254.30625,171.9377348922213L254.53828125,163.3024596990657L254.77031250000002,161.98769738260532L255.00234375000002,143.92147924998665" style="fill: none;" fill="none"></path></g></g></g></g><g opacity="0.2"><g><g><g><path stroke="rgb(255, 112, 67)" stroke-width="2px" d="M25.75546875,-72.97278434580018L25.9875,12.89844937758015L26.21953125,-85.15875044735992L26.4515625,23.239734519611726L26.683593750000004,-61.24837212129068L28.3078125,-63.86424051631579L28.53984375,16.137766534631933L28.771875,-28.776823477311535L29.2359375,-16.356378338553647L29.46796875,11.961377230557554L29.700000000000003,19.786846551028198L29.932031249999998,23.911559928547273L30.1640625,37.31672495061704L30.39609375,-4.364954644983436L30.860156250000003,-6.005962631919124L31.092187499999998,23.064182151447664L31.32421875,21.599915807897425L31.55625,29.865148414265047L31.78828125,25.82207302613695L32.0203125,32.61137671904133L32.25234375,15.625035459345067L32.484375,-15.357924244620541L32.9484375,-0.20153227719391142L33.18046875,38.873217669400326L33.4125,25.992216110229514L33.64453125,11.349667765877486L33.8765625,24.491542599417983L34.10859375,1.7725111354481466L34.340625,17.754260106520253L34.57265625,-1.6838295676491049L34.8046875,-18.361611452969623L35.03671875,25.229353601282323L35.268750000000004,27.6309606378729L35.50078125,26.039902210235617L35.7328125,19.10915149341932L35.96484375000001,24.115885084325647L36.196875,20.31511493162678L36.42890625,32.80472985180945L36.660937499999996,17.424754142761252L36.89296875,33.572196006774924L37.125,19.5265487324108L37.35703125,12.601360754533275L37.589062500000004,2.20057348771532L37.82109375,43.34190013191918L38.053124999999994,4.620863654396774L38.28515625,48.25567843697289L38.5171875,6.273150574077297L38.74921875,11.570105682719856L38.98125,33.928172935139074L39.21328125,65.24620134180245L39.4453125,7.760013146833972L39.67734375,46.59940169074321L39.909375000000004,46.638839591633214L40.14140625,52.62994779240003L40.373437499999994,13.044615138660799L40.60546875,13.714982726357222L40.8375,43.46067419919104L41.06953125,63.024481773376486L41.3015625,33.33226932178846L41.53359375,38.54087279059672L41.765625,14.966867533597105L41.997656250000006,15.763566840778719L42.229687500000004,33.54856395721438L42.461718749999996,8.219533746892784L42.693749999999994,38.610924937508344L42.92578125,18.436175172979212L43.1578125,32.28033620660958L43.38984375,3.392303986982898L43.621875,12.374516096982115L43.85390625,17.583733385259485L44.0859375,24.337780822407137L44.317968750000006,36.110953330993674L44.550000000000004,27.100236979397884L44.782031249999996,46.21914052963259L45.014062499999994,30.787220348011385L45.24609375,6.308253374966733L45.478125,36.90822809392759L45.71015625,62.197475129907815L45.9421875,3.0227463028647916L46.17421875,34.905066620219856L46.40625,6.736737728118916L46.638281250000006,35.1039057644931L46.8703125,26.007446505806687L47.102343749999996,10.121261553330882L47.334375,39.3664599765431L47.56640625,42.30301068045878L47.7984375,-8.48172673312099L48.03046875,28.14814190431078L48.2625,31.14968074451795L48.49453125,24.193609974601088L48.7265625,14.92485926368022L48.958593750000006,22.264298655770066L49.190625,36.22984248941598L49.422656249999996,-2.3245036385275744L49.6546875,17.336172320626023L49.88671875,20.001568274064525L50.11875,10.059073968367175L50.350781250000004,16.74579308249736L50.5828125,47.15187757665464L50.81484375,1.2217616167935796L51.04687499999999,46.17878189953894L51.27890625,9.062729878859118L51.5109375,11.184281782670482L51.742968749999996,21.70134947516704L51.975,41.89704582907939L52.20703125,30.573112444444163L52.4390625,35.769861524755335L52.671093750000004,44.81357067281553L52.903125,13.09794070503932L53.13515625,18.50480786236853L53.36718750000001,8.308614297346667L53.59921875,23.01434768329969L53.83125,40.126176660711145L54.063281249999996,26.149315530603612L54.2953125,63.373553232713206L54.52734375,19.114944414659007L54.759375,76.41625785827638L54.991406250000004,20.253234256397615L55.2234375,19.21848808635367L55.455468749999994,48.894549413160874L55.6875,-10.797514135187294L55.91953125,7.945041353052343L56.1515625,20.103769215670532L56.38359375,43.74671407179402L56.615625,53.34777129780164L56.84765625,3.098207733847914L57.0796875,52.08008063923231L57.311718750000004,19.193628397854916L57.54375,48.127812168814934L57.775781249999994,14.734767046841734L58.0078125,47.08949817310682L58.23984375,48.75164456800984L58.471875,-8.412710406563463L58.70390625,50.56129945408216L58.9359375,5.934897682883559L59.16796875,17.152755390514045L59.400000000000006,-7.634157137437268L59.632031250000004,49.21910645745019L59.864062499999996,35.33669679815122L60.096093749999994,37.77919955687092L60.328125,47.00567345185716L60.56015625,24.016676512631527L60.7921875,41.17423504049131L61.02421875,45.51815869591454L61.25625,59.87037043137987L61.48828125,19.145558660680628L61.720312500000006,45.46157221360643L61.952343750000004,17.188203464854865L62.184374999999996,38.32925852862274L62.416406249999994,15.523448337208162L62.6484375,39.96550941467287L62.88046875,56.20993475480516L63.1125,8.289317347786666L63.34453125,39.36592288450764L63.5765625,28.910160411487947L63.80859375,30.297967867417796L64.040625,16.767123309048763L64.27265625,43.667953361164464L64.5046875,27.850401098077977L64.73671875000001,28.05940662730826L64.96875,61.14024782180788L65.20078125,66.70068493756382L65.4328125,44.76596130024305L65.66484375,77.24111613360321L65.896875,-32.36448318308045L66.12890625,80.79405667565088L66.3609375,81.04046682877976L66.59296875,41.44358669627799L66.825,53.016654057936265L67.05703125000001,58.2733272639188L67.2890625,28.711666540666087L67.52109374999999,2.997387886047383L67.753125,2.0140490965410036L67.98515625,20.73462217504331L68.2171875,71.07932775670835L68.44921875,24.960961038416112L68.68125,42.50035363977609L68.91328125,30.670709740031867L69.1453125,4.306472995064499L69.37734375000001,33.42687424746429L69.609375,61.46561050415041L69.84140625,39.136200948195054L70.0734375,45.08710397373548L70.30546875,35.15247422998605L70.53750000000001,2.7115781957453233L70.76953125,41.353892326355L71.0015625,55.62968353791673L71.23359375000001,48.20507669448855L71.465625,35.965247934514856L71.69765625000001,36.80760006471117L71.92968750000001,15.835153536363109L72.16171874999999,61.19932794570925L72.39375,-3.615059072321083L72.62578124999999,28.158883745020116L72.8578125,43.451773816889016L73.08984375,48.634059775959386L73.32187499999999,34.245977965268246L73.55390625,66.32786633751611L73.7859375,43.57760680805555L74.01796875,31.847938754341843L74.25,38.1441152312539L74.48203125,66.32257214459507L74.7140625,41.041726762598245L74.94609375,27.88700008392336L75.17812500000001,31.078707868402685L75.41015625,50.48031364787711L75.6421875,26.297936569560676L75.87421875000001,61.76948950507426L76.10624999999999,28.4376728751443L76.33828125,-23.47054598548192L76.5703125,42.18396806716921L76.80234374999999,44.486481623216136L77.034375,58.38964605331423L77.26640625,44.97500519319017L77.4984375,20.493122577667258L77.73046875,29.363926454023915L77.9625,21.445079846815663L78.19453125,34.63391186974267L78.4265625,42.287550102580695L78.65859375,40.75710634751756L78.890625,33.941676963459386L79.12265625,32.4668605977839L79.3546875,24.875601768493674L79.58671875,57.21974450891671L79.81875000000001,32.66293755444617L80.05078125,48.96839956803758L80.2828125,93.64187361977321L80.51484375000001,59.204759944569005L80.74687499999999,30.246330304579335L80.97890625,33.62786175987939L81.2109375,34.610778548500775L81.44296874999999,-4.405466729944374L81.675,69.11602618477563L81.90703125,-1.2973534844138048L82.1390625,41.06850463693795L82.37109375,78.89474578337239L82.603125,50.427103172649055L82.83515625,71.79458089308308L83.0671875,40.255807659842766L83.29921875000001,46.42764733054423L83.53125,57.565708507191076L83.76328125,64.52768728949809L83.99531250000001,33.08735535361552L84.22734375,49.599559437144904L84.45937500000001,56.785160324790276L84.69140624999999,62.160569234327866L84.92343749999999,19.859622521833973L85.15546875,34.14776685021142L85.38749999999999,43.40535371953794L85.61953125,42.911229046908325L85.8515625,40.53881679881705L86.08359374999999,71.40733753551139L86.315625,66.15530633926393L86.54765625,55.08043020421812L86.7796875,28.49621590701019L87.01171875,81.09118366241456L87.24375,35.8170872601596L87.47578125,91.64335415580058L87.7078125,-0.0991011532870063L87.93984375000001,75.19602311741224L88.171875,73.20843731273307L88.40390625,58.0900254249573L88.63593750000001,5.990985436873035L88.86796875,51.82242991707543L89.10000000000001,78.54571268775248L89.33203125000001,21.84981705925685L89.56406249999999,57.24142000891948L89.79609375,41.81053564765239L90.02812499999999,82.66006786173043L90.26015625,49.1772516424006L90.4921875,12.877502788196932L90.72421874999999,65.155969879844L90.95625,32.91893863677981L91.18828125,33.94720133868133L91.4203125,73.34969251806089L91.65234375,53.87419821999291L91.884375,19.257810896093225L92.11640625,116.92730699885978L92.3484375,33.0450401739641L92.58046875000001,84.22933569821446L92.8125,83.92626233534382L93.04453125,89.18727064132692L93.27656250000001,75.01855256340723L93.50859374999999,25.359790238467163L93.740625,69.8243354884061L93.97265625,51.3065146532926L94.20468749999999,23.421616901050935L94.43671875,103.46920004757969L94.66875,32.78758127039132L94.90078125,29.471306497400487L95.1328125,59.82786343314433L95.36484375,52.653081113641946L95.596875,57.854702385989114L95.82890625,12.42208710583777L96.0609375,80.17743665521797L96.29296875,59.47971270301127L96.525,40.52032548731027L96.75703125,61.507120045748636L96.9890625,59.50514784726231L97.22109375000001,76.33350732109766L97.453125,77.93043539740825L97.68515625,43.82585841959176L97.91718750000001,54.16169591383503L98.14921874999999,44.78264951705935L98.38125,37.097322854128784L98.61328125,93.50460824099457L98.84531249999999,39.063194795088364L99.07734375,33.325402216477855L99.309375,84.20965511148628L99.54140625,57.14904017881916L99.7734375,51.71178895776925L100.00546875,56.20717256719419L100.2375,63.88889304074375L100.46953125,79.42650526220152L100.70156250000001,46.95913826335563L100.93359375,52.72620235789908L101.165625,57.456410277973546L101.39765625000001,60.28999276594685L101.6296875,82.59293135729706L101.86171875000001,75.81206768209287L102.09374999999999,33.35628500851721L102.32578124999999,64.13818047263408L102.5578125,32.48542863672433L102.78984374999999,62.715193488381146L103.021875,69.70935942909937L103.25390625,115.12417394464669L103.48593749999999,85.13019249655986L103.71796875,24.911280025135408L103.95,102.47024722532794L104.18203125,15.308496431870921L104.4140625,85.68401111255994L104.64609375,51.78897675600921L104.878125,75.85162067413331L105.11015625,58.49541482058441L105.34218750000001,30.975509470159388L105.57421875,28.45528182116424L105.80625,32.87455181642015L106.03828125000001,50.802799051458216L106.2703125,41.21831495111642L106.50234375000001,85.16936185143213L106.73437500000001,49.13616410168738L106.96640624999999,51.750152674588314L107.1984375,111.37569353797221L107.43046874999999,81.92747432535347L107.6625,39.322648611935726L107.89453125,30.81549440730704L108.12656249999999,57.30368432131683L108.35859375,2.990981145338611L108.590625,104.1236466927962L108.82265625,38.90482937205924L109.0546875,54.938177542253L109.28671875,133.41860285672277L109.51875,64.15931888060139L109.75078125,91.11500904776835L109.98281250000001,41.7353043989702L110.21484375,67.01350268450653L110.446875,79.05479920994154L110.67890625000001,88.4032313606956L110.91093749999999,115.37649211016571L111.14296875,82.73951911926271L111.375,18.988037239421516L111.60703124999999,91.84031347794969L111.8390625,94.8819424022328L112.07109375,42.061817992817296L112.303125,47.12410224567762L112.53515625,102.55269085277213L112.7671875,68.05181668021464L112.99921875,31.646529241041737L113.23125,146.62427655133337L113.46328125,94.05639358000323L113.6953125,53.861154556274435L113.92734375,51.995757189664L114.159375,42.14464525742967L114.39140625,52.374407074668206L114.62343750000001,29.596026940779286L114.85546875,25.659487594257723L115.0875,68.68658273870298L115.31953125000001,59.147828188809505L115.55156249999999,71.90817585858433L115.78359375,107.93857305700129L116.015625,47.39679154482757L116.24765624999999,56.904318029230325L116.4796875,87.42959859154443L116.71171875,55.728316653858556L116.94375,115.48506142876367L117.17578125,89.36765683781019L117.4078125,61.15847058729695L117.63984375,104.4569890282371L117.871875,89.40502309799196L118.10390625000001,45.077129407362534L118.3359375,70.0141975229437L118.56796875,80.46485762162644L118.80000000000001,64.00889474695381L119.03203125,96.17307329177858L119.26406250000001,70.55347629026936L119.49609374999999,74.86548133329914L119.72812499999999,77.5565426132896L119.96015625,39.386447473005845L120.19218749999999,89.02549084750092L120.42421875,92.62109184265138L120.65625,80.58808188004929L120.88828124999999,25.67959018187092L121.1203125,63.0206837654114L121.35234375,53.1660040075129L121.584375,60.8334915421226L121.81640625,88.12386677481913L122.0484375,115.652710871263L122.28046875,88.95129541917284L122.5125,83.03975356708875L122.74453125000001,39.67241061817518L122.9765625,100.75661672245374L123.20859375,110.43459320068361L123.44062500000001,114.6971090490168L123.67265625,63.19055830348624L123.90468750000001,75.19832494042139L124.13671875000001,54.05903460762719L124.36874999999999,52.44568686051805L124.60078125,73.5669846101241L124.83281249999999,53.24096671017737L125.06484375,36.712573138150326L125.296875,77.67247776551682L125.52890624999999,43.29647749120542L125.7609375,90.67202320965855L125.99296875,106.74515455419368L126.225,71.30901132930411L126.45703125,64.18674893812702L126.6890625,72.26227296482435L126.92109375,96.37801226702607L127.153125,99.88771690021863L127.38515625000001,55.266839504241965L127.6171875,75.34053923866968L127.84921875,118.75537646900526L128.08125,50.75384694879708L128.31328125,62.74776428396055L128.5453125,84.12253111059019L128.77734375,73.0672971985557L129.009375,104.04200870340523L129.24140625,86.404711896723L129.47343750000002,94.18533403223213L129.70546875,75.11714731563224L129.9375,72.06585073471071L130.16953125,70.31404833360155L130.4015625,84.34561612389307L130.63359375,131.39131060513586L130.865625,118.76707740263507L131.09765625,40.18847933682532L131.3296875,110.12518982453783L131.56171874999998,111.70435549996118L131.79375,113.8901666294445L132.02578125,74.90008540586994L132.2578125,98.12824175574565L132.48984375,78.78172627362339L132.721875,59.494904734871625L132.95390625,54.54993672804402L133.1859375,53.63281371376733L133.41796875,60.12775260751901L133.65,79.13060591437602L133.88203125,68.95727712457833L134.11406250000002,116.60704669085419L134.34609375,71.41270845586607L134.578125,73.04136332598603L134.81015625,87.66357890042393L135.04218749999998,142.5988101092252L135.27421875,103.67866594141182L135.50625,-12.48897040974008L135.73828125,24.020129247145253L135.9703125,31.33839186755096L136.20234375,132.95816152746028L136.434375,75.8165562369607L136.66640625,110.72934163700452L136.8984375,55.87313968485055L137.13046875,102.5492381182584L137.3625,53.982000264254516L137.59453125,128.33959202332935L137.8265625,64.76389269395311L138.05859375,85.26438877799296L138.290625,81.46120171113449L138.52265625,67.59260298989038L138.75468750000002,93.31267456574876L138.98671875,95.0294125296853L139.21875,47.243835405869945L139.45078125,66.47928792780098L139.6828125,39.08905194022441L139.91484375,61.02047629789875L140.146875,83.08486929806797L140.37890625,119.6711951169101L140.6109375,70.29137537696147L140.84296875,74.56394251910126L141.07500000000002,79.66209684718741L141.30703125,78.51271989128809L141.5390625,99.81156492233278L141.77109375,125.68428572741425L142.003125,111.78595512563533L142.23515625000002,78.26531228152191L142.46718750000002,187.90225475484675L142.69921875,178.93408376520333L142.93125,93.85107096758759L143.16328125,67.63361380316996L143.39531250000002,62.125543160872056L143.62734375000002,29.963321165605052L143.85937500000003,46.07934314554391L144.09140624999998,20.793472116643763L144.32343749999998,38.16475491090257L144.55546875,125.52944976633248L144.7875,101.84821792082354L145.01953125,97.86053973978218L145.25156249999998,75.74389535730538L145.48359374999998,54.62723961743445L145.715625,44.90924978256228L145.94765625,49.1897198503668L146.1796875,50.19695923545146L146.41171875,97.08674357154155L146.64374999999998,18.880580468611317L146.87578125,99.12182365764274L147.1078125,64.63951752402568L147.33984375,98.79109005494554L147.571875,67.08148319070992L147.80390625,59.50357493487274L148.0359375,92.80930423736574L148.26796875,110.13604675639762L148.5,105.97419730099766L148.73203125,98.22499504956333L148.9640625,59.73859106410636L149.19609375000002,63.88083666021177L149.428125,108.33487025174229L149.66015625,52.76916972073645L149.8921875,96.218150659041L150.12421875,95.67948571118443L150.35625000000002,90.82931444861674L150.58828125000002,36.98848498951307L150.8203125,65.51075753298676L151.05234375,111.09487113085663L151.284375,96.25774201479828L151.51640625000002,78.18712702664463L151.74843750000002,125.93683407523417L151.98046874999997,85.34898077357902L152.21249999999998,71.91669260371818L152.44453124999998,118.5532764088024L152.6765625,119.09984428232369L152.90859375,103.73632660779087L153.140625,92.01295020363551L153.37265624999998,88.27663109519267L153.60468749999998,129.62761545181277L153.83671875,106.8759748285467L154.06875,122.42547980221836L154.30078125,103.95181560516359L154.5328125,92.49130738865247L154.76484374999998,75.77144050598146L154.996875,64.8709274638783L155.22890625,95.29715290936558L155.4609375,83.48454249988905L155.69296875,124.05789431658661L155.925,101.98736312172632L156.15703125,72.93536437641492L156.3890625,111.04526684500956L156.62109375,111.39103902469984L156.853125,109.43656110763551L157.08515625,158.95004003698176L157.3171875,57.20677757263186L157.54921875,100.63692192597826L157.78125,141.53651879050517L158.01328125,111.41854580965912L158.2453125,52.20111816579649L158.47734375000002,142.50949937647042L158.709375,69.32249970869587L158.94140625,105.85707287354906L159.1734375,64.44892657886854L159.40546875,127.69297157634391L159.63750000000002,102.93007473512132L159.86953125000002,96.23687215284869L160.1015625,90.51223832910713L160.33359375,36.258461822163L160.565625,127.72531218962237L160.79765625000002,126.2893582690846L161.02968750000002,10.1470419710333L161.26171875000003,109.2504203536294L161.49374999999998,135.88366348093209L161.72578124999998,127.80591435865924L161.9578125,-43.72290554913605L162.18984375,127.14122460105204L162.421875,110.91644148393114L162.65390624999998,106.29280796918003L162.88593749999998,-9.585604320872893L163.11796875,69.82153493707833L163.35,115.3080896030773L163.58203125,100.58869873393668L163.8140625,103.91448770869864L164.04609374999998,62.07145032015716L164.278125,68.20062953775582L164.51015625,136.61008045890117L164.7421875,79.63861825249414L164.97421875,80.33246443488383L165.20625,74.88032809170811L165.43828125,117.04964889179578L165.6703125,70.63530609824443L165.90234375,128.4721003012224L166.134375,138.89299015565354L166.36640625,117.78508134321734L166.59843750000002,106.2666055505926L166.83046875,80.89418597654866L167.0625,140.08874884518713L167.29453125,81.07146471196958L167.5265625,44.53198099136355L167.75859375000002,89.43832280419093L167.99062500000002,66.53288204019722L168.22265625,86.39546624096958L168.4546875,120.15519176829947L168.68671875,143.87509424036202L168.91875000000002,78.95712518692018L169.15078125000002,71.76262391697279L169.38281249999997,159.1359889724038L169.61484374999998,119.44392845847392L169.84687499999998,151.6371099732139L170.07890625,72.6999262462963L170.3109375,191.52628326416016L170.54296875,78.42605625499381L170.77499999999998,91.90265451778068L171.00703124999998,91.73673144253819L171.2390625,107.1143286011436L171.47109375,132.4859809008512L171.703125,53.616892771287425L171.93515625,122.83363138545646L172.16718749999998,118.86425269733778L172.39921875,95.73004908995196L172.63125,92.09359073638917L172.86328125,113.84443707899615L173.0953125,114.44149160385133L173.32734375,145.77570949901235L173.559375,109.34283854744653L173.79140625,118.50747013092042L174.0234375,129.05185278979218L174.25546875,138.82903783971614L174.4875,60.21422442522918L174.71953125,98.96437896381727L174.9515625,105.6930296204307L175.18359375,113.48654196479106L175.415625,58.37153837897563L175.64765625,176.2736750949513L175.87968750000002,155.54948017813945L176.11171875,123.6294099634344L176.34375,106.15696204792371L176.57578125,159.7073398069902L176.8078125,95.3472942872481L177.03984375000002,42.12711303884336L177.27187500000002,76.4810541759838L177.50390625,94.19235459241001L177.7359375,89.95538897947833L177.96796875,72.94065856933595L178.20000000000002,108.19480432163587L178.43203125000002,97.11026052995165L178.66406250000003,90.57101154327394L178.89609374999998,134.93523567373103L179.12812499999998,128.3357172879306L179.36015625,147.47046505321157L179.5921875,113.00484713641083L179.82421875,81.99342155456544L180.05624999999998,149.46415068886498L180.28828124999998,42.98960612036967L180.5203125,78.01153629476377L180.75234375,71.24774447354405L180.984375,109.8797387643294L181.21640625,95.49046767841688L181.44843749999998,112.26626886021009L181.68046875,80.79555286060682L181.9125,94.19124204462227L182.14453125,86.89611274545845L182.3765625,117.38345159183851L182.60859375,98.39590540799229L182.840625,98.45364280180499L183.07265625,161.17145269567317L183.3046875,120.48189718073067L183.53671875,152.6323415149342L183.76875,125.89375162124635L184.00078125000002,185.045232035897L184.2328125,111.56835612383759L184.46484375,116.03592603856868L184.696875,85.83382142673841L184.92890625,110.63519707593052L185.16093750000002,124.60622692108156L185.39296875000002,95.33448080583055L185.625,128.73189939152113L185.85703125,105.19150075045502L186.0890625,95.26381483944981L186.32109375000002,74.98172339526093L186.55312500000002,87.41018655083398L186.78515624999997,114.35455942153932L187.01718749999998,148.8026834834706L187.24921874999998,121.76470314372672L187.48125,102.2844517447732L187.71328125,97.51630210876466L187.9453125,60.395646442066564L188.17734374999998,125.9354529814287L188.40937499999998,160.45159591328016L188.64140625,161.33572613109243L188.8734375,195.58763896335256L189.10546875,91.71858540448277L189.3375,133.22102971510455L189.56953124999998,104.35632263530387L189.8015625,20.325626590035203L190.03359375,79.46755443919791L190.265625,82.50665135817097L190.49765625,51.93518088080668L190.7296875,114.39307659322566L190.96171875,132.9919599619779L191.19375,158.62586662986064L191.42578125,97.43938285654244L191.6578125,88.56570170142436L191.88984375,106.08587408065797L192.121875,172.3661770820618L192.35390625,116.58552464571869L192.5859375,69.90313456275248L192.81796875,84.69338321685792L193.05,151.681189883839L193.28203125000002,135.8358239260587L193.5140625,113.44288405505097L193.74609375,169.28422789140183L193.978125,112.19801980798897L194.21015625,138.6301603317261L194.44218750000002,144.72554111480716L194.67421875000002,159.119837847623L194.90625,130.3404516740279L195.13828125,165.818679896268L195.3703125,159.39640188217166L195.60234375000002,94.66158121282405L195.83437500000002,138.8172985423695L196.06640625000003,118.98145385222003L196.29843749999998,131.2987005927346L196.53046874999998,106.786011912606L196.7625,211.51479636539113L196.99453125,101.69579887390138L197.2265625,127.44694506038321L197.45859374999998,146.4672538583929L197.69062499999998,142.74363314021718L197.92265625,176.74896318262273L198.1546875,161.60837706652558L198.38671875,126.77899438684639L198.61875,170.46195563403046L198.85078124999998,110.70007012107158L199.0828125,137.22167483243078L199.31484375,33.90695779973814L199.546875,83.31593396446924L199.77890625,165.59866398031062L200.0109375,122.6585010181774L200.24296875,85.27539916472004L200.475,151.32720786874947L200.70703125,123.60654518821025L200.9390625,134.89867505160248L201.17109375,174.18960454247215L201.40312500000002,31.40483782508159L201.63515625,163.13272099061447L201.8671875,71.71961819041861L202.09921875,126.56377393549141L202.33125,114.02064163034615L202.56328125000002,89.89546485380694L202.79531250000002,157.14901698719373L203.02734375,76.4705808812922L203.259375,79.36063476042317L203.49140625,122.4444698420438L203.72343750000002,75.94453759626911L203.95546875000002,103.1131080280651L204.18749999999997,105.58967776732013L204.41953124999998,94.09164983575997L204.65156249999998,104.53490573709664L204.88359375,52.20817708969118L205.115625,129.4303108562123L205.34765625,72.9236250790683L205.57968749999998,126.34494729475543L205.81171874999998,212.59057253057307L206.04375,126.7178426222368L206.27578125,105.71428311954847L206.5078125,122.95551291379063L206.73984375,130.71967701478442L206.97187499999998,169.68240490826696L207.20390625,196.49532450329176L207.4359375,148.8534003171054L207.66796875,61.21758907491514L207.9,43.24829266288066L208.13203125,104.3117056326433L208.3640625,74.81418904391205L208.59609375,152.7079564007846L208.828125,89.28064792806452L209.06015625,67.65759112618188L209.2921875,119.17503716728906L209.52421875,127.82336984981193L209.75625,142.5179010304538L209.98828125,155.00878195329148L210.2203125,125.06513370167127L210.45234375,170.6803219101646L210.68437500000002,110.30377292633058L210.91640625,205.34431860663673L211.1484375,90.61731654947457L211.38046875,92.4975990382108L211.6125,153.97856270183217L211.84453125000002,118.9709421938116L212.07656250000002,153.9514395540411L212.30859375,185.14375006068838L212.540625,149.24697368795222L212.77265625,177.8429045677185L213.00468750000002,121.11489850824532L213.23671875000002,127.52190776304766L213.46875000000003,178.64804389260033L213.70078124999998,181.36523086374459L213.93281249999998,159.81080675125125L214.16484375,113.80845191261987L214.396875,101.79542944648051L214.62890625,157.19977218454534L214.86093749999998,176.97039855610242L215.09296874999998,128.98337355527013L215.325,150.073328148235L215.55703125,183.04184037988838L215.7890625,152.2856869697571L216.02109375,151.78461846438324L216.25312499999998,99.33328446474945L216.48515625,148.82113643126056L216.7171875,160.75651073455813L216.94921875,166.2887888821689L217.18125,110.28934816880663L217.41328125,139.30670447783038L217.6453125,137.94110961393878L217.87734375,178.27549383857033L218.109375,135.08539126136088L218.34140625,192.23551329699433L218.5734375,131.51407449895686L218.80546875000002,185.12690838900483L219.0375,117.13573707233778L219.26953125,170.16448337381536L219.5015625,89.88579719716853L219.73359375,178.54515240409157L219.96562500000002,136.71703850139272L220.19765625000002,159.69959033619276L220.4296875,96.20510699532251L220.66171875,226.53162113103002L220.89375,73.78726907209919L221.12578125000002,132.70135480707344L221.35781250000002,124.1311306519942L221.58984374999997,152.12156698920512L221.82187499999998,109.23779869079591L222.05390624999998,3.5627539808100206L222.2859375,97.22270458394831L222.51796875,180.2018895149231L222.75,110.46463199095294L222.98203124999998,142.31622297113594L223.21406249999998,193.2739807475697L223.44609375,134.1636646010659L223.678125,179.58657386086205L223.91015625,131.6658413626931L224.1421875,112.56976422396576L224.37421874999998,136.7181894128973L224.60625,110.05552131479439L224.83828125,188.40497290004384L225.0703125,137.13681429082698L225.30234375,158.123263575814L225.534375,213.36402342536232L226.23046875,189.2057771249251L226.4625,74.77697623859754L226.69453125,125.2999580123208L226.9265625,196.76707389137962L227.15859375,90.58731612292206L227.390625,168.76090843027288L227.62265625,162.6821391365745L227.8546875,110.84071150693028L228.08671875000002,74.33794186332011L228.31875,108.45548577742144L228.55078125,120.57696247100831L228.7828125,176.01019308783793L229.01484375,126.14975270358002L229.24687500000002,175.03924577886409L229.47890625000002,171.0129353349859L229.7109375,131.33763976530597L229.94296875,194.94101851636714L230.175,164.67885550585663L230.40703125000002,192.10196919874713L230.63906250000002,132.0760262229226L230.87109375000003,161.7414224364541L231.10312499999998,111.1797316724604L231.33515624999998,160.99095140803945L231.5671875,79.96256147731437L231.79921875,146.53212690353396L232.03125,139.28057878667659L232.26328124999998,90.55466859990901L232.49531249999998,126.3227347027172L232.72734375,107.3955730091442L232.959375,151.4932843988592L233.19140625,108.02293487028643L233.4234375,145.6379837556319L233.65546874999998,60.095680540258265L233.8875,128.69069675965747L234.11953125,167.76479452306575L234.3515625,165.40373793515295L234.58359375,186.70035787062213L234.815625,147.7934491851113L235.04765625,129.6174490668557L235.2796875,120.71886985952204L235.51171875,186.29627284136689L235.74375,121.87001154639506L235.97578125,193.4950900294564L236.20781250000002,130.97897737676448L236.43984375,131.7929787202315L236.671875,140.71753016385168L236.90390625,142.40917825698855L237.1359375,169.81475973129275L237.36796875000002,87.25101548975167L237.60000000000002,203.10589163953608L237.83203125,152.8731505654075L238.0640625,155.95172374898738L238.29609375,114.05493879318239L238.52812500000002,211.51082572070038L238.99218749999997,210.263180104169L239.22421874999998,104.02946376800539L239.45624999999998,161.6476998762651L239.68828125,176.92305772954768L239.9203125,150.40640193765816L240.15234375,137.25800527225843L240.38437499999998,199.52072557536042L240.8484375,178.12142515182495L241.08046875,143.11165627566254L241.3125,188.00959643450653L243.16875,183.08603538166395L243.40078125,146.92255444960162L243.6328125,190.06147982857445L244.5609375,183.79637796228585L244.79296875,136.12255434556442L245.025,150.9842746041038L245.25703125,178.4688853350553L245.48906250000002,226.5162948261608L245.72109375,151.76037259535357L245.953125,114.89234200390904L246.18515625,163.99958753585818L246.4171875,200.72022472728383L246.88125000000002,182.09249184348366L247.11328125,173.74500742825597L247.3453125,122.85783889076929L247.57734375,104.46235994859178L247.80937500000002,131.448319088329L248.04140625000002,98.96552987532183L248.27343750000003,91.5848494876515L248.50546874999998,121.3562830144709L248.73749999999998,94.67155577919702L248.96953125,242.1194706396623L249.2015625,234.22412180900574L249.43359375,121.53164356405085L249.66562499999998,170.14932970567185L249.89765624999998,110.47855802015826L250.1296875,118.27241563796998L250.36171875,87.79006407477641L250.59375,144.31466570767492L250.82578125,112.72417818416251L251.05781249999998,220.84525511481544L251.28984375,109.86765419353141L251.521875,187.68891412561592L251.75390625,207.49784666841683L251.9859375,117.1564918431369L252.21796875,136.64084815979007L252.45,148.12798079577362L252.68203125,175.84143109755084L252.9140625,159.9821391105652L253.14609375,191.4462565508756L253.378125,211.78213392604482L253.61015625000002,155.1385664072904L253.8421875,124.19140005111696L254.07421875,213.10188414833763L254.30625,162.85021057995885L254.53828125,150.3495469093323L254.77031250000002,160.0155539079146L255.00234375000002,116.8221520510587" style="fill: none;" fill="none"></path></g></g></g></g></g></g><g transform="translate(51, 177)" clip-path="url(#clip_1)"><clipPath id="clip_1"><rect width="278" height="23"></rect></clipPath><g><g><line x1="0" y1="0" x2="0" y2="5" style="visibility: inherit;" fill="rgb(0, 0, 0)" stroke="rgb(204, 204, 204)" stroke-width="1px"></line><line x1="23.203125" y1="0" x2="23.203125" y2="5" style="visibility: inherit;" fill="rgb(0, 0, 0)" stroke="rgb(204, 204, 204)" stroke-width="1px"></line><line x1="46.40625" y1="0" x2="46.40625" y2="5" style="visibility: inherit;" fill="rgb(0, 0, 0)" stroke="rgb(204, 204, 204)" stroke-width="1px"></line><line x1="69.609375" y1="0" x2="69.609375" y2="5" style="visibility: inherit;" fill="rgb(0, 0, 0)" stroke="rgb(204, 204, 204)" stroke-width="1px"></line><line x1="92.8125" y1="0" x2="92.8125" y2="5" style="visibility: inherit;" fill="rgb(0, 0, 0)" stroke="rgb(204, 204, 204)" stroke-width="1px"></line><line x1="116.015625" y1="0" x2="116.015625" y2="5" style="visibility: inherit;" fill="rgb(0, 0, 0)" stroke="rgb(204, 204, 204)" stroke-width="1px"></line><line x1="139.21875" y1="0" x2="139.21875" y2="5" style="visibility: inherit;" fill="rgb(0, 0, 0)" stroke="rgb(204, 204, 204)" stroke-width="1px"></line><line x1="162.421875" y1="0" x2="162.421875" y2="5" style="visibility: inherit;" fill="rgb(0, 0, 0)" stroke="rgb(204, 204, 204)" stroke-width="1px"></line><line x1="185.625" y1="0" x2="185.625" y2="5" style="visibility: inherit;" fill="rgb(0, 0, 0)" stroke="rgb(204, 204, 204)" stroke-width="1px"></line><line x1="208.828125" y1="0" x2="208.828125" y2="5" style="visibility: inherit;" fill="rgb(0, 0, 0)" stroke="rgb(204, 204, 204)" stroke-width="1px"></line><line x1="232.03125" y1="0" x2="232.03125" y2="5" style="visibility: inherit;" fill="rgb(0, 0, 0)" stroke="rgb(204, 204, 204)" stroke-width="1px"></line><line x1="255.234375" y1="0" x2="255.234375" y2="5" style="visibility: inherit;" fill="rgb(0, 0, 0)" stroke="rgb(204, 204, 204)" stroke-width="1px"></line><line x1="278.4375" y1="0" x2="278.4375" y2="5" style="visibility: inherit;" fill="rgb(0, 0, 0)" stroke="rgb(204, 204, 204)" stroke-width="1px"></line></g><g transform="translate(0, 8)"><text x="0" y="0" dx="0em" dy="0.95em" style="text-anchor: middle; visibility: hidden; font-family: Roboto, sans-serif; font-size: 12px; font-weight: 200;" fill="rgb(33, 33, 33)" stroke="none" stroke-width="1px">-100</text><text x="23.203125" y="0" dx="0em" dy="0.95em" style="text-anchor: middle; visibility: inherit; font-family: Roboto, sans-serif; font-size: 12px; font-weight: 200;" fill="rgb(33, 33, 33)" stroke="none" stroke-width="1px">0</text><text x="46.40625" y="0" dx="0em" dy="0.95em" style="text-anchor: middle; visibility: hidden; font-family: Roboto, sans-serif; font-size: 12px; font-weight: 200;" fill="rgb(33, 33, 33)" stroke="none" stroke-width="1px">100</text><text x="69.609375" y="0" dx="0em" dy="0.95em" style="text-anchor: middle; visibility: inherit; font-family: Roboto, sans-serif; font-size: 12px; font-weight: 200;" fill="rgb(33, 33, 33)" stroke="none" stroke-width="1px">200</text><text x="92.8125" y="0" dx="0em" dy="0.95em" style="text-anchor: middle; visibility: hidden; font-family: Roboto, sans-serif; font-size: 12px; font-weight: 200;" fill="rgb(33, 33, 33)" stroke="none" stroke-width="1px">300</text><text x="116.015625" y="0" dx="0em" dy="0.95em" style="text-anchor: middle; visibility: inherit; font-family: Roboto, sans-serif; font-size: 12px; font-weight: 200;" fill="rgb(33, 33, 33)" stroke="none" stroke-width="1px">400</text><text x="139.21875" y="0" dx="0em" dy="0.95em" style="text-anchor: middle; visibility: hidden; font-family: Roboto, sans-serif; font-size: 12px; font-weight: 200;" fill="rgb(33, 33, 33)" stroke="none" stroke-width="1px">500</text><text x="162.421875" y="0" dx="0em" dy="0.95em" style="text-anchor: middle; visibility: inherit; font-family: Roboto, sans-serif; font-size: 12px; font-weight: 200;" fill="rgb(33, 33, 33)" stroke="none" stroke-width="1px">600</text><text x="185.625" y="0" dx="0em" dy="0.95em" style="text-anchor: middle; visibility: hidden; font-family: Roboto, sans-serif; font-size: 12px; font-weight: 200;" fill="rgb(33, 33, 33)" stroke="none" stroke-width="1px">700</text><text x="208.828125" y="0" dx="0em" dy="0.95em" style="text-anchor: middle; visibility: inherit; font-family: Roboto, sans-serif; font-size: 12px; font-weight: 200;" fill="rgb(33, 33, 33)" stroke="none" stroke-width="1px">800</text><text x="232.03125" y="0" dx="0em" dy="0.95em" style="text-anchor: middle; visibility: hidden; font-family: Roboto, sans-serif; font-size: 12px; font-weight: 200;" fill="rgb(33, 33, 33)" stroke="none" stroke-width="1px">900</text><text x="255.234375" y="0" dx="0em" dy="0.95em" style="text-anchor: middle; visibility: inherit; font-family: Roboto, sans-serif; font-size: 12px; font-weight: 200;" fill="rgb(33, 33, 33)" stroke="none" stroke-width="1px">1k</text><text x="278.4375" y="0" dx="0em" dy="0.95em" style="text-anchor: middle; visibility: hidden; font-family: Roboto, sans-serif; font-size: 12px; font-weight: 200;" fill="rgb(33, 33, 33)" stroke="none" stroke-width="1px">1.1k</text></g><line x1="0" y1="0" x2="278.4375" y2="0" fill="rgb(0, 0, 0)" stroke="rgb(204, 204, 204)" stroke-width="1px"></line></g></g></g></g></svg>