<svg viewBox="0 0 330 200" xmlns="http://www.w3.org/2000/svg"><g><g><g><g><g><line x1="50" y1="177" x2="45" y2="177" style="visibility: inherit;" fill="rgb(0, 0, 0)" stroke="rgb(204, 204, 204)" stroke-width="1px"></line><line x1="50" y1="157.33333333333337" x2="45" y2="157.33333333333337" style="visibility: inherit;" fill="rgb(0, 0, 0)" stroke="rgb(204, 204, 204)" stroke-width="1px"></line><line x1="50" y1="137.66666666666666" x2="45" y2="137.66666666666666" style="visibility: inherit;" fill="rgb(0, 0, 0)" stroke="rgb(204, 204, 204)" stroke-width="1px"></line><line x1="50" y1="118.00000000000003" x2="45" y2="118.00000000000003" style="visibility: inherit;" fill="rgb(0, 0, 0)" stroke="rgb(204, 204, 204)" stroke-width="1px"></line><line x1="50" y1="98.33333333333334" x2="45" y2="98.33333333333334" style="visibility: inherit;" fill="rgb(0, 0, 0)" stroke="rgb(204, 204, 204)" stroke-width="1px"></line><line x1="50" y1="78.66666666666666" x2="45" y2="78.66666666666666" style="visibility: inherit;" fill="rgb(0, 0, 0)" stroke="rgb(204, 204, 204)" stroke-width="1px"></line><line x1="50" y1="59.00000000000001" x2="45" y2="59.00000000000001" style="visibility: inherit;" fill="rgb(0, 0, 0)" stroke="rgb(204, 204, 204)" stroke-width="1px"></line><line x1="50" y1="39.33333333333333" x2="45" y2="39.33333333333333" style="visibility: inherit;" fill="rgb(0, 0, 0)" stroke="rgb(204, 204, 204)" stroke-width="1px"></line><line x1="50" y1="19.666666666666696" x2="45" y2="19.666666666666696" style="visibility: inherit;" fill="rgb(0, 0, 0)" stroke="rgb(204, 204, 204)" stroke-width="1px"></line><line x1="50" y1="0" x2="45" y2="0" style="visibility: inherit;" fill="rgb(0, 0, 0)" stroke="rgb(204, 204, 204)" stroke-width="1px"></line></g><g transform="translate(40, 0)"><text x="0" y="177" dx="0em" dy="0.3em" style="text-anchor: end; visibility: hidden; font-family: Roboto, sans-serif; font-size: 12px; font-weight: 200;" fill="rgb(33, 33, 33)" stroke="none" stroke-width="1px">0.55</text><text x="0" y="157.33333333333337" dx="0em" dy="0.3em" style="text-anchor: end; visibility: inherit; font-family: Roboto, sans-serif; font-size: 12px; font-weight: 200;" fill="rgb(33, 33, 33)" stroke="none" stroke-width="1px">0.6</text><text x="0" y="137.66666666666666" dx="0em" dy="0.3em" style="text-anchor: end; visibility: hidden; font-family: Roboto, sans-serif; font-size: 12px; font-weight: 200;" fill="rgb(33, 33, 33)" stroke="none" stroke-width="1px">0.65</text><text x="0" y="118.00000000000003" dx="0em" dy="0.3em" style="text-anchor: end; visibility: inherit; font-family: Roboto, sans-serif; font-size: 12px; font-weight: 200;" fill="rgb(33, 33, 33)" stroke="none" stroke-width="1px">0.7</text><text x="0" y="98.33333333333334" dx="0em" dy="0.3em" style="text-anchor: end; visibility: hidden; font-family: Roboto, sans-serif; font-size: 12px; font-weight: 200;" fill="rgb(33, 33, 33)" stroke="none" stroke-width="1px">0.75</text><text x="0" y="78.66666666666666" dx="0em" dy="0.3em" style="text-anchor: end; visibility: inherit; font-family: Roboto, sans-serif; font-size: 12px; font-weight: 200;" fill="rgb(33, 33, 33)" stroke="none" stroke-width="1px">0.8</text><text x="0" y="59.00000000000001" dx="0em" dy="0.3em" style="text-anchor: end; visibility: hidden; font-family: Roboto, sans-serif; font-size: 12px; font-weight: 200;" fill="rgb(33, 33, 33)" stroke="none" stroke-width="1px">0.85</text><text x="0" y="39.33333333333333" dx="0em" dy="0.3em" style="text-anchor: end; visibility: inherit; font-family: Roboto, sans-serif; font-size: 12px; font-weight: 200;" fill="rgb(33, 33, 33)" stroke="none" stroke-width="1px">0.9</text><text x="0" y="19.666666666666696" dx="0em" dy="0.3em" style="text-anchor: end; visibility: hidden; font-family: Roboto, sans-serif; font-size: 12px; font-weight: 200;" fill="rgb(33, 33, 33)" stroke="none" stroke-width="1px">0.95</text><text x="0" y="0" dx="0em" dy="0.3em" style="text-anchor: end; visibility: hidden; font-family: Roboto, sans-serif; font-size: 12px; font-weight: 200;" fill="rgb(33, 33, 33)" stroke="none" stroke-width="1px">1</text></g><line x1="50" y1="0" x2="50" y2="177" fill="rgb(0, 0, 0)" stroke="rgb(204, 204, 204)" stroke-width="1px"></line></g></g><g transform="translate(50, 0)" clip-path="url(#clip_0)"><clipPath id="clip_0"><rect width="280" height="177"></rect></clipPath><g><g><g><line x1="0" y1="0" x2="0" y2="177" fill="rgb(0, 0, 0)" stroke="rgb(66, 66, 66)" stroke-width="1px" opacity="0.25"></line><line x1="23.333333333333332" y1="0" x2="23.333333333333332" y2="177" fill="rgb(0, 0, 0)" stroke="rgb(66, 66, 66)" stroke-width="1px" opacity="0.25"></line><line x1="46.666666666666664" y1="0" x2="46.666666666666664" y2="177" fill="rgb(0, 0, 0)" stroke="rgb(66, 66, 66)" stroke-width="1px" opacity="0.25"></line><line x1="70" y1="0" x2="70" y2="177" fill="rgb(0, 0, 0)" stroke="rgb(66, 66, 66)" stroke-width="1px" opacity="0.25"></line><line x1="93.33333333333333" y1="0" x2="93.33333333333333" y2="177" fill="rgb(0, 0, 0)" stroke="rgb(66, 66, 66)" stroke-width="1px" opacity="0.25"></line><line x1="116.66666666666667" y1="0" x2="116.66666666666667" y2="177" fill="rgb(0, 0, 0)" stroke="rgb(66, 66, 66)" stroke-width="1px" opacity="0.25"></line><line x1="140" y1="0" x2="140" y2="177" fill="rgb(0, 0, 0)" stroke="rgb(66, 66, 66)" stroke-width="1px" opacity="0.25"></line><line x1="163.33333333333334" y1="0" x2="163.33333333333334" y2="177" fill="rgb(0, 0, 0)" stroke="rgb(66, 66, 66)" stroke-width="1px" opacity="0.25"></line><line x1="186.66666666666666" y1="0" x2="186.66666666666666" y2="177" fill="rgb(0, 0, 0)" stroke="rgb(66, 66, 66)" stroke-width="1px" opacity="0.25"></line><line x1="210" y1="0" x2="210" y2="177" fill="rgb(0, 0, 0)" stroke="rgb(66, 66, 66)" stroke-width="1px" opacity="0.25"></line><line x1="233.33333333333334" y1="0" x2="233.33333333333334" y2="177" fill="rgb(0, 0, 0)" stroke="rgb(66, 66, 66)" stroke-width="1px" opacity="0.25"></line><line x1="256.66666666666663" y1="0" x2="256.66666666666663" y2="177" fill="rgb(0, 0, 0)" stroke="rgb(66, 66, 66)" stroke-width="1px" opacity="0.25"></line><line x1="280" y1="0" x2="280" y2="177" fill="rgb(0, 0, 0)" stroke="rgb(66, 66, 66)" stroke-width="1px" opacity="0.25"></line></g><g><line x1="0" y1="177" x2="280" y2="177" fill="rgb(0, 0, 0)" stroke="rgb(66, 66, 66)" stroke-width="1px" opacity="0.25"></line><line x1="0" y1="157.33333333333337" x2="280" y2="157.33333333333337" fill="rgb(0, 0, 0)" stroke="rgb(66, 66, 66)" stroke-width="1px" opacity="0.25"></line><line x1="0" y1="137.66666666666666" x2="280" y2="137.66666666666666" fill="rgb(0, 0, 0)" stroke="rgb(66, 66, 66)" stroke-width="1px" opacity="0.25"></line><line x1="0" y1="118.00000000000003" x2="280" y2="118.00000000000003" fill="rgb(0, 0, 0)" stroke="rgb(66, 66, 66)" stroke-width="1px" opacity="0.25"></line><line x1="0" y1="98.33333333333334" x2="280" y2="98.33333333333334" fill="rgb(0, 0, 0)" stroke="rgb(66, 66, 66)" stroke-width="1px" opacity="0.25"></line><line x1="0" y1="78.66666666666666" x2="280" y2="78.66666666666666" fill="rgb(0, 0, 0)" stroke="rgb(66, 66, 66)" stroke-width="1px" opacity="0.25"></line><line x1="0" y1="59.00000000000001" x2="280" y2="59.00000000000001" fill="rgb(0, 0, 0)" stroke="rgb(66, 66, 66)" stroke-width="1px" opacity="0.25"></line><line x1="0" y1="39.33333333333333" x2="280" y2="39.33333333333333" fill="rgb(0, 0, 0)" stroke="rgb(66, 66, 66)" stroke-width="1px" opacity="0.25"></line><line x1="0" y1="19.666666666666696" x2="280" y2="19.666666666666696" fill="rgb(0, 0, 0)" stroke="rgb(66, 66, 66)" stroke-width="1px" opacity="0.25"></line><line x1="0" y1="0" x2="280" y2="0" fill="rgb(0, 0, 0)" stroke="rgb(66, 66, 66)" stroke-width="1px" opacity="0.25"></line></g></g></g><g><g><line x1="0" y1="393.33333333333337" x2="280" y2="393.33333333333337" fill="rgb(0, 0, 0)" stroke="rgb(153, 153, 153)" stroke-width="1.5px"></line></g></g><g><g><line x1="23.333333333333332" y1="0" x2="23.333333333333332" y2="177" fill="rgb(0, 0, 0)" stroke="rgb(153, 153, 153)" stroke-width="1.5px"></line></g></g><g><g><g><g><g><path stroke="rgb(0, 119, 187)" stroke-width="2px" d="M25.9,206.01883488089325L26.133333333333333,170.76525918758543L26.366666666666667,175.88538570281233L26.6,181.57835511561342L27.766666666666666,200.86021682695286L28,172.95995936811298L28.233333333333334,166.7092229298241L28.46666666666667,197.04799682495644L28.7,175.9175881103014L28.933333333333334,178.9727793980944L29.166666666666668,186.05034637855945L29.4,169.31908084210838L29.633333333333333,180.2581218895336L29.866666666666667,168.46597864956607L30.099999999999998,177.12403604900075L30.333333333333336,163.9633100229664L30.566666666666666,177.04465372154633L30.8,161.29346189856304L31.033333333333335,183.30941297881364L31.266666666666666,157.18564921376168L31.5,149.37805986551186L31.73333333333333,126.33794938857692L31.966666666666665,120.38055176510841L32.2,129.91722121957386L32.43333333333333,148.75033088135996L32.666666666666664,165.29464548727577L32.9,135.88790089007117L33.13333333333333,173.31051988559204L33.36666666666667,135.45297671590387L33.6,152.0717841557103L33.833333333333336,154.17640007577182L34.06666666666667,152.81694990615037L34.3,154.62349952594516L34.53333333333333,158.32965839710508L34.766666666666666,165.7977931627639L35,170.27867402212058L35.233333333333334,170.34498281623684L35.46666666666667,157.2736601075049L35.7,136.3197491192906L35.93333333333333,121.12518280489815L36.16666666666667,146.0973275288651L36.4,174.19173172621828L36.63333333333333,130.73726438387976L36.86666666666666,143.997917311817L37.1,162.44319733228156L37.333333333333336,128.93258319047513L37.56666666666666,111.44843442686818L37.800000000000004,161.26905971834168L38.03333333333333,157.0725456917431L38.266666666666666,117.84352366392672L38.5,102.17277898946315L38.733333333333334,108.50366926923742L38.96666666666667,130.6577602430305L39.2,96.75021295174685L39.43333333333334,123.60568645253615L39.666666666666664,84.65230013522407L39.9,84.88026459371785L40.13333333333333,90.26149208956402L40.36666666666667,85.62356004484565L40.599999999999994,116.92969470839543L40.833333333333336,119.98003842207295L41.06666666666667,124.43246437175573L41.3,121.85948049861292L41.53333333333334,138.6712469806558L41.766666666666666,125.15830124320308L42,114.42831407925516L42.233333333333334,115.85699032311256L42.46666666666667,121.95863551237949L42.699999999999996,133.48629116816588L42.93333333333333,124.6695568549828L43.16666666666667,122.00173598854913L43.4,91.55659839905803L43.63333333333333,99.51174119351806L43.86666666666667,96.4181583279679L44.1,110.29533631529272L44.33333333333333,136.97719991361615L44.56666666666667,129.38632182372916L44.800000000000004,109.0984578853447L45.03333333333333,112.6590766067663L45.266666666666666,143.63989290925022L45.5,125.51726907888342L45.733333333333334,114.6436947806634L45.96666666666666,102.87510138098148L46.2,114.16950214710084L46.43333333333333,115.70170316382001L46.666666666666664,116.62102377385149L46.900000000000006,132.90594384652525L47.13333333333333,111.21023109902232L47.36666666666667,98.19280345052059L47.6,106.11568394587187L47.833333333333336,97.75829488010653L48.06666666666666,77.01053373399247L48.3,64.561877046324L48.53333333333333,80.69267928260399L48.766666666666666,95.6156094451219L49,109.8138069855851L49.233333333333334,118.33272550986301L49.46666666666667,107.71074891777491L49.699999999999996,103.95978268399826L49.93333333333334,122.6869794711371L50.166666666666664,120.81218955824176L50.4,124.93175505345698L50.63333333333334,151.00349997726462L50.86666666666667,132.55765304116838L51.1,152.9568096706178L51.33333333333333,146.84075622015632L51.56666666666667,135.3044556076533L51.8,131.00489496162774L52.03333333333333,125.80293885253616L52.266666666666666,85.97065157522412L52.5,93.53794399994405L52.733333333333334,119.0560959821808L52.96666666666667,110.76699092264181L53.2,103.1713081654422L53.43333333333333,103.85833795407491L53.66666666666667,96.40388728502838L53.9,86.68677744064797L54.13333333333333,86.10095097697217L54.36666666666666,77.88279593433802L54.6,91.30745971468606L54.833333333333336,112.47336596807354L55.06666666666666,93.70624492899884L55.300000000000004,69.33485494257796L55.53333333333333,80.93424629888013L55.766666666666666,74.7827731274828L56,118.29188172240644L56.233333333333334,149.64179570011055L56.46666666666667,136.98507929562584L56.7,105.79104382625655L56.93333333333334,87.07462254463495L57.166666666666664,78.46699887493571L57.4,89.03575237977098L57.63333333333333,90.13256503971967L57.86666666666667,64.56842728753419L58.099999999999994,99.05216623325867L58.333333333333336,72.54240772513383L58.56666666666667,69.74766998323501L58.8,54.95970997511964L59.03333333333334,61.820271054702765L59.266666666666666,92.15883305060731L59.5,73.65085663629296L59.733333333333334,75.65717877288296L59.96666666666667,95.21652886076551L60.199999999999996,85.97436238609028L60.43333333333333,77.80684277980887L60.66666666666667,106.99521552862346L60.9,103.53046265050735L61.13333333333333,119.80716772956633L61.36666666666667,103.35096542884698L61.6,109.21058113286767L61.83333333333333,99.61523319230402L62.06666666666667,96.4802535272395L62.300000000000004,120.82148169855809L62.53333333333333,117.07067117321807L62.766666666666666,99.08684777356179L63,122.38543824635146L63.233333333333334,112.76459628114421L63.46666666666666,96.50320283831749L63.7,78.8796982303953L63.93333333333333,94.52782081379667L64.16666666666666,67.2055807519804L64.4,79.6566817845216L64.63333333333334,76.63845414034388L64.86666666666666,61.71640956865865L65.10000000000001,60.62984199007624L65.33333333333333,80.955687348129L65.56666666666666,103.64008282666309L65.8,77.91738678045014L66.03333333333333,96.57265366530581L66.26666666666667,71.0547001843621L66.5,89.83282198617677L66.73333333333333,72.25524999763459L66.96666666666667,72.19759506821168L67.2,93.14077863796277L67.43333333333334,66.37335544648009L67.66666666666667,63.42400951676906L67.89999999999999,74.76551932191852L68.13333333333334,71.08153694130583L68.36666666666667,110.82670056774778L68.6,124.18491047991056L68.83333333333333,103.35539135757728L69.06666666666666,130.19101321751063L69.3,117.44794126383972L69.53333333333333,101.93542954941105L69.76666666666667,87.38348307780133L70,104.87453116519276L70.23333333333333,107.50250085319891L70.46666666666667,95.9681653030265L70.7,115.2697893210778L70.93333333333334,82.27298157782528L71.16666666666666,72.96378519557621L71.4,90.97827299290523L71.63333333333334,107.03140511425511L71.86666666666666,106.17439612336261L72.10000000000001,97.793522186601L72.33333333333334,71.78722129713925L72.56666666666666,58.80566986273585L72.8,43.15007045986767L73.03333333333333,41.62337936037291L73.26666666666667,61.685141228080845L73.5,65.85552980647942L73.73333333333332,89.33553948092342L73.96666666666667,100.80132556411354L74.2,84.08079158734914L74.43333333333332,81.91513974351668L74.66666666666667,70.12686037351477L74.9,65.67611247298987L75.13333333333333,70.87233227490108L75.36666666666666,73.99006415604786L75.60000000000001,65.3718150210335L75.83333333333333,81.17864206742966L76.06666666666666,64.44052232491013L76.30000000000001,54.397650479398386L76.53333333333333,82.46081188467477L76.76666666666667,99.29870872784062L77,88.42367030633531L77.23333333333333,74.03197871120595L77.46666666666667,54.90807549042596L77.7,72.27817862758889L77.93333333333334,87.9446893306366L78.16666666666667,58.01126241913191L78.4,55.78453397888391L78.63333333333333,88.537390805116L78.86666666666667,76.72243073195061L79.1,74.87790350880132L79.33333333333333,81.63785571713788L79.56666666666666,85.69382704213982L79.8,80.26074129491487L80.03333333333333,74.37867012510362L80.26666666666667,57.73831006024085L80.5,55.62076256354932L80.73333333333333,49.105794622581904L80.96666666666667,50.44125330095395L81.19999999999999,40.75364024427476L81.43333333333334,50.67440949471959L81.66666666666667,61.871310487938956L81.89999999999999,52.85612337721569L82.13333333333334,63.18033881743656L82.36666666666667,58.885979817866684L82.6,69.42047240330345L82.83333333333333,54.76339142716071L83.06666666666668,45.96914284147506L83.3,35.4481542471112L83.53333333333333,47.49111789642142L83.76666666666668,67.82800407118619L84,85.27458459679498L84.23333333333333,87.87586436993409L84.46666666666667,76.3255148708415L84.7,58.90641690768353L84.93333333333334,61.56607549276485L85.16666666666666,57.91742182306371L85.39999999999999,58.350449342719266L85.63333333333334,84.83249120266727L85.86666666666666,103.34393604011233L86.1,85.60635787294842L86.33333333333334,80.20825979340003L86.56666666666666,66.48051268196856L86.8,63.48830385806217L87.03333333333333,69.55964710594446L87.26666666666667,67.95801361172138L87.5,59.13036497296138L87.73333333333333,40.72266780452675L87.96666666666667,74.25582227975177L88.2,65.53126989525586L88.43333333333334,55.05209902160583L88.66666666666666,59.25348476111821L88.9,46.040979120373315L89.13333333333334,30.246807193700207L89.36666666666666,39.12586084362494L89.60000000000001,39.20885359062727L89.83333333333334,41.88086896030489L90.06666666666666,48.728517625063986L90.3,68.5704439083717L90.53333333333333,72.60893113613022L90.76666666666667,67.16535493055916L91,66.52143830649023L91.23333333333332,63.51285923277517L91.46666666666667,59.08549206706992L91.7,74.78462857357526L91.93333333333332,81.58189075600227L92.16666666666667,62.06024243877998L92.4,76.56947879660132L92.63333333333333,80.0305717905442L92.86666666666666,66.37389988025508L93.10000000000001,84.4021220822363L93.33333333333333,87.35238686119888L93.56666666666666,73.38920864412414L93.80000000000001,78.1224096990579L94.03333333333333,67.85122234683956L94.26666666666667,77.4218470199608L94.5,70.05310446085748L94.73333333333333,68.2540880246692L94.96666666666667,64.55244906368253L95.2,51.842577423388136L95.43333333333334,57.32777180218761L95.66666666666667,63.24110815094351L95.9,64.16689023872081L96.13333333333333,46.36680268545867L96.36666666666667,48.797858138679985L96.6,47.634271689136554L96.83333333333333,41.69167099866058L97.06666666666666,74.83722419623206L97.3,60.635671602191586L97.53333333333333,62.60362830946966L97.76666666666667,55.917733791610374L98,51.90619708089479L98.23333333333333,39.01038679076305L98.46666666666667,49.62845742261254L98.69999999999999,48.13263125949605L98.93333333333334,52.47957500457865L99.16666666666667,52.46552153015196L99.39999999999999,52.45708944549595L99.63333333333334,41.963141930999974L99.86666666666667,54.02233022823093L100.1,53.39117466434334L100.33333333333333,47.76804188305831L100.56666666666668,54.883050477989684L100.8,35.55205000827003L101.03333333333333,44.931226253843036L101.26666666666668,40.06984373748448L101.5,71.2419081180502L101.73333333333333,103.05625473156827L101.96666666666667,90.67819790857187L102.2,57.029138466619386L102.43333333333334,57.81747932885265L102.66666666666666,45.17937586101399L102.89999999999999,55.952070586239294L103.13333333333334,51.926799157672086L103.36666666666666,52.133856022008054L103.6,62.746978404312L103.83333333333334,45.514855584813354L104.06666666666666,43.042250435340335L104.3,46.80312678860896L104.53333333333333,38.57076433686776L104.76666666666667,51.98690367175163L105,46.92547928750327L105.23333333333333,51.75528382138298L105.46666666666667,54.653166541710846L105.7,100.96967832799079L105.93333333333334,102.53736005160404L106.16666666666666,79.87797283689098L106.4,58.415671965836985L106.63333333333334,53.40495998543074L106.86666666666666,60.887421060889395L107.10000000000001,70.62133714911704L107.33333333333334,47.61725111022018L107.56666666666666,41.68145865131075L107.8,64.34220852411977L108.03333333333333,56.96088192040039L108.26666666666667,89.24319957002592L108.5,61.41258828424169L108.73333333333332,47.33644123424741L108.96666666666667,72.9796468946317L109.2,75.25445292788619L109.43333333333332,63.50822856266029L109.66666666666667,45.971605679822346L109.9,40.69407139307207L110.13333333333333,48.016439084724254L110.36666666666666,60.2765282419417L110.60000000000001,62.388142293319696L110.83333333333333,58.41066190339664L111.06666666666666,42.91306568426414L111.30000000000001,38.85894739573713L111.53333333333333,33.80425670114468L111.76666666666667,46.50477936884156L112,38.39175588500732L112.23333333333333,36.14616151618305L112.46666666666667,74.13213822822179L112.7,91.67928481249257L112.93333333333334,65.49645915119795L113.16666666666667,49.78676375442116L113.4,42.98316623783134L113.63333333333333,44.14545654862739L113.86666666666667,50.087270178057445L114.1,43.163470092013085L114.33333333333333,54.742527124838844L114.56666666666666,45.956624260081945L114.8,43.30731164050148L115.03333333333333,73.18438885986039L115.26666666666667,54.39952157961863L115.5,66.72859746035458L115.73333333333333,55.77049556066506L115.96666666666667,59.68452268455372L116.19999999999999,59.41070985961325L116.43333333333334,69.73531042835141L116.66666666666667,65.44118250589187L116.89999999999999,60.242486030939894L117.13333333333334,51.87882870301629L117.36666666666667,33.749516943286L117.6,54.338594678554976L117.83333333333333,58.82538215528771L118.06666666666668,45.78411755687503L118.3,35.33713907635117L118.53333333333333,44.802279694691755L118.76666666666668,66.2147011501484L119,58.08437749601757L119.23333333333333,74.18395983094388L119.46666666666667,52.377044440792496L119.7,52.404003191880314L119.93333333333334,41.931290178830594L120.16666666666666,35.64766237100075L120.39999999999999,42.36637395000523L120.63333333333334,59.50870888258656L120.86666666666666,72.41633894140905L121.1,103.76091322558355L121.33333333333334,75.36765592052875L121.56666666666666,60.953930636769584L121.8,44.43902692428791L122.03333333333333,65.99674948790607L122.26666666666667,65.82027504089838L122.5,68.33661009416997L122.73333333333333,51.49085432020436L122.96666666666667,46.62784967657496L123.2,54.19893515409968L123.43333333333334,61.36380616209071L123.66666666666666,55.17384050318302L123.9,72.4376376352431L124.13333333333334,80.17369619300294L124.36666666666666,58.593105979504195L124.60000000000001,79.73364574178576L124.83333333333334,68.81796397247625L125.06666666666666,49.157446925711916L125.3,55.71669350358189L125.53333333333333,49.16335318660145L125.76666666666667,39.98690017566326L126,58.0810246179814L126.23333333333332,37.470834492265084L126.46666666666667,46.08249694424007L126.7,32.89394698729395L126.93333333333332,48.58081326200737L127.16666666666667,71.10404101201397L127.4,58.395761691660695L127.63333333333333,50.77079409944875L127.86666666666666,40.951364723371654L128.1,61.2819324458801L128.33333333333331,42.01360828827799L128.56666666666666,54.05261004259773L128.8,45.54267401073728L129.03333333333333,40.436712391621L129.26666666666668,37.37313542015126L129.5,27.668330072840675L129.73333333333332,27.089886307406797L129.96666666666667,26.742820048146484L130.20000000000002,68.49013334739986L130.43333333333334,41.09408000843992L130.66666666666666,37.76755599024257L130.9,51.50497866377653L131.13333333333333,62.369651989373075L131.36666666666667,47.910679457326225L131.6,52.3464039232768L131.83333333333334,70.7411756872994L132.06666666666666,71.28915048201058L132.29999999999998,45.395710010682585L132.53333333333333,58.70409079751677L132.76666666666668,53.57801128443861L133,55.746803019544195L133.23333333333332,57.04807806060757L133.46666666666667,44.717735100066925L133.7,47.808417587444964L133.93333333333334,62.77393506505037L134.16666666666669,66.50880610866115L134.4,47.77195220742289L134.63333333333333,47.018728130382314L134.86666666666667,38.70012514193182L135.1,25.84229480663533L135.33333333333334,23.37204542620734L135.56666666666666,21.889895797950597L135.79999999999998,34.111714006175156L136.03333333333333,44.067024652586156L136.26666666666668,47.41799131895648L136.5,57.29523986100484L136.73333333333335,52.732700722531476L136.96666666666667,42.12850869722132L137.2,35.765993482035164L137.43333333333334,29.326264631447266L137.66666666666666,28.084647042570772L137.9,29.9618962107211L138.13333333333333,65.17713960199214L138.36666666666667,46.97295230342143L138.6,72.7615535361361L138.83333333333334,54.14582038538404L139.06666666666666,66.57637674381382L139.3,47.81249458851444L139.53333333333333,41.79860473828732L139.76666666666665,32.94583138519854L140,32.87860681629777L140.23333333333335,45.9493894379334L140.46666666666667,43.302970747212306L140.7,31.226231269077317L140.93333333333334,29.224627025148784L141.16666666666666,33.26811329954153L141.4,22.583087701201165L141.63333333333333,31.90540942664926L141.86666666666667,34.87658274044186L142.1,36.65928672871746L142.33333333333331,35.10668002240912L142.56666666666666,49.90845308307639L142.8,56.167297198000554L143.03333333333333,83.5225999158361L143.26666666666668,60.60244821320403L143.5,52.09480601237477L143.73333333333332,49.61244041335339L143.96666666666667,63.85634876059545L144.20000000000002,43.55825807710719L144.43333333333334,54.979399915895286L144.66666666666669,77.56542210362043L144.89999999999998,75.38369833180325L145.13333333333333,53.09688754130812L145.36666666666667,42.347020788487285L145.6,46.38598900049716L145.83333333333334,59.29825819140545L146.06666666666666,77.53450796965285L146.29999999999998,64.87626158772024L146.53333333333333,75.63687056448921L146.76666666666668,66.35989886609829L147,73.90482383224239L147.23333333333335,52.20956284157161L147.46666666666664,62.792402496050144L147.7,45.542110039856226L147.93333333333334,43.05860310836604L148.16666666666666,33.7018304072458L148.4,33.3322062295261L148.63333333333335,27.86599227994184L148.86666666666665,45.56404043759606L149.1,37.82731252626006L149.33333333333334,48.91861286391073L149.56666666666666,39.84005598204883L149.8,52.748478658860215L150.03333333333336,60.49353226494708L150.26666666666665,49.40722734414689L150.5,53.24433265536912L150.73333333333332,47.679936677673744L150.96666666666667,41.7190699917829L151.20000000000002,51.25366734322446L151.43333333333334,35.99664922668462L151.66666666666666,32.086877799713186L151.9,42.852122928708894L152.13333333333333,51.93349910538001L152.36666666666667,44.271207448406656L152.60000000000002,52.7849498171987L152.83333333333331,44.782077875497855L153.06666666666666,42.60258380975098L153.29999999999998,46.539326813255364L153.53333333333333,33.16804490870313L153.76666666666668,35.63416402967419L154,34.49160640298314L154.23333333333332,62.6505168965995L154.46666666666667,45.45697868018586L154.7,37.76307547181391L154.93333333333334,41.0134020890169L155.16666666666669,35.09692951711254L155.4,23.68037743174374L155.63333333333333,27.31933444422491L155.86666666666667,34.74715747246347L156.1,49.69273955310904L156.33333333333334,74.39342588594867L156.56666666666666,60.3693926160215L156.8,46.71052383331531L157.03333333333333,43.75965138444151L157.26666666666665,39.36689881584354L157.5,39.35347637395848L157.73333333333335,47.21208207325613L157.96666666666667,44.06058632840599L158.2,36.925240060746006L158.43333333333334,24.777363757923847L158.66666666666666,46.333083045861514L158.9,40.910957812695536L159.13333333333333,32.41324322984349L159.36666666666667,48.29239100753701L159.6,52.575430853403205L159.83333333333331,57.76748386019665L160.06666666666666,60.88271566427266L160.3,60.129625647444584L160.53333333333333,41.322224209216685L160.76666666666668,35.28222278923241L161,50.01377874317041L161.23333333333332,43.119375231080895L161.46666666666667,36.36051340235094L161.70000000000002,40.171864847339066L161.93333333333334,29.34756772915337L162.16666666666669,17.60854063749201L162.39999999999998,28.920681188423803L162.63333333333333,30.463516698232933L162.86666666666667,28.76699828264216L163.1,38.23797549699013L163.33333333333334,28.187234118943984L163.56666666666666,32.6456775558187L163.79999999999998,40.565183060896025L164.03333333333333,45.31688636394239L164.26666666666668,42.92346890281777L164.5,36.242969605393064L164.73333333333335,34.85688974841449L164.96666666666664,44.514130097929744L165.2,50.30847430763883L165.43333333333334,66.89619819644041L165.66666666666666,53.24882690304289L165.9,50.30485294775424L166.13333333333335,48.53846857458112L166.36666666666665,39.611969408451046L166.6,29.011630465820552L166.83333333333334,30.518086264670977L167.06666666666666,36.66640856473116L167.3,27.244293959588628L167.53333333333336,26.83546463945559L167.76666666666665,34.45683558960189L168,25.918550174511047L168.23333333333332,39.15112635358768L168.46666666666667,36.60178379733123L168.70000000000002,42.9388468058035L168.93333333333334,46.74108461088688L169.16666666666666,41.15575875171077L169.4,29.937904071776387L169.63333333333333,28.451630706768224L169.86666666666667,24.937646966287126L170.10000000000002,28.073696164950903L170.33333333333331,24.710886241196736L170.56666666666666,38.42652799359903L170.79999999999998,36.16702478133804L171.03333333333333,42.677991396207595L171.26666666666668,33.473463379950715L171.5,27.950746570196614L171.73333333333332,22.014896762867878L171.96666666666667,23.697826321423122L172.2,19.4631446136038L172.43333333333334,19.544555310388454L172.66666666666669,35.326729435114125L172.9,31.684925924770873L173.13333333333333,37.36651236079104L173.36666666666667,38.1532445009269L173.6,25.514166422032375L173.83333333333334,28.419607838398086L174.06666666666666,30.16287268821747L174.3,20.719943334406736L174.53333333333333,17.676414821393976L174.76666666666665,15.85029771358632L175,14.754627448901715L175.23333333333335,19.34166473304343L175.46666666666667,16.84944766057596L175.7,25.843005680797873L175.93333333333334,20.75025222922864L176.16666666666666,25.561259322715852L176.4,46.803420384736654L176.63333333333333,41.193160216020644L176.86666666666667,32.582564671838554L177.1,22.17175852457935L177.33333333333331,31.6586119206762L177.56666666666666,34.72850423685807L177.8,39.19265934804335L178.03333333333333,49.73782095698068L178.26666666666668,42.95380055936706L178.5,38.88338832079889L178.73333333333332,41.68558979840792L178.96666666666667,30.255802699794668L179.20000000000002,41.75347786875782L179.43333333333334,43.407643527183254L179.66666666666669,44.40014292223852L179.89999999999998,52.86231110149785L180.13333333333333,81.53960825793446L180.36666666666667,67.27932176068923L180.6,61.345369583818325L180.83333333333334,76.14055508362432L181.06666666666666,48.30655277165083L181.29999999999998,52.58392791187152L181.53333333333333,39.4170252893491L181.76666666666668,31.516883715835604L182,26.776798771727524L182.23333333333335,29.177187248215162L182.46666666666664,48.97297714003631L182.7,50.36156281142658L182.93333333333334,40.70582595055832L183.16666666666666,29.667944391084916L183.4,23.045215455400875L183.63333333333335,19.071578093990443L183.86666666666665,32.42072338379906L184.1,35.185771114731736L184.33333333333334,34.22257065401766L184.56666666666666,38.889099198339125L184.8,41.68901632493206L185.03333333333336,35.502298058661644L185.26666666666665,34.41248682037564L185.5,28.51416063445153L185.73333333333332,24.97516492289711L185.96666666666667,35.962875481143044L186.20000000000002,21.577725288685816L186.43333333333334,31.302191979140073L186.66666666666666,24.025764008233992L186.9,30.14879548939265L187.13333333333333,39.06705382104035L187.36666666666667,54.906897083731415L187.60000000000002,43.43302651394126L187.83333333333331,28.68203562984097L188.06666666666666,25.075889920130724L188.29999999999998,20.289982772828385L188.53333333333333,25.285097648875656L188.76666666666668,38.771054838206396L189,28.507081723673792L189.23333333333332,24.970917576430416L189.46666666666667,25.47143880956065L189.7,23.14953182796255L189.93333333333334,24.378607360479954L190.16666666666669,30.360501500740273L190.4,20.838520621920406L190.63333333333333,38.72533772130697L190.86666666666667,31.10187117501035L191.1,63.23890485908949L191.33333333333334,51.054450900632325L191.56666666666666,48.98822734630794L191.8,47.7484932137133L192.03333333333333,49.62687245563281L192.26666666666665,58.620568543010634L192.5,53.527897931734934L192.73333333333335,47.85007584349325L192.96666666666667,41.821153491274615L193.2,32.95936063699091L193.43333333333334,30.264504645896945L193.66666666666666,33.89203987199049L193.9,38.690780729122835L194.13333333333333,28.458917258223618L194.36666666666667,40.67534660381523L194.6,34.89409622599152L194.83333333333331,28.803126277821057L195.06666666666666,27.770764030395036L195.3,50.7513429308204L195.53333333333333,40.939694022194644L195.76666666666668,29.808265234066706L196,49.35162393154717L196.23333333333332,42.72208234410695L196.46666666666667,38.74435739164281L196.70000000000002,25.86883415646195L196.93333333333334,23.387969036103303L197.16666666666669,35.01055794906672L197.39999999999998,28.873003311666217L197.63333333333333,30.43490997217837L197.86666666666667,28.74983424700945L198.1,25.116569090431838L198.33333333333334,25.558829717961512L198.56666666666666,36.31307435818168L198.79999999999998,34.89895260008763L199.03333333333333,44.53936780893362L199.26666666666668,34.590289227586354L199.5,36.487510621004105L199.73333333333335,37.6258434570548L199.96666666666664,30.442174616459013L200.2,36.620861575803964L200.43333333333334,45.57251319436342L200.66666666666666,45.69906472254663L200.9,35.28610737575417L201.13333333333335,26.4161132462024L201.36666666666665,21.094116768471395L201.6,17.90091888183275L201.83333333333334,31.718327856504473L202.06666666666666,24.275445534652626L202.3,35.54304384819631L202.53333333333336,34.43693429409645L202.76666666666665,25.906609397207788L203,20.788414459074584L203.23333333333332,20.339717217670913L203.46666666666667,20.070498872828725L203.70000000000002,17.286748144447188L203.93333333333334,23.483156871846926L204.16666666666666,27.20100210828679L204.4,18.942820986448325L204.63333333333333,19.232361134095186L204.86666666666667,16.78386550120702L205.10000000000002,17.93698784295038L205.33333333333331,13.384412427246435L205.56666666666666,15.897315998574019L205.79999999999998,17.40505814137057L206.03333333333333,31.420811412227177L206.26666666666668,31.963594832514932L206.5,45.40038224766366L206.73333333333332,35.106897890824385L206.96666666666667,28.930807276720806L207.2,27.8473726297349L207.43333333333334,24.57509212006711L207.66666666666669,30.478392356492556L207.9,23.53148423464544L208.13333333333333,29.852227625239546L208.36666666666667,31.02244456032236L208.6,34.34680382064569L208.83333333333334,38.963639098315944L209.06666666666666,23.378183458989557L209.3,35.004686602798536L209.53333333333333,28.86948050390529L209.76666666666665,22.566137123093107L210,24.02857053755828L210.23333333333335,30.150479406987255L210.46666666666667,36.44584445012089L210.7,40.223063476001116L210.93333333333334,37.24494607077932L211.16666666666666,35.45807562764624L211.4,37.008182461040064L211.63333333333333,32.69379774032641L211.86666666666667,27.482947186422017L212.1,34.845325117781734L212.33333333333331,41.8849715980738L212.56666666666666,30.375431779594216L212.8,23.469707888506473L213.03333333333333,29.815161817556213L213.26666666666668,54.60021070239081L213.5,51.115683227363036L213.73333333333332,54.269406185298834L213.96666666666667,37.806092531929245L214.20000000000002,38.41699260360983L214.43333333333334,44.02797208957065L214.66666666666669,31.66123207449231L214.89999999999998,18.99673924469541L215.13333333333333,19.264712089043417L215.36666666666667,24.66993523860469L215.6,22.668629685389003L215.83333333333334,31.956734617161956L216.06666666666666,32.285148755475824L216.29999999999998,35.104426337737806L216.53333333333333,42.04043233004746L216.76666666666668,30.468708218778385L217,26.147893473493188L217.23333333333335,26.17762434779833L217.46666666666664,23.57324315090517L217.7,27.255053875721742L217.93333333333334,29.46414031061168L218.16666666666666,20.300703907843246L218.4,20.047090886932125L218.63333333333335,27.76159161661162L218.86666666666665,19.279174691443238L219.1,40.41194988449688L219.33333333333334,37.358277915876755L219.56666666666666,48.63719209768073L219.8,68.51564859194177L220.03333333333336,62.08716568256981L220.26666666666665,66.09674447917286L220.5,39.658046687503685L220.73333333333332,55.26149280360936L220.96666666666667,59.379121030320334L221.20000000000002,48.73858060337083L221.43333333333334,50.22092488942726L221.66666666666666,37.99922347588251L221.9,30.666202627755684L222.13333333333333,39.377498104058205L222.36666666666667,28.87094768318485L222.60000000000002,27.81145687361333L222.83333333333331,24.55354266639416L223.06666666666666,22.59879414206267L223.29999999999998,26.670384470416234L223.53333333333333,29.113338667428398L223.76666666666668,43.69022854861173L224,31.458585949916976L224.23333333333332,47.719596639581155L224.46666666666667,36.49842652597486L224.7,32.387944179287324L224.93333333333334,29.9216547712748L225.16666666666669,41.55298911164594L225.4,38.042901452166205L225.63333333333333,30.69240941352589L225.86666666666667,44.637670996270224L226.1,45.13815940369065L226.33333333333334,37.57178390591677L226.56666666666666,30.40973888577623L226.8,41.84583958034676L227.03333333333333,27.729723469684284L227.26666666666665,21.8822829025605L227.5,18.373818562286257L227.73333333333335,21.51317940107416L227.96666666666667,20.774576182870675L228.2,36.06474195860341L228.43333333333334,34.74995316034071L228.66666666666666,39.205528702133L228.9,34.0122054849822L229.13333333333333,33.518431276167966L229.36666666666667,30.599947029403197L229.6,26.22663675986805L229.83333333333331,23.602650598147008L230.06666666666666,24.650478622590622L230.3,25.27917543725677L230.53333333333333,25.65639352605644L230.76666666666668,23.260504657860032L231,27.067410779894647L231.23333333333332,26.729334731639206L231.46666666666667,18.65982056045976L231.70000000000002,26.929229420728173L231.93333333333334,21.40198647318682L232.16666666666669,20.707860426138268L232.39999999999998,25.535824240861608L232.63333333333333,38.92149079339802L232.86666666666667,31.219563018264985L233.1,26.59840635318515L233.33333333333334,23.82571235413725L233.56666666666666,22.16209595470851L233.79999999999998,18.54170639357502L234.03333333333333,26.858360920597303L234.26666666666668,23.981685094584556L234.5,19.63345987750065L234.73333333333335,14.402295647976596L234.96666666666664,34.863602736940706L235.2,39.27371844809295L235.43333333333334,28.808679889605692L235.66666666666666,33.01854501821572L235.9,27.67779555315561L236.13333333333335,24.47334587411951L236.36666666666665,30.41734460892405L236.6,28.73929502905681L236.83333333333334,38.22135354483886L237.06666666666666,46.532808375784334L237.3,35.786353567696786L237.53333333333336,29.338480682844235L237.76666666666665,20.225308131182775L238,22.624073142412087L238.23333333333332,21.441112427673396L238.46666666666667,31.22022426253259L238.70000000000002,18.73213455751957L238.93333333333334,24.350388719690372L239.16666666666666,46.076898022921384L239.4,27.646138813752813L239.63333333333333,27.07657155195407L239.86666666666667,18.86816265264868L240.10000000000002,24.432005576767864L240.33333333333331,27.770311331239355L240.56666666666666,19.28440652021983L240.79999999999998,27.303980996584244L241.03333333333333,32.115725682402875L241.26666666666668,27.136103951667867L241.5,26.770550634703103L241.73333333333332,37.04010690822663L241.96666666666667,37.95740122938825L242.2,33.263329001335336L242.43333333333334,48.80244247043215L242.66666666666669,45.014802566711595L242.9,32.2533303607769L243.13333333333333,21.974217937942363L243.36666666666667,26.295638747944047L243.6,23.644051790992584L243.83333333333334,22.053099616821722L244.06666666666666,26.342967755271697L244.3,26.294668916865426L244.53333333333333,41.99902669827392L244.76666666666665,35.68830428266677L245,52.87964736070726L245.23333333333335,44.838896401603L245.46666666666667,45.25889464689036L245.7,45.510893594062786L245.93333333333334,40.41764414161629L246.16666666666666,37.36169447014843L246.4,32.90590494579147L246.63333333333333,32.85465095265352L246.86666666666667,32.82389855677074L247.1,35.42767621851479L247.33333333333331,29.12327427333504L247.56666666666666,35.829521369929545L247.8,26.74216164270768L248.03333333333333,42.26752233377932L248.26666666666668,27.982733121743834L248.5,24.656308415272456L248.73333333333332,20.038233869913377L248.96666666666667,33.000716849352834L249.20000000000002,30.289318373314117L249.43333333333334,20.795810745464713L249.66666666666669,22.966374710981235L249.89999999999998,34.75760135399354L250.13333333333333,39.210117618324674L250.36666666666667,34.01495883469721L250.6,28.275643843044463L250.83333333333334,19.58760602730293L251.06666666666666,22.241451880084156L251.29999999999998,34.3226476554553L251.53333333333333,41.57136512067795L251.76666666666668,40.6761561568591L252,34.89458195781786L252.23333333333335,31.425637438393103L252.46666666666664,37.21093926896442L252.7,30.19323210360482L252.93333333333334,39.09371578956771L253.16666666666666,26.078449195216855L253.4,47.11373430823728L253.63333333333335,44.001577669394706L253.86666666666665,44.75650340756534L254.1,37.3427903082416L254.33333333333334,46.005670433826L254.56666666666666,27.603402260295585L254.8,24.42870989840352L255.03333333333336,19.90167475979203L255.26666666666665,17.185453676625137L255.5,20.80016046967746L255.73333333333332,20.346764824032636L255.96666666666667,20.07472743664573L256.2,12.044836461987426L256.43333333333334,25.582458683121043" style="fill: none;" fill="none"></path></g></g></g></g><g opacity="0.2"><g><g><g><path stroke="rgb(0, 119, 187)" stroke-width="2px" d="M24.266666666666666,222.8888873259227L24.5,163.88889670372012L24.733333333333334,163.88889670372012L24.96666666666667,170.4444460074107L25.2,275.33332864443463L25.433333333333334,176.99999531110132L25.666666666666664,229.44444835186007L25.9,196.66666666666669L26.133333333333333,118.00000468889873L26.366666666666667,183.5555446147919L26.833333333333336,222.8888873259227L27.066666666666666,150.7777746518453L27.3,190.1111173629761L27.766666666666666,183.5555446147919L28,131.1111032962799L28.233333333333334,157.33332395553592L28.46666666666667,242.55555868148804L28.7,144.22222534815472L28.933333333333334,183.5555446147919L29.166666666666668,196.66666666666669L29.4,144.22222534815472L29.633333333333333,196.66666666666669L29.866666666666667,150.7777746518453L30.099999999999998,190.1111173629761L30.333333333333336,144.22222534815472L30.566666666666666,196.66666666666669L30.8,137.6666760444641L31.033333333333335,216.33333802223206L31.266666666666666,118.00000468889873L31.5,137.6666760444641L31.73333333333333,91.77778402964276L31.966666666666665,111.44445538520813L32.2,144.22222534815472L32.43333333333333,176.99999531110132L32.666666666666664,190.1111173629761L32.9,91.77778402964276L33.13333333333333,229.44444835186007L33.36666666666667,78.66666197776794L33.6,176.99999531110132L33.833333333333336,157.33332395553592L34.06666666666667,150.7777746518453L34.3,157.33332395553592L34.53333333333333,163.88889670372012L34.766666666666666,176.99999531110132L35,176.99999531110132L35.233333333333334,170.4444460074107L35.46666666666667,137.6666760444641L35.7,104.88888263702393L35.93333333333333,98.33333333333334L36.16666666666667,183.5555446147919L36.4,216.33333802223206L36.63333333333333,65.55556337038678L36.86666666666666,163.88889670372012L37.1,190.1111173629761L37.333333333333336,78.66666197776794L37.56666666666666,85.22221128145854L37.800000000000004,235.99999765555066L38.03333333333333,150.7777746518453L38.266666666666666,58.99999062220257L38.5,78.66666197776794L38.733333333333334,118.00000468889873L38.96666666666667,163.88889670372012L39.2,45.88889201482138L39.43333333333334,163.88889670372012L39.666666666666664,26.22222065925599L39.9,85.22221128145854L40.13333333333333,98.33333333333334L40.36666666666667,78.66666197776794L40.599999999999994,163.88889670372012L40.833333333333336,124.55555399258932L41.06666666666667,131.1111032962799L41.3,118.00000468889873L41.53333333333334,163.88889670372012L41.766666666666666,104.88888263702393L42,98.33333333333334L42.233333333333334,118.00000468889873L42.46666666666667,131.1111032962799L42.699999999999996,150.7777746518453L42.93333333333333,111.44445538520813L43.16666666666667,118.00000468889873L43.4,45.88889201482138L43.63333333333333,111.44445538520813L43.86666666666667,91.77778402964276L44.1,131.1111032962799L44.33333333333333,176.99999531110132L44.56666666666667,118.00000468889873L44.800000000000004,78.66666197776794L45.03333333333333,118.00000468889873L45.266666666666666,190.1111173629761L45.5,98.33333333333334L45.733333333333334,98.33333333333334L45.96666666666666,85.22221128145854L46.2,131.1111032962799L46.43333333333333,118.00000468889873L46.666666666666664,118.00000468889873L46.900000000000006,157.33332395553592L47.13333333333333,78.66666197776794L47.36666666666667,78.66666197776794L47.6,118.00000468889873L47.833333333333336,85.22221128145854L48.06666666666666,45.88889201482138L48.3,45.88889201482138L48.53333333333333,104.88888263702393L48.766666666666666,118.00000468889873L49,131.1111032962799L49.233333333333334,131.1111032962799L49.46666666666667,91.77778402964276L49.699999999999996,98.33333333333334L49.93333333333334,150.7777746518453L50.166666666666664,118.00000468889873L50.4,131.1111032962799L50.63333333333334,190.1111173629761L50.86666666666667,104.88888263702393L51.1,183.5555446147919L51.33333333333333,137.6666760444641L51.56666666666667,118.00000468889873L51.8,124.55555399258932L52.03333333333333,118.00000468889873L52.266666666666666,26.22222065925599L52.5,104.88888263702393L52.733333333333334,157.33332395553592L52.96666666666667,98.33333333333334L53.2,91.77778402964276L53.43333333333333,104.88888263702393L53.66666666666667,85.22221128145854L53.9,72.11111267407735L54.13333333333333,85.22221128145854L54.36666666666666,65.55556337038678L54.6,111.44445538520813L54.833333333333336,144.22222534815472L55.06666666666666,65.55556337038678L55.300000000000004,32.777769962946586L55.53333333333333,98.33333333333334L55.766666666666666,65.55556337038678L56,183.5555446147919L56.233333333333334,196.66666666666669L56.46666666666667,118.00000468889873L56.7,58.99999062220257L56.93333333333334,58.99999062220257L57.166666666666664,65.55556337038678L57.4,104.88888263702393L57.63333333333333,91.77778402964276L57.86666666666667,26.22222065925599L58.099999999999994,150.7777746518453L58.333333333333336,32.777769962946586L58.56666666666667,65.55556337038678L58.8,32.777769962946586L59.03333333333334,72.11111267407735L59.266666666666666,137.6666760444641L59.5,45.88889201482138L59.733333333333334,78.66666197776794L59.96666666666667,124.55555399258932L60.199999999999996,72.11111267407735L60.43333333333333,65.55556337038678L60.66666666666667,150.7777746518453L60.9,98.33333333333334L61.13333333333333,144.22222534815472L61.36666666666667,78.66666197776794L61.6,118.00000468889873L61.83333333333333,85.22221128145854L62.06666666666667,91.77778402964276L62.300000000000004,157.33332395553592L62.53333333333333,111.44445538520813L62.766666666666666,72.11111267407735L63,157.33332395553592L63.233333333333334,98.33333333333334L63.46666666666666,72.11111267407735L63.7,52.44444131851198L63.93333333333333,118.00000468889873L64.16666666666666,26.22222065925599L64.4,98.33333333333334L64.63333333333334,72.11111267407735L64.86666666666666,39.33334271113079L65.10000000000001,58.99999062220257L65.33333333333333,111.44445538520813L65.56666666666666,137.6666760444641L65.8,39.33334271113079L66.03333333333333,124.55555399258932L66.26666666666667,32.777769962946586L66.5,118.00000468889873L66.73333333333333,45.88889201482138L66.96666666666667,72.11111267407735L67.2,124.55555399258932L67.43333333333334,26.22222065925599L67.66666666666667,58.99999062220257L67.89999999999999,91.77778402964276L68.13333333333334,65.55556337038678L68.36666666666667,170.4444460074107L68.6,144.22222534815472L68.83333333333333,72.11111267407735L69.06666666666666,170.4444460074107L69.3,98.33333333333334L69.53333333333333,78.66666197776794L69.76666666666667,65.55556337038678L70,131.1111032962799L70.23333333333333,111.44445538520813L70.46666666666667,78.66666197776794L70.7,144.22222534815472L70.93333333333334,32.777769962946586L71.16666666666666,58.99999062220257L71.4,118.00000468889873L71.63333333333334,131.1111032962799L71.86666666666666,104.88888263702393L72.10000000000001,85.22221128145854L72.33333333333334,32.777769962946586L72.56666666666666,39.33334271113079L72.8,19.666671355565395L73.03333333333333,39.33334271113079L73.26666666666667,91.77778402964276L73.5,72.11111267407735L73.73333333333332,124.55555399258932L73.96666666666667,118.00000468889873L74.2,58.99999062220257L74.43333333333332,78.66666197776794L74.66666666666667,52.44444131851198L74.9,58.99999062220257L75.13333333333333,78.66666197776794L75.36666666666666,78.66666197776794L75.60000000000001,52.44444131851198L75.83333333333333,104.88888263702393L76.06666666666666,39.33334271113079L76.30000000000001,39.33334271113079L76.53333333333333,124.55555399258932L76.76666666666667,124.55555399258932L77,72.11111267407735L77.23333333333333,52.44444131851198L77.46666666666667,26.22222065925599L77.7,98.33333333333334L77.93333333333334,111.44445538520813L78.16666666666667,13.1111220518748L78.4,52.44444131851198L78.63333333333333,137.6666760444641L78.86666666666667,58.99999062220257L79.1,72.11111267407735L79.33333333333333,91.77778402964276L79.56666666666666,91.77778402964276L79.8,72.11111267407735L80.03333333333333,65.55556337038678L80.26666666666667,32.777769962946586L80.5,52.44444131851198L80.73333333333333,39.33334271113079L80.96666666666667,52.44444131851198L81.19999999999999,26.22222065925599L81.43333333333334,65.55556337038678L81.66666666666667,78.66666197776794L81.89999999999999,39.33334271113079L82.13333333333334,78.66666197776794L82.36666666666667,52.44444131851198L82.6,85.22221128145854L82.83333333333333,32.777769962946586L83.06666666666668,32.777769962946586L83.3,19.666671355565395L83.53333333333333,65.55556337038678L83.76666666666668,98.33333333333334L84,111.44445538520813L84.23333333333333,91.77778402964276L84.46666666666667,58.99999062220257L84.7,32.777769962946586L84.93333333333334,65.55556337038678L85.16666666666666,52.44444131851198L85.39999999999999,58.99999062220257L85.63333333333334,124.55555399258932L85.86666666666666,131.1111032962799L86.1,58.99999062220257L86.33333333333334,72.11111267407735L86.56666666666666,45.88889201482138L86.8,58.99999062220257L87.03333333333333,78.66666197776794L87.26666666666667,65.55556337038678L87.5,45.88889201482138L87.73333333333333,13.1111220518748L87.96666666666667,124.55555399258932L88.2,52.44444131851198L88.43333333333334,39.33334271113079L88.66666666666666,65.55556337038678L88.9,26.22222065925599L89.13333333333334,6.5555493036905945L89.36666666666666,52.44444131851198L89.60000000000001,39.33334271113079L89.83333333333334,45.88889201482138L90.06666666666666,58.99999062220257L90.3,98.33333333333334L90.53333333333333,78.66666197776794L90.76666666666667,58.99999062220257L91,65.55556337038678L91.23333333333332,58.99999062220257L91.46666666666667,52.44444131851198L91.7,98.33333333333334L91.93333333333332,91.77778402964276L92.16666666666667,32.777769962946586L92.4,98.33333333333334L92.63333333333333,85.22221128145854L92.86666666666666,45.88889201482138L93.10000000000001,111.44445538520813L93.33333333333333,91.77778402964276L93.56666666666666,52.44444131851198L93.80000000000001,85.22221128145854L94.03333333333333,52.44444131851198L94.26666666666667,91.77778402964276L94.5,58.99999062220257L94.73333333333333,65.55556337038678L94.96666666666667,58.99999062220257L95.2,32.777769962946586L95.43333333333334,65.55556337038678L95.66666666666667,72.11111267407735L95.9,65.55556337038678L96.13333333333333,19.666671355565395L96.36666666666667,52.44444131851198L96.6,45.88889201482138L96.83333333333333,32.777769962946586L97.06666666666666,124.55555399258932L97.3,39.33334271113079L97.53333333333333,65.55556337038678L97.76666666666667,45.88889201482138L98,45.88889201482138L98.23333333333333,19.666671355565395L98.46666666666667,65.55556337038678L98.69999999999999,45.88889201482138L98.93333333333334,58.99999062220257L99.16666666666667,52.44444131851198L99.39999999999999,52.44444131851198L99.63333333333334,26.22222065925599L99.86666666666667,72.11111267407735L100.1,52.44444131851198L100.33333333333333,39.33334271113079L100.56666666666668,65.55556337038678L100.8,6.5555493036905945L101.03333333333333,58.99999062220257L101.26666666666668,32.777769962946586L101.5,118.00000468889873L101.73333333333333,150.7777746518453L101.96666666666667,72.11111267407735L102.2,6.5555493036905945L102.43333333333334,58.99999062220257L102.66666666666666,26.22222065925599L102.89999999999999,72.11111267407735L103.13333333333334,45.88889201482138L103.36666666666666,52.44444131851198L103.6,78.66666197776794L103.83333333333334,19.666671355565395L104.06666666666666,39.33334271113079L104.3,52.44444131851198L104.53333333333333,26.22222065925599L104.76666666666667,72.11111267407735L105,39.33334271113079L105.23333333333333,58.99999062220257L105.46666666666667,58.99999062220257L105.7,170.4444460074107L105.93333333333334,104.88888263702393L106.16666666666666,45.88889201482138L106.4,26.22222065925599L106.63333333333334,45.88889201482138L106.86666666666666,72.11111267407735L107.10000000000001,85.22221128145854L107.33333333333334,13.1111220518748L107.56666666666666,32.777769962946586L107.8,98.33333333333334L108.03333333333333,45.88889201482138L108.26666666666667,137.6666760444641L108.5,19.666671355565395L108.73333333333332,26.22222065925599L108.96666666666667,111.44445538520813L109.2,78.66666197776794L109.43333333333332,45.88889201482138L109.66666666666667,19.666671355565395L109.9,32.777769962946586L110.13333333333333,58.99999062220257L110.36666666666666,78.66666197776794L110.60000000000001,65.55556337038678L110.83333333333333,52.44444131851198L111.06666666666666,19.666671355565395L111.30000000000001,32.777769962946586L111.53333333333333,26.22222065925599L111.76666666666667,65.55556337038678L112,26.22222065925599L112.23333333333333,32.777769962946586L112.46666666666667,131.1111032962799L112.7,118.00000468889873L112.93333333333334,26.22222065925599L113.16666666666667,26.22222065925599L113.4,32.777769962946586L113.63333333333333,45.88889201482138L113.86666666666667,58.99999062220257L114.1,32.777769962946586L114.33333333333333,72.11111267407735L114.56666666666666,32.777769962946586L114.8,39.33334271113079L115.03333333333333,118.00000468889873L115.26666666666667,26.22222065925599L115.5,85.22221128145854L115.73333333333333,39.33334271113079L115.96666666666667,65.55556337038678L116.19999999999999,58.99999062220257L116.43333333333334,85.22221128145854L116.66666666666667,58.99999062220257L116.89999999999999,52.44444131851198L117.13333333333334,39.33334271113079L117.36666666666667,6.5555493036905945L117.6,85.22221128145854L117.83333333333333,65.55556337038678L118.06666666666668,26.22222065925599L118.3,19.666671355565395L118.53333333333333,58.99999062220257L118.76666666666668,98.33333333333334L119,45.88889201482138L119.23333333333333,98.33333333333334L119.46666666666667,19.666671355565395L119.7,52.44444131851198L119.93333333333334,26.22222065925599L120.16666666666666,26.22222065925599L120.39999999999999,52.44444131851198L120.63333333333334,85.22221128145854L120.86666666666666,91.77778402964276L121.1,150.7777746518453L121.33333333333334,32.777769962946586L121.56666666666666,39.33334271113079L121.8,19.666671355565395L122.03333333333333,98.33333333333334L122.26666666666667,65.55556337038678L122.5,72.11111267407735L122.73333333333333,26.22222065925599L122.96666666666667,39.33334271113079L123.2,65.55556337038678L123.43333333333334,72.11111267407735L123.66666666666666,45.88889201482138L123.9,98.33333333333334L124.13333333333334,91.77778402964276L124.36666666666666,26.22222065925599L124.60000000000001,111.44445538520813L124.83333333333334,52.44444131851198L125.06666666666666,19.666671355565395L125.3,65.55556337038678L125.53333333333333,39.33334271113079L125.76666666666667,26.22222065925599L126,85.22221128145854L126.23333333333332,6.5555493036905945L126.46666666666667,58.99999062220257L126.7,13.1111220518748L126.93333333333332,72.11111267407735L127.16666666666667,104.88888263702393L127.4,39.33334271113079L127.63333333333333,39.33334271113079L127.86666666666666,26.22222065925599L128.1,91.77778402964276L128.33333333333331,13.1111220518748L128.56666666666666,72.11111267407735L128.8,32.777769962946586L129.03333333333333,32.777769962946586L129.26666666666668,32.777769962946586L129.5,13.1111220518748L129.73333333333332,26.22222065925599L129.96666666666667,26.22222065925599L130.20000000000002,131.1111032962799L130.43333333333334,0L130.66666666666666,32.777769962946586L130.9,72.11111267407735L131.13333333333333,78.66666197776794L131.36666666666667,26.22222065925599L131.6,58.99999062220257L131.83333333333334,98.33333333333334L132.06666666666666,72.11111267407735L132.29999999999998,6.5555493036905945L132.53333333333333,78.66666197776794L132.76666666666668,45.88889201482138L133,58.99999062220257L133.23333333333332,58.99999062220257L133.46666666666667,26.22222065925599L133.7,52.44444131851198L133.93333333333334,85.22221128145854L134.16666666666669,72.11111267407735L134.4,19.666671355565395L134.63333333333333,45.88889201482138L134.86666666666667,26.22222065925599L135.1,6.5555493036905945L135.33333333333334,19.666671355565395L135.56666666666666,19.666671355565395L135.79999999999998,52.44444131851198L136.03333333333333,58.99999062220257L136.26666666666668,52.44444131851198L136.5,72.11111267407735L136.73333333333335,45.88889201482138L136.96666666666667,26.22222065925599L137.2,26.22222065925599L137.43333333333334,19.666671355565395L137.66666666666666,26.22222065925599L137.9,32.777769962946586L138.13333333333333,118.00000468889873L138.36666666666667,19.666671355565395L138.6,111.44445538520813L138.83333333333334,26.22222065925599L139.06666666666666,85.22221128145854L139.3,19.666671355565395L139.53333333333333,32.777769962946586L139.76666666666665,19.666671355565395L140,32.777769962946586L140.23333333333335,65.55556337038678L140.46666666666667,39.33334271113079L140.7,13.1111220518748L140.93333333333334,26.22222065925599L141.16666666666666,39.33334271113079L141.4,6.5555493036905945L141.63333333333333,45.88889201482138L141.86666666666667,39.33334271113079L142.1,39.33334271113079L142.33333333333331,32.777769962946586L142.56666666666666,72.11111267407735L142.8,65.55556337038678L143.03333333333333,124.55555399258932L143.26666666666668,26.22222065925599L143.5,39.33334271113079L143.73333333333332,45.88889201482138L143.96666666666667,85.22221128145854L144.20000000000002,13.1111220518748L144.43333333333334,72.11111267407735L144.66666666666669,111.44445538520813L144.89999999999998,72.11111267407735L145.13333333333333,19.666671355565395L145.36666666666667,26.22222065925599L145.6,52.44444131851198L145.83333333333334,78.66666197776794L146.06666666666666,104.88888263702393L146.29999999999998,45.88889201482138L146.53333333333333,91.77778402964276L146.76666666666668,52.44444131851198L147,85.22221128145854L147.23333333333335,19.666671355565395L147.46666666666664,78.66666197776794L147.7,19.666671355565395L147.93333333333334,39.33334271113079L148.16666666666666,19.666671355565395L148.4,32.777769962946586L148.63333333333335,19.666671355565395L148.86666666666665,72.11111267407735L149.1,26.22222065925599L149.33333333333334,65.55556337038678L149.56666666666666,26.22222065925599L149.8,72.11111267407735L150.03333333333336,72.11111267407735L150.26666666666665,32.777769962946586L150.5,58.99999062220257L150.73333333333332,39.33334271113079L150.96666666666667,32.777769962946586L151.20000000000002,65.55556337038678L151.43333333333334,13.1111220518748L151.66666666666666,26.22222065925599L151.9,58.99999062220257L152.13333333333333,65.55556337038678L152.36666666666667,32.777769962946586L152.60000000000002,65.55556337038678L152.83333333333331,32.777769962946586L153.06666666666666,39.33334271113079L153.29999999999998,52.44444131851198L153.53333333333333,13.1111220518748L153.76666666666668,39.33334271113079L154,32.777769962946586L154.23333333333332,104.88888263702393L154.46666666666667,19.666671355565395L154.7,26.22222065925599L154.93333333333334,45.88889201482138L155.16666666666669,26.22222065925599L155.4,6.5555493036905945L155.63333333333333,32.777769962946586L155.86666666666667,45.88889201482138L156.1,72.11111267407735L156.33333333333334,111.44445538520813L156.56666666666666,39.33334271113079L156.8,26.22222065925599L157.03333333333333,39.33334271113079L157.26666666666665,32.777769962946586L157.5,39.33334271113079L157.73333333333335,58.99999062220257L157.96666666666667,39.33334271113079L158.2,26.22222065925599L158.43333333333334,6.5555493036905945L158.66666666666666,78.66666197776794L158.9,32.777769962946586L159.13333333333333,19.666671355565395L159.36666666666667,72.11111267407735L159.6,58.99999062220257L159.83333333333331,65.55556337038678L160.06666666666666,65.55556337038678L160.3,58.99999062220257L160.53333333333333,13.1111220518748L160.76666666666668,26.22222065925599L161,72.11111267407735L161.23333333333332,32.777769962946586L161.46666666666667,26.22222065925599L161.70000000000002,45.88889201482138L161.93333333333334,13.1111220518748L162.16666666666669,0L162.39999999999998,45.88889201482138L162.63333333333333,32.777769962946586L162.86666666666667,26.22222065925599L163.1,52.44444131851198L163.33333333333334,13.1111220518748L163.56666666666666,39.33334271113079L163.79999999999998,52.44444131851198L164.03333333333333,52.44444131851198L164.26666666666668,39.33334271113079L164.5,26.22222065925599L164.73333333333335,32.777769962946586L164.96666666666664,58.99999062220257L165.2,58.99999062220257L165.43333333333334,91.77778402964276L165.66666666666666,32.777769962946586L165.9,45.88889201482138L166.13333333333335,45.88889201482138L166.36666666666665,26.22222065925599L166.6,13.1111220518748L166.83333333333334,32.777769962946586L167.06666666666666,45.88889201482138L167.3,13.1111220518748L167.53333333333336,26.22222065925599L167.76666666666665,45.88889201482138L168,13.1111220518748L168.23333333333332,58.99999062220257L168.46666666666667,32.777769962946586L168.70000000000002,52.44444131851198L168.93333333333334,52.44444131851198L169.16666666666666,32.777769962946586L169.4,13.1111220518748L169.63333333333333,26.22222065925599L169.86666666666667,19.666671355565395L170.10000000000002,32.777769962946586L170.33333333333331,19.666671355565395L170.56666666666666,58.99999062220257L170.79999999999998,32.777769962946586L171.03333333333333,52.44444131851198L171.26666666666668,19.666671355565395L171.5,19.666671355565395L171.73333333333332,13.1111220518748L171.96666666666667,26.22222065925599L172.2,13.1111220518748L172.43333333333334,19.666671355565395L172.66666666666669,58.99999062220257L172.9,26.22222065925599L173.13333333333333,45.88889201482138L173.36666666666667,39.33334271113079L173.6,6.5555493036905945L173.83333333333334,32.777769962946586L174.06666666666666,32.777769962946586L174.3,6.5555493036905945L174.53333333333333,13.1111220518748L174.76666666666665,13.1111220518748L175,13.1111220518748L175.23333333333335,26.22222065925599L175.46666666666667,13.1111220518748L175.7,39.33334271113079L175.93333333333334,13.1111220518748L176.16666666666666,32.777769962946586L176.4,78.66666197776794L176.63333333333333,32.777769962946586L176.86666666666667,19.666671355565395L177.1,6.5555493036905945L177.33333333333331,45.88889201482138L177.56666666666666,39.33334271113079L177.8,45.88889201482138L178.03333333333333,65.55556337038678L178.26666666666668,32.777769962946586L178.5,32.777769962946586L178.73333333333332,45.88889201482138L178.96666666666667,13.1111220518748L179.20000000000002,58.99999062220257L179.43333333333334,45.88889201482138L179.66666666666669,45.88889201482138L179.89999999999998,65.55556337038678L180.13333333333333,124.55555399258932L180.36666666666667,45.88889201482138L180.6,52.44444131851198L180.83333333333334,98.33333333333334L181.06666666666666,6.5555493036905945L181.29999999999998,58.99999062220257L181.53333333333333,19.666671355565395L181.76666666666668,19.666671355565395L182,19.666671355565395L182.23333333333335,32.777769962946586L182.46666666666664,78.66666197776794L182.7,52.44444131851198L182.93333333333334,26.22222065925599L183.16666666666666,13.1111220518748L183.4,13.1111220518748L183.63333333333335,13.1111220518748L183.86666666666665,52.44444131851198L184.1,39.33334271113079L184.33333333333334,32.777769962946586L184.56666666666666,45.88889201482138L184.8,45.88889201482138L185.03333333333336,26.22222065925599L185.26666666666665,32.777769962946586L185.5,19.666671355565395L185.73333333333332,19.666671355565395L185.96666666666667,52.44444131851198L186.20000000000002,0L186.43333333333334,45.88889201482138L186.66666666666666,13.1111220518748L186.9,39.33334271113079L187.13333333333333,52.44444131851198L187.36666666666667,78.66666197776794L187.60000000000002,26.22222065925599L187.83333333333331,6.5555493036905945L188.06666666666666,19.666671355565395L188.29999999999998,13.1111220518748L188.53333333333333,32.777769962946586L188.76666666666668,58.99999062220257L189,13.1111220518748L189.23333333333332,19.666671355565395L189.46666666666667,26.22222065925599L189.7,19.666671355565395L189.93333333333334,26.22222065925599L190.16666666666669,39.33334271113079L190.4,6.5555493036905945L190.63333333333333,65.55556337038678L190.86666666666667,19.666671355565395L191.1,111.44445538520813L191.33333333333334,32.777769962946586L191.56666666666666,45.88889201482138L191.8,45.88889201482138L192.03333333333333,52.44444131851198L192.26666666666665,72.11111267407735L192.5,45.88889201482138L192.73333333333335,39.33334271113079L192.96666666666667,32.777769962946586L193.2,19.666671355565395L193.43333333333334,26.22222065925599L193.66666666666666,39.33334271113079L193.9,45.88889201482138L194.13333333333333,13.1111220518748L194.36666666666667,58.99999062220257L194.6,26.22222065925599L194.83333333333331,19.666671355565395L195.06666666666666,26.22222065925599L195.3,85.22221128145854L195.53333333333333,26.22222065925599L195.76666666666668,13.1111220518748L196,78.66666197776794L196.23333333333332,32.777769962946586L196.46666666666667,32.777769962946586L196.70000000000002,6.5555493036905945L196.93333333333334,19.666671355565395L197.16666666666669,52.44444131851198L197.39999999999998,19.666671355565395L197.63333333333333,32.777769962946586L197.86666666666667,26.22222065925599L198.1,19.666671355565395L198.33333333333334,26.22222065925599L198.56666666666666,52.44444131851198L198.79999999999998,32.777769962946586L199.03333333333333,58.99999062220257L199.26666666666668,19.666671355565395L199.5,39.33334271113079L199.73333333333335,39.33334271113079L199.96666666666664,19.666671355565395L200.2,45.88889201482138L200.43333333333334,58.99999062220257L200.66666666666666,45.88889201482138L200.9,19.666671355565395L201.13333333333335,13.1111220518748L201.36666666666665,13.1111220518748L201.6,13.1111220518748L201.83333333333334,52.44444131851198L202.06666666666666,13.1111220518748L202.3,52.44444131851198L202.53333333333336,32.777769962946586L202.76666666666665,13.1111220518748L203,13.1111220518748L203.23333333333332,19.666671355565395L203.46666666666667,19.666671355565395L203.70000000000002,13.1111220518748L203.93333333333334,32.777769962946586L204.16666666666666,32.777769962946586L204.4,6.5555493036905945L204.63333333333333,19.666671355565395L204.86666666666667,13.1111220518748L205.10000000000002,19.666671355565395L205.33333333333331,6.5555493036905945L205.56666666666666,19.666671355565395L205.79999999999998,19.666671355565395L206.03333333333333,52.44444131851198L206.26666666666668,32.777769962946586L206.5,65.55556337038678L206.73333333333332,19.666671355565395L206.96666666666667,19.666671355565395L207.2,26.22222065925599L207.43333333333334,19.666671355565395L207.66666666666669,39.33334271113079L207.9,13.1111220518748L208.13333333333333,39.33334271113079L208.36666666666667,32.777769962946586L208.6,39.33334271113079L208.83333333333334,45.88889201482138L209.06666666666666,0L209.3,52.44444131851198L209.53333333333333,19.666671355565395L209.76666666666665,13.1111220518748L210,26.22222065925599L210.23333333333335,39.33334271113079L210.46666666666667,45.88889201482138L210.7,45.88889201482138L210.93333333333334,32.777769962946586L211.16666666666666,32.777769962946586L211.4,39.33334271113079L211.63333333333333,26.22222065925599L211.86666666666667,19.666671355565395L212.1,45.88889201482138L212.33333333333331,52.44444131851198L212.56666666666666,13.1111220518748L212.8,13.1111220518748L213.03333333333333,39.33334271113079L213.26666666666668,91.77778402964276L213.5,45.88889201482138L213.73333333333332,58.99999062220257L213.96666666666667,13.1111220518748L214.20000000000002,39.33334271113079L214.43333333333334,52.44444131851198L214.66666666666669,13.1111220518748L214.89999999999998,0L215.13333333333333,19.666671355565395L215.36666666666667,32.777769962946586L215.6,19.666671355565395L215.83333333333334,45.88889201482138L216.06666666666666,32.777769962946586L216.29999999999998,39.33334271113079L216.53333333333333,52.44444131851198L216.76666666666668,13.1111220518748L217,19.666671355565395L217.23333333333335,26.22222065925599L217.46666666666664,19.666671355565395L217.7,32.777769962946586L217.93333333333334,32.777769962946586L218.16666666666666,6.5555493036905945L218.4,19.666671355565395L218.63333333333335,39.33334271113079L218.86666666666665,6.5555493036905945L219.1,72.11111267407735L219.33333333333334,32.777769962946586L219.56666666666666,65.55556337038678L219.8,98.33333333333334L220.03333333333336,52.44444131851198L220.26666666666665,72.11111267407735L220.5,0L220.73333333333332,78.66666197776794L220.96666666666667,65.55556337038678L221.20000000000002,32.777769962946586L221.43333333333334,52.44444131851198L221.66666666666666,19.666671355565395L221.9,19.666671355565395L222.13333333333333,52.44444131851198L222.36666666666667,13.1111220518748L222.60000000000002,26.22222065925599L222.83333333333331,19.666671355565395L223.06666666666666,19.666671355565395L223.29999999999998,32.777769962946586L223.53333333333333,32.777769962946586L223.76666666666668,65.55556337038678L224,13.1111220518748L224.23333333333332,72.11111267407735L224.46666666666667,19.666671355565395L224.7,26.22222065925599L224.93333333333334,26.22222065925599L225.16666666666669,58.99999062220257L225.4,32.777769962946586L225.63333333333333,19.666671355565395L225.86666666666667,65.55556337038678L226.1,45.88889201482138L226.33333333333334,26.22222065925599L226.56666666666666,19.666671355565395L226.8,58.99999062220257L227.03333333333333,6.5555493036905945L227.26666666666665,13.1111220518748L227.5,13.1111220518748L227.73333333333335,26.22222065925599L227.96666666666667,19.666671355565395L228.2,58.99999062220257L228.43333333333334,32.777769962946586L228.66666666666666,45.88889201482138L228.9,26.22222065925599L229.13333333333333,32.777769962946586L229.36666666666667,26.22222065925599L229.6,19.666671355565395L229.83333333333331,19.666671355565395L230.06666666666666,26.22222065925599L230.3,26.22222065925599L230.53333333333333,26.22222065925599L230.76666666666668,19.666671355565395L231,32.777769962946586L231.23333333333332,26.22222065925599L231.46666666666667,6.5555493036905945L231.70000000000002,39.33334271113079L231.93333333333334,13.1111220518748L232.16666666666669,19.666671355565395L232.39999999999998,32.777769962946586L232.63333333333333,58.99999062220257L232.86666666666667,19.666671355565395L233.1,19.666671355565395L233.33333333333334,19.666671355565395L233.56666666666666,19.666671355565395L233.79999999999998,13.1111220518748L234.03333333333333,39.33334271113079L234.26666666666668,19.666671355565395L234.5,13.1111220518748L234.73333333333335,6.5555493036905945L234.96666666666664,65.55556337038678L235.2,45.88889201482138L235.43333333333334,13.1111220518748L235.66666666666666,39.33334271113079L235.9,19.666671355565395L236.13333333333335,19.666671355565395L236.36666666666665,39.33334271113079L236.6,26.22222065925599L236.83333333333334,52.44444131851198L237.06666666666666,58.99999062220257L237.3,19.666671355565395L237.53333333333336,19.666671355565395L237.76666666666665,6.5555493036905945L238,26.22222065925599L238.23333333333332,19.666671355565395L238.46666666666667,45.88889201482138L238.70000000000002,0L238.93333333333334,32.777769962946586L239.16666666666666,78.66666197776794L239.4,0L239.63333333333333,26.22222065925599L239.86666666666667,6.5555493036905945L240.10000000000002,32.777769962946586L240.33333333333331,32.777769962946586L240.56666666666666,6.5555493036905945L240.79999999999998,39.33334271113079L241.03333333333333,39.33334271113079L241.26666666666668,19.666671355565395L241.5,26.22222065925599L241.73333333333332,52.44444131851198L241.96666666666667,39.33334271113079L242.2,26.22222065925599L242.43333333333334,72.11111267407735L242.66666666666669,39.33334271113079L242.9,13.1111220518748L243.13333333333333,6.5555493036905945L243.36666666666667,32.777769962946586L243.6,19.666671355565395L243.83333333333334,19.666671355565395L244.06666666666666,32.777769962946586L244.3,26.22222065925599L244.53333333333333,65.55556337038678L244.76666666666665,26.22222065925599L245,78.66666197776794L245.23333333333335,32.777769962946586L245.46666666666667,45.88889201482138L245.7,45.88889201482138L245.93333333333334,32.777769962946586L246.16666666666666,32.777769962946586L246.4,26.22222065925599L246.63333333333333,32.777769962946586L246.86666666666667,32.777769962946586L247.1,39.33334271113079L247.33333333333331,19.666671355565395L247.56666666666666,45.88889201482138L247.8,13.1111220518748L248.03333333333333,65.55556337038678L248.26666666666668,6.5555493036905945L248.5,19.666671355565395L248.73333333333332,13.1111220518748L248.96666666666667,52.44444131851198L249.20000000000002,26.22222065925599L249.43333333333334,6.5555493036905945L249.66666666666669,26.22222065925599L249.89999999999998,52.44444131851198L250.13333333333333,45.88889201482138L250.36666666666667,26.22222065925599L250.6,19.666671355565395L250.83333333333334,6.5555493036905945L251.06666666666666,26.22222065925599L251.29999999999998,52.44444131851198L251.53333333333333,52.44444131851198L251.76666666666668,39.33334271113079L252,26.22222065925599L252.23333333333335,26.22222065925599L252.46666666666664,45.88889201482138L252.7,19.666671355565395L252.93333333333334,52.44444131851198L253.16666666666666,6.5555493036905945L253.4,78.66666197776794L253.63333333333335,39.33334271113079L253.86666666666665,45.88889201482138L254.1,26.22222065925599L254.33333333333334,58.99999062220257L254.56666666666666,0L254.8,19.666671355565395L255.03333333333336,13.1111220518748L255.26666666666665,13.1111220518748L255.5,26.22222065925599L255.73333333333332,19.666671355565395L255.96666666666667,19.666671355565395L256.2,0L256.43333333333334,45.88889201482138" style="fill: none;" fill="none"></path></g></g></g></g></g></g><g transform="translate(50, 177)" clip-path="url(#clip_1)"><clipPath id="clip_1"><rect width="280" height="23"></rect></clipPath><g><g><line x1="0" y1="0" x2="0" y2="5" style="visibility: inherit;" fill="rgb(0, 0, 0)" stroke="rgb(204, 204, 204)" stroke-width="1px"></line><line x1="23.333333333333332" y1="0" x2="23.333333333333332" y2="5" style="visibility: inherit;" fill="rgb(0, 0, 0)" stroke="rgb(204, 204, 204)" stroke-width="1px"></line><line x1="46.666666666666664" y1="0" x2="46.666666666666664" y2="5" style="visibility: inherit;" fill="rgb(0, 0, 0)" stroke="rgb(204, 204, 204)" stroke-width="1px"></line><line x1="70" y1="0" x2="70" y2="5" style="visibility: inherit;" fill="rgb(0, 0, 0)" stroke="rgb(204, 204, 204)" stroke-width="1px"></line><line x1="93.33333333333333" y1="0" x2="93.33333333333333" y2="5" style="visibility: inherit;" fill="rgb(0, 0, 0)" stroke="rgb(204, 204, 204)" stroke-width="1px"></line><line x1="116.66666666666667" y1="0" x2="116.66666666666667" y2="5" style="visibility: inherit;" fill="rgb(0, 0, 0)" stroke="rgb(204, 204, 204)" stroke-width="1px"></line><line x1="140" y1="0" x2="140" y2="5" style="visibility: inherit;" fill="rgb(0, 0, 0)" stroke="rgb(204, 204, 204)" stroke-width="1px"></line><line x1="163.33333333333334" y1="0" x2="163.33333333333334" y2="5" style="visibility: inherit;" fill="rgb(0, 0, 0)" stroke="rgb(204, 204, 204)" stroke-width="1px"></line><line x1="186.66666666666666" y1="0" x2="186.66666666666666" y2="5" style="visibility: inherit;" fill="rgb(0, 0, 0)" stroke="rgb(204, 204, 204)" stroke-width="1px"></line><line x1="210" y1="0" x2="210" y2="5" style="visibility: inherit;" fill="rgb(0, 0, 0)" stroke="rgb(204, 204, 204)" stroke-width="1px"></line><line x1="233.33333333333334" y1="0" x2="233.33333333333334" y2="5" style="visibility: inherit;" fill="rgb(0, 0, 0)" stroke="rgb(204, 204, 204)" stroke-width="1px"></line><line x1="256.66666666666663" y1="0" x2="256.66666666666663" y2="5" style="visibility: inherit;" fill="rgb(0, 0, 0)" stroke="rgb(204, 204, 204)" stroke-width="1px"></line><line x1="280" y1="0" x2="280" y2="5" style="visibility: inherit;" fill="rgb(0, 0, 0)" stroke="rgb(204, 204, 204)" stroke-width="1px"></line></g><g transform="translate(0, 8)"><text x="0" y="0" dx="0em" dy="0.95em" style="text-anchor: middle; visibility: hidden; font-family: Roboto, sans-serif; font-size: 12px; font-weight: 200;" fill="rgb(33, 33, 33)" stroke="none" stroke-width="1px">-100</text><text x="23.333333333333332" y="0" dx="0em" dy="0.95em" style="text-anchor: middle; visibility: inherit; font-family: Roboto, sans-serif; font-size: 12px; font-weight: 200;" fill="rgb(33, 33, 33)" stroke="none" stroke-width="1px">0</text><text x="46.666666666666664" y="0" dx="0em" dy="0.95em" style="text-anchor: middle; visibility: hidden; font-family: Roboto, sans-serif; font-size: 12px; font-weight: 200;" fill="rgb(33, 33, 33)" stroke="none" stroke-width="1px">100</text><text x="70" y="0" dx="0em" dy="0.95em" style="text-anchor: middle; visibility: inherit; font-family: Roboto, sans-serif; font-size: 12px; font-weight: 200;" fill="rgb(33, 33, 33)" stroke="none" stroke-width="1px">200</text><text x="93.33333333333333" y="0" dx="0em" dy="0.95em" style="text-anchor: middle; visibility: hidden; font-family: Roboto, sans-serif; font-size: 12px; font-weight: 200;" fill="rgb(33, 33, 33)" stroke="none" stroke-width="1px">300</text><text x="116.66666666666667" y="0" dx="0em" dy="0.95em" style="text-anchor: middle; visibility: inherit; font-family: Roboto, sans-serif; font-size: 12px; font-weight: 200;" fill="rgb(33, 33, 33)" stroke="none" stroke-width="1px">400</text><text x="140" y="0" dx="0em" dy="0.95em" style="text-anchor: middle; visibility: hidden; font-family: Roboto, sans-serif; font-size: 12px; font-weight: 200;" fill="rgb(33, 33, 33)" stroke="none" stroke-width="1px">500</text><text x="163.33333333333334" y="0" dx="0em" dy="0.95em" style="text-anchor: middle; visibility: inherit; font-family: Roboto, sans-serif; font-size: 12px; font-weight: 200;" fill="rgb(33, 33, 33)" stroke="none" stroke-width="1px">600</text><text x="186.66666666666666" y="0" dx="0em" dy="0.95em" style="text-anchor: middle; visibility: hidden; font-family: Roboto, sans-serif; font-size: 12px; font-weight: 200;" fill="rgb(33, 33, 33)" stroke="none" stroke-width="1px">700</text><text x="210" y="0" dx="0em" dy="0.95em" style="text-anchor: middle; visibility: inherit; font-family: Roboto, sans-serif; font-size: 12px; font-weight: 200;" fill="rgb(33, 33, 33)" stroke="none" stroke-width="1px">800</text><text x="233.33333333333334" y="0" dx="0em" dy="0.95em" style="text-anchor: middle; visibility: hidden; font-family: Roboto, sans-serif; font-size: 12px; font-weight: 200;" fill="rgb(33, 33, 33)" stroke="none" stroke-width="1px">900</text><text x="256.66666666666663" y="0" dx="0em" dy="0.95em" style="text-anchor: middle; visibility: inherit; font-family: Roboto, sans-serif; font-size: 12px; font-weight: 200;" fill="rgb(33, 33, 33)" stroke="none" stroke-width="1px">1k</text><text x="280" y="0" dx="0em" dy="0.95em" style="text-anchor: middle; visibility: hidden; font-family: Roboto, sans-serif; font-size: 12px; font-weight: 200;" fill="rgb(33, 33, 33)" stroke="none" stroke-width="1px">1.1k</text></g><line x1="0" y1="0" x2="280" y2="0" fill="rgb(0, 0, 0)" stroke="rgb(204, 204, 204)" stroke-width="1px"></line></g></g></g></g></svg>