<svg viewBox="0 0 330 200" xmlns="http://www.w3.org/2000/svg"><g><g><g><g><g><line x1="50" y1="177" x2="45" y2="177" style="visibility: inherit;" fill="rgb(0, 0, 0)" stroke="rgb(204, 204, 204)" stroke-width="1px"></line><line x1="50" y1="154.87499999999997" x2="45" y2="154.87499999999997" style="visibility: inherit;" fill="rgb(0, 0, 0)" stroke="rgb(204, 204, 204)" stroke-width="1px"></line><line x1="50" y1="132.75" x2="45" y2="132.75" style="visibility: inherit;" fill="rgb(0, 0, 0)" stroke="rgb(204, 204, 204)" stroke-width="1px"></line><line x1="50" y1="110.625" x2="45" y2="110.625" style="visibility: inherit;" fill="rgb(0, 0, 0)" stroke="rgb(204, 204, 204)" stroke-width="1px"></line><line x1="50" y1="88.49999999999999" x2="45" y2="88.49999999999999" style="visibility: inherit;" fill="rgb(0, 0, 0)" stroke="rgb(204, 204, 204)" stroke-width="1px"></line><line x1="50" y1="66.375" x2="45" y2="66.375" style="visibility: inherit;" fill="rgb(0, 0, 0)" stroke="rgb(204, 204, 204)" stroke-width="1px"></line><line x1="50" y1="44.24999999999998" x2="45" y2="44.24999999999998" style="visibility: inherit;" fill="rgb(0, 0, 0)" stroke="rgb(204, 204, 204)" stroke-width="1px"></line><line x1="50" y1="22.12500000000002" x2="45" y2="22.12500000000002" style="visibility: inherit;" fill="rgb(0, 0, 0)" stroke="rgb(204, 204, 204)" stroke-width="1px"></line><line x1="50" y1="0" x2="45" y2="0" style="visibility: inherit;" fill="rgb(0, 0, 0)" stroke="rgb(204, 204, 204)" stroke-width="1px"></line></g><g transform="translate(40, 0)"><text x="0" y="177" dx="0em" dy="0.3em" style="text-anchor: end; visibility: hidden; font-family: Roboto, sans-serif; font-size: 12px; font-weight: 200;" fill="rgb(33, 33, 33)" stroke="none" stroke-width="1px">0.6</text><text x="0" y="154.87499999999997" dx="0em" dy="0.3em" style="text-anchor: end; visibility: inherit; font-family: Roboto, sans-serif; font-size: 12px; font-weight: 200;" fill="rgb(33, 33, 33)" stroke="none" stroke-width="1px">0.65</text><text x="0" y="132.75" dx="0em" dy="0.3em" style="text-anchor: end; visibility: hidden; font-family: Roboto, sans-serif; font-size: 12px; font-weight: 200;" fill="rgb(33, 33, 33)" stroke="none" stroke-width="1px">0.7</text><text x="0" y="110.625" dx="0em" dy="0.3em" style="text-anchor: end; visibility: inherit; font-family: Roboto, sans-serif; font-size: 12px; font-weight: 200;" fill="rgb(33, 33, 33)" stroke="none" stroke-width="1px">0.75</text><text x="0" y="88.49999999999999" dx="0em" dy="0.3em" style="text-anchor: end; visibility: hidden; font-family: Roboto, sans-serif; font-size: 12px; font-weight: 200;" fill="rgb(33, 33, 33)" stroke="none" stroke-width="1px">0.8</text><text x="0" y="66.375" dx="0em" dy="0.3em" style="text-anchor: end; visibility: inherit; font-family: Roboto, sans-serif; font-size: 12px; font-weight: 200;" fill="rgb(33, 33, 33)" stroke="none" stroke-width="1px">0.85</text><text x="0" y="44.24999999999998" dx="0em" dy="0.3em" style="text-anchor: end; visibility: hidden; font-family: Roboto, sans-serif; font-size: 12px; font-weight: 200;" fill="rgb(33, 33, 33)" stroke="none" stroke-width="1px">0.9</text><text x="0" y="22.12500000000002" dx="0em" dy="0.3em" style="text-anchor: end; visibility: inherit; font-family: Roboto, sans-serif; font-size: 12px; font-weight: 200;" fill="rgb(33, 33, 33)" stroke="none" stroke-width="1px">0.95</text><text x="0" y="0" dx="0em" dy="0.3em" style="text-anchor: end; visibility: hidden; font-family: Roboto, sans-serif; font-size: 12px; font-weight: 200;" fill="rgb(33, 33, 33)" stroke="none" stroke-width="1px">1</text></g><line x1="50" y1="0" x2="50" y2="177" fill="rgb(0, 0, 0)" stroke="rgb(204, 204, 204)" stroke-width="1px"></line></g></g><g transform="translate(50, 0)" clip-path="url(#clip_0)"><clipPath id="clip_0"><rect width="280" height="177"></rect></clipPath><g><g><g><line x1="0" y1="0" x2="0" y2="177" fill="rgb(0, 0, 0)" stroke="rgb(66, 66, 66)" stroke-width="1px" opacity="0.25"></line><line x1="23.333333333333332" y1="0" x2="23.333333333333332" y2="177" fill="rgb(0, 0, 0)" stroke="rgb(66, 66, 66)" stroke-width="1px" opacity="0.25"></line><line x1="46.666666666666664" y1="0" x2="46.666666666666664" y2="177" fill="rgb(0, 0, 0)" stroke="rgb(66, 66, 66)" stroke-width="1px" opacity="0.25"></line><line x1="70" y1="0" x2="70" y2="177" fill="rgb(0, 0, 0)" stroke="rgb(66, 66, 66)" stroke-width="1px" opacity="0.25"></line><line x1="93.33333333333333" y1="0" x2="93.33333333333333" y2="177" fill="rgb(0, 0, 0)" stroke="rgb(66, 66, 66)" stroke-width="1px" opacity="0.25"></line><line x1="116.66666666666667" y1="0" x2="116.66666666666667" y2="177" fill="rgb(0, 0, 0)" stroke="rgb(66, 66, 66)" stroke-width="1px" opacity="0.25"></line><line x1="140" y1="0" x2="140" y2="177" fill="rgb(0, 0, 0)" stroke="rgb(66, 66, 66)" stroke-width="1px" opacity="0.25"></line><line x1="163.33333333333334" y1="0" x2="163.33333333333334" y2="177" fill="rgb(0, 0, 0)" stroke="rgb(66, 66, 66)" stroke-width="1px" opacity="0.25"></line><line x1="186.66666666666666" y1="0" x2="186.66666666666666" y2="177" fill="rgb(0, 0, 0)" stroke="rgb(66, 66, 66)" stroke-width="1px" opacity="0.25"></line><line x1="210" y1="0" x2="210" y2="177" fill="rgb(0, 0, 0)" stroke="rgb(66, 66, 66)" stroke-width="1px" opacity="0.25"></line><line x1="233.33333333333334" y1="0" x2="233.33333333333334" y2="177" fill="rgb(0, 0, 0)" stroke="rgb(66, 66, 66)" stroke-width="1px" opacity="0.25"></line><line x1="256.66666666666663" y1="0" x2="256.66666666666663" y2="177" fill="rgb(0, 0, 0)" stroke="rgb(66, 66, 66)" stroke-width="1px" opacity="0.25"></line><line x1="280" y1="0" x2="280" y2="177" fill="rgb(0, 0, 0)" stroke="rgb(66, 66, 66)" stroke-width="1px" opacity="0.25"></line></g><g><line x1="0" y1="177" x2="280" y2="177" fill="rgb(0, 0, 0)" stroke="rgb(66, 66, 66)" stroke-width="1px" opacity="0.25"></line><line x1="0" y1="154.87499999999997" x2="280" y2="154.87499999999997" fill="rgb(0, 0, 0)" stroke="rgb(66, 66, 66)" stroke-width="1px" opacity="0.25"></line><line x1="0" y1="132.75" x2="280" y2="132.75" fill="rgb(0, 0, 0)" stroke="rgb(66, 66, 66)" stroke-width="1px" opacity="0.25"></line><line x1="0" y1="110.625" x2="280" y2="110.625" fill="rgb(0, 0, 0)" stroke="rgb(66, 66, 66)" stroke-width="1px" opacity="0.25"></line><line x1="0" y1="88.49999999999999" x2="280" y2="88.49999999999999" fill="rgb(0, 0, 0)" stroke="rgb(66, 66, 66)" stroke-width="1px" opacity="0.25"></line><line x1="0" y1="66.375" x2="280" y2="66.375" fill="rgb(0, 0, 0)" stroke="rgb(66, 66, 66)" stroke-width="1px" opacity="0.25"></line><line x1="0" y1="44.24999999999998" x2="280" y2="44.24999999999998" fill="rgb(0, 0, 0)" stroke="rgb(66, 66, 66)" stroke-width="1px" opacity="0.25"></line><line x1="0" y1="22.12500000000002" x2="280" y2="22.12500000000002" fill="rgb(0, 0, 0)" stroke="rgb(66, 66, 66)" stroke-width="1px" opacity="0.25"></line><line x1="0" y1="0" x2="280" y2="0" fill="rgb(0, 0, 0)" stroke="rgb(66, 66, 66)" stroke-width="1px" opacity="0.25"></line></g></g></g><g><g><line x1="0" y1="442.5" x2="280" y2="442.5" fill="rgb(0, 0, 0)" stroke="rgb(153, 153, 153)" stroke-width="1.5px"></line></g></g><g><g><line x1="23.333333333333332" y1="0" x2="23.333333333333332" y2="177" fill="rgb(0, 0, 0)" stroke="rgb(153, 153, 153)" stroke-width="1.5px"></line></g></g><g><g><g><g><g><path stroke="rgb(255, 112, 67)" stroke-width="2px" d="M24.03333333333333,219.46047727210333L24.266666666666666,169.05690759880568L24.5,178.57837903389367L24.733333333333334,177.92884027204357L24.96666666666667,156.54819637069983L25.2,209.5126788304488L25.666666666666664,183.89160964356444L25.9,157.47746512960086L26.133333333333333,141.66582516527475L26.366666666666667,170.57215011241985L26.6,155.43617546945225L26.833333333333336,140.457476812814L27.066666666666666,134.42346965518956L27.3,139.6546095507808L27.53333333333333,133.94242257613524L27.766666666666666,139.36564831073247L28,160.31984936104845L28.233333333333334,199.4424263129898L28.46666666666667,155.06510321665675L28.7,146.1390217448206L28.933333333333334,179.13350931284268L29.166666666666668,181.23011268080194L29.4,161.838049870896L29.633333333333333,182.65284551812252L29.866666666666667,162.69170206606424L30.099999999999998,192.01502737059357L30.333333333333336,147.65901124211598L30.566666666666666,132.84540556630492L30.8,153.457247840713L31.033333333333335,159.92434748304822L31.266666666666666,152.0046076503482L31.5,170.85276267461234L31.73333333333333,140.86165249581916L31.966666666666665,181.8669937597566L32.2,168.1201927085532L32.43333333333333,145.12211559438921L32.666666666666664,125.42326441749044L32.9,140.15396006425271L33.13333333333333,143.09237252272604L33.36666666666667,174.35542351905173L33.6,181.3132548154891L33.833333333333336,141.2379535901289L34.06666666666667,164.39277004493934L34.3,175.3356627305441L34.53333333333333,184.85139552845027L34.766666666666666,169.9108338002753L35,152.09650520342242L35.233333333333334,135.50790312200522L35.46666666666667,143.25474609322552L35.7,115.45285117258028L35.93333333333333,119.42171562689433L36.16666666666667,145.4030328928204L36.4,143.29181903235698L36.63333333333333,142.02509071607918L36.86666666666666,150.11505583631777L37.1,166.76903420512627L37.333333333333336,129.56142403974872L37.56666666666666,116.08684950050531L37.800000000000004,149.3021075902991L38.03333333333333,169.23126244417517L38.266666666666666,160.53875394983103L38.5,158.2732565899075L38.733333333333334,136.26395676728373L38.96666666666667,167.30837687370953L39.2,138.73502120088202L39.43333333333334,154.04100850052038L39.666666666666664,145.52460721031665L39.9,158.11476010618114L40.13333333333333,147.96885817371304L40.36666666666667,177.28131490422783L40.599999999999994,191.91879175587596L40.833333333333336,159.40127505352558L41.06666666666667,136.94076784545456L41.3,132.31446563061638L41.53333333333334,141.3386835983787L41.766666666666666,143.80320664235316L42,157.08191976540303L42.233333333333334,144.39915678258552L42.46666666666667,124.98948914620765L42.699999999999996,116.29369630106382L42.93333333333333,111.07622059397748L43.16666666666667,107.94573516972575L43.4,82.46744532184427L43.63333333333333,114.38046859977618L43.86666666666667,133.52828256653532L44.1,192.21696813325158L44.33333333333333,180.2301822866206L44.56666666666667,164.18810866863754L44.800000000000004,151.6128673111869L45.03333333333333,135.2177203867121L45.266666666666666,148.98063082535768L45.5,139.53838341855825L45.733333333333334,122.07302512779128L45.96666666666666,111.5938101533311L46.2,111.20628609199865L46.43333333333333,155.2237716551992L46.666666666666664,125.58426369645433L46.900000000000006,149.10056173454666L47.13333333333333,118.96034055740208L47.36666666666667,133.32620855445006L47.6,106.54572091266117L47.833333333333336,111.1274297342575L48.06666666666666,102.07645573055004L48.3,134.9958769550041L48.53333333333333,139.99752265632839L48.766666666666666,95.7985128904622L49,89.92910843761217L49.233333333333334,133.60746295256288L49.46666666666667,100.81447917820735L49.699999999999996,107.68868469358522L49.93333333333334,100.01320870614666L50.166666666666664,92.45792592702281L50.4,93.82475063287004L50.63333333333334,103.49484756638277L50.86666666666667,91.59691205650374L51.1,87.40814793723708L51.33333333333333,114.3948929823511L51.56666666666667,104.03693367940626L51.8,94.87216091097856L52.03333333333333,104.1232937332479L52.266666666666666,97.87397412994432L52.5,105.92438166462738L52.733333333333334,93.05463251545042L52.96666666666667,141.3827823226095L53.2,120.22966728356127L53.43333333333333,98.68779615012794L53.66666666666667,159.51267698674195L53.9,178.3076012687015L54.13333333333333,168.93456498122973L54.36666666666666,133.81073969207264L54.6,133.386445925248L54.833333333333336,139.03186403847474L55.06666666666666,133.5691233464285L55.300000000000004,112.59147471119188L55.53333333333333,114.75488201337589L55.766666666666666,121.95293131803L56,102.67176230749203L56.233333333333334,108.80305457115598L56.46666666666667,97.73183344602839L56.7,102.88910006761702L56.93333333333334,76.48345652389621L57.166666666666664,96.04007883768139L57.4,104.82404448926962L57.63333333333333,110.09442388022258L57.86666666666667,110.30665432813353L58.099999999999994,163.53399470688456L58.333333333333336,133.5203947141263L58.56666666666667,136.16223612514096L58.8,152.4973374550757L59.03333333333334,132.79840528638465L59.266666666666666,129.82904809517444L59.5,145.74742745043503L59.733333333333334,143.49845576692616L59.96666666666667,106.74907486682531L60.199999999999996,93.5494484367692L60.43333333333333,135.77966695205708L60.66666666666667,172.9178026329061L60.9,133.2506850964177L61.13333333333333,121.25041387118983L61.36666666666667,90.45025254272275L61.6,95.57015433897286L61.83333333333333,110.44209471338814L62.06666666666667,142.96525753136768L62.300000000000004,130.0291545188206L62.53333333333333,139.9674969313012L62.766666666666666,125.28050097211995L63,140.06830198994157L63.233333333333334,137.14098330396934L63.46666666666666,132.43459490572525L63.7,129.6107618667788L63.93333333333333,113.16645501006285L64.16666666666666,85.59987722604656L64.4,95.6099263356279L64.63333333333334,89.81595650471156L64.86666666666666,89.28957179282247L65.10000000000001,103.72374799903713L65.33333333333333,118.28424809608745L65.56666666666666,103.42054956098728L65.8,79.7523339566012L66.03333333333333,98.0014052973044L66.26666666666667,111.90084528838706L66.5,120.24050928303667L66.73333333333333,134.09430978983085L66.96666666666667,145.35658728056814L67.2,128.51395518168007L67.43333333333334,103.65836888899919L67.66666666666667,150.69502133339952L67.89999999999999,173.01700787669606L68.13333333333334,121.51020894602648L68.36666666666667,117.15612536761584L68.6,102.74367592390435L68.83333333333333,120.64620203766857L69.06666666666666,116.63772122260113L69.3,128.98262921688664L69.53333333333333,98.0395789368016L69.76666666666667,123.72374876875061L70,127.33425137125475L70.23333333333333,132.45055011941804L70.46666666666667,132.57033218165526L70.7,129.69220423233676L70.93333333333334,92.56531902272802L71.16666666666666,111.589190710302L71.4,108.25351723952039L71.63333333333334,123.95210682703818L71.86666666666666,92.07126831623177L72.10000000000001,105.39276591308271L72.33333333333334,131.08565814117998L72.56666666666666,117.00138996136435L72.8,117.40083116347938L73.03333333333333,141.24049447807877L73.26666666666667,158.49430020352133L73.5,124.59658363878683L73.73333333333332,136.70795440328095L73.96666666666667,99.72477686197742L74.2,98.18486119384279L74.43333333333332,106.11091390296649L74.66666666666667,102.01654341843623L74.9,90.7099295677358L75.13333333333333,107.52595985064589L75.36666666666666,141.21557661372233L75.60000000000001,114.22934948490744L75.83333333333333,121.63761180094885L76.06666666666666,105.4325677839041L76.30000000000001,113.40954559368608L76.53333333333333,112.29572735621167L76.76666666666667,117.52744133707063L77,126.56646409890753L77.23333333333333,131.98987775600972L77.46666666666667,93.94392313693174L77.7,130.11635739883312L77.93333333333334,125.26981162596066L78.16666666666667,116.46188978891561L78.4,108.22712895000568L78.63333333333333,109.1862773700034L78.86666666666667,118.6117685320065L79.1,127.21706041586904L79.33333333333333,138.28024046953027L79.56666666666666,144.918148501727L79.8,128.25089191437542L80.03333333333333,153.65053585196006L80.26666666666667,154.1403257311849L80.5,116.08419403204128L80.73333333333333,108.00051149588113L80.96666666666667,70.70031182087234L81.19999999999999,92.57019201586706L81.43333333333334,70.29211169284623L81.66666666666667,115.92527053238179L81.89999999999999,107.90515739608541L82.13333333333334,82.44309865766009L82.36666666666667,99.61586411793971L82.6,95.1695163607594L82.83333333333333,71.85170629978161L83.06666666666668,43.11102377986899L83.3,67.16661708126061L83.53333333333333,63.899968842086786L83.76666666666668,53.08997778857805L84,73.15398948648605L84.23333333333333,73.39239720856564L84.46666666666667,94.18544324848303L84.7,86.01126946576386L84.93333333333334,75.20676027278874L85.16666666666666,110.0240575703429L85.39999999999999,160.41443419053834L85.63333333333334,119.84865910765339L85.86666666666666,107.30919335458762L86.1,87.98551460608293L86.33333333333334,114.74131298365859L86.56666666666666,101.29478849352995L86.8,78.47687731612679L87.03333333333333,88.38612920301533L87.26666666666667,123.83167330180036L87.5,97.89900257441059L87.73333333333333,88.2394050613204L87.96666666666667,117.84364444346186L88.2,117.90618385273784L88.43333333333334,129.7437067949687L88.66666666666666,83.74622900032486L88.9,91.54774021353413L89.13333333333334,60.82864905146415L89.36666666666666,110.24719294755255L89.60000000000001,101.5483136585271L89.83333333333334,90.4289917117903L90.06666666666666,107.35739713707859L90.3,96.86443898558194L90.53333333333333,78.76866479801878L90.76666666666667,85.61119395546764L91,101.51672129662424L91.23333333333332,90.41003629464858L91.46666666666667,66.04602107345436L91.7,48.47761475407704L91.93333333333332,46.78657307245507L92.16666666666667,51.671942436803384L92.4,57.55316124207322L92.63333333333333,108.281900261918L92.86666666666666,76.76913945381598L93.10000000000001,78.51148437562442L93.33333333333333,85.45688570203103L93.56666666666666,86.67412931121417L93.80000000000001,96.2544775867285L94.03333333333333,93.15268444203267L94.26666666666667,79.49160925854994L94.5,115.54496414846035L94.73333333333333,128.32697497240216L94.96666666666667,115.34618006009762L95.2,98.70771155273263L95.43333333333334,76.9246311516484L95.66666666666667,81.55477658098462L95.9,81.38286665192558L96.13333333333333,113.72972139782495L96.36666666666667,112.48783283869497L96.6,73.39270462656066L96.83333333333333,126.63561785259276L97.06666666666666,114.33136578821197L97.3,74.49882439627088L97.53333333333333,62.39929885777134L97.76666666666667,81.68957931466281L98,66.71375180880649L98.23333333333333,51.82825038194909L98.46666666666667,84.19695233917389L98.69999999999999,62.318170700169546L98.93333333333334,52.14089890342768L99.16666666666667,54.88453793538701L99.39999999999999,77.1807227612322L99.63333333333334,75.80843717341337L99.86666666666667,113.3350608973784L100.1,82.75103302175303L100.33333333333333,67.35062403306067L100.56666666666668,69.91037793651043L100.8,109.79622535523664L101.03333333333333,127.82773943315082L101.26666666666668,123.89664084655125L101.5,127.43798661793514L101.73333333333333,91.21278845408705L101.96666666666667,119.62767447912185L102.2,127.82660398413826L102.43333333333334,132.74596168714814L102.66666666666666,91.44757630895408L102.89999999999999,72.56855000538128L103.13333333333334,49.441134926572445L103.36666666666666,50.31468236261304L103.6,74.43880941756781L103.83333333333334,62.36328987054957L104.06666666666666,55.11797814233857L104.3,47.8207833687291L104.53333333333333,81.79247213124191L104.76666666666667,113.97548468541478L105,109.68529362458806L105.23333333333333,86.46117758142242L105.46666666666667,63.67670584551862L105.7,79.50602632065039L105.93333333333334,77.20361930906425L106.16666666666666,58.122170882103724L106.4,64.37330604593626L106.63333333333334,68.12398714423576L106.86666666666666,76.27439017653701L107.10000000000001,78.21463480925705L107.33333333333334,52.82878580889787L107.56666666666666,90.69726796866466L107.8,116.36836500120761L108.03333333333333,99.3210225173986L108.26666666666667,89.09261702711323L108.5,68.20556669959392L108.73333333333332,61.57334142642597L108.96666666666667,51.69400133918152L109.2,45.76639728683487L109.43333333333332,39.25983766876611L109.66666666666667,44.20590400792924L109.9,41.2735388880835L110.13333333333333,86.71412755285895L110.36666666666666,72.67847793838502L110.60000000000001,96.70708887303543L110.83333333333333,87.52425684049534L111.06666666666666,105.61455621430162L111.30000000000001,122.36873021190691L111.53333333333333,102.92124164381818L111.76666666666667,76.50274146961688L112,113.75164347510052L112.23333333333333,85.95099030506917L112.46666666666667,63.37059347970673L112.7,105.87235468115443L112.93333333333334,90.07340858868382L113.16666666666667,77.64404374654069L113.4,73.13642202791559L113.63333333333333,58.63184970007533L113.86666666666667,82.37910700670598L114.1,61.2274635006888L114.33333333333333,45.586480210417726L114.56666666666666,53.90188390624176L114.8,47.09112682707104L115.03333333333333,81.35467820624706L115.26666666666667,96.01280411040902L115.5,87.10768598291945L115.73333333333333,72.91461299642128L115.96666666666667,76.19876850118754L116.19999999999999,104.71925758403846L116.43333333333334,83.48155595709272L116.66666666666667,85.48893146425121L116.89999999999999,63.09335817521594L117.13333333333334,67.35601842180361L117.36666666666667,75.81360894307775L117.6,63.18816958585546L117.83333333333333,49.71290104817849L118.06666666666668,56.377736408898286L118.3,48.57663832866493L118.53333333333333,52.74598159052936L118.76666666666668,72.94759176765683L119,58.51855154392003L119.23333333333333,46.911130223017246L119.46666666666667,39.94667743047556L119.7,38.718002941611296L119.93333333333334,82.23079824829276L120.16666666666666,87.68847402563202L120.39999999999999,85.06308511871406L120.63333333333334,68.73785529123731L120.86666666666666,79.59270825139875L121.1,80.20562565417407L121.33333333333334,62.87337187583038L121.56666666666666,37.72402312549821L121.8,52.134417391972946L122.03333333333333,40.13065254518819L122.26666666666667,65.37839434045213L122.5,74.62703449426685L122.73333333333333,62.47622491656894L122.96666666666667,114.18573565327617L123.2,98.01144490863973L123.43333333333334,76.5068711651927L123.66666666666666,72.45411847910675L123.9,55.27247038412926L124.13333333333334,56.763480823807896L124.36666666666666,45.85808779094993L124.60000000000001,39.314851971235186L124.83333333333334,50.13890696273222L125.06666666666666,56.633339957630525L125.3,51.680008194587124L125.53333333333333,84.10800702675672L125.76666666666667,141.91480667772586L126,129.39888400663546L126.23333333333332,127.78933532732493L126.46666666666667,76.67360119639496L126.7,60.75415720116293L126.93333333333332,51.20249080402372L127.16666666666667,101.52149026240538L127.4,93.36289486077803L127.63333333333333,79.6177355097972L127.86666666666666,56.62064341588278L128.1,101.82238464286007L128.33333333333331,87.64342656570723L128.56666666666666,67.33605242275034L128.8,58.10163567365903L129.03333333333333,55.510982810865016L129.26666666666668,39.20659460986269L129.5,61.873951842573916L129.73333333333332,66.62437462221835L129.96666666666667,51.774624069996186L130.20000000000002,48.76477866200651L130.43333333333334,103.00887071387797L130.66666666666666,61.80532242832676L130.9,54.78319767700494L131.13333333333333,71.21991368285927L131.36666666666667,51.58195031972001L131.6,69.29916526848832L131.83333333333334,53.37949845775817L132.06666666666666,40.87770118465934L132.29999999999998,27.47661789745635L132.53333333333333,37.13597214514343L132.76666666666668,42.93158469375565L133,28.70894800291416L133.23333333333332,52.62536669174405L133.46666666666667,72.87522282838565L133.7,64.37513510370103L133.93333333333334,41.57507824888138L134.16666666666669,51.49504272931998L134.4,45.647022120917924L134.63333333333333,50.988211865881176L134.86666666666667,36.49293204287238L135.1,80.89575570904938L135.33333333333334,66.23745764543848L135.56666666666666,75.14247247725866L135.79999999999998,71.63547926634632L136.03333333333333,81.33128263646414L136.26666666666668,87.14876465853483L136.5,128.9892594984557L136.73333333333335,109.84355640240824L136.96666666666667,113.10613102810571L137.2,88.51368002353304L137.43333333333334,106.20821012412428L137.66666666666666,66.67492326113533L137.9,69.5049574733552L138.13333333333333,62.35297589068278L138.36666666666667,49.21178483107486L138.6,44.27706738197085L138.83333333333334,35.41624253918693L139.06666666666666,44.84974411684258L139.3,38.709845766770755L139.53333333333333,40.92591168007131L139.76666666666665,71.75554419470357L140,78.45332440681771L140.23333333333335,82.47199253408624L140.46666666666667,108.48319200377769L140.7,103.43991027892298L140.93333333333334,103.36394898069298L141.16666666666666,106.26836938841579L141.4,66.71101881971023L141.63333333333333,60.67661269849575L141.86666666666667,83.60596480575828L142.1,70.81358029012455L142.33333333333331,95.58815028407915L142.56666666666666,86.85289368712156L142.8,60.961738322277405L143.03333333333333,48.37704229003165L143.26666666666668,70.32622818735818L143.5,53.99573620908014L143.73333333333332,41.24744383545251L143.96666666666667,77.84846841127593L144.20000000000002,79.15908175010037L144.43333333333334,76.99545256673429L144.66666666666669,72.7472673200317L144.89999999999998,55.44835968868421L145.13333333333333,50.96902003321935L145.36666666666667,42.381411316596804L145.6,63.7788418666144L145.83333333333334,85.46730230662942L146.06666666666666,60.13038349398206L146.29999999999998,77.37823290972847L146.53333333333333,75.9269432625111L146.76666666666668,78.00616666084144L147,135.3036999965049L147.23333333333335,116.58221788789851L147.46666666666664,96.49932651273029L147.7,134.599596610973L147.93333333333334,119.1097530432401L148.16666666666666,142.26584760593525L148.4,100.10950504688714L148.63333333333335,77.76570724814113L148.86666666666665,70.25942294221508L149.1,53.95565306199424L149.33333333333334,100.2233904305269L149.56666666666666,104.38403425831612L149.8,95.08042125832449L150.03333333333336,62.94825767833834L150.26666666666665,52.51895109032894L150.5,40.36137276420178L150.73333333333332,38.96682014184701L150.96666666666667,46.98009067843862L151.20000000000002,48.83805581373283L151.43333333333334,52.902832081570104L151.66666666666666,67.14169713893766L151.9,69.7850218000366L152.13333333333333,68.42100886001315L152.36666666666667,44.00260250266865L152.60000000000002,67.70156431494043L152.83333333333331,49.47094069896866L153.06666666666666,47.382568639390065L153.29999999999998,43.17953766695997L153.53333333333333,52.45771838016717L153.76666666666668,52.12463243476996L154,40.1247815708664L154.23333333333332,80.12486823918505L154.46666666666667,56.92492305351546L154.7,48.904950315435265L154.93333333333334,49.99297159593082L155.16666666666669,53.595781550888915L155.4,32.15746893053333L155.63333333333333,57.6444764349763L155.86666666666667,49.33668234431172L156.1,47.302013626595915L156.33333333333334,43.131204659283505L156.56666666666666,76.02872771891376L156.8,81.01723452134387L157.03333333333333,51.560337899467065L157.26666666666665,39.78620484968468L157.5,50.421718689802L157.73333333333335,30.25303121388122L157.96666666666667,35.85182294833762L158.2,27.41109869234623L158.43333333333334,34.146663435416606L158.66666666666666,35.23799454457594L158.9,29.992798836750005L159.13333333333333,32.745675785375965L159.36666666666667,69.79741039456925L159.6,68.42844201673275L159.83333333333331,52.857064506704816L160.06666666666666,43.514238000688074L160.3,40.85853928373884L160.53333333333333,30.415128493586963L160.76666666666668,30.049076392817383L161,32.77944231901639L161.23333333333332,46.21766117140102L161.46666666666667,39.530595999505806L161.70000000000002,65.01836041304273L161.93333333333334,59.66101765449524L162.16666666666669,56.446611999366716L162.39999999999998,78.11796719962001L162.63333333333333,52.770785243115704L162.86666666666667,34.612468332530206L163.1,53.21748170285297L163.33333333333334,31.930489021711782L163.56666666666666,22.108290599687834L163.79999999999998,81.1149729531431L164.03333333333333,75.21897955187698L164.26666666666668,59.881384214452154L164.5,89.0288326386757L164.73333333333335,56.36729676986619L164.96666666666664,83.9703829852634L165.2,76.93222557114916L165.43333333333334,57.95933463935471L165.66666666666666,87.87560289361726L165.9,73.37536314283996L166.13333333333335,85.32522069904321L166.36666666666665,83.64513312276071L166.6,82.63708057699124L166.83333333333334,70.23224975286433L167.06666666666666,48.03935477506228L167.3,70.1236156783766L167.53333333333336,59.77417362703485L167.76666666666665,50.614500659546884L168,53.968698989058495L168.23333333333332,91.38121587676105L168.46666666666667,72.5287337460655L168.70000000000002,73.01724376431333L168.93333333333334,61.510350478596855L169.16666666666666,66.40621380383212L169.4,42.79372546896001L169.63333333333333,28.626232468036758L169.86666666666667,23.075744404165707L170.10000000000002,52.195441719155745L170.33333333333331,46.06726151481942L170.56666666666666,36.49035901889606L170.79999999999998,72.04422033468128L171.03333333333333,63.87653360747843L171.26666666666668,67.82592368116111L171.5,76.09555209869228L171.73333333333332,60.40732774254133L171.96666666666667,50.99439312885075L172.2,68.94663095396685L172.43333333333334,85.61797857238008L172.66666666666669,54.32078433008881L172.9,44.3924698947185L173.13333333333333,56.13548545350514L173.36666666666667,66.13129197543793L173.6,78.02877026191906L173.83333333333334,91.06726215715138L174.06666666666666,78.2403558876212L174.3,79.39421423590753L174.53333333333333,53.53653346488818L174.76666666666665,70.47191515558927L175,107.1831505000232L175.23333333333335,73.15989241001839L175.46666666666667,96.99593755601545L175.7,75.89756675361815L175.93333333333334,77.9885407555057L176.16666666666666,58.59312374996859L176.4,41.05587917332481L176.63333333333333,33.48352961399935L176.86666666666667,37.79012198840846L177.1,34.47407248971027L177.33333333333331,59.03443857048256L177.56666666666666,100.32066454895914L177.8,95.59239661937107L178.03333333333333,66.20544008162706L178.26666666666668,66.2732598289674L178.5,66.31395167737163L178.73333333333332,66.33836678641417L178.96666666666667,57.50302429185733L179.20000000000002,37.45181176177515L179.43333333333334,22.471087057065084L179.66666666666669,48.88265012423459L179.89999999999998,67.67958515119706L180.13333333333333,40.60775109071821L180.36666666666667,50.91464643442211L180.6,51.198789267322844L180.83333333333334,69.06926863705004L181.06666666666666,44.39155836889078L181.29999999999998,56.13493853800847L181.53333333333333,48.43095960613106L181.76666666666668,64.45857365367424L182,74.07514208220016L182.23333333333335,56.245084545985264L182.46666666666664,75.04705354093038L182.7,80.42823001455382L182.93333333333334,68.90693941540191L183.16666666666666,41.344163649241146L183.4,66.1065010028839L183.63333333333335,92.76390271173476L183.86666666666665,82.20833740703198L184.1,58.17500455422365L184.33333333333334,43.75500484253863L184.56666666666666,38.05300220218839L184.8,28.731806244656692L185.03333333333336,23.13908867013767L185.26666666666665,28.63344968540858L185.5,49.63007051458001L185.73333333333332,76.97803949540875L185.96666666666667,60.93682018057121L186.20000000000002,63.11208788833385L186.43333333333334,67.3672562496744L186.66666666666666,69.92035726647866L186.9,56.70221084321313L187.13333333333333,36.97132369258866L187.36666666666667,25.13279140221398L187.60000000000002,18.029672027989132L187.83333333333331,25.567799700119433L188.06666666666666,27.140679116736866L188.29999999999998,33.984411690051004L188.53333333333333,32.1906463106958L188.76666666666668,42.91438637974785L189,40.498628311174656L189.23333333333332,41.9991812067136L189.46666666666667,31.09951364737182L189.7,39.30970959509266L189.93333333333334,50.13582153704673L190.16666666666669,62.5314936255628L190.4,55.21890039534655L190.63333333333333,80.33133742386872L190.86666666666667,48.19880245432125L191.1,37.7692835825972L191.33333333333334,28.561575072901995L191.56666666666666,67.28694996708484L191.8,72.8221706835857L192.03333333333333,99.74330170681658L192.26666666666665,71.64598032075519L192.5,48.88759311579677L192.73333333333335,41.132555166143256L192.96666666666667,48.27953169301629L193.2,37.81772112581418L193.43333333333334,25.64062986214929L193.66666666666666,44.88438143396361L193.9,53.4806246403693L194.13333333333333,46.838371267547515L194.36666666666667,45.803026980537396L194.6,45.181820408331326L194.83333333333331,71.35909224499876L195.06666666666666,63.46545675366887L195.3,58.72927545887096L195.53333333333333,97.18756949533143L195.76666666666668,111.41254380720324L196,78.64752558098715L196.23333333333332,64.88851956860117L196.46666666666667,50.73311103782588L196.70000000000002,48.13987084270437L196.93333333333334,67.23391758227896L197.16666666666669,78.69034562602369L197.39999999999998,82.61420526560978L197.63333333333333,55.46852808270951L197.86666666666667,62.781120366299724L198.1,70.1186729231146L198.33333333333334,50.92120586387319L198.56666666666666,74.80272351832392L198.79999999999998,59.63163059432032L199.03333333333333,44.628980466596616L199.26666666666668,50.37738687328837L199.5,83.32643423397742L199.73333333333335,61.79585983705169L199.96666666666664,72.4775137922266L200.2,61.18651249534479L200.43333333333334,48.511906793872086L200.66666666666666,73.35714407632325L200.9,61.71429066580276L201.13333333333335,60.62857299281204L201.36666666666665,48.17714309235243L201.6,40.70628515207663L201.83333333333334,39.173767574571954L202.06666666666666,23.504260544743154L202.3,52.45255140350227L202.53333333333336,43.27153013876657L202.76666666666665,43.66292230326875L203,67.49775619530047L203.23333333333332,87.6986509038411L203.46666666666667,76.21918913563502L203.70000000000002,54.581515591385454L203.93333333333334,35.69890654149206L204.16666666666666,24.369341111556004L204.4,35.271606073603195L204.63333333333333,38.86296786417079L204.86666666666667,43.96778212517211L205.10000000000002,67.68067208844248L205.33333333333331,73.05840395640031L205.56666666666666,79.2350402638358L205.79999999999998,53.44102908164518L206.03333333333333,82.21462237233075L206.26666666666668,102.42877553340287L206.5,90.95726883671574L206.73333333333332,63.4243634120339L206.96666666666667,38.054618047220345L207.2,43.48277223500178L207.43333333333334,29.039660527661837L207.66666666666669,20.37379350325787L207.9,26.974272585280676L208.13333333333333,48.63456425450323L208.36666666666667,58.68074206937596L208.6,61.758441021616726L208.83333333333334,63.60506039296123L209.06666666666666,61.763034829107156L209.3,81.30782089746425L209.53333333333333,51.734689725139354L209.76666666666665,54.64081242841404L210,35.734484643709166L210.23333333333335,24.390687972886244L210.46666666666667,35.28441419040136L210.7,44.770647107571236L210.93333333333334,44.56239248455163L211.16666666666666,41.48743197405692L211.4,39.642455667760125L211.63333333333333,38.53546988398203L211.86666666666667,37.87127841371518L212.1,28.622771971572746L212.33333333333331,20.12366036960443L212.56666666666666,17.974201145106335L212.8,19.634522797068243L213.03333333333333,47.18071156823656L213.26666666666668,63.70842483093755L213.5,55.92505911857134L213.73333333333332,42.405037581147226L213.96666666666667,49.04302114201874L214.20000000000002,64.82581057520682L214.43333333333334,47.745488455128516L214.66666666666669,58.14729658975113L214.89999999999998,64.38838147052476L215.13333333333333,82.88302888231486L215.36666666666667,82.17981803272374L215.6,67.00789503964309L215.83333333333334,60.85473843045549L216.06666666666666,51.262839541599256L216.29999999999998,63.207704428294335L216.53333333333333,55.624626876985495L216.76666666666668,45.174775422856484L217,33.00487017705758L217.23333333333335,55.20291999623013L217.46666666666664,44.921751294403265L217.7,50.55304936997234L217.93333333333334,42.131828918648594L218.16666666666666,63.6290924278455L218.4,61.777454050037704L218.63333333333335,54.76647665003147L218.86666666666665,62.359889506692944L219.1,49.21593300068094L219.33333333333334,53.129558393738904L219.56666666666666,34.82773222290411L219.8,53.346640037077286L220.03333333333336,55.60798261557677L220.26666666666665,59.91478534933726L220.5,44.7988733196068L220.73333333333332,77.02932891510773L220.96666666666667,102.2675966457298L221.20000000000002,87.910553767429L221.43333333333334,91.09632733711372L221.66666666666666,60.55780132561189L221.9,65.83468431204118L222.13333333333333,66.05080636721581L222.36666666666667,48.4804859303339L222.60000000000002,43.83828804152629L222.83333333333331,35.15297493492024L223.06666666666666,59.441780037608524L223.29999999999998,62.2150638025563L223.53333333333333,81.57903828153374L223.76666666666668,60.74742226558547L224,57.09845476602086L224.23333333333332,49.009069342938496L224.46666666666667,41.20544090242831L224.7,48.323263134787325L224.93333333333334,37.8439599908768L225.16666666666669,52.2063795112001L225.4,40.173829816724464L225.63333333333333,65.4043007033739L225.86666666666667,95.29257971868955L226.1,101.42554783121375L226.33333333333334,81.50533010539789L226.56666666666666,57.75320017324317L226.8,75.95192291728512L227.03333333333333,78.02115445370588L227.26666666666665,67.46269407889314L227.5,49.32761855734033L227.73333333333335,41.39657043106941L227.96666666666667,60.23794014863727L228.2,56.792765495852L228.43333333333334,81.27565648417195L228.66666666666666,90.06539670384238L228.9,98.28923802230541L229.13333333333333,79.62354422005288L229.36666666666667,80.22412723536654L229.6,95.3344735278807L229.83333333333331,71.95068060005441L230.06666666666666,54.97040765669782L230.3,47.73224107734469L230.53333333333333,34.53934956975045L230.76666666666668,20.723609741850268L231,21.284167955114604L231.23333333333332,27.520497256394716L231.46666666666667,40.112296947167174L231.70000000000002,68.31737816830031L231.93333333333334,61.6404283076498L232.16666666666669,42.88426190793352L232.39999999999998,31.630562068103785L232.63333333333333,42.57833583419269L232.86666666666667,63.896996577171954L233.1,53.088194429629134L233.33333333333334,58.40291243776865L233.56666666666666,46.8417467593264L233.79999999999998,36.95505016560028L234.03333333333333,31.023032209364608L234.26666666666668,45.16381510560987L234.5,44.798293283374775L234.73333333333335,41.628972453350805L234.96666666666664,36.77738276867567L235.2,30.916431771209844L235.43333333333334,53.9498569527215L235.66666666666666,35.319911358293645L235.9,38.89195103498507L236.13333333333335,38.08516710431698L236.36666666666665,37.601096745916166L236.6,40.260662267558544L236.83333333333334,62.50639243719143L237.06666666666666,40.45383264897563L237.3,39.02229607271135L237.53333333333336,52.91338116030081L237.76666666666665,46.49802517950646L238,42.64881159102984L238.23333333333332,58.03928765795271L238.46666666666667,34.823572594771605L238.70000000000002,26.794148480206637L238.93333333333334,19.026486274784748L239.16666666666666,23.215891061536038L239.4,87.6795381535957L239.63333333333333,58.50772781550108L239.86666666666667,49.8546331726266L240.10000000000002,47.612784123584845L240.33333333333331,69.86767328749012L240.56666666666666,62.57060537916369L240.79999999999998,61.14236182082861L241.03333333333333,51.43541357582313L241.26666666666668,30.861248145493853L241.5,45.06674466728744L241.73333333333332,50.640045393702806L241.96666666666667,45.13402371954764L242.2,35.93041634173304L242.43333333333334,62.85825261837904L242.66666666666669,58.36495297769706L242.9,43.86897389662266L243.13333333333333,44.02138855798242L243.36666666666667,32.31283805813313L243.6,34.137699318205875L243.83333333333334,38.18262381093241L244.06666666666666,34.70957358322464L244.3,26.725749073278422L244.53333333333333,30.785445927293026L244.76666666666665,39.121268963045466L245,47.072759971157666L245.23333333333335,54.79365176268573L245.46666666666667,38.776195980955116L245.7,26.215714775233835L245.93333333333334,21.629433788483958L246.16666666666666,69.02765956975554L246.4,85.66659574185333L246.63333333333333,95.649957445112L246.86666666666667,72.13997095039319L247.1,43.28398257023589L247.33333333333331,49.57038813547194L247.56666666666666,41.54223217794837L247.8,30.8253442301127L248.03333333333333,33.24520302139358L248.26666666666668,49.447125329510165L248.5,41.46827449437127L248.73333333333332,24.880964696622776L248.96666666666667,32.628583037982494L249.20000000000002,19.57714982278948L249.43333333333334,73.69629411368254L249.66666666666669,47.16777365487031L249.89999999999998,43.050660676248164L250.13333333333333,67.1303992190881L250.36666666666667,55.02823601477883L250.6,56.616940202197696L250.83333333333334,39.8701690446623L251.06666666666666,41.62210564680619L251.29999999999998,33.823265498088155L251.53333333333333,29.14396140885734L251.76666666666668,67.63638176865804L252,40.58182906119484L252.23333333333335,27.29909462337769L252.46666666666664,54.72945185068298L252.7,41.68767322041423L252.93333333333334,30.91260885559221L253.16666666666666,48.04756883002936L253.4,46.52854551802645L253.63333333333335,33.81713223415953L253.86666666666665,55.69027723049129L254.1,57.01416493162518L254.33333333333334,51.908503178984L254.56666666666666,48.84510612739923L254.8,47.00706789644837L255.03333333333336,31.154237924529767L255.26666666666665,57.04253783137416L255.5,72.57551777548082L255.73333333333332,64.19531207195814L255.96666666666667,50.31718653984008L256.2,44.940308407229985L256.43333333333334,26.964185044337988" style="fill: none;" fill="none"></path></g></g></g></g><g opacity="0.2"><g><g><g><path stroke="rgb(255, 112, 67)" stroke-width="2px" d="M24.03333333333333,199.12499472498894L24.266666666666666,103.25000703334808L24.5,191.75000175833702L24.733333333333334,176.99998944997787L24.96666666666667,125.37501230835915L25.2,287.62500263750553L25.433333333333334,169.62499648332596L25.666666666666664,169.62499648332596L25.9,117.99999296665192L26.133333333333333,117.99999296665192L26.366666666666667,213.87500703334808L26.6,132.75000527501106L26.833333333333336,117.99999296665192L27.066666666666666,125.37501230835915L27.3,147.4999912083149L27.53333333333333,125.37501230835915L27.766666666666666,147.4999912083149L28,191.75000175833702L28.233333333333334,258.12500439584255L28.46666666666667,88.49999472498894L28.7,132.75000527501106L28.933333333333334,228.62500615417957L29.166666666666668,184.3750087916851L29.4,132.75000527501106L29.633333333333333,213.87500703334808L29.866666666666667,132.75000527501106L30.099999999999998,235.9999991208315L30.333333333333336,81.12500175833702L30.566666666666666,110.625L30.8,184.3750087916851L31.033333333333335,169.62499648332596L31.266666666666666,140.12499824166298L31.5,199.12499472498894L31.73333333333333,95.87498769164085L31.966666666666665,243.37500527501106L32.2,147.4999912083149L32.43333333333333,110.625L32.666666666666664,95.87498769164085L32.9,162.25000351667404L33.13333333333333,147.4999912083149L33.36666666666667,221.25L33.6,191.75000175833702L33.833333333333336,81.12500175833702L34.06666666666667,199.12499472498894L34.53333333333333,199.12499472498894L34.766666666666666,147.4999912083149L35,125.37501230835915L35.233333333333334,110.625L35.46666666666667,154.87501055002213L35.7,73.7500087916851L35.93333333333333,125.37501230835915L36.16666666666667,184.3750087916851L36.4,140.12499824166298L36.63333333333333,140.12499824166298L36.86666666666666,162.25000351667404L37.1,191.75000175833702L37.333333333333336,73.7500087916851L37.56666666666666,95.87498769164085L37.800000000000004,199.12499472498894L38.03333333333333,199.12499472498894L38.266666666666666,147.4999912083149L38.5,154.87501055002213L38.733333333333334,103.25000703334808L38.96666666666667,213.87500703334808L39.2,95.87498769164085L39.43333333333334,176.99998944997787L39.666666666666664,132.75000527501106L39.9,176.99998944997787L40.13333333333333,132.75000527501106L40.36666666666667,221.25L40.599999999999994,213.87500703334808L40.833333333333336,110.625L41.06666666666667,103.25000703334808L41.3,125.37501230835915L41.53333333333334,154.87501055002213L41.766666666666666,147.4999912083149L42,176.99998944997787L42.233333333333334,125.37501230835915L42.46666666666667,95.87498769164085L42.699999999999996,103.25000703334808L42.93333333333333,103.25000703334808L43.16666666666667,103.25000703334808L43.4,44.250010550022125L43.63333333333333,162.25000351667404L43.86666666666667,162.25000351667404L44.1,280.24999648332596L44.33333333333333,162.25000351667404L44.56666666666667,140.12499824166298L44.800000000000004,132.75000527501106L45.03333333333333,110.625L45.266666666666666,169.62499648332596L45.5,125.37501230835915L45.733333333333334,95.87498769164085L45.96666666666666,95.87498769164085L46.2,110.625L46.43333333333333,221.25L46.666666666666664,81.12500175833702L46.900000000000006,184.3750087916851L47.13333333333333,73.7500087916851L47.36666666666667,154.87501055002213L47.6,66.37498944997787L47.833333333333336,117.99999296665192L48.06666666666666,88.49999472498894L48.3,184.3750087916851L48.53333333333333,147.4999912083149L48.766666666666666,29.49999824166298L49,81.12500175833702L49.233333333333334,199.12499472498894L49.46666666666667,51.62500351667404L49.699999999999996,117.99999296665192L49.93333333333334,88.49999472498894L50.166666666666664,81.12500175833702L50.4,95.87498769164085L50.63333333333334,117.99999296665192L50.86666666666667,73.7500087916851L51.1,81.12500175833702L51.33333333333333,154.87501055002213L51.56666666666667,88.49999472498894L51.8,81.12500175833702L52.03333333333333,117.99999296665192L52.266666666666666,88.49999472498894L52.5,117.99999296665192L52.733333333333334,73.7500087916851L52.96666666666667,213.87500703334808L53.2,88.49999472498894L53.43333333333333,66.37498944997787L53.66666666666667,250.74999824166298L53.9,206.49998769164085L54.13333333333333,154.87501055002213L54.36666666666666,81.12500175833702L54.6,132.75000527501106L54.833333333333336,147.4999912083149L55.06666666666666,125.37501230835915L55.300000000000004,81.12500175833702L55.53333333333333,117.99999296665192L55.766666666666666,132.75000527501106L56,73.7500087916851L56.233333333333334,117.99999296665192L56.46666666666667,81.12500175833702L56.7,110.625L56.93333333333334,36.874991208314896L57.166666666666664,125.37501230835915L57.4,117.99999296665192L57.63333333333333,117.99999296665192L57.86666666666667,110.625L58.099999999999994,243.37500527501106L58.333333333333336,88.49999472498894L58.56666666666667,140.12499824166298L58.8,176.99998944997787L59.03333333333334,103.25000703334808L59.266666666666666,125.37501230835915L59.5,169.62499648332596L59.733333333333334,140.12499824166298L59.96666666666667,51.62500351667404L60.199999999999996,73.7500087916851L60.43333333333333,199.12499472498894L60.66666666666667,228.62500615417957L60.9,73.7500087916851L61.13333333333333,103.25000703334808L61.36666666666667,44.250010550022125L61.6,103.25000703334808L61.83333333333333,132.75000527501106L62.06666666666667,191.75000175833702L62.300000000000004,110.625L62.53333333333333,154.87501055002213L62.766666666666666,103.25000703334808L63,162.25000351667404L63.233333333333334,132.75000527501106L63.46666666666666,125.37501230835915L63.7,125.37501230835915L63.93333333333333,88.49999472498894L64.16666666666666,44.250010550022125L64.4,110.625L64.63333333333334,81.12500175833702L64.86666666666666,88.49999472498894L65.10000000000001,125.37501230835915L65.33333333333333,140.12499824166298L65.56666666666666,81.12500175833702L65.8,44.250010550022125L66.03333333333333,125.37501230835915L66.26666666666667,132.75000527501106L66.5,132.75000527501106L66.73333333333333,154.87501055002213L66.96666666666667,162.25000351667404L67.2,103.25000703334808L67.43333333333334,66.37498944997787L67.66666666666667,221.25L67.89999999999999,206.49998769164085L68.13333333333334,44.250010550022125L68.36666666666667,110.625L68.6,81.12500175833702L68.83333333333333,147.4999912083149L69.06666666666666,110.625L69.3,147.4999912083149L69.53333333333333,51.62500351667404L69.76666666666667,162.25000351667404L70,132.75000527501106L70.23333333333333,140.12499824166298L70.46666666666667,132.75000527501106L70.7,125.37501230835915L70.93333333333334,36.874991208314896L71.16666666666666,140.12499824166298L71.4,103.25000703334808L71.63333333333334,147.4999912083149L71.86666666666666,44.250010550022125L72.10000000000001,125.37501230835915L72.33333333333334,169.62499648332596L72.56666666666666,95.87498769164085L72.8,117.99999296665192L73.03333333333333,176.99998944997787L73.26666666666667,184.3750087916851L73.5,73.7500087916851L73.73333333333332,154.87501055002213L73.96666666666667,44.250010550022125L74.2,95.87498769164085L74.43333333333332,117.99999296665192L74.66666666666667,95.87498769164085L74.9,73.7500087916851L75.13333333333333,132.75000527501106L75.36666666666666,191.75000175833702L75.60000000000001,73.7500087916851L75.83333333333333,132.75000527501106L76.06666666666666,81.12500175833702L76.30000000000001,125.37501230835915L76.53333333333333,110.625L76.76666666666667,125.37501230835915L77,140.12499824166298L77.23333333333333,140.12499824166298L77.46666666666667,36.874991208314896L77.7,184.3750087916851L77.93333333333334,117.99999296665192L78.16666666666667,103.25000703334808L78.4,95.87498769164085L78.63333333333333,110.625L78.86666666666667,132.75000527501106L79.1,140.12499824166298L79.33333333333333,154.87501055002213L79.56666666666666,154.87501055002213L79.8,103.25000703334808L80.03333333333333,191.75000175833702L80.26666666666667,154.87501055002213L80.5,58.99999648332596L80.73333333333333,95.87498769164085L80.96666666666667,14.750012308359146L81.19999999999999,125.37501230835915L81.43333333333334,36.874991208314896L81.66666666666667,184.3750087916851L81.89999999999999,95.87498769164085L82.13333333333334,44.250010550022125L82.36666666666667,125.37501230835915L82.6,88.49999472498894L82.83333333333333,36.874991208314896L83.06666666666668,0L83.3,103.25000703334808L83.53333333333333,58.99999648332596L83.76666666666668,36.874991208314896L84,103.25000703334808L84.23333333333333,73.7500087916851L84.46666666666667,125.37501230835915L84.7,73.7500087916851L84.93333333333334,58.99999648332596L85.16666666666666,162.25000351667404L85.39999999999999,235.9999991208315L85.63333333333334,58.99999648332596L85.86666666666666,88.49999472498894L86.1,58.99999648332596L86.33333333333334,154.87501055002213L86.56666666666666,81.12500175833702L86.8,44.250010550022125L87.03333333333333,103.25000703334808L87.26666666666667,176.99998944997787L87.5,58.99999648332596L87.73333333333333,73.7500087916851L87.96666666666667,162.25000351667404L88.2,117.99999296665192L88.43333333333334,147.4999912083149L88.66666666666666,14.750012308359146L88.9,103.25000703334808L89.13333333333334,14.750012308359146L89.36666666666666,184.3750087916851L89.60000000000001,88.49999472498894L89.83333333333334,73.7500087916851L90.06666666666666,132.75000527501106L90.3,81.12500175833702L90.53333333333333,51.62500351667404L90.76666666666667,95.87498769164085L91,125.37501230835915L91.23333333333332,73.7500087916851L91.46666666666667,29.49999824166298L91.7,22.125005275011063L91.93333333333332,44.250010550022125L92.16666666666667,58.99999648332596L92.4,66.37498944997787L92.63333333333333,184.3750087916851L92.86666666666666,29.49999824166298L93.10000000000001,81.12500175833702L93.33333333333333,95.87498769164085L93.56666666666666,88.49999472498894L93.80000000000001,110.625L94.03333333333333,88.49999472498894L94.26666666666667,58.99999648332596L94.5,169.62499648332596L94.73333333333333,147.4999912083149L94.96666666666667,95.87498769164085L95.2,73.7500087916851L95.43333333333334,44.250010550022125L95.66666666666667,88.49999472498894L95.9,81.12500175833702L96.13333333333333,162.25000351667404L96.36666666666667,110.625L96.6,14.750012308359146L96.83333333333333,206.49998769164085L97.06666666666666,95.87498769164085L97.3,14.750012308359146L97.53333333333333,44.250010550022125L97.76666666666667,110.625L98,44.250010550022125L98.23333333333333,29.49999824166298L98.46666666666667,132.75000527501106L98.69999999999999,29.49999824166298L98.93333333333334,36.874991208314896L99.16666666666667,58.99999648332596L99.39999999999999,110.625L99.63333333333334,73.7500087916851L99.86666666666667,169.62499648332596L100.1,36.874991208314896L100.33333333333333,44.250010550022125L100.56666666666668,73.7500087916851L100.8,169.62499648332596L101.03333333333333,154.87501055002213L101.26666666666668,117.99999296665192L101.5,132.75000527501106L101.73333333333333,36.874991208314896L101.96666666666667,162.25000351667404L102.2,140.12499824166298L102.43333333333334,140.12499824166298L102.66666666666666,29.49999824166298L102.89999999999999,44.250010550022125L103.13333333333334,14.750012308359146L103.36666666666666,51.62500351667404L103.6,110.625L103.83333333333334,44.250010550022125L104.06666666666666,44.250010550022125L104.3,36.874991208314896L104.53333333333333,132.75000527501106L104.76666666666667,162.25000351667404L105,103.25000703334808L105.23333333333333,51.62500351667404L105.46666666666667,29.49999824166298L105.7,103.25000703334808L105.93333333333334,73.7500087916851L106.16666666666666,29.49999824166298L106.4,73.7500087916851L106.63333333333334,73.7500087916851L106.86666666666666,88.49999472498894L107.10000000000001,81.12500175833702L107.33333333333334,14.750012308359146L107.56666666666666,147.4999912083149L107.8,154.87501055002213L108.03333333333333,73.7500087916851L108.26666666666667,73.7500087916851L108.5,36.874991208314896L108.73333333333332,51.62500351667404L108.96666666666667,36.874991208314896L109.2,36.874991208314896L109.43333333333332,29.49999824166298L109.66666666666667,51.62500351667404L109.9,36.874991208314896L110.13333333333333,154.87501055002213L110.36666666666666,51.62500351667404L110.60000000000001,132.75000527501106L110.83333333333333,73.7500087916851L111.06666666666666,132.75000527501106L111.30000000000001,147.4999912083149L111.53333333333333,73.7500087916851L111.76666666666667,36.874991208314896L112,169.62499648332596L112.23333333333333,44.250010550022125L112.46666666666667,29.49999824166298L112.7,169.62499648332596L112.93333333333334,66.37498944997787L113.16666666666667,58.99999648332596L113.4,66.37498944997787L113.63333333333333,36.874991208314896L113.86666666666667,117.99999296665192L114.1,29.49999824166298L114.33333333333333,22.125005275011063L114.56666666666666,66.37498944997787L114.8,36.874991208314896L115.03333333333333,132.75000527501106L115.26666666666667,117.99999296665192L115.5,73.7500087916851L115.73333333333333,51.62500351667404L115.96666666666667,81.12500175833702L116.19999999999999,147.4999912083149L116.43333333333334,51.62500351667404L116.66666666666667,88.49999472498894L116.89999999999999,29.49999824166298L117.13333333333334,73.7500087916851L117.36666666666667,88.49999472498894L117.6,44.250010550022125L117.83333333333333,29.49999824166298L118.06666666666668,66.37498944997787L118.3,36.874991208314896L118.53333333333333,58.99999648332596L118.76666666666668,103.25000703334808L119,36.874991208314896L119.23333333333333,29.49999824166298L119.46666666666667,29.49999824166298L119.7,36.874991208314896L119.93333333333334,147.4999912083149L120.16666666666666,95.87498769164085L120.39999999999999,81.12500175833702L120.63333333333334,44.250010550022125L120.86666666666666,95.87498769164085L121.1,81.12500175833702L121.33333333333334,36.874991208314896L121.56666666666666,0L121.8,73.7500087916851L122.03333333333333,22.125005275011063L122.26666666666667,103.25000703334808L122.5,88.49999472498894L122.73333333333333,44.250010550022125L122.96666666666667,191.75000175833702L123.2,73.7500087916851L123.43333333333334,44.250010550022125L123.66666666666666,66.37498944997787L123.9,29.49999824166298L124.13333333333334,58.99999648332596L124.36666666666666,29.49999824166298L124.60000000000001,29.49999824166298L124.83333333333334,66.37498944997787L125.06666666666666,66.37498944997787L125.3,44.250010550022125L125.53333333333333,132.75000527501106L125.76666666666667,228.62500615417957L126,110.625L126.23333333333332,125.37501230835915L126.46666666666667,0L126.7,36.874991208314896L126.93333333333332,36.874991208314896L127.16666666666667,176.99998944997787L127.4,81.12500175833702L127.63333333333333,58.99999648332596L127.86666666666666,22.125005275011063L128.1,169.62499648332596L128.33333333333331,66.37498944997787L128.56666666666666,36.874991208314896L128.8,44.250010550022125L129.03333333333333,51.62500351667404L129.26666666666668,14.750012308359146L129.5,95.87498769164085L129.73333333333332,73.7500087916851L129.96666666666667,29.49999824166298L130.20000000000002,44.250010550022125L130.43333333333334,184.3750087916851L130.66666666666666,0L130.9,44.250010550022125L131.13333333333333,95.87498769164085L131.36666666666667,22.125005275011063L131.6,95.87498769164085L131.83333333333334,29.49999824166298L132.06666666666666,22.125005275011063L132.29999999999998,7.3749929666519165L132.53333333333333,51.62500351667404L132.76666666666668,51.62500351667404L133,7.3749929666519165L133.23333333333332,88.49999472498894L133.46666666666667,103.25000703334808L133.7,51.62500351667404L133.93333333333334,7.3749929666519165L134.16666666666669,66.37498944997787L134.4,36.874991208314896L134.63333333333333,58.99999648332596L134.86666666666667,14.750012308359146L135.1,147.4999912083149L135.33333333333334,44.250010550022125L135.56666666666666,88.49999472498894L135.79999999999998,66.37498944997787L136.03333333333333,95.87498769164085L136.26666666666668,95.87498769164085L136.5,191.75000175833702L136.73333333333335,81.12500175833702L136.96666666666667,117.99999296665192L137.2,51.62500351667404L137.43333333333334,132.75000527501106L137.66666666666666,7.3749929666519165L137.9,73.7500087916851L138.13333333333333,51.62500351667404L138.36666666666667,29.49999824166298L138.6,36.874991208314896L138.83333333333334,22.125005275011063L139.06666666666666,58.99999648332596L139.3,29.49999824166298L139.53333333333333,44.250010550022125L139.76666666666665,117.99999296665192L140,88.49999472498894L140.23333333333335,88.49999472498894L140.46666666666667,147.4999912083149L140.7,95.87498769164085L140.93333333333334,103.25000703334808L141.16666666666666,110.625L141.4,7.3749929666519165L141.63333333333333,51.62500351667404L141.86666666666667,117.99999296665192L142.1,51.62500351667404L142.33333333333331,132.75000527501106L142.56666666666666,73.7500087916851L142.8,22.125005275011063L143.03333333333333,29.49999824166298L143.26666666666668,103.25000703334808L143.5,29.49999824166298L143.73333333333332,22.125005275011063L143.96666666666667,132.75000527501106L144.20000000000002,81.12500175833702L144.43333333333334,73.7500087916851L144.66666666666669,66.37498944997787L144.89999999999998,29.49999824166298L145.13333333333333,44.250010550022125L145.36666666666667,29.49999824166298L145.6,95.87498769164085L145.83333333333334,117.99999296665192L146.06666666666666,22.125005275011063L146.29999999999998,103.25000703334808L146.53333333333333,73.7500087916851L146.76666666666668,81.12500175833702L147,221.25L147.23333333333335,88.49999472498894L147.46666666666664,66.37498944997787L147.7,191.75000175833702L147.93333333333334,95.87498769164085L148.16666666666666,176.99998944997787L148.4,36.874991208314896L148.63333333333335,44.250010550022125L148.86666666666665,58.99999648332596L149.1,29.49999824166298L149.33333333333334,169.62499648332596L149.56666666666666,110.625L149.8,81.12500175833702L150.03333333333336,14.750012308359146L150.26666666666665,36.874991208314896L150.5,22.125005275011063L150.73333333333332,36.874991208314896L150.96666666666667,58.99999648332596L151.20000000000002,51.62500351667404L151.43333333333334,58.99999648332596L151.66666666666666,88.49999472498894L151.9,73.7500087916851L152.13333333333333,66.37498944997787L152.36666666666667,7.3749929666519165L152.60000000000002,103.25000703334808L152.83333333333331,22.125005275011063L153.06666666666666,44.250010550022125L153.29999999999998,36.874991208314896L153.53333333333333,66.37498944997787L153.76666666666668,51.62500351667404L154,22.125005275011063L154.23333333333332,140.12499824166298L154.46666666666667,22.125005275011063L154.7,36.874991208314896L154.93333333333334,51.62500351667404L155.16666666666669,58.99999648332596L155.4,0L155.63333333333333,95.87498769164085L155.86666666666667,36.874991208314896L156.1,44.250010550022125L156.33333333333334,36.874991208314896L156.56666666666666,125.37501230835915L156.8,88.49999472498894L157.03333333333333,7.3749929666519165L157.26666666666665,22.125005275011063L157.5,66.37498944997787L157.73333333333335,0L157.96666666666667,44.250010550022125L158.2,14.750012308359146L158.43333333333334,44.250010550022125L158.66666666666666,36.874991208314896L158.9,22.125005275011063L159.13333333333333,36.874991208314896L159.36666666666667,125.37501230835915L159.6,66.37498944997787L159.83333333333331,29.49999824166298L160.06666666666666,29.49999824166298L160.3,36.874991208314896L160.53333333333333,14.750012308359146L160.76666666666668,29.49999824166298L161,36.874991208314896L161.23333333333332,66.37498944997787L161.46666666666667,29.49999824166298L161.70000000000002,103.25000703334808L161.93333333333334,51.62500351667404L162.16666666666669,51.62500351667404L162.39999999999998,110.625L162.63333333333333,14.750012308359146L162.86666666666667,7.3749929666519165L163.1,81.12500175833702L163.33333333333334,0L163.56666666666666,7.3749929666519165L163.79999999999998,169.62499648332596L164.03333333333333,66.37498944997787L164.26666666666668,36.874991208314896L164.5,132.75000527501106L164.73333333333335,7.3749929666519165L164.96666666666664,125.37501230835915L165.2,66.37498944997787L165.43333333333334,29.49999824166298L165.66666666666666,132.75000527501106L165.9,51.62500351667404L166.13333333333335,103.25000703334808L166.36666666666665,81.12500175833702L166.6,81.12500175833702L166.83333333333334,51.62500351667404L167.06666666666666,14.750012308359146L167.3,103.25000703334808L167.53333333333336,44.250010550022125L167.76666666666665,36.874991208314896L168,58.99999648332596L168.23333333333332,147.4999912083149L168.46666666666667,44.250010550022125L168.70000000000002,73.7500087916851L168.93333333333334,44.250010550022125L169.16666666666666,73.7500087916851L169.4,7.3749929666519165L169.63333333333333,7.3749929666519165L169.86666666666667,14.750012308359146L170.10000000000002,95.87498769164085L170.33333333333331,36.874991208314896L170.56666666666666,22.125005275011063L170.79999999999998,125.37501230835915L171.03333333333333,51.62500351667404L171.26666666666668,73.7500087916851L171.5,88.49999472498894L171.73333333333332,36.874991208314896L171.96666666666667,36.874991208314896L172.2,95.87498769164085L172.43333333333334,110.625L172.66666666666669,7.3749929666519165L172.9,29.49999824166298L173.13333333333333,73.7500087916851L173.36666666666667,81.12500175833702L173.6,95.87498769164085L173.83333333333334,110.625L174.06666666666666,58.99999648332596L174.3,81.12500175833702L174.53333333333333,14.750012308359146L174.76666666666665,95.87498769164085L175,162.25000351667404L175.23333333333335,22.125005275011063L175.46666666666667,132.75000527501106L175.7,44.250010550022125L175.93333333333334,81.12500175833702L176.16666666666666,29.49999824166298L176.4,14.750012308359146L176.63333333333333,22.125005275011063L176.86666666666667,44.250010550022125L177.1,29.49999824166298L177.33333333333331,95.87498769164085L177.56666666666666,162.25000351667404L177.8,88.49999472498894L178.03333333333333,22.125005275011063L178.26666666666668,66.37498944997787L178.5,66.37498944997787L178.73333333333332,66.37498944997787L178.96666666666667,44.250010550022125L179.20000000000002,7.3749929666519165L179.43333333333334,0L179.66666666666669,88.49999472498894L179.89999999999998,95.87498769164085L180.13333333333333,0L180.36666666666667,66.37498944997787L180.6,51.62500351667404L180.83333333333334,95.87498769164085L181.06666666666666,7.3749929666519165L181.29999999999998,73.7500087916851L181.53333333333333,36.874991208314896L181.76666666666668,88.49999472498894L182,88.49999472498894L182.23333333333335,29.49999824166298L182.46666666666664,103.25000703334808L182.7,88.49999472498894L182.93333333333334,51.62500351667404L183.16666666666666,0L183.4,103.25000703334808L183.63333333333335,132.75000527501106L183.86666666666665,66.37498944997787L184.1,22.125005275011063L184.33333333333334,22.125005275011063L184.56666666666666,29.49999824166298L184.8,14.750012308359146L185.03333333333336,14.750012308359146L185.26666666666665,36.874991208314896L185.5,81.12500175833702L185.73333333333332,117.99999296665192L185.96666666666667,36.874991208314896L186.20000000000002,66.37498944997787L186.43333333333334,73.7500087916851L186.66666666666666,73.7500087916851L186.9,36.874991208314896L187.13333333333333,7.3749929666519165L187.36666666666667,7.3749929666519165L187.60000000000002,7.3749929666519165L187.83333333333331,36.874991208314896L188.06666666666666,29.49999824166298L188.29999999999998,44.250010550022125L188.53333333333333,29.49999824166298L188.76666666666668,58.99999648332596L189,36.874991208314896L189.23333333333332,44.250010550022125L189.46666666666667,14.750012308359146L189.7,51.62500351667404L189.93333333333334,66.37498944997787L190.16666666666669,81.12500175833702L190.4,44.250010550022125L190.63333333333333,117.99999296665192L190.86666666666667,0L191.1,22.125005275011063L191.33333333333334,14.750012308359146L191.56666666666666,125.37501230835915L191.8,81.12500175833702L192.03333333333333,140.12499824166298L192.26666666666665,29.49999824166298L192.5,14.750012308359146L192.73333333333335,29.49999824166298L192.96666666666667,58.99999648332596L193.2,22.125005275011063L193.43333333333334,7.3749929666519165L193.66666666666666,73.7500087916851L193.9,66.37498944997787L194.13333333333333,36.874991208314896L194.36666666666667,44.250010550022125L194.6,44.250010550022125L194.83333333333331,110.625L195.06666666666666,51.62500351667404L195.3,51.62500351667404L195.53333333333333,154.87501055002213L195.76666666666668,132.75000527501106L196,29.49999824166298L196.23333333333332,44.250010550022125L196.46666666666667,29.49999824166298L196.70000000000002,44.250010550022125L196.93333333333334,95.87498769164085L197.16666666666669,95.87498769164085L197.39999999999998,88.49999472498894L197.63333333333333,14.750012308359146L197.86666666666667,73.7500087916851L198.1,81.12500175833702L198.33333333333334,22.125005275011063L198.56666666666666,110.625L198.79999999999998,36.874991208314896L199.03333333333333,22.125005275011063L199.26666666666668,58.99999648332596L199.5,132.75000527501106L199.73333333333335,29.49999824166298L199.96666666666664,88.49999472498894L200.2,44.250010550022125L200.43333333333334,29.49999824166298L200.66666666666666,110.625L200.9,44.250010550022125L201.13333333333335,58.99999648332596L201.36666666666665,29.49999824166298L201.6,29.49999824166298L201.83333333333334,36.874991208314896L202.06666666666666,0L202.3,95.87498769164085L202.53333333333336,29.49999824166298L202.76666666666665,44.250010550022125L203,103.25000703334808L203.23333333333332,117.99999296665192L203.46666666666667,58.99999648332596L203.70000000000002,22.125005275011063L203.93333333333334,7.3749929666519165L204.16666666666666,7.3749929666519165L204.4,51.62500351667404L204.63333333333333,44.250010550022125L204.86666666666667,51.62500351667404L205.10000000000002,103.25000703334808L205.33333333333331,81.12500175833702L205.56666666666666,88.49999472498894L205.79999999999998,14.750012308359146L206.03333333333333,125.37501230835915L206.26666666666668,132.75000527501106L206.5,73.7500087916851L206.73333333333332,22.125005275011063L206.96666666666667,0L207.2,51.62500351667404L207.43333333333334,7.3749929666519165L207.66666666666669,7.3749929666519165L207.9,36.874991208314896L208.13333333333333,81.12500175833702L208.36666666666667,73.7500087916851L208.6,66.37498944997787L208.83333333333334,66.37498944997787L209.06666666666666,58.99999648332596L209.3,110.625L209.53333333333333,7.3749929666519165L209.76666666666665,58.99999648332596L210,7.3749929666519165L210.23333333333335,7.3749929666519165L210.46666666666667,51.62500351667404L210.7,58.99999648332596L210.93333333333334,44.250010550022125L211.16666666666666,36.874991208314896L211.4,36.874991208314896L211.63333333333333,36.874991208314896L211.86666666666667,36.874991208314896L212.1,14.750012308359146L212.33333333333331,7.3749929666519165L212.56666666666666,14.750012308359146L212.8,22.125005275011063L213.03333333333333,88.49999472498894L213.26666666666668,88.49999472498894L213.5,44.250010550022125L213.73333333333332,22.125005275011063L213.96666666666667,58.99999648332596L214.20000000000002,88.49999472498894L214.43333333333334,22.125005275011063L214.66666666666669,73.7500087916851L214.89999999999998,73.7500087916851L215.13333333333333,110.625L215.36666666666667,81.12500175833702L215.6,44.250010550022125L215.83333333333334,51.62500351667404L216.06666666666666,36.874991208314896L216.29999999999998,81.12500175833702L216.53333333333333,44.250010550022125L216.76666666666668,29.49999824166298L217,14.750012308359146L217.23333333333335,88.49999472498894L217.46666666666664,29.49999824166298L217.7,58.99999648332596L217.93333333333334,29.49999824166298L218.16666666666666,95.87498769164085L218.4,58.99999648332596L218.63333333333335,44.250010550022125L218.86666666666665,73.7500087916851L219.1,29.49999824166298L219.33333333333334,58.99999648332596L219.56666666666666,7.3749929666519165L219.8,81.12500175833702L220.03333333333336,58.99999648332596L220.26666666666665,66.37498944997787L220.5,22.125005275011063L220.73333333333332,125.37501230835915L220.96666666666667,140.12499824166298L221.20000000000002,66.37498944997787L221.43333333333334,95.87498769164085L221.66666666666666,14.750012308359146L221.9,73.7500087916851L222.13333333333333,66.37498944997787L222.36666666666667,22.125005275011063L222.60000000000002,36.874991208314896L222.83333333333331,22.125005275011063L223.06666666666666,95.87498769164085L223.29999999999998,66.37498944997787L223.53333333333333,110.625L223.76666666666668,29.49999824166298L224,51.62500351667404L224.23333333333332,36.874991208314896L224.46666666666667,29.49999824166298L224.7,58.99999648332596L224.93333333333334,22.125005275011063L225.16666666666669,73.7500087916851L225.4,22.125005275011063L225.63333333333333,103.25000703334808L225.86666666666667,140.12499824166298L226.1,110.625L226.33333333333334,51.62500351667404L226.56666666666666,22.125005275011063L226.8,103.25000703334808L227.03333333333333,81.12500175833702L227.26666666666665,51.62500351667404L227.5,22.125005275011063L227.73333333333335,29.49999824166298L227.96666666666667,88.49999472498894L228.2,51.62500351667404L228.43333333333334,117.99999296665192L228.66666666666666,103.25000703334808L228.9,110.625L229.13333333333333,51.62500351667404L229.36666666666667,81.12500175833702L229.6,117.99999296665192L229.83333333333331,36.874991208314896L230.06666666666666,29.49999824166298L230.3,36.874991208314896L230.53333333333333,14.750012308359146L230.76666666666668,0L231,22.125005275011063L231.23333333333332,36.874991208314896L231.46666666666667,58.99999648332596L231.70000000000002,110.625L231.93333333333334,51.62500351667404L232.16666666666669,14.750012308359146L232.39999999999998,14.750012308359146L232.63333333333333,58.99999648332596L232.86666666666667,95.87498769164085L233.1,36.874991208314896L233.33333333333334,66.37498944997787L233.56666666666666,29.49999824166298L233.79999999999998,22.125005275011063L234.03333333333333,22.125005275011063L234.26666666666668,66.37498944997787L234.5,44.250010550022125L234.73333333333335,36.874991208314896L234.96666666666664,29.49999824166298L235.2,22.125005275011063L235.43333333333334,88.49999472498894L235.66666666666666,7.3749929666519165L235.9,44.250010550022125L236.13333333333335,36.874991208314896L236.36666666666665,36.874991208314896L236.6,44.250010550022125L236.83333333333334,95.87498769164085L237.06666666666666,7.3749929666519165L237.3,36.874991208314896L237.53333333333336,73.7500087916851L237.76666666666665,36.874991208314896L238,36.874991208314896L238.23333333333332,81.12500175833702L238.46666666666667,0L238.70000000000002,14.750012308359146L238.93333333333334,7.3749929666519165L239.16666666666666,29.49999824166298L239.4,184.3750087916851L239.63333333333333,14.750012308359146L239.86666666666667,36.874991208314896L240.10000000000002,44.250010550022125L240.33333333333331,103.25000703334808L240.56666666666666,51.62500351667404L240.79999999999998,58.99999648332596L241.03333333333333,36.874991208314896L241.26666666666668,0L241.5,66.37498944997787L241.73333333333332,58.99999648332596L241.96666666666667,36.874991208314896L242.2,22.125005275011063L242.43333333333334,103.25000703334808L242.66666666666669,51.62500351667404L242.9,22.125005275011063L243.13333333333333,44.250010550022125L243.36666666666667,14.750012308359146L243.6,36.874991208314896L243.83333333333334,44.250010550022125L244.06666666666666,29.49999824166298L244.3,14.750012308359146L244.53333333333333,36.874991208314896L244.76666666666665,51.62500351667404L245,58.99999648332596L245.23333333333335,66.37498944997787L245.46666666666667,14.750012308359146L245.7,7.3749929666519165L245.93333333333334,14.750012308359146L246.16666666666666,140.12499824166298L246.4,110.625L246.63333333333333,110.625L246.86666666666667,36.874991208314896L247.1,0L247.33333333333331,58.99999648332596L247.56666666666666,29.49999824166298L247.8,14.750012308359146L248.03333333333333,36.874991208314896L248.26666666666668,73.7500087916851L248.5,29.49999824166298L248.73333333333332,0L248.96666666666667,44.250010550022125L249.20000000000002,0L249.43333333333334,154.87501055002213L249.66666666666669,7.3749929666519165L249.89999999999998,36.874991208314896L250.13333333333333,103.25000703334808L250.36666666666667,36.874991208314896L250.6,58.99999648332596L250.83333333333334,14.750012308359146L251.06666666666666,44.250010550022125L251.29999999999998,22.125005275011063L251.53333333333333,22.125005275011063L251.76666666666668,125.37501230835915L252,0L252.23333333333335,7.3749929666519165L252.46666666666664,95.87498769164085L252.7,22.125005275011063L252.93333333333334,14.750012308359146L253.16666666666666,73.7500087916851L253.4,44.250010550022125L253.63333333333335,14.750012308359146L253.86666666666665,88.49999472498894L254.1,58.99999648332596L254.33333333333334,44.250010550022125L254.56666666666666,44.250010550022125L254.8,44.250010550022125L255.03333333333336,7.3749929666519165L255.26666666666665,95.87498769164085L255.5,95.87498769164085L255.73333333333332,51.62500351667404L255.96666666666667,29.49999824166298L256.2,36.874991208314896L256.43333333333334,0" style="fill: none;" fill="none"></path></g></g></g></g></g></g><g transform="translate(50, 177)" clip-path="url(#clip_1)"><clipPath id="clip_1"><rect width="280" height="23"></rect></clipPath><g><g><line x1="0" y1="0" x2="0" y2="5" style="visibility: inherit;" fill="rgb(0, 0, 0)" stroke="rgb(204, 204, 204)" stroke-width="1px"></line><line x1="23.333333333333332" y1="0" x2="23.333333333333332" y2="5" style="visibility: inherit;" fill="rgb(0, 0, 0)" stroke="rgb(204, 204, 204)" stroke-width="1px"></line><line x1="46.666666666666664" y1="0" x2="46.666666666666664" y2="5" style="visibility: inherit;" fill="rgb(0, 0, 0)" stroke="rgb(204, 204, 204)" stroke-width="1px"></line><line x1="70" y1="0" x2="70" y2="5" style="visibility: inherit;" fill="rgb(0, 0, 0)" stroke="rgb(204, 204, 204)" stroke-width="1px"></line><line x1="93.33333333333333" y1="0" x2="93.33333333333333" y2="5" style="visibility: inherit;" fill="rgb(0, 0, 0)" stroke="rgb(204, 204, 204)" stroke-width="1px"></line><line x1="116.66666666666667" y1="0" x2="116.66666666666667" y2="5" style="visibility: inherit;" fill="rgb(0, 0, 0)" stroke="rgb(204, 204, 204)" stroke-width="1px"></line><line x1="140" y1="0" x2="140" y2="5" style="visibility: inherit;" fill="rgb(0, 0, 0)" stroke="rgb(204, 204, 204)" stroke-width="1px"></line><line x1="163.33333333333334" y1="0" x2="163.33333333333334" y2="5" style="visibility: inherit;" fill="rgb(0, 0, 0)" stroke="rgb(204, 204, 204)" stroke-width="1px"></line><line x1="186.66666666666666" y1="0" x2="186.66666666666666" y2="5" style="visibility: inherit;" fill="rgb(0, 0, 0)" stroke="rgb(204, 204, 204)" stroke-width="1px"></line><line x1="210" y1="0" x2="210" y2="5" style="visibility: inherit;" fill="rgb(0, 0, 0)" stroke="rgb(204, 204, 204)" stroke-width="1px"></line><line x1="233.33333333333334" y1="0" x2="233.33333333333334" y2="5" style="visibility: inherit;" fill="rgb(0, 0, 0)" stroke="rgb(204, 204, 204)" stroke-width="1px"></line><line x1="256.66666666666663" y1="0" x2="256.66666666666663" y2="5" style="visibility: inherit;" fill="rgb(0, 0, 0)" stroke="rgb(204, 204, 204)" stroke-width="1px"></line><line x1="280" y1="0" x2="280" y2="5" style="visibility: inherit;" fill="rgb(0, 0, 0)" stroke="rgb(204, 204, 204)" stroke-width="1px"></line></g><g transform="translate(0, 8)"><text x="0" y="0" dx="0em" dy="0.95em" style="text-anchor: middle; visibility: hidden; font-family: Roboto, sans-serif; font-size: 12px; font-weight: 200;" fill="rgb(33, 33, 33)" stroke="none" stroke-width="1px">-100</text><text x="23.333333333333332" y="0" dx="0em" dy="0.95em" style="text-anchor: middle; visibility: inherit; font-family: Roboto, sans-serif; font-size: 12px; font-weight: 200;" fill="rgb(33, 33, 33)" stroke="none" stroke-width="1px">0</text><text x="46.666666666666664" y="0" dx="0em" dy="0.95em" style="text-anchor: middle; visibility: hidden; font-family: Roboto, sans-serif; font-size: 12px; font-weight: 200;" fill="rgb(33, 33, 33)" stroke="none" stroke-width="1px">100</text><text x="70" y="0" dx="0em" dy="0.95em" style="text-anchor: middle; visibility: inherit; font-family: Roboto, sans-serif; font-size: 12px; font-weight: 200;" fill="rgb(33, 33, 33)" stroke="none" stroke-width="1px">200</text><text x="93.33333333333333" y="0" dx="0em" dy="0.95em" style="text-anchor: middle; visibility: hidden; font-family: Roboto, sans-serif; font-size: 12px; font-weight: 200;" fill="rgb(33, 33, 33)" stroke="none" stroke-width="1px">300</text><text x="116.66666666666667" y="0" dx="0em" dy="0.95em" style="text-anchor: middle; visibility: inherit; font-family: Roboto, sans-serif; font-size: 12px; font-weight: 200;" fill="rgb(33, 33, 33)" stroke="none" stroke-width="1px">400</text><text x="140" y="0" dx="0em" dy="0.95em" style="text-anchor: middle; visibility: hidden; font-family: Roboto, sans-serif; font-size: 12px; font-weight: 200;" fill="rgb(33, 33, 33)" stroke="none" stroke-width="1px">500</text><text x="163.33333333333334" y="0" dx="0em" dy="0.95em" style="text-anchor: middle; visibility: inherit; font-family: Roboto, sans-serif; font-size: 12px; font-weight: 200;" fill="rgb(33, 33, 33)" stroke="none" stroke-width="1px">600</text><text x="186.66666666666666" y="0" dx="0em" dy="0.95em" style="text-anchor: middle; visibility: hidden; font-family: Roboto, sans-serif; font-size: 12px; font-weight: 200;" fill="rgb(33, 33, 33)" stroke="none" stroke-width="1px">700</text><text x="210" y="0" dx="0em" dy="0.95em" style="text-anchor: middle; visibility: inherit; font-family: Roboto, sans-serif; font-size: 12px; font-weight: 200;" fill="rgb(33, 33, 33)" stroke="none" stroke-width="1px">800</text><text x="233.33333333333334" y="0" dx="0em" dy="0.95em" style="text-anchor: middle; visibility: hidden; font-family: Roboto, sans-serif; font-size: 12px; font-weight: 200;" fill="rgb(33, 33, 33)" stroke="none" stroke-width="1px">900</text><text x="256.66666666666663" y="0" dx="0em" dy="0.95em" style="text-anchor: middle; visibility: inherit; font-family: Roboto, sans-serif; font-size: 12px; font-weight: 200;" fill="rgb(33, 33, 33)" stroke="none" stroke-width="1px">1k</text><text x="280" y="0" dx="0em" dy="0.95em" style="text-anchor: middle; visibility: hidden; font-family: Roboto, sans-serif; font-size: 12px; font-weight: 200;" fill="rgb(33, 33, 33)" stroke="none" stroke-width="1px">1.1k</text></g><line x1="0" y1="0" x2="280" y2="0" fill="rgb(0, 0, 0)" stroke="rgb(204, 204, 204)" stroke-width="1px"></line></g></g></g></g></svg>