<svg viewBox="0 0 330 200" xmlns="http://www.w3.org/2000/svg"><g><g><g><g><g><line x1="51.5625" y1="177" x2="46.5625" y2="177" style="visibility: inherit;" fill="rgb(0, 0, 0)" stroke="rgb(204, 204, 204)" stroke-width="1px"></line><line x1="51.5625" y1="164.35714285714286" x2="46.5625" y2="164.35714285714286" style="visibility: inherit;" fill="rgb(0, 0, 0)" stroke="rgb(204, 204, 204)" stroke-width="1px"></line><line x1="51.5625" y1="151.7142857142857" x2="46.5625" y2="151.7142857142857" style="visibility: inherit;" fill="rgb(0, 0, 0)" stroke="rgb(204, 204, 204)" stroke-width="1px"></line><line x1="51.5625" y1="139.07142857142856" x2="46.5625" y2="139.07142857142856" style="visibility: inherit;" fill="rgb(0, 0, 0)" stroke="rgb(204, 204, 204)" stroke-width="1px"></line><line x1="51.5625" y1="126.42857142857143" x2="46.5625" y2="126.42857142857143" style="visibility: inherit;" fill="rgb(0, 0, 0)" stroke="rgb(204, 204, 204)" stroke-width="1px"></line><line x1="51.5625" y1="113.78571428571428" x2="46.5625" y2="113.78571428571428" style="visibility: inherit;" fill="rgb(0, 0, 0)" stroke="rgb(204, 204, 204)" stroke-width="1px"></line><line x1="51.5625" y1="101.14285714285714" x2="46.5625" y2="101.14285714285714" style="visibility: inherit;" fill="rgb(0, 0, 0)" stroke="rgb(204, 204, 204)" stroke-width="1px"></line><line x1="51.5625" y1="88.5" x2="46.5625" y2="88.5" style="visibility: inherit;" fill="rgb(0, 0, 0)" stroke="rgb(204, 204, 204)" stroke-width="1px"></line><line x1="51.5625" y1="75.85714285714285" x2="46.5625" y2="75.85714285714285" style="visibility: inherit;" fill="rgb(0, 0, 0)" stroke="rgb(204, 204, 204)" stroke-width="1px"></line><line x1="51.5625" y1="63.21428571428572" x2="46.5625" y2="63.21428571428572" style="visibility: inherit;" fill="rgb(0, 0, 0)" stroke="rgb(204, 204, 204)" stroke-width="1px"></line><line x1="51.5625" y1="50.57142857142857" x2="46.5625" y2="50.57142857142857" style="visibility: inherit;" fill="rgb(0, 0, 0)" stroke="rgb(204, 204, 204)" stroke-width="1px"></line><line x1="51.5625" y1="37.92857142857143" x2="46.5625" y2="37.92857142857143" style="visibility: inherit;" fill="rgb(0, 0, 0)" stroke="rgb(204, 204, 204)" stroke-width="1px"></line><line x1="51.5625" y1="25.285714285714274" x2="46.5625" y2="25.285714285714274" style="visibility: inherit;" fill="rgb(0, 0, 0)" stroke="rgb(204, 204, 204)" stroke-width="1px"></line><line x1="51.5625" y1="12.642857142857117" x2="46.5625" y2="12.642857142857117" style="visibility: inherit;" fill="rgb(0, 0, 0)" stroke="rgb(204, 204, 204)" stroke-width="1px"></line><line x1="51.5625" y1="0" x2="46.5625" y2="0" style="visibility: inherit;" fill="rgb(0, 0, 0)" stroke="rgb(204, 204, 204)" stroke-width="1px"></line></g><g transform="translate(41.5625, 0)"><text x="0" y="177" dx="0em" dy="0.3em" style="text-anchor: end; visibility: hidden; font-family: Roboto, sans-serif; font-size: 12px; font-weight: 200;" fill="rgb(33, 33, 33)" stroke="none" stroke-width="1px">0.15</text><text x="0" y="164.35714285714286" dx="0em" dy="0.3em" style="text-anchor: end; visibility: inherit; font-family: Roboto, sans-serif; font-size: 12px; font-weight: 200;" fill="rgb(33, 33, 33)" stroke="none" stroke-width="1px">0.2</text><text x="0" y="151.7142857142857" dx="0em" dy="0.3em" style="text-anchor: end; visibility: hidden; font-family: Roboto, sans-serif; font-size: 12px; font-weight: 200;" fill="rgb(33, 33, 33)" stroke="none" stroke-width="1px">0.25</text><text x="0" y="139.07142857142856" dx="0em" dy="0.3em" style="text-anchor: end; visibility: inherit; font-family: Roboto, sans-serif; font-size: 12px; font-weight: 200;" fill="rgb(33, 33, 33)" stroke="none" stroke-width="1px">0.3</text><text x="0" y="126.42857142857143" dx="0em" dy="0.3em" style="text-anchor: end; visibility: hidden; font-family: Roboto, sans-serif; font-size: 12px; font-weight: 200;" fill="rgb(33, 33, 33)" stroke="none" stroke-width="1px">0.35</text><text x="0" y="113.78571428571428" dx="0em" dy="0.3em" style="text-anchor: end; visibility: inherit; font-family: Roboto, sans-serif; font-size: 12px; font-weight: 200;" fill="rgb(33, 33, 33)" stroke="none" stroke-width="1px">0.4</text><text x="0" y="101.14285714285714" dx="0em" dy="0.3em" style="text-anchor: end; visibility: hidden; font-family: Roboto, sans-serif; font-size: 12px; font-weight: 200;" fill="rgb(33, 33, 33)" stroke="none" stroke-width="1px">0.45</text><text x="0" y="88.5" dx="0em" dy="0.3em" style="text-anchor: end; visibility: inherit; font-family: Roboto, sans-serif; font-size: 12px; font-weight: 200;" fill="rgb(33, 33, 33)" stroke="none" stroke-width="1px">0.5</text><text x="0" y="75.85714285714285" dx="0em" dy="0.3em" style="text-anchor: end; visibility: hidden; font-family: Roboto, sans-serif; font-size: 12px; font-weight: 200;" fill="rgb(33, 33, 33)" stroke="none" stroke-width="1px">0.55</text><text x="0" y="63.21428571428572" dx="0em" dy="0.3em" style="text-anchor: end; visibility: inherit; font-family: Roboto, sans-serif; font-size: 12px; font-weight: 200;" fill="rgb(33, 33, 33)" stroke="none" stroke-width="1px">0.6</text><text x="0" y="50.57142857142857" dx="0em" dy="0.3em" style="text-anchor: end; visibility: hidden; font-family: Roboto, sans-serif; font-size: 12px; font-weight: 200;" fill="rgb(33, 33, 33)" stroke="none" stroke-width="1px">0.65</text><text x="0" y="37.92857142857143" dx="0em" dy="0.3em" style="text-anchor: end; visibility: inherit; font-family: Roboto, sans-serif; font-size: 12px; font-weight: 200;" fill="rgb(33, 33, 33)" stroke="none" stroke-width="1px">0.7</text><text x="0" y="25.285714285714274" dx="0em" dy="0.3em" style="text-anchor: end; visibility: hidden; font-family: Roboto, sans-serif; font-size: 12px; font-weight: 200;" fill="rgb(33, 33, 33)" stroke="none" stroke-width="1px">0.75</text><text x="0" y="12.642857142857117" dx="0em" dy="0.3em" style="text-anchor: end; visibility: inherit; font-family: Roboto, sans-serif; font-size: 12px; font-weight: 200;" fill="rgb(33, 33, 33)" stroke="none" stroke-width="1px">0.8</text><text x="0" y="0" dx="0em" dy="0.3em" style="text-anchor: end; visibility: hidden; font-family: Roboto, sans-serif; font-size: 12px; font-weight: 200;" fill="rgb(33, 33, 33)" stroke="none" stroke-width="1px">0.85</text></g><line x1="51.5625" y1="0" x2="51.5625" y2="177" fill="rgb(0, 0, 0)" stroke="rgb(204, 204, 204)" stroke-width="1px"></line></g></g><g transform="translate(51, 0)" clip-path="url(#clip_0)"><clipPath id="clip_0"><rect width="278" height="177"></rect></clipPath><g><g><g><line x1="0" y1="0" x2="0" y2="177" fill="rgb(0, 0, 0)" stroke="rgb(66, 66, 66)" stroke-width="1px" opacity="0.25"></line><line x1="23.203125" y1="0" x2="23.203125" y2="177" fill="rgb(0, 0, 0)" stroke="rgb(66, 66, 66)" stroke-width="1px" opacity="0.25"></line><line x1="46.40625" y1="0" x2="46.40625" y2="177" fill="rgb(0, 0, 0)" stroke="rgb(66, 66, 66)" stroke-width="1px" opacity="0.25"></line><line x1="69.609375" y1="0" x2="69.609375" y2="177" fill="rgb(0, 0, 0)" stroke="rgb(66, 66, 66)" stroke-width="1px" opacity="0.25"></line><line x1="92.8125" y1="0" x2="92.8125" y2="177" fill="rgb(0, 0, 0)" stroke="rgb(66, 66, 66)" stroke-width="1px" opacity="0.25"></line><line x1="116.015625" y1="0" x2="116.015625" y2="177" fill="rgb(0, 0, 0)" stroke="rgb(66, 66, 66)" stroke-width="1px" opacity="0.25"></line><line x1="139.21875" y1="0" x2="139.21875" y2="177" fill="rgb(0, 0, 0)" stroke="rgb(66, 66, 66)" stroke-width="1px" opacity="0.25"></line><line x1="162.421875" y1="0" x2="162.421875" y2="177" fill="rgb(0, 0, 0)" stroke="rgb(66, 66, 66)" stroke-width="1px" opacity="0.25"></line><line x1="185.625" y1="0" x2="185.625" y2="177" fill="rgb(0, 0, 0)" stroke="rgb(66, 66, 66)" stroke-width="1px" opacity="0.25"></line><line x1="208.828125" y1="0" x2="208.828125" y2="177" fill="rgb(0, 0, 0)" stroke="rgb(66, 66, 66)" stroke-width="1px" opacity="0.25"></line><line x1="232.03125" y1="0" x2="232.03125" y2="177" fill="rgb(0, 0, 0)" stroke="rgb(66, 66, 66)" stroke-width="1px" opacity="0.25"></line><line x1="255.234375" y1="0" x2="255.234375" y2="177" fill="rgb(0, 0, 0)" stroke="rgb(66, 66, 66)" stroke-width="1px" opacity="0.25"></line><line x1="278.4375" y1="0" x2="278.4375" y2="177" fill="rgb(0, 0, 0)" stroke="rgb(66, 66, 66)" stroke-width="1px" opacity="0.25"></line></g><g><line x1="0" y1="177" x2="278.4375" y2="177" fill="rgb(0, 0, 0)" stroke="rgb(66, 66, 66)" stroke-width="1px" opacity="0.25"></line><line x1="0" y1="164.35714285714286" x2="278.4375" y2="164.35714285714286" fill="rgb(0, 0, 0)" stroke="rgb(66, 66, 66)" stroke-width="1px" opacity="0.25"></line><line x1="0" y1="151.7142857142857" x2="278.4375" y2="151.7142857142857" fill="rgb(0, 0, 0)" stroke="rgb(66, 66, 66)" stroke-width="1px" opacity="0.25"></line><line x1="0" y1="139.07142857142856" x2="278.4375" y2="139.07142857142856" fill="rgb(0, 0, 0)" stroke="rgb(66, 66, 66)" stroke-width="1px" opacity="0.25"></line><line x1="0" y1="126.42857142857143" x2="278.4375" y2="126.42857142857143" fill="rgb(0, 0, 0)" stroke="rgb(66, 66, 66)" stroke-width="1px" opacity="0.25"></line><line x1="0" y1="113.78571428571428" x2="278.4375" y2="113.78571428571428" fill="rgb(0, 0, 0)" stroke="rgb(66, 66, 66)" stroke-width="1px" opacity="0.25"></line><line x1="0" y1="101.14285714285714" x2="278.4375" y2="101.14285714285714" fill="rgb(0, 0, 0)" stroke="rgb(66, 66, 66)" stroke-width="1px" opacity="0.25"></line><line x1="0" y1="88.5" x2="278.4375" y2="88.5" fill="rgb(0, 0, 0)" stroke="rgb(66, 66, 66)" stroke-width="1px" opacity="0.25"></line><line x1="0" y1="75.85714285714285" x2="278.4375" y2="75.85714285714285" fill="rgb(0, 0, 0)" stroke="rgb(66, 66, 66)" stroke-width="1px" opacity="0.25"></line><line x1="0" y1="63.21428571428572" x2="278.4375" y2="63.21428571428572" fill="rgb(0, 0, 0)" stroke="rgb(66, 66, 66)" stroke-width="1px" opacity="0.25"></line><line x1="0" y1="50.57142857142857" x2="278.4375" y2="50.57142857142857" fill="rgb(0, 0, 0)" stroke="rgb(66, 66, 66)" stroke-width="1px" opacity="0.25"></line><line x1="0" y1="37.92857142857143" x2="278.4375" y2="37.92857142857143" fill="rgb(0, 0, 0)" stroke="rgb(66, 66, 66)" stroke-width="1px" opacity="0.25"></line><line x1="0" y1="25.285714285714274" x2="278.4375" y2="25.285714285714274" fill="rgb(0, 0, 0)" stroke="rgb(66, 66, 66)" stroke-width="1px" opacity="0.25"></line><line x1="0" y1="12.642857142857117" x2="278.4375" y2="12.642857142857117" fill="rgb(0, 0, 0)" stroke="rgb(66, 66, 66)" stroke-width="1px" opacity="0.25"></line><line x1="0" y1="0" x2="278.4375" y2="0" fill="rgb(0, 0, 0)" stroke="rgb(66, 66, 66)" stroke-width="1px" opacity="0.25"></line></g></g></g><g><g><line x1="0" y1="214.92857142857144" x2="278.4375" y2="214.92857142857144" fill="rgb(0, 0, 0)" stroke="rgb(153, 153, 153)" stroke-width="1.5px"></line></g></g><g><g><line x1="23.203125" y1="0" x2="23.203125" y2="177" fill="rgb(0, 0, 0)" stroke="rgb(153, 153, 153)" stroke-width="1.5px"></line></g></g><g><g><g><g><g><path stroke="rgb(255, 112, 67)" stroke-width="2px" d="M28.07578125,-38.17615100507716L28.3078125,0.18260990725642878L28.53984375,7.28276821957386L28.771875,-29.528547397003774L29.46796875,-10.680251993489385L29.700000000000003,0.3397169471672754L29.932031249999998,-41.6281526215332L30.1640625,-4.268202370452835L30.39609375,22.418208932930387L30.628125,5.0117544472909215L30.860156250000003,15.511913411241823L31.092187499999998,13.64457921385435L31.32421875,-11.422912837993003L31.55625,18.957246946821048L31.78828125,-5.202837784023373L32.0203125,-1.6145831702976243L32.25234375,22.80443246127623L32.484375,43.53155736604228L32.71640625,25.728786152848883L32.9484375,11.624527451644477L33.18046875,-10.385570408959936L33.4125,-4.252480020432065L33.64453125,15.162756327395956L33.8765625,10.495408744742713L34.10859375,2.303330002150489L34.340625,-19.84649367315884L34.57265625,8.26659520863094L34.8046875,24.47602467101175L35.03671875,29.510762710696223L35.268750000000004,17.009255495669507L35.50078125,63.230242416652885L35.7328125,65.44692784358487L35.96484375000001,41.02746995572975L36.196875,36.78706345727783L36.42890625,31.84496832949295L36.660937499999996,26.64516833802302L36.89296875,12.095955030969927L37.125,36.53280891673679L37.35703125,49.61625210887933L37.589062500000004,24.052872721746027L37.82109375,10.092346406899198L38.053124999999994,26.256593826707505L38.28515625,30.303290454240702L38.5171875,53.700508292559604L38.74921875,12.465235419980656L38.98125,49.37034077945641L39.21328125,15.394309589286387L39.4453125,20.538092586239593L39.67734375,6.598947679135051L39.909375000000004,16.892505690534595L40.14140625,-2.710091393712783L40.373437499999994,-18.105770551363488L40.60546875,22.165555839674887L40.8375,40.59306424639571L41.06953125,33.068797980439335L41.3015625,32.856392557522376L41.53359375,13.563447538929749L41.765625,12.865597340670895L41.997656250000006,27.237361125644114L42.229687500000004,46.826986538297135L42.461718749999996,62.87338493112866L42.693749999999994,66.81610038698487L42.92578125,67.57363500232817L43.1578125,86.201985599524L43.38984375,71.8532355115655L43.621875,55.126237777308916L43.85390625,2.039745452749184L44.0859375,10.576409331324477L44.317968750000006,10.025305075265617L44.550000000000004,15.781842516126268L44.782031249999996,36.27865655114261L45.014062499999994,19.726998097751856L45.24609375,29.795933169073745L45.478125,27.471711439203222L45.71015625,50.29615282128343L45.9421875,54.22906303556529L46.17421875,23.846152354191354L46.40625,59.87898281492286L46.638281250000006,22.111253131238424L46.8703125,35.664494667875324L47.102343749999996,36.92011602614546L47.334375,52.83363552030456L47.56640625,46.37469299006098L47.7984375,71.86615805930192L48.03046875,41.32801532382971L48.2625,32.01434820502694L48.49453125,80.18922044146731L48.7265625,89.59602694950847L48.958593750000006,49.833234613875355L49.190625,86.27872306450595L49.422656249999996,64.57742397820161L49.6546875,67.50577008881437L49.88671875,74.24574611962512L50.11875,72.19173454954343L50.350781250000004,65.01545719930003L50.5828125,76.96711512667731L50.81484375,73.03764487491298L51.04687499999999,55.586034012099454L51.27890625,77.44397655093861L51.5109375,84.9387091166201L51.742968749999996,65.59484377218111L51.975,69.64835043548666L52.20703125,67.1009404476999L52.4390625,87.48993934831988L52.671093750000004,43.03731925103817L52.903125,64.11605764771895L53.13515625,74.10021888649274L53.36718750000001,11.755470275922026L53.59921875,-32.367076860129494L53.83125,-25.6805050563657L54.063281249999996,23.66326743753545L54.2953125,22.391834692224926L54.52734375,20.55258341622824L54.759375,16.406358041037254L54.991406250000004,34.084821307972845L55.2234375,34.46928351523284L55.455468749999994,31.283417560213472L55.6875,45.22312537285902L55.91953125,34.01787679210096L56.1515625,52.124680973549864L56.38359375,56.18780927676994L56.615625,86.53424455926526L56.84765625,62.96502488633562L57.0796875,57.32415230994902L57.311718750000004,60.89982801801679L57.54375,60.87536517797797L57.775781249999994,7.047430018128833L58.0078125,24.50651446894178L58.23984375,8.369136441952492L58.471875,15.348347510988825L58.70390625,42.057271640868464L58.9359375,43.97113958168031L59.16796875,46.41537080677576L59.400000000000006,39.680659942376295L59.632031250000004,84.49248554773278L59.864062499999996,86.14637559249574L60.096093749999994,40.277105899505955L60.328125,22.952833754928797L60.56015625,49.51822929397508L60.7921875,67.07577671128254L61.02421875,93.07253816010626L61.25625,88.22318419045595L61.48828125,67.90165252139289L61.720312500000006,53.17583597945384L61.952343750000004,52.645498300220694L62.184374999999996,35.81467234853191L62.416406249999994,42.070754761647294L62.6484375,29.361462426701415L62.88046875,30.02359857794511L63.1125,28.687602062274788L63.34453125,43.07478660640959L63.5765625,60.05470889643679L63.80859375,94.57452494148778L64.040625,68.9502622363487L64.27265625,89.74722411413396L64.5046875,89.52007289550629L64.73671875000001,66.20233309162812L64.96875,53.62884052417287L65.20078125,72.13573677433497L65.4328125,96.0578017487277L65.66484375,65.5299293669551L65.896875,54.19711561294478L66.12890625,46.95092630986193L66.3609375,41.197256493761465L66.59296875,46.46263434353559L66.825,54.99173791497232L67.05703125000001,87.54448738015121L67.2890625,10.583443311465603L67.52109374999999,-1.024359690011442L67.753125,42.956448665003606L67.98515625,52.01744471066206L68.2171875,56.526110620593236L68.44921875,34.62171967021621L68.68125,41.045216419308495L68.91328125,48.68024345517701L69.1453125,83.65321782824297L69.37734375000001,69.14462103262825L69.609375,65.21677220268505L69.84140625,42.29733429536155L70.0734375,52.25523061692249L70.30546875,50.312882149199666L70.53750000000001,81.57673996413267L70.76953125,59.24854208747965L71.0015625,66.63954370025478L71.23359375000001,49.98364969460095L71.465625,84.05505987454781L71.69765625000001,62.553230502899446L71.92968750000001,51.39245247252259L72.16171874999999,67.80926349831678L72.39375,69.0811150665891L72.62578124999999,40.048027605420195L72.8578125,25.13072477700379L73.08984375,53.27387724302024L73.32187499999999,35.07150439353726L73.55390625,83.4853900275261L73.7859375,85.23804554267794L74.01796875,58.00783885416687L74.25,71.01281993583366L74.48203125,86.16639784316392L74.7140625,65.65725633704766L74.94609375,45.9994067570386L75.17812500000001,73.39529524143869L75.41015625,57.804935521120974L75.6421875,81.17889885422554L75.87421875000001,66.28760439857308L76.10624999999999,65.3441198271779L76.33828125,50.31889821815383L76.5703125,45.99449197572916L76.80234374999999,46.21592042178525L77.034375,85.08172781919946L77.26640625,58.80091322284816L77.4984375,55.68621143081628L77.73046875,64.60046548387993L77.9625,72.78692563873625L78.19453125,58.347040833332436L78.4265625,42.79545264832361L78.65859375,50.75118724767249L78.890625,45.46464536687917L79.12265625,38.2937192803692L79.3546875,48.7709548814169L79.58671875,29.690316643046494L79.81875000000001,31.69623825891442L80.05078125,73.7967319536255L80.2828125,80.37638130814965L80.51484375000001,113.87300596851787L80.74687499999999,82.31099036040541L80.97890625,107.32382578076505L81.2109375,71.48718144634033L81.44296874999999,78.63678819023767L81.675,111.70611282806942L81.90703125,84.12889844379207L82.1390625,84.9190112279225L82.37109375,113.30757836856654L82.603125,152.63963934715943L82.83515625,117.93760986545638L83.0671875,123.37723897860108L83.29921875000001,141.344442117861L83.53125,111.22725809646997L83.76328125,114.92477819173119L83.99531250000001,86.1631382209404L84.22734375,101.88094469237673L84.45937500000001,103.66265756257808L84.69140624999999,69.90057322347084L84.92343749999999,50.78899473696728L85.15546875,84.4586745187627L85.38749999999999,88.84438356156784L85.61953125,109.2537959565175L85.8515625,74.72869043559831L86.08359374999999,79.7791684721853L86.315625,108.70390133504033L86.54765625,99.61958229806399L86.7796875,68.1230661101551L87.01171875,100.30174414253128L87.24375,114.28638944247047L87.47578125,76.75744270642377L87.7078125,79.44086428669388L87.93984375000001,62.027882968792774L88.171875,115.21657670632996L88.40390625,103.30987515080996L88.63593750000001,137.60204952717098L88.86796875,102.33157690961181L89.10000000000001,98.09044669712709L89.33203125000001,94.45745541582438L89.56406249999999,76.07588315479204L89.79609375,72.18887071890975L90.02812499999999,100.92494414157818L90.26015625,107.80921851681815L90.4921875,66.430954501978L90.72421874999999,85.53963859095404L90.95625,119.85092798513992L91.18828125,139.56875357074375L91.4203125,138.38747363371496L91.65234375,137.14515186682763L91.884375,129.47135430518895L92.11640625,75.69083336558407L92.3484375,107.04786702817275L92.58046875000001,108.06815314444401L92.8125,98.54729382060894L93.04453125,99.54720267486614L93.27656250000001,85.91557205559891L93.50859374999999,82.80555980026261L93.740625,92.75028111622738L93.97265625,61.873359052285174L94.20468749999999,41.66837777883772L94.43671875,57.6231696702214L94.66875,70.60460925340826L94.90078125,99.0408067615383L95.1328125,102.56835101145397L95.36484375,82.17066011657478L95.596875,61.98200707845274L95.82890625,53.637650902345065L96.0609375,103.31320201047147L96.29296875,41.19583873307298L96.525,46.498051648897054L96.75703125,96.20354216770912L96.9890625,122.09080709588193L97.22109375000001,110.92672089423593L97.453125,128.4857104810655L97.68515625,141.12601450467162L97.91718750000001,111.85070293944932L98.14921874999999,135.1228626648128L98.38125,139.18251060891816L98.61328125,136.07172471467143L98.84531249999999,105.93175152649576L99.07734375,115.99033746205964L99.309375,78.95117143186704L99.54140625,108.24093703180503L99.7734375,124.05110397871023L100.00546875,122.56878020129015L100.2375,75.62672174004986L100.46953125,57.30604388049494L100.70156250000001,46.254822298559766L100.93359375,51.554795884465534L101.165625,95.25367428265535L101.39765625000001,81.07328615343374L101.6296875,63.320671745956474L101.86171875000001,59.123172579641334L102.09374999999999,101.51942394537978L102.32578124999999,104.72708147299525L102.5578125,136.02682451582436L102.78984374999999,127.24298171421064L103.021875,93.99073479306801L103.25390625,102.97281327598837L103.48593749999999,113.7216193056744L103.71796875,129.49966353038795L103.95,98.49932709848791L104.18203125,57.03291685633264L104.4140625,70.64709921118771L104.64609375,89.45043785577167L104.878125,119.09738904274876L105.11015625,106.72217536846367L105.34218750000001,101.42742518881133L105.57421875,124.89856850938641L105.80625,129.6008259150441L106.03828125000001,120.4161617368578L106.2703125,121.68057236731762L106.50234375000001,122.66014826606427L106.73437500000001,150.57841262576835L106.96640624999999,114.38414925975884L107.1984375,73.62295052877748L107.43046874999999,91.48379579467584L107.6625,97.56489451866582L107.89453125,119.67549714955997L108.12656249999999,128.14912685546977L108.35859375,126.05761670176973L108.590625,133.94875086182657L108.82265625,135.80455639178422L109.0546875,138.3022900270599L109.28671875,145.36725451035366L109.51875,87.02523517130227L109.75078125,106.1574922464821L109.98281250000001,81.44205364191305L110.21484375,86.37906174679006L110.446875,59.6228459849833L110.67890625000001,60.693345754692785L110.91093749999999,85.89708882616662L111.14296875,108.19884175430614L111.375,76.59934667910521L111.60703124999999,101.31728079076979L111.8390625,119.25778687944974L112.07109375,81.68032775151454L112.303125,99.54190196036788L112.53515625,117.47354543045284L112.7671875,113.41070897140322L112.99921875,136.09385015735245L113.23125,112.31499149389312L113.46328125,131.54442155864467L113.6953125,149.11498616384304L113.92734375,145.9468658308709L114.159375,121.26823964786249L114.39140625,97.40795129495177L114.62343750000001,88.49767593460527L114.85546875,96.83058199151986L115.0875,108.78804110293085L115.31953125000001,94.97419102501144L115.55156249999999,65.50548173068155L115.78359375,85.31568892304158L116.015625,89.33568961324724L116.24765624999999,112.39779693426152L116.4796875,118.95599518996495L116.71171875,112.31454107716606L116.94375,130.96593926028223L117.17578125,135.35430325417065L117.4078125,120.7709847019727L117.63984375,140.55865421198354L117.871875,137.959988004921L118.10390625000001,113.03222401556857L118.3359375,131.74654450018272L118.56796875,136.6145118730353L118.80000000000001,148.20775863442765L119.03203125,154.3063320146268L119.26406250000001,83.98040446880763L119.49609374999999,77.74102943344042L119.72812499999999,70.1843913013781L119.96015625,102.05149339016262L120.19218749999999,84.16664775152879L120.42421875,86.37066130942884L120.65625,109.22718983356228L120.88828124999999,145.69075077410128L121.1203125,129.6542799944955L121.35234375,145.40072602141709L121.584375,116.86573330228812L121.81640625,111.78380197597998L122.0484375,132.656553091487L122.28046875,72.1005622142694L122.5125,82.66161106279058L122.74453125000001,106.69539608593833L122.9765625,114.97571096612076L123.20859375,137.21157325042265L123.44062500000001,130.41898529625863L123.67265625,150.8535815258354L123.90468750000001,164.48887828551625L124.13671875000001,152.6896912139997L124.36874999999999,143.27843116672054L124.60078125,143.81808754091475L124.83281249999999,105.25796323333051L125.06484375,58.49457152672924L125.296875,52.928683301311075L125.52890624999999,50.24541599950699L125.7609375,113.45381247619267L125.99296875,132.56743088904136L126.225,141.50706306253312L126.45703125,90.43169344670522L126.6890625,98.73828372312329L126.92109375,114.82727859247514L127.153125,134.3243992795276L127.38515625000001,79.43398400790429L127.6171875,86.08263414291702L127.84921875,119.10312040049443L128.08125,119.41874670283305L128.31328125,120.9211360378556L128.5453125,149.32955792584121L128.77734375,123.10478347136863L129.009375,113.17366984159607L129.24140625,141.05644629231182L129.47343750000002,148.19519857748713L129.70546875,90.58388157341358L129.9375,138.5289926325205L130.16953125,144.832422773876L130.4015625,122.37500689420253L130.63359375,149.54457412187716L130.865625,129.30707016857286L131.09765625,138.69171763565092L131.3296875,153.6637971347925L131.56171874999998,171.76319687387345L131.79375,164.20014091027377L132.02578125,152.95000646952917L132.2578125,168.30460043388513L132.48984375,136.53102122840315L132.721875,112.78623883186L132.95390625,107.46435352547469L133.1859375,138.14467347663174L133.41796875,131.56073642373997L133.65,144.5348990356977L133.88203125,136.64983909106581L134.11406250000002,149.84272854961185L134.34609375,96.3865434527913L134.578125,120.49987346447908L134.81015625,118.16374950887631L135.04218749999998,128.27743332809473L135.27421875,107.03821050829875L135.50625,95.3430958151394L135.73828125,36.37445659055893L135.9703125,59.2095822456071L136.20234375,50.1488191173598L136.434375,83.41252511571881L136.66640625,76.73369716645755L136.8984375,122.77924790577408L137.13046875,117.58141659853646L137.3625,105.60398480730782L137.59453125,128.66237286845507L137.8265625,139.1080061255503L138.05859375,153.50385710520624L138.290625,147.77982754576337L138.52265625,151.89527090062154L138.75468750000002,150.5639848859703L138.98671875,120.08399504475227L139.21875,101.62603124070763L139.45078125,113.23706500583053L139.6828125,60.80377813575279L139.91484375,83.8263719446176L140.146875,79.62036082546196L140.37890625,86.64152797103094L140.6109375,132.49074324350795L140.84296875,138.85974960554387L141.07500000000002,109.53132001604457L141.30703125,116.2161931858069L141.5390625,88.28053480437181L141.77109375,111.06082164420015L142.003125,135.47145129119778L142.23515625000002,154.29600106318335L142.46718750000002,123.2643450962448L142.69921875,140.96716964643858L142.93125,156.00754672187708L143.16328125,102.91935115651314L143.39531250000002,102.86897815565737L143.62734375000002,98.24907875836178L143.85937500000003,98.38433637402906L144.09140624999998,124.297410017488L144.32343749999998,143.15278561146457L144.55546875,155.40700361270547L144.7875,140.0336232389483L145.01953125,113.51058206420551L145.25156249999998,136.27580762610253L145.48359374999998,106.01627545096014L145.715625,112.8724672145186L145.94765625,95.08433935493882L146.1796875,45.793450279026864L146.41171875,75.5881987555476L146.64374999999998,96.08636963883094L146.87578125,33.65721076525396L147.1078125,58.202828472495085L147.33984375,45.391422086058334L147.571875,82.97558829543317L147.80390625,104.82091248503859L148.0359375,108.07840137081553L148.26796875,133.16830950701276L148.5,98.6532437052627L148.73203125,90.16970249179515L148.9640625,92.80422559222544L149.19609375000002,123.00554436776191L149.428125,140.13181519025738L149.66015625,151.73078858733112L149.8921875,152.81285627838503L150.12421875,151.7012620288097L150.35625000000002,147.25089573030593L150.58828125000002,136.8806307742889L150.8203125,126.08338537734974L151.05234375,128.9281861343176L151.284375,139.62667712405184L151.51640625000002,163.86352285090857L151.74843750000002,130.07253849370687L151.98046874999997,153.07424489093154L152.21249999999998,148.5337169102484L152.44453124999998,159.9249845889771L152.6765625,148.38520722587575L152.90859375,148.99833388583804L153.140625,158.5920927015361L153.37265624999998,72.63129357279979L153.60468749999998,120.01116709579017L153.83671875,134.1188106917338L154.06875,139.10773426022678L154.30078125,132.13232125221478L154.5328125,157.95863623333958L154.76484374999998,143.716168294967L154.996875,148.10651125348852L155.22890625,139.28620684220172L155.4609375,148.54132310366327L155.69296875,128.95246934780891L155.925,118.73002559050994L156.15703125,144.62093145399055L156.3890625,165.2551597384396L156.62109375,146.5862461072588L156.853125,172.63523612849787L157.08515625,166.73116479518595L157.3171875,179.66703214595836L157.54921875,169.0128514140426L157.78125,138.25940595002726L158.01328125,152.05706378351135L158.2453125,148.69561560810752L158.47734375000002,105.46262259400574L158.709375,120.17457595366818L158.94140625,136.79310509502042L159.1734375,155.68316456298663L159.40546875,157.69504395071476L159.63750000000002,166.59302015526524L159.86953125000002,168.05986185070788L160.1015625,164.37856985192502L160.33359375,154.1187999754523L160.565625,167.71309189767175L160.79765625000002,129.8006955363016L161.02968750000002,133.7376999671427L161.26171875000003,138.99685128677038L161.49374999999998,121.85658027192274L161.72578124999998,143.9518522826452L161.9578125,167.95395191059228L162.18984375,133.21494674411844L162.421875,165.19986351550008L162.65390624999998,180.26138378002193L162.88593749999998,90.08812447762966L163.11796875,103.11136738797202L163.35,130.74699763943573L163.58203125,114.67192923974031L163.8140625,147.91511621190583L164.04609374999998,96.50339989218911L164.278125,98.70625259746532L164.51015625,122.65436909359349L164.7421875,100.58222218950439L164.97421875,112.57865927917527L165.20625,102.9876322951652L165.43828125,106.95085248476406L165.6703125,96.9992178984054L165.90234375,115.49663217538576L166.134375,141.54880719501452L166.36640625,122.69074701226668L166.59843750000002,132.14413887151517L166.83046875,138.15523361241736L167.0625,143.77797406361054L167.29453125,109.80136144001045L167.5265625,129.05497692557006L167.75859375000002,125.73988925194976L167.99062500000002,144.20234993818292L168.22265625,129.59555634265303L168.4546875,154.34184401957998L168.68671875,170.4811284806913L168.91875000000002,180.42517016075425L169.15078125000002,155.4227595467198L169.38281249999997,157.48122042734107L169.61484374999998,167.0645339848576L169.84687499999998,137.96248634997306L170.07890625,141.68714302812566L170.3109375,133.2376281995789L170.54296875,116.83099212692899L170.77499999999998,142.61124758646068L171.00703124999998,143.8527698764428L171.2390625,132.70569228227285L171.47109375,104.09366479061964L171.703125,144.65328544105842L171.93515625,153.5097873007232L172.16718749999998,144.73615344392246L172.39921875,113.70217258605695L172.63125,101.52485741216229L172.86328125,74.26586857801506L173.0953125,97.55067928140572L173.32734375,99.75089094684505L173.559375,136.07719406019098L173.79140625,119.87753845939731L174.0234375,79.2154586075271L174.25546875,113.5391078515536L174.4875,92.41277220986404L174.71953125,113.15626988240209L174.9515625,116.96421232734143L175.18359375,132.91632799284642L175.415625,151.47974748597733L175.64765625,164.41121778939734L175.87968750000002,155.0266463436246L176.11171875,163.81805952909096L176.34375,135.8425609585707L176.57578125,95.81320891226571L176.8078125,105.13044833636002L177.03984375000002,140.66372160781285L177.27187500000002,137.41722205765078L177.50390625,134.94910073655777L177.7359375,121.54356205007477L177.96796875,120.38126168318077L178.20000000000002,148.35800136555295L178.43203125000002,173.26676549635056L178.66406250000003,150.51293681591926L178.89609374999998,123.74453560089319L179.12812499999998,155.25574958922758L179.36015625,138.248929129512L179.5921875,144.15535364025797L179.82421875,124.07899591098322L180.05624999999998,157.1242599337362L180.28828124999998,131.15790715680325L180.5203125,139.9375977125003L180.75234375,125.68748679198231L180.984375,111.1135776494757L181.21640625,127.02706640434019L181.44843749999998,113.26950065263874L181.68046875,101.09995047686897L181.9125,107.02385470787864L182.14453125,147.4972623025871L182.3765625,123.4853873154817L182.60859375,92.04854320891488L182.840625,110.20709436949195L183.07265625,139.18327649211264L183.3046875,156.62490239009486L183.53671875,158.08670758337342L183.76875,162.99732640122852L184.00078125000002,173.71533607257126L184.2328125,163.6086965898863L184.46484375,145.59134491768344L184.696875,114.63749332718172L184.92890625,130.06341540170126L185.16093750000002,132.28317094825582L185.39296875000002,113.3864329532897L185.625,112.84563245716105L185.85703125,131.12408605166576L186.0890625,158.5564967301387L186.32109375000002,173.0135417789075L186.55312500000002,185.9485614062971L186.78515624999997,181.10774093126724L187.01718749999998,175.38247717345467L187.24921874999998,163.27034320020078L187.48125,169.08655369033454L187.71328125,149.10977082103514L187.9453125,151.79320242111186L188.17734374999998,150.87980158902076L188.40937499999998,169.40542792630032L188.64140625,154.43346108322726L188.8734375,125.54414957359661L189.10546875,107.29823895451565L189.3375,134.03406341169557L189.56953124999998,106.04609574850966L189.8015625,149.3106239716057L190.03359375,159.36371492112457L190.265625,170.48703880425305L190.49765625,123.2070489331757L190.7296875,118.28504136658333L190.96171875,94.27417653645479L191.19375,129.25966155777473L191.42578125,156.60695507164573L191.6578125,167.75107887919495L191.88984375,156.05209968835138L192.121875,159.82451819900967L192.35390625,175.95616441979587L192.5859375,147.83166216279955L192.81796875,141.14061985123263L193.05,146.48408111841061L193.28203125000002,145.8343056494628L193.5140625,150.5201087626597L193.74609375,128.37253969421954L193.978125,144.98957777753625L194.21015625,148.55954681221596L194.44218750000002,102.82519927083393L194.67421875000002,78.08986961944835L194.90625,120.77871865777249L195.13828125,132.6827942943884L195.3703125,152.5790438661762L195.60234375000002,163.38443712735616L195.83437500000002,136.21428862845138L196.06640625000003,122.68533313056967L196.29843749999998,114.25375003003052L196.53046874999998,145.00170035590511L196.7625,143.4691250256202L196.99453125,127.87114715849083L197.2265625,152.22951902400004L197.45859374999998,121.542223404266L197.69062499999998,129.68277170427552L197.92265625,151.28788123997225L198.1546875,140.75404695213285L198.38671875,103.83170111586634L198.61875,131.15124333183243L198.85078124999998,119.51033456492586L199.0828125,124.93129506415738L199.31484375,129.01203302906777L199.546875,105.80718367999604L199.77890625,124.01341695099273L200.0109375,116.29042083669083L200.24296875,139.09372961567016L200.475,151.97881293324332L200.70703125,167.97959799187007L200.9390625,184.32158553840122L201.17109375,136.0035091448595L201.40312500000002,147.03040889724141L201.63515625,144.68971711462595L201.8671875,106.05181128847684L202.09921875,93.89625234729613L202.33125,114.48598341540435L202.56328125000002,133.90180641648732L202.79531250000002,155.08675987180894L203.02734375,172.9141558286103L203.259375,152.32617647593247L203.49140625,138.8008714624943L203.72343750000002,142.33555038623223L203.95546875000002,114.48885410765703L204.18749999999997,109.95310522503449L204.41953124999998,106.67236003680533L204.65156249999998,138.10295895323117L204.88359375,94.95513672240693L205.115625,86.12925942476889L205.34765625,99.20436901548427L205.57968749999998,126.86755336769349L205.81171874999998,161.04005612976678L206.04375,160.83751409763207L206.27578125,173.92671377284083L206.5078125,186.54378672689987L206.73984375,182.78156560638593L206.97187499999998,151.60987169559797L207.20390625,129.68218381499562L207.4359375,129.83548804271834L207.66796875,120.91915935877415L207.9,126.40695677674174L208.13203125,107.56251777353842L208.3640625,140.03496242335925L208.59609375,129.6479910589971L208.828125,157.71085935953707L209.06015625,172.55618002573436L209.2921875,150.13412393324586L209.52421875,146.12153839073105L209.75625,141.5210021947202L209.98828125,146.43562112280844L210.2203125,154.16860294870295L210.45234375,155.87121464160705L210.68437500000002,158.09906515856588L210.91640625,169.58689146098072L211.1484375,178.97750995243962L211.38046875,180.93128427845886L211.6125,171.73617099257754L211.84453125000002,145.15016325007775L212.07656250000002,125.72278147240732L212.30859375,134.32431800459264L212.540625,154.19090521425952L212.77265625,138.6795053759955L213.00468750000002,130.4998057225619L213.23671875000002,149.39547033629177L213.46875000000003,143.57632365282052L213.70078124999998,147.3692385836922L213.93281249999998,129.93372861139588L214.16484375,118.25413018733119L214.396875,133.84087424609405L214.62890625,142.2805185964562L214.86093749999998,152.7998181049824L215.09296874999998,137.78661698829788L215.325,143.09290303768566L215.55703125,147.42661954323987L215.7890625,165.60001818837762L216.02109375,93.24035061045566L216.25312499999998,121.44865479342305L216.48515625,136.7958709443511L216.7171875,146.8407299749707L216.94921875,135.90531982037498L217.18125,131.23239204489462L217.41328125,134.81100690741445L217.6453125,125.37189134074427L217.87734375,145.6862403450627L218.109375,134.62935149062986L218.34140625,160.1540126491659L218.5734375,143.31191689136634L218.80546875000002,146.0139823816002L219.0375,145.21524554348386L219.26953125,151.75014194334813L219.5015625,105.20215371966096L219.73359375,88.60748466937721L219.96562500000002,94.62962919271236L220.19765625000002,90.27547589759632L220.4296875,128.05166677981123L220.66171875,120.31211505825738L220.89375,131.84522729385574L221.12578125000002,148.26749805627614L221.35781250000002,155.94885813008756L221.58984374999997,168.95131623802618L221.82187499999998,141.22659158741257L222.05390624999998,121.45953359965236L222.2859375,114.3599782052604L222.51796875,142.61225719486623L222.75,137.90205993196338L222.98203124999998,149.01202947206735L223.21406249999998,149.66002537535948L223.44609375,147.29089039061006L223.678125,166.10893808131112L223.91015625,148.88207272484715L224.1421875,159.89476125458623L224.37421874999998,123.89204373967495L224.60625,92.37089659919309L224.83828125,67.91271879932688L225.0703125,60.49388222237129L225.30234375,103.78827585014096L225.534375,99.54393657669574L225.76640625,100.00163869889808L225.9984375,115.75313037278451L226.23046875,136.9397675033087L226.4625,141.60900070028407L226.69453125,133.06399182276925L226.9265625,135.40728534849967L227.15859375,101.9488716186348L227.390625,89.23413975944557L227.62265625,83.58150667409649L227.8546875,99.88125073332775L228.08671875000002,97.70796731534541L228.31875,93.34143435611095L228.55078125,119.98736337046654L228.7828125,137.5656259864959L229.01484375,137.24836368622735L229.24687500000002,157.00944101200486L229.47890625000002,174.11390691842513L229.7109375,174.99266996291803L229.94296875,169.25931256000715L230.175,143.19945234476805L230.40703125000002,129.37365776890937L230.63906250000002,130.9254993320882L230.87109375000003,152.5658214437081L231.10312499999998,167.3090048281618L231.33515624999998,155.40078171949622L231.5671875,134.84575090240347L231.79921875,143.65995786872622L232.03125,133.75445924827866L232.26328124999998,153.17496713264148L232.49531249999998,165.23004910081076L232.72734375,176.60254414856956L232.959375,143.49372514645003L233.19140625,121.8019506147233L233.4234375,140.42735325843174L233.65546874999998,149.69041388447843L233.8875,165.22675884750086L234.11953125,137.76054598510794L234.3515625,162.7715051951951L234.58359375,156.53254865135995L234.815625,153.71944553314256L235.04765625,159.18823939954402L235.2796875,160.35568012915863L235.51171875,135.39078622789015L235.74375,159.96635153984667L235.97578125,152.46433759899605L236.20781250000002,134.09038668377204L236.43984375,139.40162216469307L236.671875,147.22693388114027L236.90390625,121.76535590984784L237.1359375,158.02270741557524L237.36796875000002,170.84811754913682L237.60000000000002,185.86995309441505L237.83203125,177.5005433209832L238.0640625,115.94915851130374L238.29609375,147.45770471199924L238.52812500000002,150.47990675171104L238.76015625000002,147.7229433194222L238.99218749999997,111.1077884550431L239.22421874999998,116.55601164961517L239.45624999999998,104.64704772136267L239.68828125,125.71346393662826L239.9203125,160.8288259995341L240.15234375,147.82615004817515L240.38437499999998,139.82879936684805L240.61640624999998,137.2392591475823L240.8484375,137.55809461453683L241.08046875,112.82023015674001L241.3125,132.87510375413922L241.54453125,143.27798167265772L241.77656249999998,145.9092391591253L242.00859375,154.66927012568607L242.240625,157.7022272291875L242.47265625,148.55712536745133L242.7046875,162.65805747629068L242.93671875,177.25364073995692L243.16875,169.15572674971617L243.40078125,142.92569454338937L243.6328125,142.01873958007567L243.86484375,141.07251128747848L244.096875,160.13619821102577L244.32890625,180.4945119087765L244.5609375,185.7923451521915L244.79296875,123.77776739437624L245.025,101.68560487038297L245.25703125,85.82522957839694L245.48906250000002,114.48732047696359L245.72109375,153.58907305411878L245.953125,134.33954360696816L246.18515625,150.03034930254051L246.4171875,164.68853809899537L246.64921875000002,162.2851356670389L246.88125000000002,151.65544014688822L247.11328125,162.2537704438954L247.3453125,180.32288135347136L247.57734375,166.50389160156382L247.80937500000002,184.4758599792897L248.04140625000002,115.63906245031401L248.27343750000003,150.14393543659716L248.50546874999998,148.96357568350305L248.73749999999998,116.79696324359355L248.96953125,137.88294316890992L249.2015625,140.75821898574668L249.43359375,166.30395162817857L249.66562499999998,148.0803095690005L249.89765624999998,157.55512706331822L250.1296875,163.2524439788264L250.36171875,133.37833277221077L250.59375,162.9382079964015L250.82578125,178.30217033774454L251.05781249999998,142.00298443781955L251.28984375,156.50316629702138L251.521875,156.14705804864L251.75390625,138.6155498667751L251.9859375,133.70934112846305L252.21796875,158.0442941579275L252.45,129.446007486338L252.68203125,129.67095802622882L252.9140625,126.41286037716264L253.14609375,145.76905703073822L253.378125,142.4709020143599L253.61015625000002,168.66377754637986L253.8421875,139.71120127048297L254.07421875,129.74963234496408L254.30625,137.09679320405726L254.53828125,140.86867018482997L254.77031250000002,155.7986623522157L255.00234375000002,177.13948726982392" style="fill: none;" fill="none"></path></g></g></g></g><g opacity="0.2"><g><g><g><path stroke="rgb(255, 112, 67)" stroke-width="2px" d="M25.75546875,-98.86115864345011L25.9875,81.18714666366577L26.21953125,-340.2638711929322L26.4515625,12.447995219911846L26.683593750000004,24.227969067437297L26.915625,-27.662359969956523L27.14765625,26.394596968378337L27.3796875,-7.548471501895365L28.07578125,-49.1734481539045L28.3078125,57.71999394893646L28.53984375,17.932921579905905L28.771875,-84.74525918279379L29.00390625,-44.0021287373134L29.2359375,24.90980192593166L29.46796875,-9.860358136040812L29.700000000000003,16.869660207203452L29.932031249999998,-104.57993377958029L30.1640625,51.77171061720166L30.39609375,62.447820578302654L30.628125,-21.097925203187113L30.860156250000003,31.262151105063293L31.092187499999998,10.843577998025065L31.32421875,-49.02415026937215L31.55625,64.52748615401131L31.78828125,-41.44296465601241L32.0203125,3.767798730305257L32.25234375,59.43295582703182L32.484375,74.62224468163082L32.71640625,-0.9753706455230713L33.18046875,-43.40071719033378L33.4125,4.9471555607659505L33.64453125,44.28561084611076L33.8765625,3.4943873711994633L34.10859375,-9.984788111277995L34.340625,-53.07122918537687L34.57265625,50.43622853074754L34.8046875,48.790168864386416L35.03671875,37.06286977018628L35.268750000000004,-1.7430053268160195L35.50078125,132.56172279800685L35.7328125,68.77195598397937L35.96484375000001,4.398283123970032L36.196875,30.426453709602356L36.42890625,24.431825637817383L36.660937499999996,18.845468350819175L36.89296875,-9.72786492960793L37.125,73.18808974538531L37.35703125,69.24141689709255L37.589062500000004,-14.292196358953227L37.82109375,-10.84844306537085L38.053124999999994,50.5029649564198L38.28515625,36.37333539554051L38.5171875,88.79633505003792L38.74921875,-49.3876738888877L38.98125,104.72799881867L39.21328125,-35.56973719596863L39.4453125,28.253767081669395L39.67734375,-14.30976968152183L39.909375000000004,32.33284270763397L40.14140625,-32.11398702008384L40.373437499999994,-41.19928928783964L40.60546875,82.57254542623248L40.8375,68.23432685647693L41.06953125,21.782398581504822L41.3015625,32.53778442314693L41.53359375,-15.375969988959188L41.765625,11.818822043282633L41.997656250000006,48.79500680310386L42.229687500000004,76.2114246572767L42.461718749999996,86.94298252037593L42.693749999999994,72.73017357076917L42.92578125,68.7099369253431L43.1578125,114.14451149531773L43.38984375,50.33011037962777L43.621875,30.03574117592403L43.85390625,-77.58999303409037L44.0859375,23.38140514918736L44.317968750000006,9.198648691177368L44.550000000000004,24.416648677417214L44.782031249999996,67.02387760366712L45.014062499999994,-5.100489582334268L45.24609375,44.89933577605656L45.478125,23.9853788443974L45.71015625,84.53281489440373L45.9421875,60.12842835698808L46.17421875,-21.728213667869568L46.40625,113.92822850602013L46.638281250000006,-34.54034139428819L46.8703125,55.99435697283063L47.102343749999996,38.80354806355068L47.334375,76.70391476154327L47.56640625,36.6862791946956L47.7984375,110.10335566316331L48.03046875,-4.479198779378641L48.2625,18.043847526822773L48.49453125,152.45152879612786L48.7265625,103.7062367115702L48.958593750000006,-9.810953889574341L49.190625,140.9469557404518L49.422656249999996,32.025475348745076L49.6546875,71.8982892547335L49.88671875,84.35571016584124L50.11875,69.11071719442096L50.350781250000004,54.25104117393494L50.5828125,94.89460201774324L50.81484375,67.1434394972665L51.04687499999999,29.40861771787915L51.27890625,110.23089035919735L51.5109375,96.18080796514238L51.742968749999996,36.579045755522586L51.975,75.72861043044499L52.20703125,63.27982546601976L52.4390625,118.07343769924981L52.671093750000004,-23.641610894884398L52.903125,95.73416524274009L53.13515625,89.07646074465343L53.36718750000001,-81.76165263993404L53.83125,-15.650647350719991L54.063281249999996,97.67892617838723L54.2953125,20.484685574259075L54.52734375,17.793706502233235L54.759375,10.187019978250774L54.991406250000004,60.6025162083762L55.2234375,35.045976826122825L55.455468749999994,26.504618627684447L55.6875,66.13268709182739L55.91953125,17.21000392096383L56.1515625,79.28488724572318L56.38359375,62.28250173160008L56.615625,132.05389748300823L56.84765625,27.61119537694114L57.0796875,48.86284344536918L57.311718750000004,66.26334158011845L57.54375,60.8386709179197L57.775781249999994,-73.69447272164481L58.0078125,50.695141145161216L58.23984375,-15.836930598531474L58.471875,25.817164114543374L58.70390625,82.12065783568791L58.9359375,46.841941492898115L59.16796875,50.08171764441899L59.400000000000006,29.57859364577702L59.632031250000004,151.71022395576747L59.864062499999996,88.62721065964018L60.096093749999994,-28.526798639978697L60.328125,-3.0335744619369507L60.56015625,89.36632260254451L60.7921875,93.41209783724376L61.02421875,132.06768033334185L61.25625,80.94915323598045L61.48828125,37.41935501779828L61.720312500000006,31.087111166545327L61.952343750000004,51.849991781370974L62.184374999999996,10.568433420998698L62.416406249999994,51.45487838132041L62.6484375,10.297523924282613L62.88046875,31.01680280481065L63.1125,26.68360728876931L63.34453125,64.65556342261178L63.5765625,85.52459233147758L63.80859375,146.35424900906426L64.040625,30.513868178640095L64.27265625,120.94266693081174L64.5046875,89.17934606756484L64.73671875000001,31.225723385810852L64.96875,34.76860167298997L65.20078125,99.8960811495781L65.4328125,131.9408992103168L65.66484375,19.738120794296265L65.896875,37.19789498192924L66.12890625,36.08164235523769L66.3609375,32.56675176961082L66.59296875,54.36070111819676L66.825,67.78539327212742L67.05703125000001,136.37361157791955L67.2890625,-104.85812279156278L67.52109374999999,-18.43606419222695L67.753125,108.9276611975261L67.98515625,65.60893877914974L68.2171875,63.28910948548997L68.44921875,1.7651332446506962L68.68125,50.680461542946944L68.91328125,60.1327840089798L69.1453125,136.11267938784192L69.37734375000001,47.381725839206155L69.609375,59.324998957770205L69.84140625,7.918177434376302L70.0734375,67.19207509926387L70.30546875,47.39935944761548L70.53750000000001,128.47252668653215L70.76953125,25.756245272500163L71.0015625,77.72604611941746L71.23359375000001,24.999808686120158L71.465625,135.16217514446805L71.69765625000001,30.30048644542694L71.92968750000001,34.65128542695726L72.16171874999999,92.43448003700802L72.39375,70.98889241899762L72.62578124999999,-3.50160358633315L72.8578125,2.7547705343791304L73.08984375,95.48860594204494L73.32187499999999,7.7679451193128255L73.55390625,156.10621847850936L73.7859375,87.8670288154057L74.01796875,17.16252882140023L74.25,90.52029155833381L74.48203125,108.89676470415932L74.7140625,34.89354407787323L74.94609375,16.512632387025004L75.17812500000001,114.48912796803883L75.41015625,34.41939594064439L75.6421875,116.23984385388238L75.87421875000001,43.950662715094424L76.10624999999999,63.928892970085144L76.33828125,27.781065804617736L76.5703125,39.507882612092146L76.80234374999999,46.54806309086936L77.034375,143.3804389153208L77.26640625,19.379691328321186L77.4984375,51.014158742768416L77.73046875,77.97184656347547L77.9625,85.06661587102073L78.19453125,36.687213625226704L78.4265625,19.468070370810363L78.65859375,62.68478914669582L78.890625,37.53483254568917L79.12265625,27.537330150604248L79.3546875,64.4868082829884L79.58671875,1.0693592854908451L79.81875000000001,34.70512068271637L80.05078125,136.9474724956921L80.2828125,90.24585533993584L80.51484375000001,164.1179429590702L80.74687499999999,34.967966948236736L80.97890625,144.84307891130447L81.2109375,17.732214944703227L81.44296874999999,89.36119830608368L81.675,161.310099784817L81.90703125,42.76307686737606L82.1390625,86.10418040411813L82.37109375,155.89042907953262L82.603125,211.63773081504874L82.83515625,65.88456564290183L83.0671875,131.53668264831813L83.29921875000001,168.29524682675088L83.53125,66.05148206438336L83.76328125,120.47105833462305L83.99531250000001,43.02067826475415L84.22734375,125.45765439953122L84.45937500000001,106.33522686788014L84.69140624999999,19.25744671480996L84.92343749999999,22.121627007211956L85.15546875,134.96319419145584L85.38749999999999,95.42294712577547L85.61953125,139.86791454894203L85.8515625,22.94103215421948L86.08359374999999,87.35488552706582L86.315625,152.09100062932285L86.54765625,85.99310374259949L86.7796875,20.878291828291747L87.01171875,148.5697611910956L87.24375,135.26335739237922L87.47578125,20.46402260235378L87.7078125,83.46599665709904L87.93984375000001,35.90841099194118L88.171875,194.9996173126357L88.40390625,85.44982281752995L88.63593750000001,189.04031109171254L88.86796875,49.42586798327309L89.10000000000001,91.72875137839998L89.33203125000001,89.00796849387032L89.56406249999999,48.50352476324353L89.79609375,66.35835206508636L90.02812499999999,144.02905427558082L90.26015625,118.13563007967812L90.4921875,4.363558479717794L90.72421874999999,114.2026647244181L90.95625,171.31786207641872L91.18828125,169.14549194914954L91.4203125,136.61555372817176L91.65234375,135.2816692164966L91.884375,117.96065796273095L92.11640625,-4.979948043823242L92.3484375,154.08341752205575L92.58046875000001,109.59858231885093L92.8125,84.2660048348563L93.04453125,101.04706595625197L93.27656250000001,65.46812612669808L93.50859374999999,78.14054141725812L93.740625,107.66736309017455L93.97265625,15.557975956371846L94.20468749999999,11.360905868666505L94.43671875,81.55535750729697L94.66875,90.07676862818855L94.90078125,141.6951030237334L95.1328125,107.85966738632747L95.36484375,51.57412377425602L95.596875,31.699027521269652L95.82890625,41.121116638183594L96.0609375,177.8265286726611L96.29296875,-51.98020618302482L96.525,54.45137102263314L96.75703125,170.7617779459272L96.9890625,160.9217044881412L97.22109375000001,94.1805915917669L97.453125,154.82419486130985L97.68515625,160.08647054008077L97.91718750000001,67.93773559161595L98.14921874999999,170.031102252858L98.38125,145.27198252507617L98.61328125,131.40554587330135L98.84531249999999,60.72179174423218L99.07734375,131.0782163654055L99.309375,23.392422386578147L99.54140625,152.175585431712L99.7734375,147.766354399068L100.00546875,120.34529453516006L100.2375,5.213634048189433L100.46953125,29.825027091162536L100.70156250000001,29.677989925657002L100.93359375,59.5047562633242L101.165625,160.80199187994003L101.39765625000001,59.80270395960126L101.6296875,36.69175013474056L101.86171875000001,52.82692383016858L102.09374999999999,165.1138009939875L102.32578124999999,109.53856776441847L102.5578125,182.97643908006805L102.78984374999999,114.06721751179013L103.021875,44.112364411354065L103.25390625,116.44593100036893L103.48593749999999,129.84482835020336L103.71796875,153.16672986745834L103.95,51.99882245063782L104.18203125,-5.166698506900248L104.4140625,91.06837274347032L104.64609375,117.65544582264764L104.878125,163.56781582321437L105.11015625,88.15935485703605L105.34218750000001,93.48529991933277L105.57421875,160.1052834902491L105.80625,136.6542120235307L106.03828125000001,106.63916546957833L106.2703125,123.57718831300735L106.50234375000001,124.12951211418424L106.73437500000001,192.4558091653245L106.96640624999999,60.09275421074459L107.1984375,12.48115243230546L107.43046874999999,118.2750636935234L107.6625,106.68654260465077L107.89453125,152.84140109590123L108.12656249999999,140.85957141433443L108.35859375,122.92035147121973L108.590625,145.7854521019118L108.82265625,138.5882646867207L109.0546875,142.04889047997338L109.28671875,155.96470123529434L109.51875,-0.4877938372748407L109.75078125,134.85587785925182L109.98281250000001,44.36889573505947L110.21484375,93.7845739041056L110.446875,19.488522342273153L110.67890625000001,62.29909540925706L110.91093749999999,123.7027034333774L111.14296875,141.65147114651543L111.375,29.200104066303794L111.60703124999999,138.39418195826667L111.8390625,146.1685460124697L112.07109375,25.314139059611733L112.303125,126.33426327364785L112.53515625,144.37101063558032L112.7671875,107.31645428282874L112.99921875,170.11856193627628L113.23125,76.6467034987041L113.46328125,160.38856665577205L113.6953125,175.47083307164056L113.92734375,141.19468533141273L114.159375,84.25030037334987L114.39140625,61.61751876558576L114.62343750000001,75.13226289408547L114.85546875,109.32994107689177L115.0875,126.72422977004732L115.31953125000001,74.25341590813228L115.55156249999999,21.302417789186748L115.78359375,115.03099971158164L116.015625,95.36569064855576L116.24765624999999,146.99095791578293L116.4796875,128.79329257352012L116.71171875,102.3523599079677L116.94375,158.94303653495652L117.17578125,141.9368492450033L117.4078125,98.89600687367576L117.63984375,170.24015847699982L117.871875,134.0619886943272L118.10390625000001,75.64057803153992L118.3359375,159.81802522710393L118.56796875,143.91646293231418L118.80000000000001,165.59762877651622L119.03203125,163.4541920849255L119.26406250000001,-21.508486849921102L119.49609374999999,68.38196688038963L119.72812499999999,58.849434103284565L119.96015625,149.8521465233394L120.19218749999999,57.339379293578006L120.42421875,89.67668164627892L120.65625,143.51198261976242L120.88828124999999,200.38609218490976L121.1203125,105.59957382508686L121.35234375,169.02039506179946L121.584375,74.06324422359467L121.81640625,104.16090498651778L122.0484375,163.96567976474762L122.28046875,-18.733424101557066L122.5125,98.50318433557237L122.74453125000001,142.74607362065996L122.9765625,127.39618328639439L123.20859375,170.56536667687553L123.44062500000001,120.23010336501258L123.67265625,181.50547587020057L123.90468750000001,184.9418234250375L124.13671875000001,134.99091060672487L124.36874999999999,129.16154109580177L124.60078125,144.62757210220607L124.83281249999999,47.417776771954124L125.06484375,-11.650516033172607L125.296875,44.579850963183816L125.52890624999999,46.220515046800884L125.7609375,208.26640719122122L125.99296875,161.2378585083144L126.225,154.91651132277082L126.45703125,13.81863902296338L126.6890625,111.19816913775036L126.92109375,138.9607708965029L127.153125,163.57008031010628L127.38515625000001,-2.9016388995307L127.6171875,96.0556093454361L127.84921875,168.6338497868606L128.08125,119.89218615634101L128.31328125,123.17472004038947L128.5453125,191.9421907578196L128.77734375,83.76762178965977L129.009375,98.27699939693724L129.24140625,182.8806109683854L129.47343750000002,158.9033270052501L129.70546875,4.166906067303243L129.9375,210.44665922118085L130.16953125,154.2875679859093L130.4015625,88.68888307469231L130.63359375,190.2989249633891L130.865625,98.9508142386164L131.09765625,152.768688836268L131.3296875,176.12191638350487L131.56171874999998,198.9122964824949L131.79375,152.85555696487427L132.02578125,136.0748048084123L132.2578125,191.33649138041906L132.48984375,88.87065242018019L132.721875,77.16906523704529L132.95390625,99.48152556589672L133.1859375,184.16515340336733L133.41796875,121.68483084440231L133.65,163.99614295363426L133.88203125,124.82224917411804L134.11406250000002,169.63206273743083L134.34609375,16.202265807560508L134.578125,156.66986848201068L134.81015625,114.65956357547215L135.04218749999998,143.44795905692237L135.27421875,75.17937627860478L135.50625,77.80042377540043L135.73828125,-52.07850224631173L135.9703125,93.46227072817939L136.20234375,36.557674424988875L136.434375,133.30808411325725L136.66640625,66.7154552425657L136.8984375,191.84757401474886L137.13046875,109.78466963768005L137.3625,87.63783712046487L137.59453125,163.24995496017593L137.8265625,154.77645601119312L138.05859375,175.09763357469012L138.290625,139.19378320659908L138.52265625,158.06843593290876L138.75468750000002,148.5670558639935L138.98671875,74.3640102829252L139.21875,73.93908553464072L139.45078125,130.65361565351486L139.6828125,-17.84615216936385L139.91484375,118.36026265791483L140.146875,73.31134414672852L140.37890625,97.17327868938446L140.6109375,201.26456615222352L140.84296875,148.41325914859772L141.07500000000002,65.53867563179561L141.30703125,126.24350294045038L141.5390625,46.377047232219155L141.77109375,145.23125190394265L142.003125,172.0873957616942L142.23515625000002,182.53282572116171L142.46718750000002,76.71686114583697L142.69921875,167.52140647172928L142.93125,178.56811233503478L143.16328125,23.287057808467324L143.39531250000002,102.79341865437371L143.62734375000002,91.31922966241837L143.85937500000003,98.58722279753005L144.09140624999998,163.16702048267635L144.32343749999998,171.43584900242942L144.55546875,173.7883306145668L144.7875,116.97355267831257L145.01953125,73.72602030209133L145.25156249999998,170.4236459689481L145.48359374999998,60.626977188246585L145.715625,123.15675485985619L145.94765625,68.4021475655692L146.1796875,-28.142883334841063L146.41171875,120.28032147032874L146.64374999999998,126.83362596375602L146.87578125,-59.98652754511153L147.1078125,95.0212550333568L147.33984375,26.17431250640324L147.571875,139.35183760949542L147.80390625,137.58889876944679L148.0359375,112.96463469948088L148.26796875,170.8031717113086L148.5,46.88064500263759L148.73203125,77.44439067159381L148.9640625,96.75601024287087L149.19609375000002,168.30752253106664L149.428125,165.82122142400058L149.66015625,169.1292486829417L149.8921875,154.43595781496595L150.12421875,150.03387065444673L150.35625000000002,140.57534628255027L150.58828125000002,121.32523334026337L150.8203125,109.887517281941L151.05234375,133.1953872697694L151.284375,155.6744136086532L151.51640625000002,200.21879144119364L151.74843750000002,79.38606195790427L151.98046874999997,187.5768044867686L152.21249999999998,141.7229249392237L152.44453124999998,177.0118861070701L152.6765625,131.0755411812237L152.90859375,149.91802387578147L153.140625,172.98273092508316L153.37265624999998,-56.30990512030465L153.60468749999998,191.08097738027573L153.83671875,155.28027608564923L154.06875,146.59111961296628L154.30078125,121.66920174019677L154.5328125,196.69810870502675L154.76484374999998,122.35246638740811L154.996875,154.69202569127083L155.22890625,126.0557502252715L155.4609375,162.4239974958556L155.69296875,99.5691887140274L155.925,103.3963599545615L156.15703125,183.45729024921144L156.3890625,196.20650216511316L156.62109375,118.58287566048759L156.853125,211.7087211603565L157.08515625,157.87505779521805L157.3171875,199.07083317211695L157.54921875,153.0315803161689L157.78125,92.12923775400435L158.01328125,172.75355053373744L158.2453125,143.65344334500176L158.47734375000002,40.61313307285309L158.709375,142.2425059931619L158.94140625,161.7208988070488L159.1734375,184.0182537649359L159.40546875,160.71286303230693L159.63750000000002,179.9399844620909L159.86953125000002,170.26012439387185L160.1015625,158.85663185375077L160.33359375,138.72914516074317L160.565625,188.10452978100096L160.79765625000002,72.93210099424634L161.02968750000002,139.6432066134044L161.26171875000003,146.88557826621192L161.49374999999998,96.14617374965123L161.72578124999998,177.09476029872894L161.9578125,203.95710135251284L162.18984375,81.10643899440765L162.421875,213.1772386725726L162.88593749999998,-45.171764475958696L163.11796875,122.64623175348554L163.35,172.20044301663125L163.58203125,90.55932664019721L163.8140625,197.77989667015416L164.04609374999998,19.385825412613993L164.278125,102.01053165537971L164.51015625,158.57654383778572L164.7421875,67.47400183337075L164.97421875,130.57331491368157L165.20625,88.6010918191501L165.43828125,112.8956827691623L165.6703125,82.07176601886749L165.90234375,143.2427535908563L166.134375,180.6270697244576L166.36640625,94.403656738145L166.59843750000002,146.32422666038784L166.83046875,147.17187572377068L167.0625,152.21208474040031L167.29453125,58.83644250461033L167.5265625,157.93540015390943L167.75859375000002,120.76725774151939L167.99062500000002,171.89604096753257L168.22265625,107.68536594935826L168.4546875,191.4612755349704L168.91875000000002,195.34123268084866L169.15078125000002,117.91914362566811L169.38281249999997,160.56891174827302L169.61484374999998,181.43950432113238L169.84687499999998,94.30941489764622L170.07890625,147.2741280453546L170.3109375,120.56335595675877L170.54296875,92.22103801795414L170.77499999999998,181.2816307757582L171.00703124999998,145.71505331141609L171.2390625,115.98507589101791L171.47109375,61.175623553139815L171.703125,205.49271641671658L171.93515625,166.7945400902203L172.16718749999998,131.57570265872138L172.39921875,67.15120129925864L172.63125,83.25888465132032L172.86328125,33.37738532679421L173.0953125,132.4778953364917L173.32734375,103.05120844500405L173.559375,190.5666487302099L173.79140625,95.57805505820683L174.0234375,18.22233882972172L174.25546875,165.02458171759332L174.4875,60.72326874732971L174.71953125,144.2715163912092L174.9515625,122.67612599475044L175.18359375,156.84450149110387L175.415625,179.32487672567368L175.64765625,183.8084232445274L175.87968750000002,140.94978917496545L176.11171875,177.0051793072905L176.34375,93.87931310279029L176.57578125,35.76918084280831L176.8078125,119.10630747250147L177.03984375000002,193.96363151499204L177.27187500000002,132.5474727324077L177.50390625,131.24691875491823L177.7359375,101.43525402035033L177.96796875,118.63781113283974L178.20000000000002,190.32311088911123L178.43203125000002,210.62991169254695L178.66406250000003,116.38219379527229L178.89609374999998,83.5919337783541L179.12812499999998,202.52257057172912L179.36015625,112.73869843993867L179.5921875,153.01499040637697L179.82421875,93.96445931707109L180.05624999999998,206.6921559678657L180.28828124999998,92.20837799140385L180.5203125,153.10713354604584L180.75234375,104.31232041120529L180.984375,89.2527139357158L181.21640625,150.8972995366369L181.44843749999998,92.63315202508653L181.68046875,82.84562521321433L181.9125,115.90971105439323L182.14453125,208.20737369464976L182.3765625,87.46757483482361L182.60859375,44.893277049064636L182.840625,137.44492111035754L183.07265625,182.64754967604364L183.3046875,182.78734123706818L183.53671875,160.27941537329127L183.76875,170.36325462801116L184.00078125000002,189.79235057958536L184.2328125,148.44873736585888L184.46484375,118.56531740937913L184.696875,68.20671594142914L184.92890625,153.2022985134806L185.16093750000002,135.61280426808764L185.39296875000002,85.0413259608405L185.625,112.034431712968L185.85703125,158.54176644342286L186.0890625,199.70511274784803L186.55312500000002,205.35109084738153L186.78515624999997,173.84651021872247L187.01718749999998,166.7945815367358L187.24921874999998,145.10214224031995L187.48125,177.8108694255352L187.71328125,119.14459651708603L187.9453125,155.81834982122692L188.17734374999998,149.50970034088405L188.40937499999998,197.19386743221963L188.64140625,131.97551081861766L188.8734375,82.2101823091507L189.10546875,79.92937302589417L189.3375,174.13780009746552L189.56953124999998,64.06414425373077L189.8015625,214.2074163062498L190.03359375,174.44335134540285L190.265625,187.17202462894576L190.49765625,52.28706412655967L190.7296875,110.90203001669475L190.96171875,58.25787929126194L191.19375,181.73788908975465L191.6578125,184.46726459051882L191.88984375,138.503630902086L192.121875,165.48314596499714L192.35390625,200.15363375097513L192.5859375,105.64490877730506L192.81796875,131.10405638388224L193.05,154.49927301917756L193.28203125000002,144.8596424460411L193.5140625,157.54881343245506L193.74609375,95.15118609155928L193.978125,169.91513490251134L194.21015625,153.91450036423547L194.44218750000002,34.223677958760945L194.67421875000002,40.98687514236995L194.90625,184.81199221525873L195.13828125,150.53890774931224L195.3703125,182.42341822385788L195.60234375000002,179.59252701912607L195.83437500000002,95.45906588009426L196.06640625000003,102.3918998837471L196.29843749999998,101.60637537922179L196.53046874999998,191.12362584471703L196.7625,141.1702620301928L196.99453125,104.4741803577968L197.2265625,188.76707682226385L197.45859374999998,75.51127997466496L197.69062499999998,141.8935941542898L197.92265625,183.6955455435174L198.1546875,124.95329552037376L198.38671875,48.448182361466536L198.61875,172.1305566557816L198.85078124999998,102.04897141456604L199.0828125,133.06273581300462L199.31484375,135.13313997643334L199.546875,70.99990965638843L199.77890625,151.3227668574878L200.0109375,104.70592666523797L200.24296875,173.2986927841391L200.475,171.30643790960312L200.70703125,191.98077557981014L200.9390625,208.83456685819797L201.17109375,63.5263945545469L201.40312500000002,163.5707585258143L201.63515625,141.1786794407027L201.8671875,48.09495254925319L202.09921875,75.66291393552508L202.33125,145.37058001756668L202.56328125000002,163.0255409181118L202.79531250000002,186.86419005479132L203.02734375,199.65524976381235L203.259375,121.44420744691575L203.49140625,118.51291394233704L203.72343750000002,147.63756877183914L203.95546875000002,72.71880968979427L204.18749999999997,103.1494819011007L204.41953124999998,101.75124225446156L204.65156249999998,185.24885732786996L204.88359375,30.23340337617057L205.115625,72.89044347831181L205.34765625,118.81703340155738L205.57968749999998,168.36232989600728L205.81171874999998,212.29881027287672L206.04375,160.53370104943002L206.27578125,193.56051328565394L206.73984375,177.13823392561503L206.97187499999998,104.852330829416L207.20390625,96.79065199409212L207.4359375,130.0654443843024L207.66796875,107.54466633285796L207.9,134.63865290369304L208.13203125,79.29585926873344L208.3640625,188.7436293980905L208.59609375,114.06753401245389L208.828125,199.80516181034702L209.06015625,194.82416102503026L209.2921875,116.50103979451316L209.52421875,140.10266007695878L209.75625,134.62019790070397L209.98828125,153.8075495149408L210.2203125,165.76807568754467L210.45234375,158.42513218096326L210.68437500000002,161.4408409340041L210.91640625,186.81863091460295L211.38046875,183.8619457674878L211.6125,157.94350106375558L211.84453125000002,105.27115163632801L212.07656250000002,96.58170880590166L212.30859375,147.2266228028706L212.540625,183.99078602875983L212.77265625,115.41240561859948L213.00468750000002,118.23025624241147L213.23671875000002,177.7389672568866L213.46875000000003,134.8476036276136L213.70078124999998,153.0586109799998L213.93281249999998,103.78046365295137L214.16484375,100.73473255123412L214.396875,157.2209903342383L214.62890625,154.93998512199948L214.86093749999998,168.5787673677717L215.09296874999998,115.26681531327111L215.325,151.05233211176736L215.55703125,153.92719430157115L215.7890625,192.8601161560842L216.02109375,-15.299150756427226L216.25312499999998,163.76111106787408L216.48515625,159.81669517074312L216.7171875,161.90801852090019L216.94921875,119.50220458848136L217.18125,124.22300038167408L217.41328125,140.17892920119422L217.6453125,111.213217990739L217.87734375,176.1577638515404L218.109375,118.04401820898056L218.34140625,198.44100438696998L218.5734375,118.048773254667L218.80546875000002,150.067080616951L219.0375,144.01714028630937L219.26953125,161.55248654314448L219.5015625,35.38017138413021L219.73359375,63.71548109395164L219.96562500000002,103.66284597771508L220.19765625000002,83.74424595492226L220.4296875,184.71595310313361L220.66171875,108.70278747592653L220.89375,149.1448956472533L221.12578125000002,172.90090419990676L221.35781250000002,167.47089824080467L221.58984374999997,188.4550033999341L221.82187499999998,99.63950461149216L222.05390624999998,91.80894661801202L222.2859375,103.71064511367253L222.51796875,184.99067567927497L222.75,130.8367640376091L222.98203124999998,165.6769837822233L223.21406249999998,150.63201923029763L223.44609375,143.73718791348594L223.678125,194.3360096173627L223.91015625,123.04177469015121L224.1421875,176.41379404919488L224.37421874999998,69.88796746730804L224.60625,45.08917588847024L224.83828125,31.22545209952763L225.0703125,49.36562735693795L225.30234375,168.72986629179547L225.534375,93.17742766652788L225.76640625,100.68819188220161L225.9984375,139.38036788361413L226.23046875,168.71972319909503L226.4625,148.61285049574715L226.69453125,120.24647850649697L226.9265625,138.9222256370953L227.15859375,51.7612510238375L227.390625,70.1620419706617L227.62265625,75.10255704607282L227.8546875,124.33086682217461L228.08671875000002,94.44804218837193L228.31875,86.79163491725922L228.55078125,159.95625689199994L228.7828125,163.93301991053988L229.01484375,136.77247023582458L229.24687500000002,186.6510570006711L229.47890625000002,199.77060577805554L229.7109375,176.31081452965736L229.94296875,160.6592764556408L230.175,104.10966202190944L230.40703125000002,108.63496590512139L230.63906250000002,133.25326167685645L230.87109375000003,185.02630461113793L231.10312499999998,189.42377990484238L231.33515624999998,137.53844705649783L231.5671875,104.01320467676436L231.79921875,156.88126831821035L232.03125,118.89621131760734L232.26328124999998,182.30572895918573L232.72734375,193.66128672020776L232.959375,93.83049664327076L233.19140625,89.26428881713322L233.4234375,168.36545722399438L233.65546874999998,163.58500482354845L233.8875,188.53127629203456L234.11953125,96.56122669151851L234.3515625,200.28794401032584L234.58359375,147.17411383560727L234.815625,149.49979085581643L235.04765625,167.39143019914627L235.2796875,162.1068412235805L235.51171875,97.94344537598747L235.74375,196.82969950778144L235.97578125,141.21131668772014L236.20781250000002,106.52946031093597L236.43984375,147.3684753860746L236.671875,158.9649014558111L236.90390625,83.5729889529092L237.1359375,212.40873467416637L237.60000000000002,208.4027064123324L237.83203125,164.94642866083552L238.0640625,23.622081296784526L238.29609375,194.72052401304245L238.52812500000002,155.01320981127876L238.76015625000002,143.58749817098888L238.99218749999997,56.18505615847451L239.22421874999998,124.72834644147328L239.45624999999998,86.78360182898385L239.68828125,157.31308825952667L239.9203125,213.50186909389282L240.15234375,128.3221361211368L240.38437499999998,127.83277334485734L240.61640624999998,133.35494881868362L240.8484375,138.03634781496865L241.08046875,75.71343347004482L241.3125,162.95741415023804L241.54453125,158.88229855043548L241.77656249999998,149.85612538882663L242.00859375,167.8093165755272L242.240625,162.25166288443972L242.47265625,134.83947257484706L242.7046875,183.80945563954967L242.93671875,199.14701563545637L243.16875,157.00885576435496L243.40078125,103.58064623389924L243.6328125,140.65830713510513L243.86484375,139.65316884858268L244.096875,188.73172859634673L244.5609375,193.73909501731396L244.79296875,30.75590075765336L245.025,68.54736108439309L245.25703125,62.03466664041791L245.48906250000002,157.4804568248136L245.72109375,212.24170191985155L245.953125,105.46524943624223L246.18515625,173.56655784589904L246.4171875,186.67582129367761L246.64921875000002,158.68003201910426L246.88125000000002,135.71089686666215L247.11328125,178.1512658894062L247.3453125,207.42654771783523L247.57734375,145.77540697370256L247.80937500000002,211.43381254587854L248.04140625000002,12.383866156850544L248.27343750000003,201.90124491602182L248.50546874999998,147.19303605386187L248.73749999999998,68.54704458372933L248.96953125,169.5119130568845L249.2015625,145.0711327110018L249.43359375,204.62255059182644L249.66562499999998,120.74484648023332L249.89765624999998,171.76735330479485L250.1296875,171.79841935208867L250.36171875,88.56716596228736L250.59375,207.27802083268762L250.82578125,201.3481138497591L251.05781249999998,87.55420558793205L251.28984375,178.25343908582414L251.521875,155.6128956760679L251.75390625,112.3182875939778L251.9859375,126.350028020995L252.21796875,194.54672370212418L252.45,86.54857747895377L252.68203125,130.008383836065L252.9140625,121.52571390356336L253.14609375,174.80335201110157L253.378125,137.5236694897924L253.61015625000002,207.95309084440981L253.8421875,96.28233685663768L254.07421875,114.80727895668574L254.30625,148.11753449269702L254.53828125,146.52648565598895L254.77031250000002,178.19365060329437" style="fill: none;" fill="none"></path></g></g></g></g></g></g><g transform="translate(51, 177)" clip-path="url(#clip_1)"><clipPath id="clip_1"><rect width="278" height="23"></rect></clipPath><g><g><line x1="0" y1="0" x2="0" y2="5" style="visibility: inherit;" fill="rgb(0, 0, 0)" stroke="rgb(204, 204, 204)" stroke-width="1px"></line><line x1="23.203125" y1="0" x2="23.203125" y2="5" style="visibility: inherit;" fill="rgb(0, 0, 0)" stroke="rgb(204, 204, 204)" stroke-width="1px"></line><line x1="46.40625" y1="0" x2="46.40625" y2="5" style="visibility: inherit;" fill="rgb(0, 0, 0)" stroke="rgb(204, 204, 204)" stroke-width="1px"></line><line x1="69.609375" y1="0" x2="69.609375" y2="5" style="visibility: inherit;" fill="rgb(0, 0, 0)" stroke="rgb(204, 204, 204)" stroke-width="1px"></line><line x1="92.8125" y1="0" x2="92.8125" y2="5" style="visibility: inherit;" fill="rgb(0, 0, 0)" stroke="rgb(204, 204, 204)" stroke-width="1px"></line><line x1="116.015625" y1="0" x2="116.015625" y2="5" style="visibility: inherit;" fill="rgb(0, 0, 0)" stroke="rgb(204, 204, 204)" stroke-width="1px"></line><line x1="139.21875" y1="0" x2="139.21875" y2="5" style="visibility: inherit;" fill="rgb(0, 0, 0)" stroke="rgb(204, 204, 204)" stroke-width="1px"></line><line x1="162.421875" y1="0" x2="162.421875" y2="5" style="visibility: inherit;" fill="rgb(0, 0, 0)" stroke="rgb(204, 204, 204)" stroke-width="1px"></line><line x1="185.625" y1="0" x2="185.625" y2="5" style="visibility: inherit;" fill="rgb(0, 0, 0)" stroke="rgb(204, 204, 204)" stroke-width="1px"></line><line x1="208.828125" y1="0" x2="208.828125" y2="5" style="visibility: inherit;" fill="rgb(0, 0, 0)" stroke="rgb(204, 204, 204)" stroke-width="1px"></line><line x1="232.03125" y1="0" x2="232.03125" y2="5" style="visibility: inherit;" fill="rgb(0, 0, 0)" stroke="rgb(204, 204, 204)" stroke-width="1px"></line><line x1="255.234375" y1="0" x2="255.234375" y2="5" style="visibility: inherit;" fill="rgb(0, 0, 0)" stroke="rgb(204, 204, 204)" stroke-width="1px"></line><line x1="278.4375" y1="0" x2="278.4375" y2="5" style="visibility: inherit;" fill="rgb(0, 0, 0)" stroke="rgb(204, 204, 204)" stroke-width="1px"></line></g><g transform="translate(0, 8)"><text x="0" y="0" dx="0em" dy="0.95em" style="text-anchor: middle; visibility: hidden; font-family: Roboto, sans-serif; font-size: 12px; font-weight: 200;" fill="rgb(33, 33, 33)" stroke="none" stroke-width="1px">-100</text><text x="23.203125" y="0" dx="0em" dy="0.95em" style="text-anchor: middle; visibility: inherit; font-family: Roboto, sans-serif; font-size: 12px; font-weight: 200;" fill="rgb(33, 33, 33)" stroke="none" stroke-width="1px">0</text><text x="46.40625" y="0" dx="0em" dy="0.95em" style="text-anchor: middle; visibility: hidden; font-family: Roboto, sans-serif; font-size: 12px; font-weight: 200;" fill="rgb(33, 33, 33)" stroke="none" stroke-width="1px">100</text><text x="69.609375" y="0" dx="0em" dy="0.95em" style="text-anchor: middle; visibility: inherit; font-family: Roboto, sans-serif; font-size: 12px; font-weight: 200;" fill="rgb(33, 33, 33)" stroke="none" stroke-width="1px">200</text><text x="92.8125" y="0" dx="0em" dy="0.95em" style="text-anchor: middle; visibility: hidden; font-family: Roboto, sans-serif; font-size: 12px; font-weight: 200;" fill="rgb(33, 33, 33)" stroke="none" stroke-width="1px">300</text><text x="116.015625" y="0" dx="0em" dy="0.95em" style="text-anchor: middle; visibility: inherit; font-family: Roboto, sans-serif; font-size: 12px; font-weight: 200;" fill="rgb(33, 33, 33)" stroke="none" stroke-width="1px">400</text><text x="139.21875" y="0" dx="0em" dy="0.95em" style="text-anchor: middle; visibility: hidden; font-family: Roboto, sans-serif; font-size: 12px; font-weight: 200;" fill="rgb(33, 33, 33)" stroke="none" stroke-width="1px">500</text><text x="162.421875" y="0" dx="0em" dy="0.95em" style="text-anchor: middle; visibility: inherit; font-family: Roboto, sans-serif; font-size: 12px; font-weight: 200;" fill="rgb(33, 33, 33)" stroke="none" stroke-width="1px">600</text><text x="185.625" y="0" dx="0em" dy="0.95em" style="text-anchor: middle; visibility: hidden; font-family: Roboto, sans-serif; font-size: 12px; font-weight: 200;" fill="rgb(33, 33, 33)" stroke="none" stroke-width="1px">700</text><text x="208.828125" y="0" dx="0em" dy="0.95em" style="text-anchor: middle; visibility: inherit; font-family: Roboto, sans-serif; font-size: 12px; font-weight: 200;" fill="rgb(33, 33, 33)" stroke="none" stroke-width="1px">800</text><text x="232.03125" y="0" dx="0em" dy="0.95em" style="text-anchor: middle; visibility: hidden; font-family: Roboto, sans-serif; font-size: 12px; font-weight: 200;" fill="rgb(33, 33, 33)" stroke="none" stroke-width="1px">900</text><text x="255.234375" y="0" dx="0em" dy="0.95em" style="text-anchor: middle; visibility: inherit; font-family: Roboto, sans-serif; font-size: 12px; font-weight: 200;" fill="rgb(33, 33, 33)" stroke="none" stroke-width="1px">1k</text><text x="278.4375" y="0" dx="0em" dy="0.95em" style="text-anchor: middle; visibility: hidden; font-family: Roboto, sans-serif; font-size: 12px; font-weight: 200;" fill="rgb(33, 33, 33)" stroke="none" stroke-width="1px">1.1k</text></g><line x1="0" y1="0" x2="278.4375" y2="0" fill="rgb(0, 0, 0)" stroke="rgb(204, 204, 204)" stroke-width="1px"></line></g></g></g></g></svg>