<svg viewBox="0 0 330 200" xmlns="http://www.w3.org/2000/svg"><g><g><g><g><g><line x1="41.171875" y1="177" x2="36.171875" y2="177" style="visibility: inherit;" fill="rgb(0, 0, 0)" stroke="rgb(204, 204, 204)" stroke-width="1px"></line><line x1="41.171875" y1="154.875" x2="36.171875" y2="154.875" style="visibility: inherit;" fill="rgb(0, 0, 0)" stroke="rgb(204, 204, 204)" stroke-width="1px"></line><line x1="41.171875" y1="132.75" x2="36.171875" y2="132.75" style="visibility: inherit;" fill="rgb(0, 0, 0)" stroke="rgb(204, 204, 204)" stroke-width="1px"></line><line x1="41.171875" y1="110.625" x2="36.171875" y2="110.625" style="visibility: inherit;" fill="rgb(0, 0, 0)" stroke="rgb(204, 204, 204)" stroke-width="1px"></line><line x1="41.171875" y1="88.5" x2="36.171875" y2="88.5" style="visibility: inherit;" fill="rgb(0, 0, 0)" stroke="rgb(204, 204, 204)" stroke-width="1px"></line><line x1="41.171875" y1="66.375" x2="36.171875" y2="66.375" style="visibility: inherit;" fill="rgb(0, 0, 0)" stroke="rgb(204, 204, 204)" stroke-width="1px"></line><line x1="41.171875" y1="44.25000000000002" x2="36.171875" y2="44.25000000000002" style="visibility: inherit;" fill="rgb(0, 0, 0)" stroke="rgb(204, 204, 204)" stroke-width="1px"></line><line x1="41.171875" y1="22.125" x2="36.171875" y2="22.125" style="visibility: inherit;" fill="rgb(0, 0, 0)" stroke="rgb(204, 204, 204)" stroke-width="1px"></line><line x1="41.171875" y1="0" x2="36.171875" y2="0" style="visibility: inherit;" fill="rgb(0, 0, 0)" stroke="rgb(204, 204, 204)" stroke-width="1px"></line></g><g transform="translate(31.171875, 0)"><text x="0" y="177" dx="0em" dy="0.3em" style="text-anchor: end; visibility: hidden; font-family: Roboto, sans-serif; font-size: 12px; font-weight: 200;" fill="rgb(33, 33, 33)" stroke="none" stroke-width="1px">0.1</text><text x="0" y="154.875" dx="0em" dy="0.3em" style="text-anchor: end; visibility: inherit; font-family: Roboto, sans-serif; font-size: 12px; font-weight: 200;" fill="rgb(33, 33, 33)" stroke="none" stroke-width="1px">0.2</text><text x="0" y="132.75" dx="0em" dy="0.3em" style="text-anchor: end; visibility: hidden; font-family: Roboto, sans-serif; font-size: 12px; font-weight: 200;" fill="rgb(33, 33, 33)" stroke="none" stroke-width="1px">0.3</text><text x="0" y="110.625" dx="0em" dy="0.3em" style="text-anchor: end; visibility: inherit; font-family: Roboto, sans-serif; font-size: 12px; font-weight: 200;" fill="rgb(33, 33, 33)" stroke="none" stroke-width="1px">0.4</text><text x="0" y="88.5" dx="0em" dy="0.3em" style="text-anchor: end; visibility: hidden; font-family: Roboto, sans-serif; font-size: 12px; font-weight: 200;" fill="rgb(33, 33, 33)" stroke="none" stroke-width="1px">0.5</text><text x="0" y="66.375" dx="0em" dy="0.3em" style="text-anchor: end; visibility: inherit; font-family: Roboto, sans-serif; font-size: 12px; font-weight: 200;" fill="rgb(33, 33, 33)" stroke="none" stroke-width="1px">0.6</text><text x="0" y="44.25000000000002" dx="0em" dy="0.3em" style="text-anchor: end; visibility: hidden; font-family: Roboto, sans-serif; font-size: 12px; font-weight: 200;" fill="rgb(33, 33, 33)" stroke="none" stroke-width="1px">0.7</text><text x="0" y="22.125" dx="0em" dy="0.3em" style="text-anchor: end; visibility: inherit; font-family: Roboto, sans-serif; font-size: 12px; font-weight: 200;" fill="rgb(33, 33, 33)" stroke="none" stroke-width="1px">0.8</text><text x="0" y="0" dx="0em" dy="0.3em" style="text-anchor: end; visibility: hidden; font-family: Roboto, sans-serif; font-size: 12px; font-weight: 200;" fill="rgb(33, 33, 33)" stroke="none" stroke-width="1px">0.9</text></g><line x1="41.171875" y1="0" x2="41.171875" y2="177" fill="rgb(0, 0, 0)" stroke="rgb(204, 204, 204)" stroke-width="1px"></line></g></g><g transform="translate(41, 0)" clip-path="url(#clip_0)"><clipPath id="clip_0"><rect width="288" height="177"></rect></clipPath><g><g><g><line x1="0" y1="0" x2="0" y2="177" fill="rgb(0, 0, 0)" stroke="rgb(66, 66, 66)" stroke-width="1px" opacity="0.25"></line><line x1="24.069010416666664" y1="0" x2="24.069010416666664" y2="177" fill="rgb(0, 0, 0)" stroke="rgb(66, 66, 66)" stroke-width="1px" opacity="0.25"></line><line x1="48.13802083333333" y1="0" x2="48.13802083333333" y2="177" fill="rgb(0, 0, 0)" stroke="rgb(66, 66, 66)" stroke-width="1px" opacity="0.25"></line><line x1="72.20703125" y1="0" x2="72.20703125" y2="177" fill="rgb(0, 0, 0)" stroke="rgb(66, 66, 66)" stroke-width="1px" opacity="0.25"></line><line x1="96.27604166666666" y1="0" x2="96.27604166666666" y2="177" fill="rgb(0, 0, 0)" stroke="rgb(66, 66, 66)" stroke-width="1px" opacity="0.25"></line><line x1="120.34505208333334" y1="0" x2="120.34505208333334" y2="177" fill="rgb(0, 0, 0)" stroke="rgb(66, 66, 66)" stroke-width="1px" opacity="0.25"></line><line x1="144.4140625" y1="0" x2="144.4140625" y2="177" fill="rgb(0, 0, 0)" stroke="rgb(66, 66, 66)" stroke-width="1px" opacity="0.25"></line><line x1="168.48307291666669" y1="0" x2="168.48307291666669" y2="177" fill="rgb(0, 0, 0)" stroke="rgb(66, 66, 66)" stroke-width="1px" opacity="0.25"></line><line x1="192.55208333333331" y1="0" x2="192.55208333333331" y2="177" fill="rgb(0, 0, 0)" stroke="rgb(66, 66, 66)" stroke-width="1px" opacity="0.25"></line><line x1="216.62109375" y1="0" x2="216.62109375" y2="177" fill="rgb(0, 0, 0)" stroke="rgb(66, 66, 66)" stroke-width="1px" opacity="0.25"></line><line x1="240.69010416666669" y1="0" x2="240.69010416666669" y2="177" fill="rgb(0, 0, 0)" stroke="rgb(66, 66, 66)" stroke-width="1px" opacity="0.25"></line><line x1="264.7591145833333" y1="0" x2="264.7591145833333" y2="177" fill="rgb(0, 0, 0)" stroke="rgb(66, 66, 66)" stroke-width="1px" opacity="0.25"></line><line x1="288.828125" y1="0" x2="288.828125" y2="177" fill="rgb(0, 0, 0)" stroke="rgb(66, 66, 66)" stroke-width="1px" opacity="0.25"></line></g><g><line x1="0" y1="177" x2="288.828125" y2="177" fill="rgb(0, 0, 0)" stroke="rgb(66, 66, 66)" stroke-width="1px" opacity="0.25"></line><line x1="0" y1="154.875" x2="288.828125" y2="154.875" fill="rgb(0, 0, 0)" stroke="rgb(66, 66, 66)" stroke-width="1px" opacity="0.25"></line><line x1="0" y1="132.75" x2="288.828125" y2="132.75" fill="rgb(0, 0, 0)" stroke="rgb(66, 66, 66)" stroke-width="1px" opacity="0.25"></line><line x1="0" y1="110.625" x2="288.828125" y2="110.625" fill="rgb(0, 0, 0)" stroke="rgb(66, 66, 66)" stroke-width="1px" opacity="0.25"></line><line x1="0" y1="88.5" x2="288.828125" y2="88.5" fill="rgb(0, 0, 0)" stroke="rgb(66, 66, 66)" stroke-width="1px" opacity="0.25"></line><line x1="0" y1="66.375" x2="288.828125" y2="66.375" fill="rgb(0, 0, 0)" stroke="rgb(66, 66, 66)" stroke-width="1px" opacity="0.25"></line><line x1="0" y1="44.25000000000002" x2="288.828125" y2="44.25000000000002" fill="rgb(0, 0, 0)" stroke="rgb(66, 66, 66)" stroke-width="1px" opacity="0.25"></line><line x1="0" y1="22.125" x2="288.828125" y2="22.125" fill="rgb(0, 0, 0)" stroke="rgb(66, 66, 66)" stroke-width="1px" opacity="0.25"></line><line x1="0" y1="0" x2="288.828125" y2="0" fill="rgb(0, 0, 0)" stroke="rgb(66, 66, 66)" stroke-width="1px" opacity="0.25"></line></g></g></g><g><g><line x1="0" y1="199.125" x2="288.828125" y2="199.125" fill="rgb(0, 0, 0)" stroke="rgb(153, 153, 153)" stroke-width="1.5px"></line></g></g><g><g><line x1="24.069010416666664" y1="0" x2="24.069010416666664" y2="177" fill="rgb(0, 0, 0)" stroke="rgb(153, 153, 153)" stroke-width="1.5px"></line></g></g><g><g><g><g><g><path stroke="rgb(0, 119, 187)" stroke-width="2px" d="M32.4931640625,-4.026330137622407L32.73385416666667,18.79988193668653L32.974544270833334,20.514982820905384L33.215234375,19.624266366975228L33.45592447916667,13.387032578485321L33.696614583333336,14.529094083090964L33.937304687499996,25.34733711583299L34.17799479166666,-13.325238221707977L34.41868489583334,22.794254753992096L34.659375,0.42462996846678636L34.900065104166664,15.983343877607847L35.14075520833334,9.19885581599973L35.3814453125,10.975317566835855L35.622135416666666,5.40894430823216L35.86282552083333,5.857343172715293L36.103515625,11.00041358812334L36.34420572916667,-15.62647305053066L36.584895833333334,7.643271546871813L36.8255859375,24.276051581704976L37.06627604166666,36.73259049702733L37.306966145833336,15.158415252254493L37.54765625,-4.533298519683725L37.78834635416666,40.704312329040434L38.02903645833333,17.955900695647816L38.269726562500004,11.787209753230531L38.510416666666664,37.981714209339984L38.75110677083333,52.76353194738768L38.991796875000006,18.221032848508848L39.232486979166666,10.020619881481887L39.47317708333333,49.52398854037002L39.7138671875,60.39082644307541L39.95455729166667,48.539310556196725L40.195247395833334,35.498993189062794L40.4359375,67.63655637557872L40.67662760416667,47.50448065314034L40.917317708333336,85.23640244491901L41.158007812499996,78.16045023970608L41.39869791666667,61.42855320556643L41.63938802083333,74.66018695046714L41.880078125,40.40319056755429L42.12076822916667,41.17079845336749L42.36145833333333,42.27932444374367L42.6021484375,39.128903211120395L42.84283854166667,25.743852764942414L43.08352864583333,39.88214841519488L43.32421875,65.22464668771441L43.56490885416667,59.44518104208002L43.805598958333334,52.90460726030165L44.0462890625,39.14270496015248L44.28697916666666,49.03739887264069L44.527669270833336,35.40144492260631L44.768359375,64.30753110690127L45.00904947916666,56.70190496947295L45.24973958333334,68.30798377219396L45.4904296875,62.75615035667156L45.731119791666664,32.09527601703486L45.97180989583334,37.7323348158865L46.2125,55.207637800828735L46.453190104166666,21.90222030523785L46.69388020833333,8.398730097075491L46.9345703125,29.112222628510132L47.17526041666667,38.30616138977774L47.41595052083333,48.1091938114343L47.656640625,42.87807888365853L47.89733072916667,42.00270089851063L48.13802083333333,38.93143199292566L48.3787109375,19.073510893629464L48.61940104166667,44.88174439576056L48.86009114583333,55.17875331703894L49.100781250000004,50.83726785817189L49.341471354166664,59.591775305500285L49.58216145833333,82.15824240888993L49.8228515625,92.13442805973196L50.063541666666666,79.24057681898775L50.30423177083333,76.9360662909776L50.544921875,60.93445279076277L50.78561197916667,50.60119710489857L51.026302083333334,67.08848602250067L51.266992187499994,66.54882869526652L51.50768229166667,51.13775360825603L51.748372395833336,48.47386871125068L51.989062499999996,58.91133006421187L52.22975260416667,26.824914276644346L52.47044270833334,48.6825553179054L52.7111328125,26.222106635586552L52.951822916666664,-19.250069224824827L53.19251302083334,6.894015655523363L53.433203125,30.919552222255366L53.673893229166666,37.5360024066946L53.91458333333333,77.657657071482L54.1552734375,66.4081498053854L54.39596354166667,53.305185196827985L54.636653645833334,60.165888457316846L54.87734375,72.96297148097673L55.11803385416666,68.92274993198588L55.358723958333336,73.96454060994074L55.5994140625,81.39559438182405L55.84010416666666,74.03992679329808L56.08079427083333,81.27809463806211L56.321484375000004,76.3986803166107L56.562174479166664,60.096309749605396L56.80286458333333,79.28113365669377L57.043554687500006,97.7419500261505L57.284244791666666,88.51882577597856L57.52493489583333,97.78055017983768L57.765625,60.49612882611666L58.00631510416667,42.00897608326384L58.247005208333334,35.956746507445025L58.4876953125,64.57934257910195L58.72838541666667,87.04552982166734L58.969075520833336,96.16778762886123L59.209765624999996,77.87001181095359L59.45045572916667,66.20082627206752L59.69114583333333,97.51682914477414L59.9318359375,57.30212733853953L60.17252604166667,85.86618828600109L60.41321614583333,88.76350341335214L60.65390625,102.81353357193038L60.89459635416667,100.21009587798812L61.13528645833333,67.86018063160361L61.3759765625,91.19608581681597L61.61666666666667,95.46282283735007L61.857356770833334,86.19367120427925L62.098046875,102.63846346296691L62.33873697916666,100.50342528556482L62.579427083333336,69.64265124520476L62.8201171875,60.39945581865797L63.06080729166666,47.87300037331873L63.30149739583334,58.22667545668779L63.5421875,44.49246535058317L63.782877604166664,54.16861986133755L64.02356770833333,60.61035757668794L64.2642578125,37.931170012998464L64.50494791666667,48.13427143481246L64.74563802083333,53.425064845006894L64.986328125,41.976308198643466L65.22701822916666,44.47532088272139L65.46770833333333,55.885556427910124L65.70839843750001,74.04574457006106L65.94908854166667,55.38125724909575L66.18977864583333,89.01542456637544L66.43046875,81.91719431096747L66.67115885416666,88.24276630529423L66.91184895833334,109.53933811753188L67.1525390625,102.65846756439922L67.39322916666667,88.75215307677699L67.63391927083333,59.69729944947309L67.87460937499999,85.27531354953614L68.11529947916667,72.32407196360688L68.35598958333333,100.10652704833662L68.5966796875,81.22577516912649L68.83736979166667,94.7411807935192L69.07805989583333,94.76031377677643L69.31875,84.43287738421277L69.55944010416667,111.47956955289074L69.80013020833333,116.90689156565206L70.0408203125,99.51676487394057L70.28151041666668,97.54841168801713L70.52220052083334,61.28574352908568L70.762890625,59.56639573245309L71.00358072916666,63.72171598237194L71.24427083333333,53.17968059516812L71.4849609375,47.23180727921048L71.72565104166667,50.07761279202771L71.96634114583334,72.27838747773927L72.20703125,69.28683007999875L72.44772135416667,61.900320614842286L72.68841145833333,73.03516775695546L72.9291015625,48.07118445234335L73.16979166666667,88.24615002332234L73.41048177083333,95.65574572776619L73.651171875,73.81876316842357L73.89186197916668,59.98360029564453L74.13255208333332,58.881384019292334L74.3732421875,69.3269381965619L74.61393229166667,92.01629799279104L74.85462239583333,113.09679093612749L75.0953125,131.13296322020005L75.33600260416667,129.8116939872033L75.57669270833333,103.46063610968153L75.8173828125,107.31419553492759L76.05807291666666,84.76182540735182L76.29876302083333,80.0000142722164L76.53945312500001,85.09621474557129L76.78014322916665,83.80475170858509L77.02083333333333,100.8192447063196L77.2615234375,107.60748881917407L77.50221354166666,102.09434230817084L77.74290364583334,89.1425156515403L77.98359375000001,109.06839010545991L78.22428385416666,94.84636906641353L78.46497395833333,114.88105363611955L78.7056640625,130.65040724554405L78.94635416666667,96.08556119250501L79.18704427083334,74.28710428862122L79.427734375,82.58318996124474L79.66842447916666,93.5228751432479L79.90911458333333,122.99177994469291L80.14980468750001,109.53431447827506L80.39049479166667,94.79688432504946L80.63118489583333,124.05903570765388L80.871875,116.54684173711615L81.11256510416666,96.2715440490751L81.35325520833334,98.55395344787291L81.5939453125,98.88768495257767L81.83463541666667,91.14845195493741L82.07532552083333,86.55807899285342L82.31601562499999,94.22117125003926L82.55670572916667,102.67814821010465L82.79739583333334,103.38153406981013L83.0380859375,89.69377609493363L83.27877604166666,111.11649479807635L83.51946614583333,124.49460454488528L83.76015625,129.43251095238168L84.00084635416667,126.50942382826112L84.24153645833334,109.89811254509512L84.48222656249999,112.9468643335594L84.72291666666666,99.83541936088166L84.96360677083334,108.75433124249315L85.204296875,101.00564468589508L85.44498697916667,119.91298503540206L85.68567708333335,133.9107804722324L85.92636718749999,135.67462135116668L86.16705729166667,119.51107767379528L86.40774739583334,97.44363341424611L86.6484375,76.1754229229316L86.88912760416667,75.40104141602664L87.12981770833333,91.48593681913466L87.3705078125,110.68155029035718L87.61119791666667,115.81278161774343L87.85188802083333,117.92584523898522L88.092578125,109.34489224459027L88.33326822916668,85.95070864620983L88.57395833333332,59.312334208865025L88.8146484375,81.731783070671L89.05533854166667,89.90979964048114L89.29602864583333,113.22244061386851L89.53671875,118.02380575153988L89.77740885416667,100.06105162151908L90.01809895833333,102.01762663691198L90.2587890625,108.26789150457954L90.49947916666667,128.81297879708632L90.74016927083333,102.34613336499228L90.980859375,102.33731059059916L91.22154947916667,122.55110531643281L91.46223958333333,120.54397720751317L91.7029296875,125.12547226343843L91.94361979166668,146.0351318864184L92.18430989583332,132.1168070821856L92.425,133.15238579743473L92.66569010416667,133.12657093187195L92.90638020833333,128.72342276084436L93.1470703125,95.98296956126698L93.38776041666667,99.59688606801512L93.62845052083333,96.32180963124561L93.869140625,105.15818764666157L94.10983072916666,116.56390383183619L94.35052083333333,120.39167038106716L94.59121093750001,105.81080845298646L94.83190104166665,94.10070491017268L95.07259114583333,108.96109095919948L95.31328125,87.43870997851384L95.55397135416666,86.64809553876694L95.79466145833334,99.23258118662343L96.03535156250001,87.93599037428561L96.27604166666666,87.42488617956558L96.51673177083333,98.45841079509209L96.757421875,90.95274224016639L96.99811197916667,100.5174843855713L97.23880208333334,90.92771195101821L97.4794921875,105.62533804314188L97.72018229166666,103.18088151536494L97.96087239583333,115.21252308203049L98.20156250000001,127.74474181481162L98.44225260416667,118.5494013383863L98.68294270833333,108.90273640482889L98.9236328125,102.26116416710175L99.16432291666666,121.64637399826981L99.40501302083334,124.37489801415525L99.645703125,128.30281785290674L99.88639322916667,130.31251359082003L100.12708333333333,88.52557717023338L100.36777343749999,107.93326601241853L100.60846354166667,108.55681452962652L100.84915364583334,115.41852677054939L101.08984375,126.92401022873963L101.33053385416666,136.3360032523432L101.57122395833333,128.0884783705925L101.8119140625,130.4551588827881L102.05260416666667,127.09884248581605L102.29329427083334,120.23698779289174L102.53398437499999,114.05883847978265L102.77467447916666,119.19354790929883L103.01536458333334,108.79964793314892L103.2560546875,113.0637238686702L103.49674479166667,104.81177275868782L103.73743489583335,113.75183732505161L103.97812499999999,137.63407867890908L104.21881510416667,124.75325282360501L104.45950520833334,131.33548779753082L104.7001953125,86.66675828377744L104.94088541666667,60.86859557914937L105.18157552083333,84.28805153303267L105.422265625,124.3593903950329L105.66295572916667,120.30109081992359L105.90364583333333,132.26324888067754L106.1443359375,132.02087140677756L106.38502604166668,130.93833393215172L106.62571614583332,125.65278621231933L106.86640625,109.30735218951357L107.10709635416667,118.96819530385287L107.34778645833333,128.23688752923937L107.5884765625,124.54046372458059L107.82916666666667,136.24618708571623L108.06985677083333,120.22483192968865L108.310546875,130.75922465079128L108.55123697916667,127.00818934889496L108.79192708333333,121.45360718877231L109.0326171875,81.52388086742828L109.27330729166667,73.12581378118199L109.51399739583333,95.45110660431385L109.7546875,114.90528264872792L109.99537760416668,127.64811439503767L110.23606770833332,120.93801194244345L110.4767578125,109.64185373672082L110.71744791666667,122.37786744945188L110.95813802083333,133.42006167121494L111.198828125,119.84415100126125L111.43951822916667,122.55220097368156L111.68020833333333,87.96019232908007L111.9208984375,117.6195233204312L112.16158854166666,132.674965987405L112.40227864583333,108.96514995086241L112.64296875000001,108.28385612182646L112.88365885416665,119.80745288618104L113.12434895833333,136.61036823324977L113.3650390625,144.3435928412236L113.60572916666666,132.01609054732066L113.84641927083334,124.45133214311446L114.08710937500001,118.87261416981605L114.32779947916666,113.30436899048082L114.56848958333333,127.59050434995886L114.8091796875,133.37765492599723L115.04986979166667,140.50534726888847L115.29055989583334,131.37610362893886L115.53125,144.6211199219617L115.77194010416666,137.57446199092823L116.01263020833333,112.5394155587766L116.25332031250001,93.32434772884926L116.49401041666667,122.11860857716847L116.73470052083333,133.8861703578332L116.975390625,133.70809063933487L117.21608072916666,138.1009564824235L117.45677083333334,131.3820874200661L117.6974609375,136.44670625218149L117.93815104166667,125.43768922202821L118.17884114583333,139.90466373391772L118.41953124999999,143.8138317166437L118.66022135416667,121.4923059939545L118.90091145833334,136.85565312350997L119.1416015625,115.1767624237848L119.38229166666666,133.03454899601417L119.62298177083333,88.69879140145943L119.863671875,95.96192407719712L120.10436197916667,62.81318528719197L120.34505208333334,84.18693007390172L120.58574218749999,86.85981905675214L120.82643229166666,115.02099654207397L121.06712239583334,133.5567056767927L121.3078125,112.99360445337214L121.54850260416667,112.97853089986275L121.78919270833335,126.93005410801193L122.02988281249999,141.64026796502364L122.27057291666667,130.46812248934802L122.51126302083334,108.81889579719002L122.751953125,118.59321637168944L122.99264322916667,97.02407450804365L123.23333333333333,124.96664571213275L123.4740234375,130.37714818982812L123.71471354166667,140.39283972304185L123.95540364583333,148.1511779670186L124.19609375,131.23684925998847L124.43678385416668,115.4837479571438L124.67747395833332,101.55359004616358L124.9181640625,77.18775682854424L125.15885416666667,103.1518683714138L125.39954427083333,113.27406430437959L125.640234375,133.57754578855514L125.88092447916667,109.70601939956474L126.12161458333333,111.37649664461689L126.3623046875,104.53916177558945L126.60299479166667,130.7229612508896L126.84368489583333,133.3690417194058L127.084375,127.51276055179176L127.32506510416667,122.11282197059475L127.56575520833333,126.2643836731987L127.8064453125,91.25882504554254L128.04713541666666,81.9037534723977L128.28782552083334,109.50510121615527L128.528515625,105.43286629755377L128.76920572916669,119.30916203402924L129.00989583333333,135.56733099277884L129.2505859375,125.39718496296449L129.49127604166665,126.05597352381731L129.73196614583333,139.72797739145867L129.97265625,122.70609527312345L130.21334635416665,145.5509631617822L130.45403645833332,130.4166250785564L130.6947265625,146.68857071610537L130.93541666666667,128.0738309789434L131.17610677083334,100.30362529568285L131.41679687500002,117.19186462171322L131.65748697916666,125.95518588249352L131.89817708333334,134.6974803774027L132.1388671875,103.69887719562458L132.37955729166666,128.5367741004277L132.62024739583333,124.6915888318806L132.8609375,131.19961987014943L133.10162760416665,137.0925519187828L133.34231770833333,137.81861474928738L133.5830078125,142.1256160352676L133.82369791666667,142.93576464885763L134.06438802083335,154.3114284043568L134.305078125,103.95602192074404L134.54576822916667,136.6350845111331L134.78645833333334,130.36727075355773L135.02714843750002,117.83519651637985L135.26783854166666,102.72567525593348L135.50852864583334,123.389090078103L135.74921874999998,117.55055666984764L135.98990885416666,93.60746505869417L136.23059895833333,88.44267473824613L136.4712890625,124.7410976377594L136.71197916666665,121.56760170385047L136.95266927083333,124.7003959317494L137.193359375,120.80243461427023L137.43404947916667,127.36222696064073L137.67473958333335,140.8808668151984L137.9154296875,131.25257096263704L138.15611979166667,108.93742096765601L138.39680989583334,105.75004411544658L138.6375,132.49899498704826L138.87819010416666,131.30266634275768L139.11888020833334,144.93082484841497L139.35957031249998,159.80767634654134L139.60026041666666,159.95518636640364L139.84095052083333,158.95169915071997L140.081640625,137.02917656488344L140.32233072916668,108.8080422889419L140.56302083333335,117.82536719508334L140.8037109375,109.02450517277337L141.04440104166667,123.96888281828414L141.28509114583335,132.68657372102888L141.52578125,138.83924832764714L141.76647135416667,145.3474979986158L142.00716145833331,146.54146927830024L142.2478515625,148.50003275118138L142.48854166666666,120.60833276415984L142.72923177083334,133.61712334367704L142.969921875,112.60131315477534L143.21061197916666,125.69849757157472L143.45130208333333,114.23970056654635L143.6919921875,130.5248134036757L143.93268229166668,136.05521663128718L144.17337239583333,148.36624995231261L144.4140625,149.0971972680666L144.65475260416667,136.54239137688742L144.89544270833335,135.0062749309508L145.1361328125,150.686764090399L145.37682291666667,145.50930582531697L145.61751302083334,150.3813470798636L145.858203125,163.8370842179897L146.09889322916666,156.85720435328736L146.33958333333334,156.0650278809515L146.58027343749998,149.4352057029514L146.82096354166666,132.47583458421877L147.06165364583333,118.62074399649052L147.30234375,117.32390800809233L147.54303385416668,86.97990482267957L147.78372395833335,110.87921223322881L148.0244140625,115.51598221230707L148.26510416666665,126.57897811632276L148.50579427083332,115.19364799857689L148.746484375,138.42578901976677L148.98717447916667,134.39664388078648L149.22786458333334,76.71596496330618L149.4685546875,90.0254125924523L149.70924479166666,118.28138596156927L149.94993489583334,136.60097893529945L150.190625,130.2631826576818L150.43131510416669,109.45576031668358L150.67200520833333,94.14420165814978L150.91269531249998,104.9478835743548L151.15338541666665,94.57114945542105L151.39407552083333,102.88998402471118L151.634765625,100.01523574480278L151.87545572916667,127.51806520991839L152.11614583333332,112.4201018814642L152.3568359375,135.84883123513453L152.59752604166667,136.72041513846156L152.83821614583334,145.42016276613376L153.07890625000002,140.22333358463945L153.3195963541667,145.22611956290783L153.5602864583333,133.2613464563631L153.80097656249998,145.0408974078025L154.04166666666666,126.91074809054885L154.28235677083333,142.1196375466606L154.523046875,132.51979233784803L154.76373697916668,116.5372012613018L155.00442708333333,133.90168978022336L155.2451171875,130.75093652157068L155.48580729166667,139.57319858281662L155.72649739583335,138.98466792171507L155.96718750000002,128.82270074168034L156.20787760416667,143.25405943560116L156.44856770833331,139.97997672657675L156.6892578125,127.67335887432402L156.92994791666666,117.62984627294722L157.17063802083334,138.25852522437683L157.411328125,121.62094042113367L157.65201822916666,120.47687630004255L157.89270833333333,128.38392142442802L158.1333984375,129.35078956477605L158.37408854166668,146.73976616884926L158.61477864583335,146.0582686339358L158.85546875,148.46720057872173L159.09615885416665,109.02792976586365L159.33684895833332,134.77405077390875L159.5775390625,148.8382897461832L159.81822916666667,147.537032922231L160.05891927083334,149.74335142977407L160.29960937500002,164.1542587068371L160.54029947916666,155.66544296066118L160.78098958333334,149.66552944910617L161.0216796875,123.8977667148834L161.26236979166666,96.34741672014746L161.50305989583333,115.17539487561913L161.74375,129.85181146282753L161.98444010416665,134.3831155444312L162.22513020833333,131.08829834432171L162.4658203125,128.4550753228114L162.70651041666667,113.72019495917834L162.94720052083335,118.97000025423453L163.187890625,125.24615038759762L163.42858072916667,146.77666732044372L163.66927083333334,133.401831879445L163.9099609375,139.84701918615585L164.15065104166666,144.90410944702438L164.39134114583334,129.18647865880854L164.63203124999998,122.67354572969275L164.87272135416666,119.98835154865738L165.11341145833333,114.68167042728996L165.3541015625,113.826399788241L165.59479166666668,141.03270445613887L165.83548177083335,149.6045406809379L166.076171875,125.77766146069345L166.31686197916665,133.53576438013062L166.55755208333332,148.50187620004024L166.7982421875,140.20044484424596L167.03893229166667,151.81607508026366L167.27962239583334,157.75834790535453L167.5203125,149.31806995372582L167.76100260416666,153.09143252909547L168.00169270833334,154.00691459620217L168.2423828125,135.83176873054637L168.48307291666669,144.25991061882098L168.72376302083333,144.57046344164561L168.96445312499998,144.61876787712305L169.20514322916665,137.85548540633994L169.44583333333333,141.78953352828074L169.6865234375,148.5102865458086L169.92721354166667,147.22231340471237L170.16790364583332,138.9670397404631L170.40859375,128.17938098095655L170.64928385416667,106.6690848635602L170.88997395833334,126.2397247339468L171.13066406250002,137.11254945756082L171.3713541666667,140.18188219732693L171.6120442708333,140.53291537145765L171.85273437499998,149.55398271548742L172.09342447916666,152.93685820888277L172.33411458333333,153.4730498414683L172.5748046875,160.50978400984096L172.81549479166668,161.94997225808314L173.05618489583333,153.87612756256587L173.296875,154.46015659817652L173.53756510416667,136.4722974172151L173.77825520833335,138.4777214360783L174.01894531250002,132.8421772052377L174.25963541666667,124.45209051248608L174.50032552083331,130.89594034300552L174.741015625,141.40176160303537L174.98170572916666,153.47949840302934L175.22239583333334,160.73418751240175L175.4630859375,157.44377699572087L175.70377604166666,164.59437867524173L175.94446614583333,145.5978545369026L176.18515625,149.65072835065823L176.42584635416668,141.24112198399243L176.66653645833335,154.626235607396L176.9072265625,162.5698882762375L177.14791666666665,164.3165184824933L177.38860677083332,165.96819524730859L177.629296875,171.54129680627952L177.86998697916667,172.38910822575912L178.11067708333334,157.52982907000555L178.35136718750002,157.09475443663223L178.59205729166666,160.49825324804797L178.83274739583334,150.79909180516728L179.0734375,166.5882043252273L179.31412760416666,158.65074349849723L179.55481770833333,157.07239555513445L179.7955078125,169.0520067938154L180.03619791666665,174.05514254140766L180.27688802083333,173.27353351469583L180.517578125,168.75250834766476L180.75826822916667,160.66211178179648L180.99895833333335,165.8896048823063L181.2396484375,161.5874641081133L181.48033854166667,161.28308014365663L181.72102864583334,158.8673424067654L181.96171875,133.85937990203843L182.20240885416666,138.71154413643686L182.44309895833334,149.6665039585424L182.68378906249998,159.76814904891805L182.92447916666666,152.57623589386557L183.16516927083333,144.37222060769804L183.405859375,138.81089418357615L183.64654947916668,122.40945205525163L183.88723958333335,133.28784776142598L184.1279296875,138.78468475586988L184.36861979166665,141.69266823438892L184.60930989583332,158.74035838623698L184.85,128.65419073331267L185.09069010416667,131.4649478937859L185.33138020833334,127.36553531859367L185.5720703125,115.90490429683952L185.81276041666666,91.18296544602173L186.05345052083334,106.25497397691403L186.294140625,112.58631437069411L186.53483072916669,99.0837232354059L186.77552083333333,129.36860208855717L187.01621093749998,122.23935386029866L187.25690104166665,122.07095150344365L187.49759114583333,137.16514124389167L187.73828125,142.13209198663043L187.97897135416667,149.00940236150865L188.21966145833332,109.07441375076559L188.4603515625,111.78425104272236L188.70104166666667,131.75259200395269L188.94173177083334,148.48326797283366L189.18242187500002,152.63908671734734L189.4231119791667,161.74428012682796L189.6638020833333,149.98660758563162L189.90449218749998,143.3539759333627L190.14518229166666,146.57553081904035L190.38587239583333,144.81199183579793L190.6265625,143.55975858877008L190.86725260416668,141.98820717042628L191.10794270833333,142.47525796834196L191.3486328125,146.0003567832325L191.58932291666667,153.71104494468057L191.83001302083335,145.14078463456443L192.07070312500002,164.3708344276855L192.31139322916667,156.8955394253796L192.55208333333331,167.5635411903659L192.7927734375,155.21598760577436L193.03346354166666,142.34063444013833L193.27415364583334,130.01586609468126L193.51484375,141.42145574024477L193.75553385416666,155.16215947378373L193.99622395833333,160.86289093559202L194.2369140625,167.28850229630004L194.47760416666668,151.81047749846655L194.71829427083335,142.3419938762753L194.958984375,156.38829776226095L195.19967447916665,156.7576421876467L195.44036458333332,156.07938866196375L195.6810546875,163.2339539043802L195.92174479166667,157.6943823360025L196.16243489583334,144.01388708130236L196.40312500000002,161.1251161873383L196.64381510416666,144.69779138446108L196.88450520833334,157.46438194397246L197.1251953125,127.40952836324665L197.36588541666666,131.26366574078733L197.60657552083333,139.95520717656575L197.847265625,139.55963159058072L198.08795572916665,134.50416498454558L198.32864583333333,128.52111729724496L198.5693359375,132.28854706432395L198.81002604166667,139.8359441059588L199.05071614583335,141.9503684683298L199.29140625,154.91019560731382L199.53209635416667,158.93103108755903L199.77278645833334,149.09078283579444L200.0134765625,143.45331470651206L200.25416666666666,152.7485936476754L200.49485677083334,136.31806011462015L200.73554687499998,146.18803344347359L200.97623697916666,156.03796739088466L201.21692708333333,157.28388298426253L201.4576171875,114.8301322333466L201.69830729166668,126.3897069825203L201.93899739583335,140.42854962846462L202.1796875,110.18192808092131L202.42037760416665,113.21286345577536L202.66106770833332,132.369691060819L202.9017578125,151.43084572141635L203.14244791666667,155.61785937330285L203.38313802083334,147.89411564160085L203.623828125,157.80220914103802L203.86451822916666,150.44063685666453L204.10520833333334,155.65446053344567L204.3458984375,158.07373522757626L204.58658854166669,163.51171689801893L204.82727864583333,146.90989165945936L205.06796874999998,142.41467594173005L205.30865885416665,141.46958341042074L205.54934895833333,155.6151166340105L205.7900390625,147.0318308431144L206.03072916666667,153.44363652814837L206.27141927083332,159.60563085019237L206.512109375,144.43056674623278L206.75279947916667,140.30639154209965L206.99348958333334,124.8009712040083L207.23417968750002,138.62771015254594L207.4748697916667,156.00564907424413L207.7155598958333,152.11926202882984L207.95624999999998,157.60373678749596L208.19694010416666,152.58456747797607L208.43763020833333,158.239977643296L208.6783203125,148.61103075766854L208.91901041666668,148.20238557919438L209.15970052083333,161.18993363284812L209.400390625,166.2953902922794L209.64108072916667,171.6278382155433L209.88177083333335,173.39602832723466L210.12246093750002,178.85705561737007L210.36315104166667,165.92921945631375L210.60384114583331,154.94732588338775L210.84453125,166.4221743385966L211.08522135416666,171.82117609551403L211.32591145833334,170.02999757153302L211.5666015625,167.00352317644663L211.80729166666666,172.35305136027043L212.04798177083333,169.72688638169828L212.288671875,167.50512777715483L212.52936197916668,147.9910124418113L212.77005208333335,139.29307117920956L213.0107421875,104.7949935428014L213.25143229166665,126.91599783043328L213.49212239583332,142.58337893778244L213.7328125,152.07005667057132L213.97350260416667,150.287103608945L214.21419270833334,138.16916265827356L214.45488281250002,151.34737146044932L214.69557291666666,152.87890254643656L214.93626302083334,150.9253244739002L215.176953125,152.2923002491132L215.41764322916666,144.78149589894628L215.65833333333333,157.31462502702124L215.8990234375,142.82954131498366L216.13971354166665,150.1289855476286L216.38040364583333,157.8451928532759L216.62109375,146.45511877159115L216.86178385416667,148.62088806551597L217.10247395833335,141.43931213689984L217.3431640625,139.34773330493653L217.58385416666667,143.26735690149002L217.82454427083334,150.61664357133108L218.065234375,149.39443573115707L218.30592447916666,155.59488756214643L218.54661458333334,151.4023638099734L218.78730468749998,144.06880874814414L219.02799479166666,135.41493052769792L219.26868489583333,149.52248570191318L219.509375,162.3905472695378L219.75006510416668,159.1144532569973L219.99075520833335,125.36437726072838L220.2314453125,121.6628220680497L220.47213541666665,120.38664343375815L220.71282552083332,141.80743167277487L220.953515625,141.54414941952416L221.19420572916667,142.28983166268938L221.43489583333334,160.80190971055012L221.6755859375,173.3932627688848L221.91627604166666,167.7701046079995L222.15696614583334,159.96488259944928L222.39765625,154.5602703062511L222.63834635416669,153.26647445516687L222.87903645833333,148.26505682740748L223.11972656249998,148.5081019975194L223.36041666666665,149.36462474628976L223.60110677083333,156.61116820880585L223.841796875,155.74724488740455L224.08248697916667,160.9836101444679L224.32317708333332,166.43979292733178L224.5638671875,147.32989913596336L224.80455729166667,155.38614316507352L225.04524739583334,162.5116801200758L225.28593750000002,153.37798087826076L225.5266276041667,155.41745576578796L225.7673177083333,165.9616355512644L226.00800781249998,151.5844991096321L226.24869791666666,147.02890108158965L226.48938802083333,136.76212752837407L226.730078125,127.20963256942314L226.97076822916668,129.14760341576982L227.21145833333333,124.01584182281643L227.4521484375,151.71755810252932L227.69283854166667,131.63882230920856L227.93352864583335,116.45482979239979L228.17421875000002,126.47282973540999L228.41490885416667,120.59999774165854L228.65559895833331,136.79479234229268L228.8962890625,147.79101226067985L229.13697916666666,132.03913819692403L229.37766927083334,152.8274947011582L229.618359375,155.17987897271584L229.85904947916666,150.61449649497672L230.09973958333333,156.95055297204738L230.3404296875,155.3931910257869L230.58111979166668,147.925279668649L230.82180989583335,120.14225061039923L231.0625,139.15351794243335L231.30319010416665,116.25070172596263L231.54388020833332,130.21481940626077L231.7845703125,145.22018486844883L232.02526041666667,152.2238162522756L232.26595052083334,145.26396617384214L232.50664062500002,143.39052196795618L232.74733072916666,150.79831372472572L232.98802083333334,144.68479566140726L233.2287109375,144.89640534736967L233.46940104166666,153.98929823081644L233.71009114583333,155.19354780102344L233.95078125,137.89904933324203L234.19147135416665,158.627289731954L234.43216145833333,165.5220205200639L234.6728515625,169.5914575390772L234.91354166666667,165.5402035837028L235.15423177083335,162.40413080004774L235.394921875,142.3592314383264L235.63561197916667,146.6421499571726L235.87630208333334,146.44177120903285L236.1169921875,146.72853216367454L236.35768229166666,144.57848534785205L236.59837239583334,151.75564785929024L236.83906249999998,145.51263141114413L237.07975260416666,151.39603509890375L237.32044270833333,153.44328093312586L237.5611328125,149.8703674333239L237.80182291666668,152.369586483058L238.04251302083335,162.01320881123345L238.283203125,155.71765248313548L238.52389322916665,152.40865131220224L238.76458333333332,161.64306726456283L239.0052734375,149.74551669001937L239.24596354166667,158.33705219024634L239.48665364583334,154.96587552216184L239.72734375,150.43177236072142L239.96803385416666,136.70798817546319L240.20872395833334,151.59113187057466L240.4494140625,152.87160717673714L240.69010416666669,153.42824309156904L240.93079427083333,158.6763787900601L241.17148437499998,164.62472506449782L241.41217447916665,153.29080256573062L241.65286458333333,156.69736600966274L241.8935546875,160.2429704877795L242.13424479166667,171.6592903849072L242.37493489583332,148.01588620642343L242.615625,137.95370492279244L242.85631510416667,154.38478750401563L243.09700520833334,147.87478364356653L243.33769531250002,155.19493327050387L243.5783854166667,161.42717900579558L243.8190755208333,148.1949353170716L244.05976562499998,154.90014998479623L244.30045572916666,143.18409508385622L244.54114583333333,134.35828395139197L244.7818359375,142.23471485198152L245.02252604166668,152.94909827632077L245.26321614583333,155.44167596383315L245.50390625,152.88893379886997L245.74459635416667,162.94372501742873L245.98528645833335,148.91904802186508L246.22597656250002,161.9798662032975L246.46666666666667,152.7954294631656L246.70735677083331,136.29781876503085L246.948046875,159.29548585171943L247.18873697916666,154.60750404897595L247.42942708333334,162.5862765522496L247.6701171875,148.7335967786131L247.91080729166666,144.5300040046583L248.15149739583333,161.2882847778625L248.3921875,159.0466466005222L248.63287760416668,147.22938731942034L248.87356770833335,158.70073012789163L249.1142578125,160.66636171954914L249.35494791666665,142.77112000297333L249.59563802083332,139.03259062535062L249.836328125,152.6029103935748L250.07701822916667,128.61811817234693L250.31770833333334,135.26276579228605L250.55839843750002,155.94146308885553L250.79908854166666,170.10284254714276L251.03977864583334,159.73585514732852L251.28046875,163.51532446598205L251.52115885416666,142.8936872855138L251.76184895833333,148.25333250315853L252.0025390625,146.46957492382447L252.24322916666665,135.64255441457703L252.48391927083333,141.60831441271708L252.724609375,134.12466510408166L252.96529947916667,132.61795583828118L253.20598958333335,135.67527896144287L253.4466796875,137.57286746787008L253.68736979166667,142.3991821243583L253.92805989583334,138.4143190195691L254.16875,148.51937618169376L254.40944010416666,147.769469941039L254.65013020833334,151.93981871120877L254.89082031249998,145.562967146115L255.13151041666666,150.44820069502381L255.37220052083333,133.1341187103426L255.612890625,146.97835162096234L255.85358072916668,127.31801574714787L256.0942708333333,137.0939007508028L256.3349609375,141.54977867795637L256.5756510416667,151.15937132414348L256.81634114583335,132.34978932306868L257.05703125,138.4343416447383L257.2977213541667,154.57515257849946L257.53841145833337,143.60917155298384L257.7791015625,141.78652725131985L258.01979166666666,134.3797256679039L258.26048177083334,135.15168906931282L258.501171875,144.42014108260992L258.7418619791667,154.7673010403545L258.9825520833333,157.08170253632255L259.2232421875,148.13391573785418L259.46393229166665,127.95194440519019L259.7046223958333,145.57007260209443L259.9453125,150.44892707369402L260.1860026041667,151.67321957887216L260.4266927083333,141.7964641406596L260.66738281249997,147.6405733930743L260.90807291666664,136.56131553695656L261.1487630208333,154.75135349956787L261.389453125,141.24723401801367L261.63014322916666,139.27081466398585L261.87083333333334,137.2924111019489L262.1115234375,144.38607078080875L262.3522135416667,139.28890973499716L262.59290364583336,158.32425877144217L262.83359375000003,160.75820600950885L263.0742838541667,163.52480951675278L263.3149739583333,170.98658682914675L263.5556640625,170.41579006470502L263.7963541666667,167.42936304871594L264.03704427083335,170.0664720649383L264.277734375,179.74689390636155L264.5184244791667,164.91182080135744" style="fill: none;" fill="none"></path></g></g></g></g><g opacity="0.2"><g><g><g><path stroke="rgb(0, 119, 187)" stroke-width="2px" d="M28.642122395833333,-177.68059247732154L28.8828125,6.6867411732673645L29.123502604166667,17.23834580183029L29.364192708333334,-236.12056741118423L31.0490234375,-132.94396215677259L31.289713541666668,3.462034597992897L31.53040364583333,-88.74773034453388L32.011783854166666,-85.34508445858951L32.25247395833333,30.13036733865738L32.4931640625,25.521392360329628L32.73385416666667,53.03919969499111L32.974544270833334,23.08763413131237L33.215234375,18.288191691040993L33.45592447916667,4.031181916594505L33.696614583333336,16.242186337709427L33.937304687499996,41.57470165193081L34.17799479166666,-71.33410120010372L34.41868489583334,76.97349420189857L34.659375,-33.1298072040081L34.900065104166664,39.32141473889351L35.14075520833334,-0.9778762757778168L35.3814453125,13.640010192990303L35.622135416666666,-2.9406155794858932L35.86282552083333,6.5299414694309235L36.103515625,18.715019211173058L36.34420572916667,-55.566803008317905L36.584895833333334,42.547888442873955L36.8255859375,49.22522163391113L37.06627604166666,55.4173988699913L37.306966145833336,-17.202847614884377L37.54765625,-34.07086917757988L37.78834635416666,108.56072860211134L38.02903645833333,-16.166716754436493L38.269726562500004,2.5341733396053314L38.510416666666664,77.27347089350224L38.75110677083333,74.93625855445862L38.991796875000006,-33.5927157998085L39.232486979166666,-2.2799995690584183L39.47317708333333,108.77904152870178L39.7138671875,76.69108329713345L39.95455729166667,30.762036725878716L40.195247395833334,15.93851713836193L40.4359375,115.84290115535259L40.67662760416667,17.306367069482803L40.917317708333336,141.83428513258696L41.158007812499996,67.54652193188667L41.39869791666667,36.33070765435696L41.63938802083333,94.50763756781816L41.880078125,-10.982304006814957L42.12076822916667,42.322210282087326L42.36145833333333,43.94211342930794L42.6021484375,34.40327136218548L42.84283854166667,5.6662770956754684L43.08352864583333,61.0895918905735L43.32421875,103.23839409649372L43.56490885416667,50.775982573628426L43.805598958333334,43.09374658763409L44.0462890625,18.499851509928703L44.28697916666666,63.87943974137306L44.527669270833336,14.947513997554779L44.768359375,107.6666603833437L45.00904947916666,45.29346576333046L45.24973958333334,85.71710197627544L45.4904296875,54.42840023338795L45.731119791666664,-13.896035492420197L45.97180989583334,46.18792301416397L46.2125,81.42059227824211L46.453190104166666,-28.0559059381485L46.69388020833333,-11.856505215168L46.9345703125,60.18246142566204L47.17526041666667,52.09706953167915L47.41595052083333,62.81374244391918L47.656640625,35.03140649199486L47.89733072916667,40.689633920788765L48.13802083333333,34.32452863454819L48.3787109375,-10.713370755314827L48.61940104166667,83.59409464895725L48.86009114583333,70.62426669895649L49.100781250000004,44.32503966987133L49.341471354166664,72.72353647649288L49.58216145833333,116.00794306397438L49.8228515625,107.098706535995L50.063541666666666,59.89979995787144L50.30423177083333,73.4793004989624L50.544921875,36.93203254044056L50.78561197916667,35.10131357610226L51.026302083333334,91.81941939890385L51.266992187499994,65.73934270441532L51.50768229166667,28.021140977740288L51.748372395833336,44.47804136574268L51.989062499999996,74.56752209365368L52.22975260416667,-21.304709404706955L52.47044270833334,81.46901687979698L52.7111328125,-7.468566387891769L52.951822916666664,-87.45833301544185L53.19251302083334,46.11014297604561L53.433203125,66.95785707235336L53.673893229166666,47.460677683353424L53.91458333333333,137.84013906866312L54.1552734375,49.53388890624046L54.39596354166667,33.650738283991814L54.636653645833334,70.45694334805012L54.87734375,92.15859601646662L55.11803385416666,62.86241760849953L55.358723958333336,81.52722662687302L55.5994140625,92.54217503964901L55.84010416666666,63.00642541050911L56.08079427083333,92.13534640520811L56.321484375000004,69.07955883443356L56.562174479166664,35.64275389909744L56.80286458333333,108.05836951732635L57.043554687500006,125.43317458033562L57.284244791666666,74.6841394007206L57.52493489583333,111.67313678562641L57.765625,4.569496795535088L58.00631510416667,14.278246968984604L58.247005208333334,26.878402143716812L58.4876953125,107.51323668658733L58.72838541666667,120.7448106855154L58.969075520833336,109.85117433965206L59.209765624999996,50.42334808409214L59.45045572916667,48.69704796373844L59.69114583333333,144.49083345383406L59.9318359375,-3.019925370812416L60.17252604166667,128.71227970719337L60.41321614583333,93.1094761043787L60.65390625,123.88857880979776L60.89459635416667,96.30493933707476L61.13528645833333,19.335307762026787L61.3759765625,126.19994359463453L61.61666666666667,101.86292836815119L61.857356770833334,72.289943754673L62.098046875,127.3056518509984L62.33873697916666,97.30086801946163L62.579427083333336,23.351490184664726L62.8201171875,46.534662678837776L63.06080729166666,29.083317205309868L63.30149739583334,73.75718808174133L63.5421875,23.891150191426277L63.782877604166664,68.68285162746906L64.02356770833333,70.27296414971352L64.2642578125,3.9123886674642563L64.50494791666667,63.43892356753349L64.74563802083333,61.36125496029854L64.986328125,24.80317322909832L65.22701822916666,48.22383990883827L65.46770833333333,73.0009097456932L65.70839843750001,101.28602678328753L65.94908854166667,27.384526267647743L66.18977864583333,139.46667554229498L66.43046875,71.26984892785549L66.67115885416666,97.7311242967844L66.91184895833334,141.48419583588839L67.1525390625,92.3371617347002L67.39322916666667,67.89268134534359L67.63391927083333,16.115019008517265L67.87460937499999,123.64233469963074L68.11529947916667,52.89720958471298L68.35598958333333,141.78020967543125L68.5966796875,52.90464735031128L68.83736979166667,115.01428923010826L69.07805989583333,94.78901325166225L69.31875,68.94172279536724L69.55944010416667,152.04960780590773L69.80013020833333,125.04787458479404L70.0408203125,73.43157483637333L70.28151041666668,94.595881909132L70.52220052083334,6.891741290688515L70.762890625,56.987374037504196L71.00358072916666,69.95469635725021L71.24427083333333,37.366627514362335L71.4849609375,38.30999730527401L71.72565104166667,54.34632106125355L71.96634114583334,105.57954950630665L72.20703125,64.79949398338795L72.44772135416667,50.82055641710758L72.68841145833333,89.7374384701252L72.9291015625,10.625209495425224L73.16979166666667,148.50859837979078L73.41048177083333,106.77013928443193L73.651171875,41.0632893294096L73.89186197916668,39.230855986475945L74.13255208333332,57.228059604763985L74.3732421875,84.99526946246624L74.61393229166667,126.05033768713474L74.85462239583333,144.71753035113215L75.0953125,158.1872216463089L75.33600260416667,127.82979013770819L75.57669270833333,63.93404929339886L75.8173828125,113.09453467279673L76.05807291666666,50.93327021598816L76.29876302083333,72.85729756951332L76.53945312500001,92.7405154556036L76.78014322916665,81.86755715310574L77.02083333333333,126.34098420292139L77.2615234375,117.78985498845577L77.50221354166666,93.82462254166603L77.74290364583334,69.7147756665945L77.98359375000001,138.95720178633928L78.22428385416666,73.51333750784397L78.46497395833333,144.93308049067855L78.7056640625,154.30443765968084L78.94635416666667,44.23829211294651L79.18704427083334,41.589418932795525L79.427734375,95.02731847018003L79.66842447916666,109.93240291625261L79.90911458333333,167.19513714686036L80.14980468750001,89.34811627864838L80.39049479166667,72.69073909521103L80.63118489583333,167.95226278156042L80.871875,105.2785507813096L81.11256510416666,65.85859751701355L81.35325520833334,101.97756754606962L81.5939453125,99.38828220963478L81.83463541666667,79.53960245847702L82.07532552083333,79.67251954972744L82.31601562499999,105.715809635818L82.55670572916667,115.36361365020275L82.79739583333334,104.43661285936832L83.0380859375,69.1621391326189L83.27877604166666,143.25057285279036L83.51946614583333,144.56176916509867L83.76015625,136.8393705636263L84.00084635416667,122.1247931420803L84.24153645833334,84.98114562034607L84.48222656249999,117.51999201625586L84.72291666666666,80.168251901865L84.96360677083334,122.13269906491041L85.204296875,89.38261485099792L85.44498697916667,148.27399555966258L85.68567708333335,154.90747362747788L85.92636718749999,138.32038266956806L86.16705729166667,95.26576215773821L86.40774739583334,64.34246702492237L86.6484375,44.273107185959816L86.88912760416667,74.23946915566921L87.12981770833333,115.61327992379665L87.3705078125,139.47497049719095L87.61119791666667,123.50962860882282L87.85188802083333,121.09544067084789L88.092578125,96.47346275299788L88.33326822916668,50.85943324863911L88.57395833333332,19.354772552847862L88.8146484375,115.36095636337996L89.05533854166667,102.17682449519634L89.29602864583333,148.19140207394958L89.53671875,125.22585345804691L89.77740885416667,73.11692042648792L90.01809895833333,104.95248916000128L90.2587890625,117.64328880608082L90.49947916666667,159.63060973584652L90.74016927083333,62.645865216851234L90.980859375,102.32407642900944L91.22154947916667,152.87179740518332L91.46223958333333,117.53328504413366L91.7029296875,131.99771484732628L91.94361979166668,177.3996213208884L92.18430989583332,111.23931987583637L92.425,134.7057538703084L92.66569010416667,133.08784863352776L92.90638020833333,122.11870050430298L93.1470703125,46.8722897619009L93.38776041666667,105.0177608281374L93.62845052083333,91.40919497609138L93.869140625,118.4127546697855L94.10983072916666,133.67247810959816L94.35052083333333,126.13332020491362L94.59121093750001,83.9395155608654L94.83190104166665,76.53554959595203L95.07259114583333,131.25167003273964L95.31328125,55.15513850748539L95.55397135416666,85.46217387914658L95.79466145833334,118.10930965840816L96.03535156250001,70.99110415577888L96.27604166666666,86.6582298874855L96.51673177083333,115.00869771838188L96.757421875,79.69423940777779L96.99811197916667,114.8645976036787L97.23880208333334,76.54305329918861L97.4794921875,127.67177718132734L97.72018229166666,99.51419672369957L97.96087239583333,133.25998543202877L98.20156250000001,146.54306991398335L98.44225260416667,104.7563906237483L98.68294270833333,94.43273900449276L98.9236328125,92.29880581051111L99.16432291666666,150.72418874502182L99.40501302083334,128.46768403798342L99.645703125,134.19469761103392L99.88639322916667,133.32705719769L100.12708333333333,25.84517253935337L100.36777343749999,137.04479927569628L100.60846354166667,109.49213730543852L100.84915364583334,125.71109513193369L101.08984375,144.18223541602492L101.33053385416666,150.45399278774858L101.57122395833333,115.71719104796648L101.8119140625,134.00517965108156L102.05260416666667,122.06436789035797L102.29329427083334,109.94420575350523L102.53398437499999,104.79161451011896L102.77467447916666,126.89561205357313L103.01536458333334,93.20879796892405L103.2560546875,119.45983777195215L103.49674479166667,92.43384609371424L103.73743489583335,127.16193417459726L103.97812499999999,173.45744070969522L104.21881510416667,105.43201404064894L104.45950520833334,141.2088402584195L104.7001953125,19.663664013147354L104.94088541666667,22.17135152220726L105.18157552083333,119.41723546385765L105.422265625,184.46639868803322L105.66295572916667,114.21364145725965L105.90364583333333,150.20648597180843L106.1443359375,131.65730519592762L106.38502604166668,129.31452772021294L106.62571614583332,117.72446463257074L106.86640625,84.78920115530491L107.10709635416667,133.45945997536182L107.34778645833333,142.1399258673191L107.5884765625,118.99582801759243L107.82916666666667,153.8047721274197L108.06985677083333,96.19279919564724L108.310546875,146.56081373244524L108.55123697916667,121.38163639605045L108.79192708333333,113.12173394858837L109.0326171875,21.629291385412216L109.27330729166667,60.52871315181255L109.51399739583333,128.93904583901167L109.7546875,144.08654671534896L109.99537760416668,146.7623620145023L110.23606770833332,110.87285826355219L110.4767578125,92.69761642813683L110.71744791666667,141.4818880185485L110.95813802083333,149.98335300385952L111.198828125,99.48028499633074L111.43951822916667,126.61427593231201L111.68020833333333,36.07217936217785L111.9208984375,162.10851980745792L112.16158854166666,155.2581299878657L112.40227864583333,73.40042589604855L112.64296875000001,107.26191537827253L112.88365885416665,137.09284803271294L113.12434895833333,161.81474125385284L113.3650390625,155.94342975318432L113.60572916666666,113.5248371064663L113.84641927083334,113.10419453680515L114.08710937500001,110.50453720986843L114.32779947916666,104.95200122147799L114.56848958333333,149.0197073891759L114.8091796875,142.0583807900548L115.04986979166667,151.1968857832253L115.29055989583334,117.68223816901445L115.53125,164.48864436149597L115.77194010416666,127.004475094378L116.01263020833333,74.98684591054916L116.25332031250001,64.50174598395824L116.49401041666667,165.30999984964728L116.73470052083333,151.5375130288303L116.975390625,133.44097106158733L117.21608072916666,144.69025524705648L117.45677083333334,121.30378382652998L117.6974609375,144.04363450035453L117.93815104166667,108.92416367679834L118.17884114583333,161.6051255017519L118.41953124999999,149.67758369073272L118.66022135416667,88.01001740992069L118.90091145833334,159.9006738178432L119.1416015625,82.658426374197L119.38229166666666,159.8212288543582L119.62298177083333,22.195155009627342L119.863671875,106.85662309080362L120.10436197916667,13.090077102184296L120.34505208333334,116.24754725396633L120.58574218749999,90.8691525310278L120.82643229166666,157.26276277005672L121.06712239583334,161.36026937887073L121.3078125,82.14895261824131L121.54850260416667,112.95592056959867L121.78919270833335,147.85733892023563L122.02988281249999,163.7055887505412L122.27057291666667,113.70990427583456L122.51126302083334,76.3450557589531L122.751953125,133.2546972334385L122.99264322916667,64.67036171257496L123.23333333333333,166.88050251826644L123.4740234375,138.49290190637112L123.71471354166667,155.41637702286243L123.95540364583333,159.78868533298373L124.19609375,105.86535619944334L124.43678385416668,91.85409600287676L124.67747395833332,80.65835317969322L124.9181640625,40.63900700211525L125.15885416666667,142.09803568571806L125.39954427083333,128.45735820382833L125.640234375,164.03276801481843L125.88092447916667,73.89872981607914L126.12161458333333,113.88221251219511L126.3623046875,94.28315947204828L126.60299479166667,169.99866046383977L126.84368489583333,137.33816242218018L127.084375,118.7283388003707L127.32506510416667,114.01291409879923L127.56575520833333,132.49172622710466L127.8064453125,38.750487104058266L128.04713541666666,67.87114611268044L128.28782552083334,150.90712283179164L128.528515625,99.32451391965151L128.76920572916669,140.12360563874245L129.00989583333333,159.9545844309032L129.2505859375,110.14196591824293L129.49127604166665,127.04415636509657L129.73196614583333,160.23598319292068L129.97265625,97.17327209562063L130.21334635416665,179.8182649947703L130.45403645833332,107.71511795371771L130.6947265625,171.09648917242885L130.93541666666667,100.15172137320042L131.17610677083334,58.64831677079201L131.41679687500002,142.52422361075878L131.65748697916666,139.100167773664L131.89817708333334,147.81092211976647L132.1388671875,57.20097242295742L132.37955729166666,165.7936194576323L132.62024739583333,118.92381092905998L132.8609375,140.9616664275527L133.10162760416665,145.93194999173284L133.34231770833333,138.90770899504423L133.5830078125,148.58611796423793L133.82369791666667,144.15098756924272L134.06438802083335,171.37492403760552L134.305078125,28.422912195324898L134.54576822916667,185.6536783967167L134.78645833333334,120.96555011719465L135.02714843750002,99.03708516061306L135.26783854166666,80.06139336526394L135.50852864583334,154.38421231135726L135.74921874999998,108.7927565574646L135.98990885416666,57.69282764196396L136.23059895833333,80.69548925757408L136.4712890625,179.1887319870293L136.71197916666665,116.8073578029871L136.95266927083333,129.39958727359772L137.193359375,114.95549263805151L137.43404947916667,137.20191548019648L137.67473958333335,161.15882659703493L137.9154296875,116.81012718379498L138.15611979166667,75.46469597518444L138.39680989583334,100.96897883713245L138.6375,172.62242129445076L138.87819010416666,129.5081733763218L139.11888020833334,165.37306260690093L139.35957031249998,182.12295359373093L139.60026041666666,160.17645139619708L139.84095052083333,157.44646832719445L140.081640625,104.14539268612862L140.32233072916668,66.47634087502956L140.56302083333335,131.35135455429554L140.8037109375,95.82321213930845L141.04440104166667,146.38544928655028L141.28509114583335,145.76311007514596L141.52578125,148.06826023757458L141.76647135416667,155.10987250506878L142.00716145833331,148.33242619782686L142.2478515625,151.4378779605031L142.48854166666666,78.77078278362751L142.72923177083334,153.13030921295285L142.969921875,81.07759787142277L143.21061197916666,145.34427419677377L143.45130208333333,97.05150505900383L143.6919921875,154.9524826593697L143.93268229166668,144.3508214727044L144.17337239583333,166.83279993385077L144.4140625,150.19361824169755L144.65475260416667,117.7101825401187L144.89544270833335,132.70210026204586L145.1361328125,174.20749782957137L145.37682291666667,137.74311842769384L145.61751302083334,157.6894089616835L145.858203125,184.02068992517889L146.09889322916666,146.38738455623388L146.33958333333334,154.87676317244768L146.58027343749998,139.49047243595123L146.82096354166666,107.03677790611982L147.06165364583333,97.8381081148982L147.30234375,115.37865402549505L147.54303385416668,41.46390004456043L147.78372395833335,146.72817334905267L148.0244140625,122.47113718092442L148.26510416666665,143.1734719723463L148.50579427083332,98.11565282195807L148.746484375,173.27400055155158L148.98717447916667,128.35292617231607L149.22786458333334,-9.805053412914276L149.4685546875,109.98958403617144L149.70924479166666,160.66534601524472L149.94993489583334,164.08036839589477L150.190625,120.75648824125528L150.43131510416669,78.24462680518627L150.67200520833333,71.17686367034912L150.91269531249998,121.15340644866228L151.15338541666665,79.00604827702045L151.39407552083333,115.36823587864637L151.634765625,95.7031133249402L151.87545572916667,168.77230940759182L152.11614583333332,89.77315688878298L152.3568359375,170.99192526564002L152.59752604166667,138.02779099345207L152.83821614583334,158.46978420764208L153.07890625000002,132.42808981239796L153.3195963541667,152.7302985303104L153.5602864583333,115.31418679654598L153.80097656249998,162.71022383496165L154.04166666666666,99.71552411466837L154.28235677083333,164.93297173082829L154.523046875,118.12002452462912L154.76373697916668,92.56331464648247L155.00442708333333,159.94842255860567L155.2451171875,126.02480663359165L155.48580729166667,152.80659167468548L155.72649739583335,138.10187193006277L155.96718750000002,113.57974997162819L156.20787760416667,164.9010974764824L156.44856770833331,135.06885266304016L156.6892578125,109.21343209594488L156.92994791666666,102.56457737088203L157.17063802083334,169.2015436515212L157.411328125,96.66456321626902L157.65201822916666,118.76078011840582L157.89270833333333,140.24448911100626L158.1333984375,130.80109177529812L158.37408854166668,172.82323107495904L158.61477864583335,145.03602233156562L158.85546875,152.08059849590063L159.09615885416665,49.8690235465765L159.33684895833332,173.3932322859764L159.5775390625,169.93464820459485L159.81822916666667,145.58514768630266L160.05891927083334,153.05282919108868L160.29960937500002,185.7706196224317L160.54029947916666,142.93221934139729L160.78098958333334,140.66565918177366L161.0216796875,85.24612261354923L161.26236979166666,55.021891728043556L161.50305989583333,143.41736210882664L161.74375,151.8664363436401L161.98444010416665,141.18007166683674L162.22513020833333,126.1460725441575L162.4658203125,124.50524079054594L162.70651041666667,91.61787441372871L162.94720052083335,126.84470819681883L163.187890625,134.6603755876422L163.42858072916667,179.07244271971285L163.66927083333334,113.339578717947L163.9099609375,149.51480014622211L164.15065104166666,152.48974483832717L164.39134114583334,105.61003247648478L164.63203124999998,112.90414633601904L164.87272135416666,115.96056027710438L165.11341145833333,106.72164874523878L165.3541015625,112.54349382966757L165.59479166666668,181.84216145798564L165.83548177083335,162.4622950181365L166.076171875,90.03734263032675L166.31686197916665,145.1729187592864L166.55755208333332,170.9510439299047L166.7982421875,127.7482978105545L167.03893229166667,169.23952043429017L167.27962239583334,166.67175714299083L167.5203125,136.6576530262828L167.76100260416666,158.75147639214993L168.00169270833334,155.38013769686222L168.2423828125,108.56904993206263L168.48307291666669,156.9021234512329L168.72376302083333,145.03629267588258L168.96445312499998,144.69122453033924L169.20514322916665,127.71056170016527L169.44583333333333,147.6906057111919L169.6865234375,158.5914160721004L169.92721354166667,145.29035369306803L170.16790364583332,126.58412924408913L170.40859375,111.99789284169674L170.64928385416667,74.40364068746567L170.88997395833334,155.5956845395267L171.13066406250002,153.42178654298186L171.3713541666667,144.78588130697608L171.6120442708333,141.0594651326537L171.85273437499998,163.0855837315321L172.09342447916666,158.0111714489758L172.33411458333333,154.27733729034662L172.5748046875,171.0648852623999L172.81549479166668,164.11025463044643L173.05618489583333,141.76536051928997L173.296875,155.3362001515925L173.53756510416667,109.49050864577293L173.77825520833335,141.4858574643731L174.01894531250002,124.38886085897684L174.25963541666667,111.86696047335863L174.50032552083331,140.5617150887847L174.741015625,157.16049349308014L174.98170572916666,171.5961036030203L175.22239583333334,171.61622117646039L175.4630859375,152.50816122069955L175.70377604166666,175.32028119452298L175.94446614583333,117.10306832939386L176.18515625,155.73003907129169L176.42584635416668,128.62671243399382L176.66653645833335,174.70390604250133L176.9072265625,174.48536727949977L177.14791666666665,166.93646379187703L177.38860677083332,168.4457103945315L177.629296875,179.90094914473593L177.86998697916667,173.66082535497844L178.11067708333334,135.24091033637524L178.35136718750002,156.44214248657227L178.59205729166666,165.60350146517158L178.83274739583334,136.25034964084625L179.0734375,190.27187310531735L179.31412760416666,146.7445522584021L179.55481770833333,154.70487364009023L179.7955078125,187.0214236518368L180.03619791666665,181.55984616279602L180.27688802083333,172.1011199746281L180.517578125,161.97097059711814L180.75826822916667,148.52651693299413L180.99895833333335,173.73084453307092L181.2396484375,155.13425294682384L181.48033854166667,160.82650419697165L181.72102864583334,155.24373580142856L181.96171875,96.347436144948L182.20240885416666,145.9897904880345L182.44309895833334,166.0989436917007L182.68378906249998,174.9206166844815L182.92447916666666,141.78836616128683L183.16516927083333,132.06619767844677L183.405859375,130.46890454739332L183.64654947916668,97.80728886276484L183.88723958333335,149.60544132068753L184.1279296875,147.0299402475357L184.36861979166665,146.0546434521675L184.60930989583332,184.31189361400902L184.85,83.52493925392628L185.09069010416667,135.68108363449574L185.33138020833334,121.2164164558053L185.5720703125,98.71395776420832L185.81276041666666,54.100057169795036L186.05345052083334,128.8629867732525L186.294140625,122.08332496136427L186.53483072916669,78.82983653247356L186.77552083333333,174.795920368284L187.01621093749998,111.54548151791096L187.25690104166665,121.8183479681611L187.49759114583333,159.8064258545637L187.73828125,149.58251810073853L187.97897135416667,159.32536792382598L188.21966145833332,49.17193083465099L188.4603515625,115.84900698065758L188.70104166666667,161.70510344579816L188.94173177083334,173.5792819261551L189.18242187500002,158.8728148341179L189.4231119791667,175.40207024104893L189.6638020833333,132.3500987738371L189.90449218749998,133.4050284549594L190.14518229166666,151.40786314755678L190.38587239583333,142.16668336093426L190.6265625,141.68140871822834L190.86725260416668,139.63088004291058L191.10794270833333,143.2058341652155L191.3486328125,151.28800500556827L191.58932291666667,165.2770771868527L191.83001302083335,132.2853941693902L192.07070312500002,193.21590911736712L192.31139322916667,145.68259692192078L192.55208333333331,183.56554383784533L192.7927734375,136.69465722888708L193.03346354166666,123.02760469168425L193.27415364583334,111.52871357649565L193.51484375,158.52984020859003L193.75553385416666,175.77321507409215L193.99622395833333,169.41398812830448L194.2369140625,176.92691933736205L194.47760416666668,128.59344030171633L194.71829427083335,128.1392684429884L194.958984375,177.45775359123945L195.19967447916665,157.31165882572532L195.44036458333332,155.0620083734393L195.6810546875,173.9658017680049L195.92174479166667,149.38502498343587L196.16243489583334,123.49314419925213L196.40312500000002,186.79195984639227L196.64381510416666,120.05680418014526L196.88450520833334,176.61426778323948L197.1251953125,82.32724799215794L197.36588541666666,137.0448718070984L197.60657552083333,152.99251933023334L197.847265625,138.96626821160316L198.08795572916665,126.92096507549286L198.32864583333333,119.546545766294L198.5693359375,137.93969171494246L198.81002604166667,151.15703966841102L199.05071614583335,145.12200501188636L199.29140625,174.34993631578982L199.53209635416667,164.9622843079269L199.77278645833334,134.33041045814753L200.0134765625,134.9971125125885L200.25416666666666,166.69151205942035L200.49485677083334,111.67225981503725L200.73554687499998,160.99299343675375L200.97623697916666,170.81286831200123L201.21692708333333,159.15275637432933L201.4576171875,51.149506106972694L201.69830729166668,143.7290691062808L201.93899739583335,161.48681359738111L202.1796875,64.81199575960636L202.42037760416665,117.75926651805639L202.66106770833332,161.1049324683845L202.9017578125,180.02257771231234L203.14244791666667,161.89837985113263L203.38313802083334,136.30850004404783L203.623828125,172.66434939019382L203.86451822916666,139.39827843010426L204.10520833333334,163.47519604861736L204.3458984375,161.70264726877213L204.58658854166669,171.66868940368295L204.82727864583333,122.00715380162L205.06796874999998,135.67185236513615L205.30865885416665,140.05194461345673L205.54934895833333,176.83341646939516L205.7900390625,134.15690215677023L206.03072916666667,163.06134505569935L206.27141927083332,168.8486223332584L206.512109375,121.66797059029341L206.75279947916667,134.12012873589993L206.99348958333334,101.54284069687128L207.23417968750002,159.36781857535243L207.4748697916667,182.0725574567914L207.7155598958333,146.28968146070838L207.95624999999998,165.83044892549515L208.19694010416666,145.0558135136962L208.43763020833333,166.72309289127588L208.6783203125,134.16761042922735L208.91901041666668,147.58941781148314L209.15970052083333,180.67125571332872L209.400390625,173.9535752814263L209.64108072916667,179.6265101004392L209.88177083333335,176.04831349477172L210.12246093750002,187.04859655257314L210.36315104166667,146.5374652147293L210.60384114583331,138.47448552399874L210.84453125,183.63444702140987L211.08522135416666,179.91967873089015L211.32591145833334,167.34322978556156L211.5666015625,162.463811583817L211.80729166666666,180.37734363600612L212.04798177083333,165.78763891384006L212.288671875,164.17248987033963L212.52936197916668,118.71983943879604L212.77005208333335,126.24615928530693L213.0107421875,53.047877088189125L213.25143229166665,160.0975042618811L213.49212239583332,166.08445059880614L213.7328125,166.30007326975465L213.97350260416667,147.61267401650548L214.21419270833334,119.99225123226643L214.45488281250002,171.11468466371298L214.69557291666666,155.17619917541742L214.93626302083334,147.99495736509562L215.176953125,154.3427639119327L215.41764322916666,133.51528937369585L215.65833333333333,176.11431871913373L215.8990234375,121.10191574692726L216.13971354166665,161.07815189659595L216.38040364583333,169.41950381174684L216.62109375,129.37000764906406L216.86178385416667,151.8695420064032L217.10247395833335,130.66694824397564L217.3431640625,136.21036505699158L217.58385416666667,149.1467922963202L217.82454427083334,161.64057357609272L218.065234375,147.561123970896L218.30592447916666,164.89556530863047L218.54661458333334,145.11357818171382L218.78730468749998,133.06847615540028L219.02799479166666,122.43411319702864L219.26868489583333,170.6838184632361L219.509375,181.69263962097466L219.75006510416668,154.2003122381866L219.99075520833335,74.739263266325L220.2314453125,116.11048927903175L220.47213541666665,118.47237548232079L220.71282552083332,173.93861403129995L220.953515625,141.14922603964806L221.19420572916667,143.4083550274372L221.43489583333334,188.5700267823413L221.6755859375,192.28029235638678L221.91627604166666,159.33536736667156L222.15696614583334,148.2570495866239L222.39765625,146.4533518664539L222.63834635416669,151.32578067854047L222.87903645833333,140.7629303857684L223.11972656249998,148.87266975268722L223.36041666666665,150.64940886944532L223.60110677083333,167.48098340258002L223.841796875,154.45135990530252L224.08248697916667,168.8381580300629L224.32317708333332,174.6240671016276L224.5638671875,118.66505844891071L224.80455729166667,167.4705092087388L225.04524739583334,173.19998555257916L225.28593750000002,139.67743201553822L225.5266276041667,158.4766680970788L225.7673177083333,181.77790522947907L226.00800781249998,130.0187944471836L226.24869791666666,140.19550403952599L226.48938802083333,121.3619671985507L226.730078125,112.8808901309967L226.97076822916668,132.05455968528986L227.21145833333333,116.31819943338633L227.4521484375,193.27013252209872L227.69283854166667,101.52071861922741L227.93352864583335,93.67884101718664L228.17421875000002,141.49982964992523L228.41490885416667,111.7907497510314L228.65559895833331,161.08698424324393L228.8962890625,164.2853421382606L229.13697916666666,108.41132710129023L229.37766927083334,184.01002945750952L229.618359375,158.70845538005233L229.85904947916666,143.766422778368L230.09973958333333,166.4546376876533L230.3404296875,153.0571481063962L230.58111979166668,136.7234126329422L230.82180989583335,78.46770702302456L231.0625,167.67041894048452L231.30319010416665,81.89647740125656L231.54388020833332,151.16099592670798L231.7845703125,167.72823306173086L232.02526041666667,162.7292633280158L232.26595052083334,134.82419105619192L232.50664062500002,140.58035565912724L232.74733072916666,161.91000135987997L232.98802083333334,135.51451856642962L233.2287109375,145.2138198763132L233.46940104166666,167.62863755598664L233.71009114583333,156.99992215633392L233.95078125,111.95730163156986L234.19147135416665,189.71965033002198L234.43216145833333,175.86411670222878L234.6728515625,175.69561306759715L234.91354166666667,159.4633226506412L235.15423177083335,157.70002162456512L235.394921875,112.29188239574432L235.63561197916667,153.06652773544192L235.87630208333334,146.14120308682323L236.1169921875,147.15867359563708L236.35768229166666,141.35341512411833L236.59837239583334,162.52139162644744L236.83906249999998,136.14810673892498L237.07975260416666,160.22114063054323L237.32044270833333,156.51414968445897L237.5611328125,144.51099718362093L237.80182291666668,156.11841505765915L238.04251302083335,176.4786423034966L238.283203125,146.2743179909885L238.52389322916665,147.44514955580235L238.76458333333332,175.4946911931038L239.0052734375,131.89919082820415L239.24596354166667,171.2243554405868L239.48665364583334,149.90911052003503L239.72734375,143.6306176185608L239.96803385416666,116.12231189757586L240.20872395833334,173.91584741324186L240.4494140625,154.79232013598084L240.69010416666669,154.26319696381688L240.93079427083333,166.5485823377967L241.17148437499998,173.54724447615445L241.41217447916665,136.28991881757975L241.65286458333333,161.80721117556095L241.8935546875,165.56137720495462L242.13424479166667,188.78377023059875L242.37493489583332,112.55077993869781L242.615625,122.86043299734592L242.85631510416667,179.03141137585044L243.09700520833334,138.10977785289288L243.33769531250002,166.17515771090984L243.5783854166667,170.77554760873318L243.8190755208333,128.34656978398561L244.05976562499998,164.9579719863832L244.30045572916666,125.6100127324462L244.54114583333333,121.11956725269556L244.7818359375,154.04936120286584L245.02252604166668,169.02067341282964L245.26321614583333,159.1805424951017L245.50390625,149.05982055142522L245.74459635416667,178.02591184526682L245.98528645833335,127.88203252851963L246.22597656250002,181.5710934754461L246.46666666666667,139.01877435296774L246.70735677083331,111.55140271782875L246.948046875,193.79198648175225L247.18873697916666,147.5755313448608L247.42942708333334,174.55443530716002L247.6701171875,127.95457711815834L247.91080729166666,138.22461484372616L248.15149739583333,186.42570593766868L248.3921875,155.68418933451176L248.63287760416668,129.50349839776754L248.87356770833335,175.90774434059858L249.1142578125,163.6148091070354L249.35494791666665,115.92825742810965L249.59563802083332,133.42479655891657L249.836328125,172.95839004591107L250.07701822916667,92.64092984050512L250.31770833333334,145.22973722219467L250.55839843750002,186.95950903370976L250.79908854166666,191.34491173457354L251.03977864583334,144.18537404760718L251.28046875,169.18452844396234L251.52115885416666,111.96123151481152L251.76184895833333,156.2928003296256L252.0025390625,143.7939385548234L252.24322916666665,119.40202365070581L252.48391927083333,150.55695440992713L252.724609375,122.89919114112854L252.96529947916667,130.35789193958044L253.20598958333335,140.2612636461854L253.4466796875,140.41925022751093L253.68736979166667,149.63865410909057L253.92805989583334,132.43702436238527L254.16875,163.67696192488074L254.40944010416666,146.6446105800569L254.65013020833334,158.19534186646342L254.89082031249998,135.9976897984743L255.13151041666666,157.77605101838708L255.37220052083333,107.16299573332071L255.612890625,167.74470098689198L255.85358072916668,97.82751193642616L256.0942708333333,151.7577282562852L256.3349609375,148.23359556868672L256.5756510416667,165.57376029342413L256.81634114583335,104.13541632145643L257.05703125,147.5611701272428L257.2977213541667,178.78636897914112L257.53841145833337,127.16020001471043L257.7791015625,139.05256079882383L258.01979166666666,123.26952329277992L258.26048177083334,136.3096341714263L258.501171875,158.3228191025555L258.7418619791667,170.2880409769714L258.9825520833333,160.55330478027463L259.2232421875,134.7122355401516L259.46393229166665,97.67898740619421L259.7046223958333,171.9972648974508L259.9453125,157.76720878109336L260.1860026041667,153.5096583366394L260.4266927083333,126.98133098334074L260.66738281249997,156.40673727169633L260.90807291666664,119.94242875277996L261.1487630208333,182.03641044348478L261.389453125,120.99105479568243L261.63014322916666,136.3061856329441L261.87083333333334,134.3248057588935L262.1115234375,155.0265602990985L262.3522135416667,131.6431681662798L262.59290364583336,186.8772823261097L262.83359375000003,164.40912686660886L263.0742838541667,167.67471477761865L263.3149739583333,182.17925279773772L263.5556640625,169.55959491804242L263.7963541666667,162.94972252473235L264.03704427083335,174.02213558927178L264.277734375,194.26752666849643L264.5184244791667,142.65921114385128" style="fill: none;" fill="none"></path></g></g></g></g></g></g><g transform="translate(41, 177)" clip-path="url(#clip_1)"><clipPath id="clip_1"><rect width="288" height="23"></rect></clipPath><g><g><line x1="0" y1="0" x2="0" y2="5" style="visibility: inherit;" fill="rgb(0, 0, 0)" stroke="rgb(204, 204, 204)" stroke-width="1px"></line><line x1="24.069010416666664" y1="0" x2="24.069010416666664" y2="5" style="visibility: inherit;" fill="rgb(0, 0, 0)" stroke="rgb(204, 204, 204)" stroke-width="1px"></line><line x1="48.13802083333333" y1="0" x2="48.13802083333333" y2="5" style="visibility: inherit;" fill="rgb(0, 0, 0)" stroke="rgb(204, 204, 204)" stroke-width="1px"></line><line x1="72.20703125" y1="0" x2="72.20703125" y2="5" style="visibility: inherit;" fill="rgb(0, 0, 0)" stroke="rgb(204, 204, 204)" stroke-width="1px"></line><line x1="96.27604166666666" y1="0" x2="96.27604166666666" y2="5" style="visibility: inherit;" fill="rgb(0, 0, 0)" stroke="rgb(204, 204, 204)" stroke-width="1px"></line><line x1="120.34505208333334" y1="0" x2="120.34505208333334" y2="5" style="visibility: inherit;" fill="rgb(0, 0, 0)" stroke="rgb(204, 204, 204)" stroke-width="1px"></line><line x1="144.4140625" y1="0" x2="144.4140625" y2="5" style="visibility: inherit;" fill="rgb(0, 0, 0)" stroke="rgb(204, 204, 204)" stroke-width="1px"></line><line x1="168.48307291666669" y1="0" x2="168.48307291666669" y2="5" style="visibility: inherit;" fill="rgb(0, 0, 0)" stroke="rgb(204, 204, 204)" stroke-width="1px"></line><line x1="192.55208333333331" y1="0" x2="192.55208333333331" y2="5" style="visibility: inherit;" fill="rgb(0, 0, 0)" stroke="rgb(204, 204, 204)" stroke-width="1px"></line><line x1="216.62109375" y1="0" x2="216.62109375" y2="5" style="visibility: inherit;" fill="rgb(0, 0, 0)" stroke="rgb(204, 204, 204)" stroke-width="1px"></line><line x1="240.69010416666669" y1="0" x2="240.69010416666669" y2="5" style="visibility: inherit;" fill="rgb(0, 0, 0)" stroke="rgb(204, 204, 204)" stroke-width="1px"></line><line x1="264.7591145833333" y1="0" x2="264.7591145833333" y2="5" style="visibility: inherit;" fill="rgb(0, 0, 0)" stroke="rgb(204, 204, 204)" stroke-width="1px"></line><line x1="288.828125" y1="0" x2="288.828125" y2="5" style="visibility: inherit;" fill="rgb(0, 0, 0)" stroke="rgb(204, 204, 204)" stroke-width="1px"></line></g><g transform="translate(0, 8)"><text x="0" y="0" dx="0em" dy="0.95em" style="text-anchor: middle; visibility: hidden; font-family: Roboto, sans-serif; font-size: 12px; font-weight: 200;" fill="rgb(33, 33, 33)" stroke="none" stroke-width="1px">-100</text><text x="24.069010416666664" y="0" dx="0em" dy="0.95em" style="text-anchor: middle; visibility: inherit; font-family: Roboto, sans-serif; font-size: 12px; font-weight: 200;" fill="rgb(33, 33, 33)" stroke="none" stroke-width="1px">0</text><text x="48.13802083333333" y="0" dx="0em" dy="0.95em" style="text-anchor: middle; visibility: hidden; font-family: Roboto, sans-serif; font-size: 12px; font-weight: 200;" fill="rgb(33, 33, 33)" stroke="none" stroke-width="1px">100</text><text x="72.20703125" y="0" dx="0em" dy="0.95em" style="text-anchor: middle; visibility: inherit; font-family: Roboto, sans-serif; font-size: 12px; font-weight: 200;" fill="rgb(33, 33, 33)" stroke="none" stroke-width="1px">200</text><text x="96.27604166666666" y="0" dx="0em" dy="0.95em" style="text-anchor: middle; visibility: hidden; font-family: Roboto, sans-serif; font-size: 12px; font-weight: 200;" fill="rgb(33, 33, 33)" stroke="none" stroke-width="1px">300</text><text x="120.34505208333334" y="0" dx="0em" dy="0.95em" style="text-anchor: middle; visibility: inherit; font-family: Roboto, sans-serif; font-size: 12px; font-weight: 200;" fill="rgb(33, 33, 33)" stroke="none" stroke-width="1px">400</text><text x="144.4140625" y="0" dx="0em" dy="0.95em" style="text-anchor: middle; visibility: hidden; font-family: Roboto, sans-serif; font-size: 12px; font-weight: 200;" fill="rgb(33, 33, 33)" stroke="none" stroke-width="1px">500</text><text x="168.48307291666669" y="0" dx="0em" dy="0.95em" style="text-anchor: middle; visibility: inherit; font-family: Roboto, sans-serif; font-size: 12px; font-weight: 200;" fill="rgb(33, 33, 33)" stroke="none" stroke-width="1px">600</text><text x="192.55208333333331" y="0" dx="0em" dy="0.95em" style="text-anchor: middle; visibility: hidden; font-family: Roboto, sans-serif; font-size: 12px; font-weight: 200;" fill="rgb(33, 33, 33)" stroke="none" stroke-width="1px">700</text><text x="216.62109375" y="0" dx="0em" dy="0.95em" style="text-anchor: middle; visibility: inherit; font-family: Roboto, sans-serif; font-size: 12px; font-weight: 200;" fill="rgb(33, 33, 33)" stroke="none" stroke-width="1px">800</text><text x="240.69010416666669" y="0" dx="0em" dy="0.95em" style="text-anchor: middle; visibility: hidden; font-family: Roboto, sans-serif; font-size: 12px; font-weight: 200;" fill="rgb(33, 33, 33)" stroke="none" stroke-width="1px">900</text><text x="264.7591145833333" y="0" dx="0em" dy="0.95em" style="text-anchor: middle; visibility: inherit; font-family: Roboto, sans-serif; font-size: 12px; font-weight: 200;" fill="rgb(33, 33, 33)" stroke="none" stroke-width="1px">1k</text><text x="288.828125" y="0" dx="0em" dy="0.95em" style="text-anchor: middle; visibility: hidden; font-family: Roboto, sans-serif; font-size: 12px; font-weight: 200;" fill="rgb(33, 33, 33)" stroke="none" stroke-width="1px">1.1k</text></g><line x1="0" y1="0" x2="288.828125" y2="0" fill="rgb(0, 0, 0)" stroke="rgb(204, 204, 204)" stroke-width="1px"></line></g></g></g></g></svg>